G04 #@! TF.GenerationSoftware,KiCad,Pcbnew,(5.1.6)-1*
G04 #@! TF.CreationDate,2020-10-02T12:38:06+08:00*
G04 #@! TF.ProjectId,Galia,47616c69-612e-46b6-9963-61645f706362,rev?*
G04 #@! TF.SameCoordinates,Original*
G04 #@! TF.FileFunction,Paste,Bot*
G04 #@! TF.FilePolarity,Positive*
%FSLAX46Y46*%
G04 Gerber Fmt 4.6, Leading zero omitted, Abs format (unit mm)*
G04 Created by KiCad (PCBNEW (5.1.6)-1) date 2020-10-02 12:38:06*
%MOMM*%
%LPD*%
G01*
G04 APERTURE LIST*
%ADD10R,2.550000X2.500000*%
%ADD11C,0.100000*%
%ADD12R,0.800000X0.600000*%
%ADD13R,0.800000X0.300000*%
%ADD14R,1.200000X0.900000*%
%ADD15R,1.000000X1.700000*%
G04 APERTURE END LIST*
D10*
X248142001Y-117157500D03*
X235215001Y-119697500D03*
D11*
G36*
X331237442Y-126352112D02*
G01*
X330198212Y-125752112D01*
X330648212Y-124972690D01*
X331687442Y-125572690D01*
X331237442Y-126352112D01*
G37*
G36*
X332887442Y-123494228D02*
G01*
X331848212Y-122894228D01*
X332298212Y-122114806D01*
X333337442Y-122714806D01*
X332887442Y-123494228D01*
G37*
G36*
X324697252Y-134839057D02*
G01*
X323447252Y-137004121D01*
X321238888Y-135729121D01*
X322488888Y-133564057D01*
X324697252Y-134839057D01*
G37*
G36*
X312232142Y-130575261D02*
G01*
X310982142Y-132740325D01*
X308773778Y-131465325D01*
X310023778Y-129300261D01*
X312232142Y-130575261D01*
G37*
G36*
X321712442Y-142849901D02*
G01*
X320673212Y-142249901D01*
X321123212Y-141470479D01*
X322162442Y-142070479D01*
X321712442Y-142849901D01*
G37*
G36*
X323362442Y-139992017D02*
G01*
X322323212Y-139392017D01*
X322773212Y-138612595D01*
X323812442Y-139212595D01*
X323362442Y-139992017D01*
G37*
G36*
X334222252Y-118341268D02*
G01*
X332972252Y-120506332D01*
X330763888Y-119231332D01*
X332013888Y-117066268D01*
X334222252Y-118341268D01*
G37*
G36*
X321757142Y-114077472D02*
G01*
X320507142Y-116242536D01*
X318298778Y-114967536D01*
X319548778Y-112802472D01*
X321757142Y-114077472D01*
G37*
G36*
X315172251Y-151332811D02*
G01*
X313922251Y-153497875D01*
X311713887Y-152222875D01*
X312963887Y-150057811D01*
X315172251Y-151332811D01*
G37*
G36*
X302707141Y-147069015D02*
G01*
X301457141Y-149234079D01*
X299248777Y-147959079D01*
X300498777Y-145794015D01*
X302707141Y-147069015D01*
G37*
G36*
X312187442Y-159347685D02*
G01*
X311148212Y-158747685D01*
X311598212Y-157968263D01*
X312637442Y-158568263D01*
X312187442Y-159347685D01*
G37*
G36*
X313837442Y-156489801D02*
G01*
X312798212Y-155889801D01*
X313248212Y-155110379D01*
X314287442Y-155710379D01*
X313837442Y-156489801D01*
G37*
D12*
X330750000Y-89718750D03*
X330750000Y-83318750D03*
X330750000Y-84118750D03*
X330750000Y-88918750D03*
D13*
X330750000Y-87268750D03*
X330750000Y-85768750D03*
X330750000Y-86768750D03*
X330750000Y-86268750D03*
X330750000Y-85268750D03*
X330750000Y-84768750D03*
X330750000Y-87768750D03*
X330750000Y-88268750D03*
D12*
X57600000Y-83318750D03*
X57600000Y-89718750D03*
X57600000Y-88918750D03*
X57600000Y-84118750D03*
D13*
X57600000Y-85768750D03*
X57600000Y-87268750D03*
X57600000Y-86268750D03*
X57600000Y-86768750D03*
X57600000Y-87768750D03*
X57600000Y-88268750D03*
X57600000Y-85268750D03*
X57600000Y-84768750D03*
D11*
G36*
X292319844Y-141859358D02*
G01*
X291993528Y-144337970D01*
X289465344Y-144005128D01*
X289791660Y-141526516D01*
X292319844Y-141859358D01*
G37*
G36*
X279171900Y-142690316D02*
G01*
X278845584Y-145168928D01*
X276317400Y-144836086D01*
X276643716Y-142357474D01*
X279171900Y-142690316D01*
G37*
G36*
X292780322Y-150403818D02*
G01*
X291590588Y-150247186D01*
X291708062Y-149354886D01*
X292897796Y-149511518D01*
X292780322Y-150403818D01*
G37*
G36*
X293211058Y-147132050D02*
G01*
X292021324Y-146975418D01*
X292138798Y-146083118D01*
X293328532Y-146239750D01*
X293211058Y-147132050D01*
G37*
D10*
X286242000Y-98107499D03*
X273315000Y-100647499D03*
D14*
X288337501Y-104837501D03*
X288337501Y-101537501D03*
D11*
G36*
X302825871Y-133131543D02*
G01*
X301666760Y-132820960D01*
X301899697Y-131951627D01*
X303058808Y-132262210D01*
X302825871Y-133131543D01*
G37*
G36*
X303679973Y-129943987D02*
G01*
X302520862Y-129633404D01*
X302753799Y-128764071D01*
X303912910Y-129074654D01*
X303679973Y-129943987D01*
G37*
G36*
X303788705Y-124876958D02*
G01*
X303141658Y-127291773D01*
X300678547Y-126631784D01*
X301325594Y-124216969D01*
X303788705Y-124876958D01*
G37*
G36*
X290644782Y-123984655D02*
G01*
X289997735Y-126399470D01*
X287534624Y-125739481D01*
X288181671Y-123324666D01*
X290644782Y-123984655D01*
G37*
D10*
X305291998Y-82232500D03*
X292364998Y-84772500D03*
D14*
X307387500Y-88962500D03*
X307387500Y-85662500D03*
D10*
X305292000Y-63182501D03*
X292365000Y-65722501D03*
D14*
X307387499Y-69912499D03*
X307387499Y-66612499D03*
D10*
X286242000Y-79057499D03*
X273315000Y-81597499D03*
X189992000Y-121920000D03*
X177065000Y-124460000D03*
X210042000Y-45720000D03*
X197115000Y-48260000D03*
D14*
X212137500Y-52450000D03*
X212137500Y-49150000D03*
D10*
X170942000Y-102870000D03*
X158015000Y-105410000D03*
D15*
X68743750Y-84162500D03*
X68743750Y-90462500D03*
X72543750Y-84162500D03*
X72543750Y-90462500D03*
X317393750Y-84162500D03*
X317393750Y-90462500D03*
X321193750Y-84162500D03*
X321193750Y-90462500D03*
D10*
X189992000Y-102870000D03*
X177065000Y-105410000D03*
X189992000Y-83820000D03*
X177065000Y-86360000D03*
X189992000Y-64770000D03*
X177065000Y-67310000D03*
X189992000Y-45720000D03*
X177065000Y-48260000D03*
X170942000Y-121920000D03*
X158015000Y-124460000D03*
X170942000Y-83820000D03*
X158015000Y-86360000D03*
X170942000Y-64770000D03*
X158015000Y-67310000D03*
X170942000Y-45720000D03*
X158015000Y-48260000D03*
X151892000Y-117157500D03*
X138965000Y-119697500D03*
X151892000Y-98107500D03*
X138965000Y-100647500D03*
X151892000Y-79057500D03*
X138965000Y-81597500D03*
X151892000Y-60007500D03*
X138965000Y-62547500D03*
X151892000Y-40957500D03*
X138965000Y-43497500D03*
X120142000Y-121920000D03*
X107215000Y-124460000D03*
X132842000Y-94138750D03*
X119915000Y-96678750D03*
X132842000Y-75088750D03*
X119915000Y-77628750D03*
X132842000Y-56038750D03*
X119915000Y-58578750D03*
X132842000Y-36988750D03*
X119915000Y-39528750D03*
X113792000Y-98107500D03*
X100865000Y-100647500D03*
X113792000Y-79057500D03*
X100865000Y-81597500D03*
X113792000Y-60007500D03*
X100865000Y-62547500D03*
X113792000Y-40957500D03*
X100865000Y-43497500D03*
X94742000Y-101282500D03*
X81815000Y-103822500D03*
X94742000Y-82232500D03*
X81815000Y-84772500D03*
X94742000Y-63182500D03*
X81815000Y-65722500D03*
X94742000Y-44132500D03*
X81815000Y-46672500D03*
X305292000Y-101282500D03*
X292365000Y-103822500D03*
X305292001Y-44132500D03*
X292365001Y-46672500D03*
X286241999Y-60007500D03*
X273314999Y-62547500D03*
X286241999Y-40957500D03*
X273314999Y-43497500D03*
X279892000Y-121920000D03*
X266965000Y-124460000D03*
X267192001Y-94138750D03*
X254265001Y-96678750D03*
X267192001Y-75088749D03*
X254265001Y-77628749D03*
X267192000Y-56038751D03*
X254265000Y-58578751D03*
X267192001Y-36988750D03*
X254265001Y-39528750D03*
X248142000Y-98107499D03*
X235215000Y-100647499D03*
X248142000Y-79057499D03*
X235215000Y-81597499D03*
X248142000Y-60007501D03*
X235215000Y-62547501D03*
X248142000Y-40957501D03*
X235215000Y-43497501D03*
X229091999Y-121920002D03*
X216164999Y-124460002D03*
X229091999Y-102870000D03*
X216164999Y-105410000D03*
X229092001Y-83820000D03*
X216165001Y-86360000D03*
X229091999Y-64770000D03*
X216164999Y-67310000D03*
X229092000Y-45719999D03*
X216165000Y-48259999D03*
X210042001Y-121919999D03*
X197115001Y-124459999D03*
X210042001Y-102870000D03*
X197115001Y-105410000D03*
X210042001Y-83820000D03*
X197115001Y-86360000D03*
X210042000Y-64770001D03*
X197115000Y-67310001D03*
G36*
G01*
X70406250Y-79643750D02*
X70881250Y-79643750D01*
G75*
G02*
X71118750Y-79881250I0J-237500D01*
G01*
X71118750Y-80456250D01*
G75*
G02*
X70881250Y-80693750I-237500J0D01*
G01*
X70406250Y-80693750D01*
G75*
G02*
X70168750Y-80456250I0J237500D01*
G01*
X70168750Y-79881250D01*
G75*
G02*
X70406250Y-79643750I237500J0D01*
G01*
G37*
G36*
G01*
X70406250Y-81393750D02*
X70881250Y-81393750D01*
G75*
G02*
X71118750Y-81631250I0J-237500D01*
G01*
X71118750Y-82206250D01*
G75*
G02*
X70881250Y-82443750I-237500J0D01*
G01*
X70406250Y-82443750D01*
G75*
G02*
X70168750Y-82206250I0J237500D01*
G01*
X70168750Y-81631250D01*
G75*
G02*
X70406250Y-81393750I237500J0D01*
G01*
G37*
G36*
G01*
X319056250Y-79562500D02*
X319531250Y-79562500D01*
G75*
G02*
X319768750Y-79800000I0J-237500D01*
G01*
X319768750Y-80375000D01*
G75*
G02*
X319531250Y-80612500I-237500J0D01*
G01*
X319056250Y-80612500D01*
G75*
G02*
X318818750Y-80375000I0J237500D01*
G01*
X318818750Y-79800000D01*
G75*
G02*
X319056250Y-79562500I237500J0D01*
G01*
G37*
G36*
G01*
X319056250Y-81312500D02*
X319531250Y-81312500D01*
G75*
G02*
X319768750Y-81550000I0J-237500D01*
G01*
X319768750Y-82125000D01*
G75*
G02*
X319531250Y-82362500I-237500J0D01*
G01*
X319056250Y-82362500D01*
G75*
G02*
X318818750Y-82125000I0J237500D01*
G01*
X318818750Y-81550000D01*
G75*
G02*
X319056250Y-81312500I237500J0D01*
G01*
G37*
D14*
X192087500Y-128650000D03*
X192087500Y-125350000D03*
X192087500Y-109600000D03*
X192087500Y-106300000D03*
X192087500Y-90550000D03*
X192087500Y-87250000D03*
X192087500Y-71500000D03*
X192087500Y-68200000D03*
X192087500Y-52450000D03*
X192087500Y-49150000D03*
X173037500Y-128650000D03*
X173037500Y-125350000D03*
X173037500Y-109600000D03*
X173037500Y-106300000D03*
X173037500Y-90550000D03*
X173037500Y-87250000D03*
X173037500Y-71500000D03*
X173037500Y-68200000D03*
X173037500Y-52450000D03*
X173037500Y-49150000D03*
X153987500Y-123887500D03*
X153987500Y-120587500D03*
X153987500Y-104837500D03*
X153987500Y-101537500D03*
X153987500Y-85787500D03*
X153987500Y-82487500D03*
X153987500Y-66737500D03*
X153987500Y-63437500D03*
X153987500Y-47687500D03*
X153987500Y-44387500D03*
X122237500Y-128650000D03*
X122237500Y-125350000D03*
X134937500Y-100868750D03*
X134937500Y-97568750D03*
X134937500Y-81818750D03*
X134937500Y-78518750D03*
X134937500Y-62768750D03*
X134937500Y-59468750D03*
X134937500Y-43718750D03*
X134937500Y-40418750D03*
X115887500Y-104837500D03*
X115887500Y-101537500D03*
X115887500Y-85787500D03*
X115887500Y-82487500D03*
X115887500Y-66737500D03*
X115887500Y-63437500D03*
X115887500Y-47687500D03*
X115887500Y-44387500D03*
X96837500Y-108012500D03*
X96837500Y-104712500D03*
X96837500Y-88962500D03*
X96837500Y-85662500D03*
X96837500Y-69912500D03*
X96837500Y-66612500D03*
X96837500Y-50862500D03*
X96837500Y-47562500D03*
X307387501Y-108012500D03*
X307387501Y-104712500D03*
X307387499Y-50862501D03*
X307387499Y-47562501D03*
X288337500Y-85787500D03*
X288337500Y-82487500D03*
X288337500Y-66737499D03*
X288337500Y-63437499D03*
X288337500Y-47687499D03*
X288337500Y-44387499D03*
X281987500Y-128650001D03*
X281987500Y-125350001D03*
X269287500Y-100868750D03*
X269287500Y-97568750D03*
X269287500Y-81818750D03*
X269287500Y-78518750D03*
X269287499Y-62768749D03*
X269287499Y-59468749D03*
X269287500Y-43718751D03*
X269287500Y-40418751D03*
X250237500Y-123887501D03*
X250237500Y-120587501D03*
X250237501Y-104837500D03*
X250237501Y-101537500D03*
X250237500Y-85787500D03*
X250237500Y-82487500D03*
X250237501Y-66737500D03*
X250237501Y-63437500D03*
X250237500Y-47687500D03*
X250237500Y-44387500D03*
X231200000Y-128650000D03*
X231200000Y-125350000D03*
X231187500Y-109600001D03*
X231187500Y-106300001D03*
X231187500Y-90550001D03*
X231187500Y-87250001D03*
X231187500Y-71500000D03*
X231187500Y-68200000D03*
X231187500Y-52450000D03*
X231187500Y-49150000D03*
X212137500Y-128649999D03*
X212137500Y-125349999D03*
X212137499Y-109600000D03*
X212137499Y-106300000D03*
X212137500Y-90549999D03*
X212137500Y-87249999D03*
X212137500Y-71499999D03*
X212137500Y-68199999D03*
M02*
