M48
; DRILL file {KiCad (5.1.6)-1} date 10/06/20 00:54:29
; FORMAT={-:-/ absolute / inch / decimal}
; #@! TF.CreationDate,2020-10-06T00:54:29+08:00
; #@! TF.GenerationSoftware,Kicad,Pcbnew,(5.1.6)-1
; #@! TF.FileFunction,NonPlated,1,2,NPTH
FMAT,2
INCH
T1C0.0118
T2C0.0591
T3C0.0748
T4C0.1181
T5C0.1614
%
G90
G05
T1
X7.625Y-4.9065
X7.625Y-4.9299
X7.625Y-4.9532
X7.625Y-4.9766
X7.625Y-5.0
X7.625Y-5.0234
X7.625Y-5.0468
X7.625Y-5.0701
X7.625Y-5.0935
X7.6875Y-4.1565
X7.6875Y-4.1799
X7.6875Y-4.2032
X7.6875Y-4.2266
X7.6875Y-4.25
X7.6875Y-4.2734
X7.6875Y-4.2968
X7.6875Y-4.3201
X7.6875Y-4.3435
X7.6875Y-4.9065
X7.6875Y-4.9299
X7.6875Y-4.9532
X7.6875Y-4.9766
X7.6875Y-5.0
X7.6875Y-5.0234
X7.6875Y-5.0468
X7.6875Y-5.0701
X7.6875Y-5.0935
X7.6875Y-1.9065
X7.6875Y-1.9299
X7.6875Y-1.9532
X7.6875Y-1.9766
X7.6875Y-2.0
X7.6875Y-2.0234
X7.6875Y-2.0468
X7.6875Y-2.0701
X7.6875Y-2.0935
X7.625Y-1.9065
X7.625Y-1.9299
X7.625Y-1.9532
X7.625Y-1.9766
X7.625Y-2.0
X7.625Y-2.0234
X7.625Y-2.0468
X7.625Y-2.0701
X7.625Y-2.0935
X7.625Y-2.6565
X7.625Y-2.6799
X7.625Y-2.7032
X7.625Y-2.7266
X7.625Y-2.75
X7.625Y-2.7734
X7.625Y-2.7968
X7.625Y-2.8201
X7.625Y-2.8435
X7.625Y-3.4065
X7.625Y-3.4299
X7.625Y-3.4532
X7.625Y-3.4766
X7.625Y-3.5
X7.625Y-3.5234
X7.625Y-3.5468
X7.625Y-3.5701
X7.625Y-3.5935
X7.6875Y-2.6565
X7.6875Y-2.6799
X7.6875Y-2.7032
X7.6875Y-2.7266
X7.6875Y-2.75
X7.6875Y-2.7734
X7.6875Y-2.7968
X7.6875Y-2.8201
X7.6875Y-2.8435
X7.625Y-4.1565
X7.625Y-4.1799
X7.625Y-4.2032
X7.625Y-4.2266
X7.625Y-4.25
X7.625Y-4.2734
X7.625Y-4.2968
X7.625Y-4.3201
X7.625Y-4.3435
X7.6875Y-3.4065
X7.6875Y-3.4299
X7.6875Y-3.4532
X7.6875Y-3.4766
X7.6875Y-3.5
X7.6875Y-3.5234
X7.6875Y-3.5468
X7.6875Y-3.5701
X7.6875Y-3.5935
T2
X4.25Y-2.3853
X4.25Y-2.7397
X9.5625Y-3.8853
X9.5625Y-4.2397
X5.0Y-1.4791
X5.0Y-1.8334
X8.8125Y-4.0728
X8.8125Y-4.4272
X7.25Y-2.5728
X7.25Y-2.9272
X3.5Y-1.7603
X3.5Y-2.1147
X7.25Y-4.0728
X7.25Y-4.4272
X3.5Y-2.5103
X3.5Y-2.8647
X8.0625Y-4.0728
X8.0625Y-4.4272
X8.8125Y-3.3228
X8.8125Y-3.6772
X5.75Y-1.6353
X5.75Y-1.9897
X8.0625Y-4.8228
X8.0625Y-5.1772
X6.5Y-4.8228
X6.5Y-5.1772
X8.0625Y-1.8228
X8.0625Y-2.1772
X12.7256Y-4.8883
X12.9028Y-4.5814
X4.25Y-3.8853
X4.25Y-4.2397
X9.5625Y-2.3853
X9.5625Y-2.7397
X11.0625Y-1.6353
X11.0625Y-1.9897
X6.5Y-1.8228
X6.5Y-2.1772
X11.0625Y-2.3853
X11.0625Y-2.7397
X11.8125Y-2.5103
X11.8125Y-2.8647
X11.0625Y-3.8853
X11.0625Y-4.2397
X5.75Y-3.1353
X5.75Y-3.4897
X12.3506Y-5.5378
X12.5278Y-5.2309
X4.25Y-3.1353
X4.25Y-3.4897
X8.8125Y-4.8228
X8.8125Y-5.1772
X10.3125Y-3.7291
X10.3125Y-4.0834
X6.5Y-2.5728
X6.5Y-2.9272
X5.0Y-2.2291
X5.0Y-2.5834
X7.25Y-4.8228
X7.25Y-5.1772
X8.0625Y-2.5728
X8.0625Y-2.9272
X11.0625Y-3.1353
X11.0625Y-3.4897
X9.5625Y-4.6353
X9.5625Y-4.9897
X5.75Y-3.8853
X5.75Y-4.2397
X8.8125Y-2.5728
X8.8125Y-2.9272
X4.25Y-1.6353
X4.25Y-1.9897
X11.8125Y-1.7603
X11.8125Y-2.1147
X7.25Y-3.3228
X7.25Y-3.6772
X10.3125Y-1.4791
X10.3125Y-1.8334
X11.8125Y-3.2603
X11.8125Y-3.6147
X6.5Y-4.0728
X6.5Y-4.4272
X8.8125Y-1.8228
X8.8125Y-2.1772
X3.5Y-3.2603
X3.5Y-3.6147
X4.5Y-4.8228
X4.5Y-5.1772
X8.0625Y-3.3228
X8.0625Y-3.6772
X6.5Y-3.3228
X6.5Y-3.6772
X10.3125Y-2.2291
X10.3125Y-2.5834
X11.6023Y-5.2557
X11.694Y-4.9135
X3.5Y-4.0103
X3.5Y-4.3647
X11.9756Y-6.1871
X12.1528Y-5.8803
X5.75Y-4.6353
X5.75Y-4.9897
X9.5625Y-1.6353
X9.5625Y-1.9897
X5.75Y-2.3853
X5.75Y-2.7397
X5.0Y-2.9791
X5.0Y-3.3334
X9.5625Y-3.1353
X9.5625Y-3.4897
X5.0Y-3.7291
X5.0Y-4.0834
X11.1983Y-5.9712
X11.2446Y-5.6199
X10.3125Y-2.9791
X10.3125Y-3.3334
X7.25Y-1.8228
X7.25Y-2.1772
X10.8125Y-4.8228
X10.8125Y-5.1772
X11.8125Y-4.0103
X11.8125Y-4.3647
T3
X4.05Y-2.5625
X4.45Y-2.5625
X9.3625Y-4.0625
X9.7625Y-4.0625
X4.8Y-1.6562
X5.2Y-1.6562
X8.6125Y-4.25
X9.0125Y-4.25
X7.05Y-2.75
X7.45Y-2.75
X3.3Y-1.9375
X3.7Y-1.9375
X7.05Y-4.25
X7.45Y-4.25
X3.3Y-2.6875
X3.7Y-2.6875
X7.8625Y-4.25
X8.2625Y-4.25
X8.6125Y-3.5
X9.0125Y-3.5
X5.55Y-1.8125
X5.95Y-1.8125
X7.8625Y-5.0
X8.2625Y-5.0
X6.3Y-5.0
X6.7Y-5.0
X7.8625Y-2.0
X8.2625Y-2.0
X12.641Y-4.6348
X12.9874Y-4.8348
X4.05Y-4.0625
X4.45Y-4.0625
X9.3625Y-2.5625
X9.7625Y-2.5625
X10.8625Y-1.8125
X11.2625Y-1.8125
X6.3Y-2.0
X6.7Y-2.0
X10.8625Y-2.5625
X11.2625Y-2.5625
X11.6125Y-2.6875
X12.0125Y-2.6875
X10.8625Y-4.0625
X11.2625Y-4.0625
X5.55Y-3.3125
X5.95Y-3.3125
X12.266Y-5.2844
X12.6124Y-5.4844
X4.05Y-3.3125
X4.45Y-3.3125
X8.6125Y-5.0
X9.0125Y-5.0
X10.1125Y-3.9062
X10.5125Y-3.9062
X6.3Y-2.75
X6.7Y-2.75
X4.8Y-2.4062
X5.2Y-2.4062
X7.05Y-5.0
X7.45Y-5.0
X7.8625Y-2.75
X8.2625Y-2.75
X10.8625Y-3.3125
X11.2625Y-3.3125
X9.3625Y-4.8125
X9.7625Y-4.8125
X5.55Y-4.0625
X5.95Y-4.0625
X8.6125Y-2.75
X9.0125Y-2.75
X4.05Y-1.8125
X4.45Y-1.8125
X11.6125Y-1.9375
X12.0125Y-1.9375
X7.05Y-3.5
X7.45Y-3.5
X10.1125Y-1.6562
X10.5125Y-1.6562
X11.6125Y-3.4375
X12.0125Y-3.4375
X6.3Y-4.25
X6.7Y-4.25
X8.6125Y-2.0
X9.0125Y-2.0
X3.3Y-3.4375
X3.7Y-3.4375
X4.3Y-5.0
X4.7Y-5.0
X7.8625Y-3.5
X8.2625Y-3.5
X6.3Y-3.5
X6.7Y-3.5
X10.1125Y-2.4063
X10.5125Y-2.4063
X11.455Y-5.0329
X11.8414Y-5.1364
X3.3Y-4.1875
X3.7Y-4.1875
X11.891Y-5.9337
X12.2374Y-6.1337
X5.55Y-4.8125
X5.95Y-4.8125
X9.3625Y-1.8125
X9.7625Y-1.8125
X5.55Y-2.5625
X5.95Y-2.5625
X4.8Y-3.1562
X5.2Y-3.1562
X9.3625Y-3.3125
X9.7625Y-3.3125
X4.8Y-3.9062
X5.2Y-3.9062
X11.0232Y-5.7694
X11.4197Y-5.8216
X10.1125Y-3.1562
X10.5125Y-3.1562
X7.05Y-2.0
X7.45Y-2.0
X10.6125Y-5.0
X11.0125Y-5.0
X11.6125Y-4.1875
X12.0125Y-4.1875
T4
X3.35Y-2.5875
X3.6Y-2.4875
X7.9125Y-4.15
X8.1625Y-4.05
X8.6625Y-3.4
X8.9125Y-3.3
X5.6Y-1.7125
X5.85Y-1.6125
X7.9125Y-4.9
X8.1625Y-4.8
X6.35Y-4.9
X6.6Y-4.8
X7.9125Y-1.9
X8.1625Y-1.8
X12.7343Y-4.5732
X13.0008Y-4.6116
X4.1Y-3.9625
X4.35Y-3.8625
X9.4125Y-2.4625
X9.6625Y-2.3625
X10.9125Y-1.7125
X11.1625Y-1.6125
X6.35Y-1.9
X6.6Y-1.8
X10.9125Y-2.4625
X11.1625Y-2.3625
X11.6625Y-2.5875
X11.9125Y-2.4875
X10.9125Y-3.9625
X11.1625Y-3.8625
X5.6Y-3.2125
X5.85Y-3.1125
X12.3593Y-5.2227
X12.6258Y-5.2611
X4.1Y-3.2125
X4.35Y-3.1125
X8.6625Y-4.9
X8.9125Y-4.8
X10.1625Y-3.8062
X10.4125Y-3.7062
X6.35Y-2.65
X6.6Y-2.55
X4.85Y-2.3062
X5.1Y-2.2062
X7.1Y-4.9
X7.35Y-4.8
X7.9125Y-2.65
X8.1625Y-2.55
X10.9125Y-3.2125
X11.1625Y-3.1125
X9.4125Y-4.7125
X9.6625Y-4.6125
X5.6Y-3.9625
X5.85Y-3.8625
X8.6625Y-2.65
X8.9125Y-2.55
X4.1Y-1.7125
X4.35Y-1.6125
X11.6625Y-1.8375
X11.9125Y-1.7375
X7.1Y-3.4
X7.35Y-3.3
X10.1625Y-1.5562
X10.4125Y-1.4563
X11.6625Y-3.3375
X11.9125Y-3.2375
X6.35Y-4.15
X6.6Y-4.05
X8.6625Y-1.9
X8.9125Y-1.8
X3.35Y-3.3375
X3.6Y-3.2375
X4.35Y-4.9
X4.6Y-4.8
X7.9125Y-3.4
X8.1625Y-3.3
X6.35Y-3.4
X6.6Y-3.3
X10.1625Y-2.3063
X10.4125Y-2.2063
X11.5292Y-4.9492
X11.7965Y-4.9173
X3.35Y-4.0875
X3.6Y-3.9875
X11.9843Y-5.8721
X12.2508Y-5.9105
X5.6Y-4.7125
X5.85Y-4.6125
X9.4125Y-1.7125
X9.6625Y-1.6125
X5.6Y-2.4625
X5.85Y-2.3625
X4.85Y-3.0562
X5.1Y-2.9562
X9.4125Y-3.2125
X9.6625Y-3.1125
X4.85Y-3.8062
X5.1Y-3.7062
X11.0858Y-5.6768
X11.3467Y-5.6103
X10.1625Y-3.0562
X10.4125Y-2.9562
X7.1Y-1.9
X7.35Y-1.8
X10.6625Y-4.9
X10.9125Y-4.8
X11.6625Y-4.0875
X11.9125Y-3.9875
X4.1Y-2.4625
X4.35Y-2.3625
X9.4125Y-3.9625
X9.6625Y-3.8625
X4.85Y-1.5562
X5.1Y-1.4563
X8.6625Y-4.15
X8.9125Y-4.05
X7.1Y-2.65
X7.35Y-2.55
X3.35Y-1.8375
X3.6Y-1.7375
X7.1Y-4.15
X7.35Y-4.05
T5
X8.8125Y-2.0
X3.5Y-3.4375
X4.5Y-5.0
X8.0625Y-3.5
X6.5Y-3.5
X10.3125Y-2.4063
X11.6482Y-5.0846
X3.5Y-4.1875
X12.0642Y-6.0337
X5.75Y-4.8125
X9.5625Y-1.8125
X5.75Y-2.5625
X5.0Y-3.1562
X9.5625Y-3.3125
X5.0Y-3.9062
X11.2215Y-5.7955
X10.3125Y-3.1562
X7.25Y-2.0
X10.8125Y-5.0
X11.8125Y-4.1875
X4.25Y-2.5625
X9.5625Y-4.0625
X5.0Y-1.6562
X8.8125Y-4.25
X7.25Y-2.75
X3.5Y-1.9375
X7.25Y-4.25
X3.5Y-2.6875
X8.0625Y-4.25
X8.8125Y-3.5
X5.75Y-1.8125
X8.0625Y-5.0
X6.5Y-5.0
X8.0625Y-2.0
X12.8142Y-4.7348
X4.25Y-4.0625
X9.5625Y-2.5625
X11.0625Y-1.8125
X6.5Y-2.0
X11.0625Y-2.5625
X11.8125Y-2.6875
X11.0625Y-4.0625
X5.75Y-3.3125
X12.4392Y-5.3844
X4.25Y-3.3125
X8.8125Y-5.0
X10.3125Y-3.9062
X6.5Y-2.75
X5.0Y-2.4062
X7.25Y-5.0
X8.0625Y-2.75
X11.0625Y-3.3125
X9.5625Y-4.8125
X5.75Y-4.0625
X8.8125Y-2.75
X4.25Y-1.8125
X11.8125Y-1.9375
X7.25Y-3.5
X10.3125Y-1.6562
X11.8125Y-3.4375
X6.5Y-4.25
T0
M30
