G04 #@! TF.GenerationSoftware,KiCad,Pcbnew,(5.1.6)-1*
G04 #@! TF.CreationDate,2020-10-02T12:38:06+08:00*
G04 #@! TF.ProjectId,Galia,47616c69-612e-46b6-9963-61645f706362,rev?*
G04 #@! TF.SameCoordinates,Original*
G04 #@! TF.FileFunction,Legend,Top*
G04 #@! TF.FilePolarity,Positive*
%FSLAX46Y46*%
G04 Gerber Fmt 4.6, Leading zero omitted, Abs format (unit mm)*
G04 Created by KiCad (PCBNEW (5.1.6)-1) date 2020-10-02 12:38:06*
%MOMM*%
%LPD*%
G01*
G04 APERTURE LIST*
%ADD10C,0.120000*%
%ADD11C,0.300000*%
%ADD12C,0.150000*%
G04 APERTURE END LIST*
D10*
X325143750Y-119831696D02*
X324643750Y-120697722D01*
X325326763Y-120514709D02*
X324460737Y-120014709D01*
X318812661Y-123797464D02*
X316734200Y-122597464D01*
X322969583Y-126197464D02*
X320717917Y-124897464D01*
X316734200Y-122597464D02*
X318784200Y-119046760D01*
X326953300Y-128497464D02*
X324874839Y-127297464D01*
X333053300Y-117931954D02*
X322834200Y-112031954D01*
X332344454Y-115559711D02*
X332044454Y-116079326D01*
X329003300Y-124946760D02*
X326953300Y-128497464D01*
X331934647Y-115669518D02*
X332344454Y-115559711D01*
X332044454Y-116079326D02*
X331934647Y-115669518D01*
X331003300Y-121482658D02*
X333053300Y-117931954D01*
X320784200Y-115582658D02*
X322834200Y-112031954D01*
X327893750Y-120264709D02*
G75*
G03*
X327893750Y-120264709I-3000000J0D01*
G01*
X75783750Y-112176250D02*
X75783750Y-113506250D01*
X74453750Y-112176250D02*
X75783750Y-112176250D01*
X73183750Y-112176250D02*
X73183750Y-114836250D01*
X73183750Y-114836250D02*
X55343750Y-114836250D01*
X73183750Y-112176250D02*
X55343750Y-112176250D01*
X55343750Y-112176250D02*
X55343750Y-114836250D01*
D11*
X67341845Y-101742857D02*
X68865654Y-101742857D01*
X72421845Y-101742857D02*
X73945654Y-101742857D01*
X73183750Y-102504761D02*
X73183750Y-100980952D01*
X315991845Y-101742857D02*
X317515654Y-101742857D01*
X321071845Y-101742857D02*
X322595654Y-101742857D01*
X321833750Y-102504761D02*
X321833750Y-100980952D01*
D12*
X331158606Y-125971183D02*
X331271274Y-125871275D01*
X331390321Y-125665078D01*
X331396701Y-125558790D01*
X331379271Y-125493741D01*
X331320602Y-125404883D01*
X331238123Y-125357264D01*
X331131835Y-125350884D01*
X331066786Y-125368314D01*
X330977928Y-125426983D01*
X330841451Y-125568131D01*
X330752592Y-125626800D01*
X330687544Y-125644229D01*
X330581255Y-125637850D01*
X330498777Y-125590231D01*
X330440108Y-125501372D01*
X330422678Y-125436323D01*
X330429058Y-125330035D01*
X330548105Y-125123839D01*
X330660773Y-125023930D01*
X330786201Y-124711446D02*
X331771274Y-125005249D01*
X331247922Y-124483149D01*
X331961750Y-124675335D01*
X331214772Y-123969138D01*
X331357629Y-123721702D02*
X331667153Y-123185591D01*
X331830401Y-123664743D01*
X331901829Y-123541025D01*
X331990688Y-123482356D01*
X332055736Y-123464926D01*
X332162025Y-123471306D01*
X332368221Y-123590353D01*
X332426890Y-123679212D01*
X332444320Y-123744261D01*
X332437940Y-123850549D01*
X332295083Y-124097985D01*
X332206225Y-124156654D01*
X332141176Y-124174083D01*
X332384399Y-122609951D02*
X332961750Y-122943284D01*
X331935437Y-122625671D02*
X332434979Y-123189010D01*
X332744503Y-122652899D01*
X76236130Y-113839583D02*
X76950416Y-113839583D01*
X77093273Y-113887202D01*
X77188511Y-113982440D01*
X77236130Y-114125297D01*
X77236130Y-114220535D01*
X76236130Y-112887202D02*
X76236130Y-113363392D01*
X76712321Y-113411011D01*
X76664702Y-113363392D01*
X76617083Y-113268154D01*
X76617083Y-113030059D01*
X76664702Y-112934821D01*
X76712321Y-112887202D01*
X76807559Y-112839583D01*
X77045654Y-112839583D01*
X77140892Y-112887202D01*
X77188511Y-112934821D01*
X77236130Y-113030059D01*
X77236130Y-113268154D01*
X77188511Y-113363392D01*
X77140892Y-113411011D01*
M02*
