M48
; DRILL file {KiCad (5.1.6)-1} date 10/02/20 12:38:07
; FORMAT={-:-/ absolute / inch / decimal}
; #@! TF.CreationDate,2020-10-02T12:38:07+08:00
; #@! TF.GenerationSoftware,Kicad,Pcbnew,(5.1.6)-1
; #@! TF.FileFunction,Plated,1,2,PTH
FMAT,2
INCH
T1C0.0138
T2C0.0236
T3C0.0394
T4C0.0430
T5C0.0591
T6C0.0787
T7C0.0866
%
G90
G05
T1
X2.3169Y-3.3524
X2.581Y-2.9862
X2.9567Y-3.2244
X3.0564Y-2.7854
X3.0566Y-3.3135
X3.0741Y-3.0157
X5.9272Y-2.094
X6.6772Y-2.2726
X7.4272Y-2.2461
X12.0298Y-5.0601
X12.1887Y-5.036
X12.2192Y-4.311
X12.7303Y-2.9941
X12.7972Y-2.9941
X12.8625Y-3.1868
X12.8676Y-3.3433
T3
X2.4125Y-2.8312
X2.5125Y-2.8312
X2.6125Y-2.8312
X2.7125Y-2.8312
X12.5644Y-2.8342
X12.6644Y-2.8342
X12.7644Y-2.8342
X12.8644Y-2.8342
X2.2312Y-4.4688
X2.3312Y-4.4688
X2.4312Y-4.4688
X2.5312Y-4.4688
X2.6313Y-4.4688
X2.7312Y-4.4688
X2.8312Y-4.4688
X2.9312Y-4.4688
X12.5681Y-4.9243
X12.7385Y-5.0227
X12.8535Y-4.4299
X12.9387Y-4.4791
X13.024Y-4.5283
T4
X12.4144Y-1.3819
X12.4144Y-1.4819
X12.4144Y-1.5819
X12.4144Y-1.6819
X12.4144Y-1.7819
X12.4144Y-1.8819
X12.4144Y-1.9819
X12.4144Y-2.0819
X12.4144Y-2.1819
X12.4144Y-2.2819
X12.4144Y-2.3819
X12.4144Y-2.4819
X13.0144Y-1.3819
X13.0144Y-1.4819
X13.0144Y-1.5819
X13.0144Y-1.6819
X13.0144Y-1.7819
X13.0144Y-1.8819
X13.0144Y-1.9819
X13.0144Y-2.0819
X13.0144Y-2.1819
X13.0144Y-2.2819
X13.0144Y-2.3819
X13.0144Y-2.4819
X2.275Y-1.3757
X2.275Y-1.4757
X2.275Y-1.5757
X2.275Y-1.6757
X2.275Y-1.7757
X2.275Y-1.8757
X2.275Y-1.9757
X2.275Y-2.0757
X2.275Y-2.1757
X2.275Y-2.2757
X2.275Y-2.3757
X2.275Y-2.4757
X2.875Y-1.3757
X2.875Y-1.4757
X2.875Y-1.5757
X2.875Y-1.6757
X2.875Y-1.7757
X2.875Y-1.8757
X2.875Y-1.9757
X2.875Y-2.0757
X2.875Y-2.1757
X2.875Y-2.2757
X2.875Y-2.3757
X2.875Y-2.4757
T5
X11.7641Y-5.2503
X11.8758Y-5.0234
X4.4272Y-1.9365
X4.4764Y-1.6885
X3.6772Y-4.3115
X3.7264Y-4.0635
X6.6772Y-4.374
X6.7264Y-4.126
X8.2165Y-4.374
X8.2657Y-4.126
X10.9665Y-5.124
X11.0157Y-4.876
X11.9665Y-2.0615
X12.0157Y-1.8135
X10.4665Y-1.7803
X10.5157Y-1.5322
X11.3578Y-5.9416
X11.439Y-5.7021
X5.1772Y-1.7803
X5.2264Y-1.5322
X4.6772Y-5.124
X4.7264Y-4.876
X7.4272Y-2.124
X7.4764Y-1.876
X4.4272Y-3.4365
X4.4764Y-3.1885
X7.4272Y-5.124
X7.4764Y-4.876
X6.6772Y-2.874
X6.7264Y-2.626
X8.9665Y-5.124
X9.0157Y-4.876
X10.4665Y-2.5303
X10.5157Y-2.2822
X8.9665Y-2.874
X9.0157Y-2.626
X5.9272Y-2.6865
X5.9764Y-2.4385
X5.9272Y-3.4365
X5.9764Y-3.1885
X7.4272Y-3.624
X7.4764Y-3.376
X8.2165Y-3.624
X8.2657Y-3.376
X5.9272Y-4.1865
X5.9764Y-3.9385
X6.6772Y-3.624
X6.7264Y-3.376
X10.4665Y-3.2803
X10.5157Y-3.0322
X11.2165Y-1.9365
X11.2657Y-1.6885
X8.9665Y-3.624
X9.0157Y-3.376
X3.6772Y-2.8115
X3.7264Y-2.5635
X5.1772Y-2.5303
X5.2264Y-2.2822
X7.4272Y-4.374
X7.4764Y-4.126
X4.4272Y-4.1865
X4.4764Y-3.9385
X5.9272Y-4.9365
X5.9764Y-4.6885
X9.7165Y-4.9365
X9.7657Y-4.6885
X6.6772Y-5.124
X6.7264Y-4.876
X12.5075Y-5.5803
X12.6741Y-5.3901
X10.4665Y-4.0303
X10.5157Y-3.7822
X8.2165Y-5.124
X8.2657Y-4.876
X8.9665Y-4.374
X9.0157Y-4.126
X11.2165Y-4.1865
X11.2657Y-3.9385
X11.9665Y-2.8115
X12.0157Y-2.5635
X3.6772Y-2.0615
X3.7264Y-1.8135
X5.9272Y-1.9365
X5.9764Y-1.6885
X5.1772Y-3.2803
X5.2264Y-3.0322
X6.6772Y-2.124
X6.7264Y-1.876
X9.7165Y-1.9365
X9.7657Y-1.6885
X11.2165Y-2.6865
X11.2657Y-2.4385
X12.1325Y-6.2297
X12.2991Y-6.0395
X12.8825Y-4.9308
X13.0491Y-4.7406
X11.9665Y-4.3115
X12.0157Y-4.0635
X8.2165Y-2.874
X8.2657Y-2.626
X5.1772Y-4.0303
X5.2264Y-3.7822
X7.4272Y-2.874
X7.4764Y-2.626
X9.7165Y-3.4365
X9.7657Y-3.1885
X8.9665Y-2.124
X9.0157Y-1.876
X11.9665Y-3.5615
X12.0157Y-3.3135
X3.6772Y-3.5615
X3.7264Y-3.3135
X4.4272Y-2.6865
X4.4764Y-2.4385
X11.2165Y-3.4365
X11.2657Y-3.1885
X8.2165Y-2.124
X8.2657Y-1.876
X9.7165Y-4.1865
X9.7657Y-3.9385
X9.7165Y-2.6865
X9.7657Y-2.4385
T6
X2.6812Y-3.875
X2.8813Y-3.875
X12.4706Y-3.875
X12.6706Y-3.875
T7
X2.2473Y-2.8476
X12.3994Y-2.8538
X2.8772Y-2.8476
X13.0293Y-2.8538
T2
G00X2.0984Y-3.1868
M15
G01X2.0512Y-3.1868
M16
G05
G00X2.0984Y-3.6257
M15
G01X2.0512Y-3.6257
M16
G05
G00X2.248Y-3.1868
M15
G01X2.2165Y-3.1868
M16
G05
G00X2.248Y-3.6257
M15
G01X2.2165Y-3.6257
M16
G05
G00X13.0413Y-3.1868
M15
G01X13.0728Y-3.1868
M16
G05
G00X13.0413Y-3.6257
M15
G01X13.0728Y-3.6257
M16
G05
G00X13.1909Y-3.1868
M15
G01X13.2382Y-3.1868
M16
G05
G00X13.1909Y-3.6257
M15
G01X13.2382Y-3.6257
M16
G05
T5
G00X12.613Y-4.6024
M15
G01X12.5874Y-4.6468
M16
G05
G00X12.9948Y-4.8229
M15
G01X12.9692Y-4.8672
M16
G05
T0
M30
