G04 #@! TF.GenerationSoftware,KiCad,Pcbnew,(5.1.6)-1*
G04 #@! TF.CreationDate,2020-10-02T12:38:06+08:00*
G04 #@! TF.ProjectId,Galia,47616c69-612e-46b6-9963-61645f706362,rev?*
G04 #@! TF.SameCoordinates,Original*
G04 #@! TF.FileFunction,Copper,L1,Top*
G04 #@! TF.FilePolarity,Positive*
%FSLAX46Y46*%
G04 Gerber Fmt 4.6, Leading zero omitted, Abs format (unit mm)*
G04 Created by KiCad (PCBNEW (5.1.6)-1) date 2020-10-02 12:38:06*
%MOMM*%
%LPD*%
G01*
G04 APERTURE LIST*
G04 #@! TA.AperFunction,ComponentPad*
%ADD10C,4.400000*%
G04 #@! TD*
G04 #@! TA.AperFunction,ComponentPad*
%ADD11C,2.400000*%
G04 #@! TD*
G04 #@! TA.AperFunction,ComponentPad*
%ADD12R,3.400000X3.400000*%
G04 #@! TD*
G04 #@! TA.AperFunction,ComponentPad*
%ADD13O,3.400000X3.400000*%
G04 #@! TD*
G04 #@! TA.AperFunction,ComponentPad*
%ADD14C,2.000000*%
G04 #@! TD*
G04 #@! TA.AperFunction,ComponentPad*
%ADD15C,0.100000*%
G04 #@! TD*
G04 #@! TA.AperFunction,ComponentPad*
%ADD16O,2.200000X1.000000*%
G04 #@! TD*
G04 #@! TA.AperFunction,ComponentPad*
%ADD17O,1.800000X1.000000*%
G04 #@! TD*
G04 #@! TA.AperFunction,ComponentPad*
%ADD18R,1.700000X1.700000*%
G04 #@! TD*
G04 #@! TA.AperFunction,ComponentPad*
%ADD19O,1.700000X1.700000*%
G04 #@! TD*
G04 #@! TA.AperFunction,ComponentPad*
%ADD20C,1.752600*%
G04 #@! TD*
G04 #@! TA.AperFunction,ComponentPad*
%ADD21R,1.752600X1.752600*%
G04 #@! TD*
G04 #@! TA.AperFunction,ViaPad*
%ADD22C,0.700000*%
G04 #@! TD*
G04 #@! TA.AperFunction,Conductor*
%ADD23C,0.250000*%
G04 #@! TD*
G04 #@! TA.AperFunction,Conductor*
%ADD24C,1.000000*%
G04 #@! TD*
G04 #@! TA.AperFunction,Conductor*
%ADD25C,0.500000*%
G04 #@! TD*
G04 APERTURE END LIST*
D10*
X314945000Y-72487549D03*
X330945000Y-72487549D03*
X73081297Y-72328799D03*
X57081297Y-72328799D03*
D11*
X246800001Y-125387500D03*
X248050001Y-119087500D03*
D12*
X68103750Y-98425000D03*
D13*
X73183750Y-98425000D03*
D12*
X316753750Y-98425000D03*
D13*
X321833750Y-98425000D03*
D11*
X317690864Y-141740478D03*
X321923396Y-136909518D03*
X327215864Y-125242689D03*
X331448396Y-120411729D03*
D14*
X323558814Y-127576887D03*
G04 #@! TA.AperFunction,ComponentPad*
D15*
G36*
X330442789Y-113653493D02*
G01*
X332174839Y-114653493D01*
X331174839Y-116385543D01*
X329442789Y-115385543D01*
X330442789Y-113653493D01*
G37*
G04 #@! TD.AperFunction*
D14*
X328643750Y-113769518D03*
X326478686Y-112519518D03*
X319228686Y-125076887D03*
G04 #@! TA.AperFunction,ComponentPad*
D15*
G36*
X329677467Y-121179068D02*
G01*
X331409517Y-122179068D01*
X329809517Y-124950350D01*
X328077467Y-123950350D01*
X329677467Y-121179068D01*
G37*
G04 #@! TD.AperFunction*
G04 #@! TA.AperFunction,ComponentPad*
G36*
X319977983Y-115579068D02*
G01*
X321710033Y-116579068D01*
X320110033Y-119350350D01*
X318377983Y-118350350D01*
X319977983Y-115579068D01*
G37*
G04 #@! TD.AperFunction*
D11*
X308165863Y-158234232D03*
X312398395Y-153403272D03*
D16*
X335650000Y-80943750D03*
X335650000Y-92093750D03*
D17*
X331650000Y-80943750D03*
X331650000Y-92093750D03*
D16*
X52700000Y-92093750D03*
X52700000Y-80943750D03*
D17*
X56700000Y-92093750D03*
X56700000Y-80943750D03*
D18*
X68897500Y-71913750D03*
D19*
X66357500Y-71913750D03*
X63817500Y-71913750D03*
X61277500Y-71913750D03*
D18*
X326755000Y-71987549D03*
D19*
X324215000Y-71987549D03*
X321675000Y-71987549D03*
X319135000Y-71987549D03*
D11*
X288487844Y-150916668D03*
X290549465Y-144833723D03*
X284900000Y-106337499D03*
X286150000Y-100037499D03*
X298807273Y-133356605D03*
X301645240Y-127594796D03*
X303949998Y-90462500D03*
X305199998Y-84162500D03*
X303950000Y-71412501D03*
X305200000Y-65112501D03*
X284900000Y-87287499D03*
X286150000Y-80987499D03*
X188650000Y-130150000D03*
X189900000Y-123850000D03*
X208700000Y-53950000D03*
X209950000Y-47650000D03*
X169600000Y-111100000D03*
X170850000Y-104800000D03*
D20*
X73025000Y-34942500D03*
X57785000Y-62882500D03*
X73025000Y-37482500D03*
X73025000Y-40022500D03*
X73025000Y-42562500D03*
X73025000Y-45102500D03*
X73025000Y-47642500D03*
X73025000Y-50182500D03*
X73025000Y-52722500D03*
X73025000Y-55262500D03*
X73025000Y-57802500D03*
X73025000Y-60342500D03*
X73025000Y-62882500D03*
X57785000Y-60342500D03*
X57785000Y-57802500D03*
X57785000Y-55262500D03*
X57785000Y-52722500D03*
X57785000Y-50182500D03*
X57785000Y-47642500D03*
X57785000Y-45102500D03*
X57785000Y-42562500D03*
X57785000Y-40022500D03*
X57785000Y-37482500D03*
D21*
X57785000Y-34942500D03*
D20*
X330565000Y-35101250D03*
X315325000Y-63041250D03*
X330565000Y-37641250D03*
X330565000Y-40181250D03*
X330565000Y-42721250D03*
X330565000Y-45261250D03*
X330565000Y-47801250D03*
X330565000Y-50341250D03*
X330565000Y-52881250D03*
X330565000Y-55421250D03*
X330565000Y-57961250D03*
X330565000Y-60501250D03*
X330565000Y-63041250D03*
X315325000Y-60501250D03*
X315325000Y-57961250D03*
X315325000Y-55421250D03*
X315325000Y-52881250D03*
X315325000Y-50341250D03*
X315325000Y-47801250D03*
X315325000Y-45261250D03*
X315325000Y-42721250D03*
X315325000Y-40181250D03*
X315325000Y-37641250D03*
D21*
X315325000Y-35101250D03*
D11*
X188650000Y-111100000D03*
X189900000Y-104800000D03*
X188650000Y-92050000D03*
X189900000Y-85750000D03*
X188650000Y-73000000D03*
X189900000Y-66700000D03*
X188650000Y-53950000D03*
X189900000Y-47650000D03*
X169600000Y-130150000D03*
X170850000Y-123850000D03*
X169600000Y-92050000D03*
X170850000Y-85750000D03*
X169600000Y-73000000D03*
X170850000Y-66700000D03*
X169600000Y-53950000D03*
X170850000Y-47650000D03*
X150550000Y-125387500D03*
X151800000Y-119087500D03*
X150550000Y-106337500D03*
X151800000Y-100037500D03*
X150550000Y-87287500D03*
X151800000Y-80987500D03*
X150550000Y-68237500D03*
X151800000Y-61937500D03*
X150550000Y-49187500D03*
X151800000Y-42887500D03*
X118800000Y-130150000D03*
X120050000Y-123850000D03*
X131500000Y-102368750D03*
X132750000Y-96068750D03*
X131500000Y-83318750D03*
X132750000Y-77018750D03*
X131500000Y-64268750D03*
X132750000Y-57968750D03*
X131500000Y-45218750D03*
X132750000Y-38918750D03*
X112450000Y-106337500D03*
X113700000Y-100037500D03*
X112450000Y-87287500D03*
X113700000Y-80987500D03*
X112450000Y-68237500D03*
X113700000Y-61937500D03*
X112450000Y-49187500D03*
X113700000Y-42887500D03*
X93400000Y-109512500D03*
X94650000Y-103212500D03*
X93400000Y-90462500D03*
X94650000Y-84162500D03*
X93400000Y-71412500D03*
X94650000Y-65112500D03*
X93400000Y-52362500D03*
X94650000Y-46062500D03*
X303950000Y-109512500D03*
X305200000Y-103212500D03*
X303950001Y-52362500D03*
X305200001Y-46062500D03*
X284899999Y-68237500D03*
X286149999Y-61937500D03*
X284899999Y-49187500D03*
X286149999Y-42887500D03*
X278550000Y-130150000D03*
X279800000Y-123850000D03*
X265850001Y-102368750D03*
X267100001Y-96068750D03*
X265850001Y-83318749D03*
X267100001Y-77018749D03*
X265850000Y-64268751D03*
X267100000Y-57968751D03*
X265850001Y-45218750D03*
X267100001Y-38918750D03*
X246800000Y-106337499D03*
X248050000Y-100037499D03*
X246800000Y-87287499D03*
X248050000Y-80987499D03*
X246800000Y-68237501D03*
X248050000Y-61937501D03*
X246800000Y-49187501D03*
X248050000Y-42887501D03*
X227749999Y-130150002D03*
X228999999Y-123850002D03*
X227749999Y-111100000D03*
X228999999Y-104800000D03*
X227750001Y-92050000D03*
X229000001Y-85750000D03*
X227749999Y-73000000D03*
X228999999Y-66700000D03*
X227750000Y-53949999D03*
X229000000Y-47649999D03*
X208700001Y-130149999D03*
X209950001Y-123849999D03*
X208700001Y-111100000D03*
X209950001Y-104800000D03*
X208700001Y-92050000D03*
X209950001Y-85750000D03*
X208700000Y-73000001D03*
X209950000Y-66700001D03*
D18*
X74453750Y-113506250D03*
D19*
X71913750Y-113506250D03*
X69373750Y-113506250D03*
X66833750Y-113506250D03*
X64293750Y-113506250D03*
X61753750Y-113506250D03*
X59213750Y-113506250D03*
X56673750Y-113506250D03*
D22*
X309593750Y-127914709D03*
X305556318Y-128527277D03*
X326706250Y-80943750D03*
X77631328Y-70750000D03*
X65557500Y-75850000D03*
X78081338Y-76600000D03*
X77637500Y-84162500D03*
X323350000Y-76050000D03*
X325050000Y-76050000D03*
X75100000Y-81900000D03*
X310368780Y-109500000D03*
X150550001Y-53187521D03*
X169600001Y-57725001D03*
X188650001Y-57050001D03*
X326836025Y-84918750D03*
X58850000Y-85150000D03*
D23*
X306168886Y-127914709D02*
X305556318Y-128527277D01*
X309593750Y-127914709D02*
X306168886Y-127914709D01*
D24*
X334700000Y-74550000D02*
X334700000Y-39236250D01*
X334700000Y-39236250D02*
X330565000Y-35101250D01*
X329086035Y-80163965D02*
X334700000Y-74550000D01*
X321833750Y-98425000D02*
X329086035Y-91172715D01*
X329086035Y-91172715D02*
X329086035Y-80163965D01*
D25*
X331547952Y-92093750D02*
X335650000Y-92093750D01*
X330749991Y-91295789D02*
X331547952Y-92093750D01*
X330749991Y-81737571D02*
X330749991Y-91295789D01*
X331543812Y-80943750D02*
X330749991Y-81737571D01*
X335650000Y-80943750D02*
X331543812Y-80943750D01*
X328643750Y-101070959D02*
X331650000Y-98064709D01*
X331650000Y-92093750D02*
X331650000Y-98064709D01*
D24*
X316753750Y-98425000D02*
X316912500Y-98425000D01*
X316753750Y-98425000D02*
X316753750Y-95408750D01*
X316753750Y-95408750D02*
X319293750Y-92868750D01*
X319293750Y-92868750D02*
X325692930Y-92868750D01*
X326755000Y-69532500D02*
X326755000Y-71987549D01*
X333499990Y-40576240D02*
X333499990Y-65962510D01*
X330565000Y-37641250D02*
X333499990Y-40576240D01*
X331200000Y-68262500D02*
X328025000Y-68262500D01*
X333499990Y-65962510D02*
X331200000Y-68262500D01*
X328025000Y-68262500D02*
X326755000Y-69532500D01*
X327886025Y-90675655D02*
X325692930Y-92868750D01*
X327886025Y-78613975D02*
X326755000Y-77482950D01*
X326755000Y-77482950D02*
X326755000Y-76555000D01*
D25*
X327865800Y-80943750D02*
X327886025Y-80963975D01*
X326706250Y-80943750D02*
X327865800Y-80943750D01*
D24*
X327886025Y-78613975D02*
X327886025Y-80963975D01*
X327886025Y-80963975D02*
X327886025Y-90675655D01*
D25*
X328643750Y-101070959D02*
X328643750Y-113769518D01*
D24*
X326755000Y-76555000D02*
X326755000Y-71987549D01*
D25*
X77631328Y-47168828D02*
X73025000Y-42562500D01*
X77631328Y-70750000D02*
X77631328Y-47168828D01*
X56802046Y-92093750D02*
X52700000Y-92093750D01*
X57600008Y-81737570D02*
X57600008Y-91295788D01*
X57600008Y-91295788D02*
X56802046Y-92093750D01*
X56806188Y-80943750D02*
X57600008Y-81737570D01*
X52700000Y-80943750D02*
X56806188Y-80943750D01*
D24*
X76811680Y-93100000D02*
X69550000Y-93100000D01*
X68103750Y-98425000D02*
X68103750Y-94546250D01*
X69550000Y-93100000D02*
X68103750Y-94546250D01*
D25*
X65557500Y-75850000D02*
X67750000Y-75850000D01*
X68897500Y-74702500D02*
X68897500Y-71913750D01*
X67750000Y-75850000D02*
X68897500Y-74702500D01*
D24*
X79131339Y-90780341D02*
X76811680Y-93100000D01*
X73025000Y-37482500D02*
X79131339Y-43588839D01*
D25*
X78081338Y-76600000D02*
X79050000Y-76600000D01*
X79050000Y-76600000D02*
X79131339Y-76681339D01*
D24*
X79131339Y-43588839D02*
X79131339Y-76681339D01*
D25*
X78987500Y-84162500D02*
X79131339Y-84018661D01*
D24*
X79131339Y-76681339D02*
X79131339Y-84018661D01*
D25*
X77637500Y-84162500D02*
X78987500Y-84162500D01*
D24*
X79131339Y-84018661D02*
X79131339Y-90780341D01*
D23*
X319135000Y-68507787D02*
X319135000Y-71987549D01*
X313673689Y-46912561D02*
X313673690Y-64622649D01*
X315325000Y-45261250D02*
X313673689Y-46912561D01*
X313673690Y-64622649D02*
X316337469Y-67286428D01*
X316337469Y-67286428D02*
X317913641Y-67286428D01*
X317913641Y-67286428D02*
X319135000Y-68507787D01*
X314123699Y-49002551D02*
X314123699Y-64436248D01*
X315325000Y-47801250D02*
X314123699Y-49002551D01*
X321675000Y-71987549D02*
X321675000Y-68347787D01*
X320163631Y-66836418D02*
X316523869Y-66836418D01*
X321675000Y-68347787D02*
X320163631Y-66836418D01*
X314123699Y-64436248D02*
X316523869Y-66836418D01*
X64293750Y-89806250D02*
X64293750Y-113506250D01*
X75606298Y-65463798D02*
X75606298Y-78493702D01*
X75606298Y-78493702D02*
X64293750Y-89806250D01*
X73025000Y-62882500D02*
X75606298Y-65463798D01*
X76956328Y-79052902D02*
X76956328Y-59193828D01*
X65643780Y-90365450D02*
X76956328Y-79052902D01*
X66833750Y-113506250D02*
X68008751Y-114681251D01*
X68008751Y-114681251D02*
X75563751Y-114681251D01*
X76956328Y-59193828D02*
X73025000Y-55262500D01*
X65643780Y-102411278D02*
X65643780Y-90365450D01*
X75563751Y-114681251D02*
X76097501Y-114147501D01*
X76097501Y-114147501D02*
X76097501Y-112864999D01*
X76097501Y-112864999D02*
X65643780Y-102411278D01*
X76056308Y-78680102D02*
X76056308Y-63373808D01*
X64743760Y-89992650D02*
X76056308Y-78680102D01*
X76056308Y-63373808D02*
X73025000Y-60342500D01*
X64743760Y-108876260D02*
X64743760Y-89992650D01*
X69373750Y-113506250D02*
X64743760Y-108876260D01*
X65193770Y-90179050D02*
X65193770Y-106786270D01*
X65193770Y-106786270D02*
X71913750Y-113506250D01*
X76506318Y-78866502D02*
X65193770Y-90179050D01*
X76506318Y-61283818D02*
X76506318Y-78866502D01*
X73025000Y-57802500D02*
X76506318Y-61283818D01*
X323350000Y-76050000D02*
X325050000Y-76050000D01*
X78306329Y-45303829D02*
X73025000Y-40022500D01*
X78306329Y-71074001D02*
X78306329Y-45303829D01*
X77406338Y-71973992D02*
X78306329Y-71074001D01*
X75100000Y-81900000D02*
X77406338Y-79593662D01*
X77406338Y-79593662D02*
X77406338Y-71973992D01*
X208004999Y-72305000D02*
X208700000Y-73000001D01*
X208700000Y-65692999D02*
X208004999Y-66388000D01*
X208004999Y-66388000D02*
X208004999Y-72305000D01*
X208700000Y-53950000D02*
X208700000Y-65692999D01*
X208005000Y-91354999D02*
X208700001Y-92050000D01*
X208005000Y-85437999D02*
X208005000Y-91354999D01*
X208700000Y-84742999D02*
X208005000Y-85437999D01*
X208700000Y-73000001D02*
X208700000Y-84742999D01*
X208005000Y-110404999D02*
X208700001Y-111100000D01*
X208005000Y-104487999D02*
X208005000Y-110404999D01*
X208700001Y-103792998D02*
X208005000Y-104487999D01*
X208700001Y-92050000D02*
X208700001Y-103792998D01*
X208005000Y-129454998D02*
X208700001Y-130149999D01*
X208700001Y-111100000D02*
X208700001Y-122842997D01*
X208700001Y-122842997D02*
X208005000Y-123537998D01*
X208005000Y-123537998D02*
X208005000Y-129454998D01*
X227055000Y-66387998D02*
X227055000Y-72304998D01*
X227750001Y-65692997D02*
X227055000Y-66387998D01*
X227055000Y-72304998D02*
X227750001Y-72999999D01*
X227750001Y-53950000D02*
X227750001Y-65692997D01*
X227055001Y-85437998D02*
X227055001Y-91354998D01*
X227750002Y-84742997D02*
X227055001Y-85437998D01*
X227055001Y-91354998D02*
X227750002Y-92049999D01*
X227750002Y-73000000D02*
X227750002Y-84742997D01*
X227054999Y-104487998D02*
X227054999Y-110404998D01*
X227750000Y-103792997D02*
X227054999Y-104487998D01*
X227054999Y-110404998D02*
X227750000Y-111099999D01*
X227750000Y-92050000D02*
X227750000Y-103792997D01*
X227054999Y-123538000D02*
X227054999Y-129455000D01*
X227750000Y-122842999D02*
X227054999Y-123538000D01*
X227054999Y-129455000D02*
X227750000Y-130150001D01*
X227750000Y-111100002D02*
X227750000Y-122842999D01*
X246105001Y-118775498D02*
X246105001Y-124692498D01*
X246800002Y-118080497D02*
X246105001Y-118775498D01*
X246105001Y-124692498D02*
X246800002Y-125387499D01*
X246800002Y-106337500D02*
X246800002Y-118080497D01*
X246105000Y-99725497D02*
X246105000Y-105642497D01*
X246800001Y-99030496D02*
X246105000Y-99725497D01*
X246105000Y-105642497D02*
X246800001Y-106337498D01*
X246800001Y-87287499D02*
X246800001Y-99030496D01*
X246105000Y-80675497D02*
X246105000Y-86592497D01*
X246800001Y-79980496D02*
X246105000Y-80675497D01*
X246105000Y-86592497D02*
X246800001Y-87287498D01*
X246800001Y-68237499D02*
X246800001Y-79980496D01*
X246105000Y-61625499D02*
X246105000Y-67542499D01*
X246800001Y-60930498D02*
X246105000Y-61625499D01*
X246105000Y-67542499D02*
X246800001Y-68237500D01*
X246800001Y-49187501D02*
X246800001Y-60930498D01*
X265155000Y-57656749D02*
X265155000Y-63573749D01*
X265850001Y-56961748D02*
X265155000Y-57656749D01*
X265155000Y-63573749D02*
X265850001Y-64268750D01*
X265850001Y-45218751D02*
X265850001Y-56961748D01*
X265155001Y-76706747D02*
X265155001Y-82623747D01*
X265850002Y-76011746D02*
X265155001Y-76706747D01*
X265155001Y-82623747D02*
X265850002Y-83318748D01*
X265850002Y-64268749D02*
X265850002Y-76011746D01*
X265155001Y-95756748D02*
X265155001Y-101673748D01*
X265850002Y-95061747D02*
X265155001Y-95756748D01*
X265155001Y-101673748D02*
X265850002Y-102368749D01*
X265850002Y-83318750D02*
X265850002Y-95061747D01*
X270232998Y-130150000D02*
X265850001Y-125767003D01*
X278550000Y-130150000D02*
X270232998Y-130150000D01*
X277350001Y-131349999D02*
X278550000Y-130150000D01*
X280687451Y-149716669D02*
X277350001Y-146379219D01*
X277350001Y-146379219D02*
X277350001Y-131349999D01*
X287287845Y-149716669D02*
X280687451Y-149716669D01*
X288487844Y-150916668D02*
X287287845Y-149716669D01*
X265850001Y-125767003D02*
X265850001Y-102368750D01*
X284205000Y-99725497D02*
X284205000Y-105642497D01*
X284900001Y-99030496D02*
X284205000Y-99725497D01*
X284205000Y-105642497D02*
X284900001Y-106337498D01*
X284900001Y-87287499D02*
X284900001Y-99030496D01*
X284205000Y-80675497D02*
X284205000Y-86592497D01*
X284900001Y-79980496D02*
X284205000Y-80675497D01*
X284205000Y-86592497D02*
X284900001Y-87287498D01*
X284900001Y-68237499D02*
X284900001Y-79980496D01*
X284204999Y-61625498D02*
X284204999Y-67542498D01*
X284900000Y-60930497D02*
X284204999Y-61625498D01*
X284204999Y-67542498D02*
X284900000Y-68237499D01*
X284900000Y-49187500D02*
X284900000Y-60930497D01*
X297607274Y-132156606D02*
X292804136Y-132156606D01*
X292804136Y-132156606D02*
X284900000Y-124252470D01*
X298807273Y-133356605D02*
X297607274Y-132156606D01*
X284900000Y-124252470D02*
X284900000Y-106337499D01*
X308165863Y-158234232D02*
X303083613Y-158234232D01*
X303083613Y-158234232D02*
X298807273Y-153957892D01*
X298807273Y-153957892D02*
X298807273Y-133356605D01*
X303255000Y-64800499D02*
X303255000Y-70717499D01*
X303950001Y-64105498D02*
X303255000Y-64800499D01*
X303255000Y-70717499D02*
X303950001Y-71412500D01*
X303950001Y-52362501D02*
X303950001Y-64105498D01*
X303254998Y-83850498D02*
X303254998Y-89767498D01*
X303949999Y-83155497D02*
X303254998Y-83850498D01*
X303254998Y-89767498D02*
X303949999Y-90462499D01*
X303949999Y-71412500D02*
X303949999Y-83155497D01*
X303255000Y-102900498D02*
X303255000Y-108817498D01*
X303950001Y-102205497D02*
X303255000Y-102900498D01*
X303255000Y-108817498D02*
X303950001Y-109512499D01*
X303950001Y-90462500D02*
X303950001Y-102205497D01*
X303962500Y-109500000D02*
X303950000Y-109512500D01*
X310368780Y-109500000D02*
X303962500Y-109500000D01*
X319387920Y-141740478D02*
X327215864Y-133912534D01*
X317690864Y-141740478D02*
X319387920Y-141740478D01*
X327215864Y-133912534D02*
X327215864Y-125242689D01*
X92705000Y-102900498D02*
X92705000Y-108817498D01*
X93400001Y-102205497D02*
X92705000Y-102900498D01*
X92705000Y-108817498D02*
X93400001Y-109512499D01*
X93400001Y-90462500D02*
X93400001Y-102205497D01*
X92705000Y-83850498D02*
X92705000Y-89767498D01*
X93400001Y-83155497D02*
X92705000Y-83850498D01*
X92705000Y-89767498D02*
X93400001Y-90462499D01*
X93400001Y-71412500D02*
X93400001Y-83155497D01*
X92705000Y-64800498D02*
X92705000Y-70717498D01*
X93400001Y-64105497D02*
X92705000Y-64800498D01*
X92705000Y-70717498D02*
X93400001Y-71412499D01*
X93400001Y-52362500D02*
X93400001Y-64105497D01*
X111755000Y-61625498D02*
X111755000Y-67542498D01*
X112450001Y-60930497D02*
X111755000Y-61625498D01*
X111755000Y-67542498D02*
X112450001Y-68237499D01*
X112450001Y-49187500D02*
X112450001Y-60930497D01*
X111755000Y-80675498D02*
X111755000Y-86592498D01*
X112450001Y-79980497D02*
X111755000Y-80675498D01*
X111755000Y-86592498D02*
X112450001Y-87287499D01*
X112450001Y-68237500D02*
X112450001Y-79980497D01*
X111755000Y-99725498D02*
X111755000Y-105642498D01*
X112450001Y-99030497D02*
X111755000Y-99725498D01*
X111755000Y-105642498D02*
X112450001Y-106337499D01*
X112450001Y-87287500D02*
X112450001Y-99030497D01*
X130805000Y-95756748D02*
X130805000Y-101673748D01*
X131500001Y-95061747D02*
X130805000Y-95756748D01*
X130805000Y-101673748D02*
X131500001Y-102368749D01*
X131500001Y-83318750D02*
X131500001Y-95061747D01*
X130805000Y-76706748D02*
X130805000Y-82623748D01*
X131500001Y-76011747D02*
X130805000Y-76706748D01*
X130805000Y-82623748D02*
X131500001Y-83318749D01*
X131500001Y-64268750D02*
X131500001Y-76011747D01*
X130805000Y-57656748D02*
X130805000Y-63573748D01*
X131500001Y-56961747D02*
X130805000Y-57656748D01*
X130805000Y-63573748D02*
X131500001Y-64268749D01*
X131500001Y-45218750D02*
X131500001Y-56961747D01*
X131500000Y-117450000D02*
X118800000Y-130150000D01*
X131500000Y-102368750D02*
X131500000Y-117450000D01*
X149855000Y-61625498D02*
X149855000Y-67542498D01*
X150550001Y-60930497D02*
X149855000Y-61625498D01*
X149855000Y-67542498D02*
X150550001Y-68237499D01*
X150550001Y-49187500D02*
X150550001Y-60930497D01*
X149855000Y-80675498D02*
X149855000Y-86592498D01*
X150550001Y-79980497D02*
X149855000Y-80675498D01*
X149855000Y-86592498D02*
X150550001Y-87287499D01*
X150550001Y-68237500D02*
X150550001Y-79980497D01*
X149855000Y-99725498D02*
X149855000Y-105642498D01*
X150550001Y-99030497D02*
X149855000Y-99725498D01*
X149855000Y-105642498D02*
X150550001Y-106337499D01*
X150550001Y-87287500D02*
X150550001Y-99030497D01*
X149855000Y-118775498D02*
X149855000Y-124692498D01*
X150550001Y-118080497D02*
X149855000Y-118775498D01*
X149855000Y-124692498D02*
X150550001Y-125387499D01*
X150550001Y-106337500D02*
X150550001Y-118080497D01*
X168905000Y-123537998D02*
X168905000Y-129454998D01*
X169600001Y-122842997D02*
X168905000Y-123537998D01*
X168905000Y-129454998D02*
X169600001Y-130149999D01*
X169600001Y-111100000D02*
X169600001Y-122842997D01*
X168905000Y-104487998D02*
X168905000Y-110404998D01*
X169600001Y-103792997D02*
X168905000Y-104487998D01*
X168905000Y-110404998D02*
X169600001Y-111099999D01*
X169600001Y-92050000D02*
X169600001Y-103792997D01*
X168905000Y-85437998D02*
X168905000Y-91354998D01*
X169600001Y-84742997D02*
X168905000Y-85437998D01*
X168905000Y-91354998D02*
X169600001Y-92049999D01*
X169600001Y-73000000D02*
X169600001Y-84742997D01*
X168905000Y-66387998D02*
X168905000Y-72304998D01*
X169600001Y-65692997D02*
X168905000Y-66387998D01*
X168905000Y-72304998D02*
X169600001Y-72999999D01*
X169600001Y-53950000D02*
X169600001Y-65692997D01*
X187955000Y-66387998D02*
X187955000Y-72304998D01*
X188650001Y-65692997D02*
X187955000Y-66387998D01*
X187955000Y-72304998D02*
X188650001Y-72999999D01*
X188650001Y-53950000D02*
X188650001Y-65692997D01*
X187955000Y-85437998D02*
X187955000Y-91354998D01*
X188650001Y-84742997D02*
X187955000Y-85437998D01*
X187955000Y-91354998D02*
X188650001Y-92049999D01*
X188650001Y-73000000D02*
X188650001Y-84742997D01*
X187955000Y-104487998D02*
X187955000Y-110404998D01*
X188650001Y-103792997D02*
X187955000Y-104487998D01*
X187955000Y-110404998D02*
X188650001Y-111099999D01*
X188650001Y-92050000D02*
X188650001Y-103792997D01*
X187955000Y-123537998D02*
X187955000Y-129454998D01*
X188650001Y-122842997D02*
X187955000Y-123537998D01*
X187955000Y-129454998D02*
X188650001Y-130149999D01*
X188650001Y-111100000D02*
X188650001Y-122842997D01*
X56133690Y-66769940D02*
X61277500Y-71913750D01*
X56133690Y-46753810D02*
X56133690Y-66769940D01*
X57785000Y-45102500D02*
X56133690Y-46753810D01*
X56583699Y-48843801D02*
X57785000Y-47642500D01*
X56583699Y-64679949D02*
X56583699Y-48843801D01*
X63817500Y-71913750D02*
X56583699Y-64679949D01*
X312419999Y-40546251D02*
X315325000Y-37641250D01*
X312419999Y-73699550D02*
X312419999Y-40546251D01*
X323639199Y-84918750D02*
X312419999Y-73699550D01*
X326836025Y-84918750D02*
X323639199Y-84918750D01*
X59606298Y-70878958D02*
X55683680Y-66956340D01*
X58850000Y-85150000D02*
X59606298Y-84393702D01*
X59606298Y-84393702D02*
X59606298Y-70878958D01*
X55683680Y-39583820D02*
X57785000Y-37482500D01*
X55683680Y-66956340D02*
X55683680Y-39583820D01*
D24*
X80331349Y-42248849D02*
X78766250Y-40683750D01*
X80331349Y-91277401D02*
X80331349Y-42248849D01*
X73183750Y-98425000D02*
X80331349Y-91277401D01*
X78766250Y-40683750D02*
X73025000Y-34942500D01*
M02*
