G04 #@! TF.GenerationSoftware,KiCad,Pcbnew,(5.1.6)-1*
G04 #@! TF.CreationDate,2020-10-04T11:11:15+08:00*
G04 #@! TF.ProjectId,Galia,47616c69-612e-46b6-9963-61645f706362,rev?*
G04 #@! TF.SameCoordinates,Original*
G04 #@! TF.FileFunction,Copper,L2,Bot*
G04 #@! TF.FilePolarity,Positive*
%FSLAX46Y46*%
G04 Gerber Fmt 4.6, Leading zero omitted, Abs format (unit mm)*
G04 Created by KiCad (PCBNEW (5.1.6)-1) date 2020-10-04 11:11:15*
%MOMM*%
%LPD*%
G01*
G04 APERTURE LIST*
G04 #@! TA.AperFunction,ComponentPad*
%ADD10C,4.400000*%
G04 #@! TD*
G04 #@! TA.AperFunction,ComponentPad*
%ADD11C,2.000000*%
G04 #@! TD*
G04 #@! TA.AperFunction,ComponentPad*
%ADD12C,0.100000*%
G04 #@! TD*
G04 #@! TA.AperFunction,SMDPad,CuDef*
%ADD13R,2.550000X2.500000*%
G04 #@! TD*
G04 #@! TA.AperFunction,ComponentPad*
%ADD14C,2.400000*%
G04 #@! TD*
G04 #@! TA.AperFunction,SMDPad,CuDef*
%ADD15C,0.100000*%
G04 #@! TD*
G04 #@! TA.AperFunction,ComponentPad*
%ADD16R,3.400000X3.400000*%
G04 #@! TD*
G04 #@! TA.AperFunction,ComponentPad*
%ADD17O,3.400000X3.400000*%
G04 #@! TD*
G04 #@! TA.AperFunction,ComponentPad*
%ADD18O,2.200000X1.000000*%
G04 #@! TD*
G04 #@! TA.AperFunction,ComponentPad*
%ADD19O,1.800000X1.000000*%
G04 #@! TD*
G04 #@! TA.AperFunction,SMDPad,CuDef*
%ADD20R,0.800000X0.600000*%
G04 #@! TD*
G04 #@! TA.AperFunction,SMDPad,CuDef*
%ADD21R,0.800000X0.300000*%
G04 #@! TD*
G04 #@! TA.AperFunction,ComponentPad*
%ADD22R,1.700000X1.700000*%
G04 #@! TD*
G04 #@! TA.AperFunction,ComponentPad*
%ADD23O,1.700000X1.700000*%
G04 #@! TD*
G04 #@! TA.AperFunction,SMDPad,CuDef*
%ADD24R,1.200000X0.900000*%
G04 #@! TD*
G04 #@! TA.AperFunction,ComponentPad*
%ADD25C,1.752600*%
G04 #@! TD*
G04 #@! TA.AperFunction,ComponentPad*
%ADD26R,1.752600X1.752600*%
G04 #@! TD*
G04 #@! TA.AperFunction,SMDPad,CuDef*
%ADD27R,1.000000X1.700000*%
G04 #@! TD*
G04 #@! TA.AperFunction,ViaPad*
%ADD28C,0.700000*%
G04 #@! TD*
G04 #@! TA.AperFunction,Conductor*
%ADD29C,0.250000*%
G04 #@! TD*
G04 #@! TA.AperFunction,Conductor*
%ADD30C,0.500000*%
G04 #@! TD*
G04 APERTURE END LIST*
D10*
X56356248Y-103187500D03*
X332581250Y-103187500D03*
X302418750Y-140493750D03*
X271462500Y-112712500D03*
X290512500Y-57150000D03*
X214312500Y-117475000D03*
X214312500Y-60325000D03*
X117475000Y-112712500D03*
X98425000Y-57150000D03*
X174625000Y-117475000D03*
X174625000Y-60325000D03*
D11*
X324146314Y-127576887D03*
G04 #@! TA.AperFunction,ComponentPad*
D12*
G36*
X331030289Y-113653493D02*
G01*
X332762339Y-114653493D01*
X331762339Y-116385543D01*
X330030289Y-115385543D01*
X331030289Y-113653493D01*
G37*
G04 #@! TD.AperFunction*
D11*
X329231250Y-113769518D03*
X327066186Y-112519518D03*
X319816186Y-125076887D03*
G04 #@! TA.AperFunction,ComponentPad*
D12*
G36*
X330264967Y-121179068D02*
G01*
X331997017Y-122179068D01*
X330397017Y-124950350D01*
X328664967Y-123950350D01*
X330264967Y-121179068D01*
G37*
G04 #@! TD.AperFunction*
G04 #@! TA.AperFunction,ComponentPad*
G36*
X320565483Y-115579068D02*
G01*
X322297533Y-116579068D01*
X320697533Y-119350350D01*
X318965483Y-118350350D01*
X320565483Y-115579068D01*
G37*
G04 #@! TD.AperFunction*
D13*
X235802500Y-43497501D03*
X248729500Y-40957501D03*
D14*
X248637500Y-42887501D03*
X247387500Y-49187501D03*
D13*
X235802501Y-119697500D03*
X248729501Y-117157500D03*
D14*
X248637501Y-119087500D03*
X247387501Y-125387500D03*
G04 #@! TA.AperFunction,SMDPad,CuDef*
D15*
G36*
X312819642Y-130575261D02*
G01*
X311569642Y-132740325D01*
X309361278Y-131465325D01*
X310611278Y-129300261D01*
X312819642Y-130575261D01*
G37*
G04 #@! TD.AperFunction*
G04 #@! TA.AperFunction,SMDPad,CuDef*
G36*
X325284752Y-134839057D02*
G01*
X324034752Y-137004121D01*
X321826388Y-135729121D01*
X323076388Y-133564057D01*
X325284752Y-134839057D01*
G37*
G04 #@! TD.AperFunction*
D14*
X322510896Y-136909518D03*
X318278364Y-141740478D03*
X327803364Y-125242689D03*
X332035896Y-120411729D03*
G04 #@! TA.AperFunction,SMDPad,CuDef*
D15*
G36*
X334809752Y-118341268D02*
G01*
X333559752Y-120506332D01*
X331351388Y-119231332D01*
X332601388Y-117066268D01*
X334809752Y-118341268D01*
G37*
G04 #@! TD.AperFunction*
G04 #@! TA.AperFunction,SMDPad,CuDef*
G36*
X322344642Y-114077472D02*
G01*
X321094642Y-116242536D01*
X318886278Y-114967536D01*
X320136278Y-112802472D01*
X322344642Y-114077472D01*
G37*
G04 #@! TD.AperFunction*
G04 #@! TA.AperFunction,SMDPad,CuDef*
G36*
X303294641Y-147069015D02*
G01*
X302044641Y-149234079D01*
X299836277Y-147959079D01*
X301086277Y-145794015D01*
X303294641Y-147069015D01*
G37*
G04 #@! TD.AperFunction*
G04 #@! TA.AperFunction,SMDPad,CuDef*
G36*
X315759751Y-151332811D02*
G01*
X314509751Y-153497875D01*
X312301387Y-152222875D01*
X313551387Y-150057811D01*
X315759751Y-151332811D01*
G37*
G04 #@! TD.AperFunction*
D14*
X312985895Y-153403272D03*
X308753363Y-158234232D03*
G04 #@! TA.AperFunction,SMDPad,CuDef*
D15*
G36*
X279759400Y-142690316D02*
G01*
X279433084Y-145168928D01*
X276904900Y-144836086D01*
X277231216Y-142357474D01*
X279759400Y-142690316D01*
G37*
G04 #@! TD.AperFunction*
G04 #@! TA.AperFunction,SMDPad,CuDef*
G36*
X292907344Y-141859358D02*
G01*
X292581028Y-144337970D01*
X290052844Y-144005128D01*
X290379160Y-141526516D01*
X292907344Y-141859358D01*
G37*
G04 #@! TD.AperFunction*
D14*
X291136965Y-144833723D03*
X289075344Y-150916668D03*
D13*
X273902500Y-100647499D03*
X286829500Y-98107499D03*
D14*
X286737500Y-100037499D03*
X285487500Y-106337499D03*
G04 #@! TA.AperFunction,SMDPad,CuDef*
D15*
G36*
X291232282Y-123984655D02*
G01*
X290585235Y-126399470D01*
X288122124Y-125739481D01*
X288769171Y-123324666D01*
X291232282Y-123984655D01*
G37*
G04 #@! TD.AperFunction*
G04 #@! TA.AperFunction,SMDPad,CuDef*
G36*
X304376205Y-124876958D02*
G01*
X303729158Y-127291773D01*
X301266047Y-126631784D01*
X301913094Y-124216969D01*
X304376205Y-124876958D01*
G37*
G04 #@! TD.AperFunction*
D14*
X302232740Y-127594796D03*
X299394773Y-133356605D03*
D13*
X292952498Y-84772500D03*
X305879498Y-82232500D03*
D14*
X305787498Y-84162500D03*
X304537498Y-90462500D03*
D13*
X292952500Y-65722501D03*
X305879500Y-63182501D03*
D14*
X305787500Y-65112501D03*
X304537500Y-71412501D03*
D13*
X273902500Y-81597499D03*
X286829500Y-79057499D03*
D14*
X286737500Y-80987499D03*
X285487500Y-87287499D03*
D13*
X177065000Y-124460000D03*
X189992000Y-121920000D03*
D14*
X189900000Y-123850000D03*
X188650000Y-130150000D03*
D13*
X197702500Y-48260000D03*
X210629500Y-45720000D03*
D14*
X210537500Y-47650000D03*
X209287500Y-53950000D03*
D13*
X158015000Y-105410000D03*
X170942000Y-102870000D03*
D14*
X170850000Y-104800000D03*
X169600000Y-111100000D03*
D13*
X177065000Y-105410000D03*
X189992000Y-102870000D03*
D14*
X189900000Y-104800000D03*
X188650000Y-111100000D03*
D13*
X177065000Y-86360000D03*
X189992000Y-83820000D03*
D14*
X189900000Y-85750000D03*
X188650000Y-92050000D03*
D13*
X177065000Y-67310000D03*
X189992000Y-64770000D03*
D14*
X189900000Y-66700000D03*
X188650000Y-73000000D03*
D13*
X177065000Y-48260000D03*
X189992000Y-45720000D03*
D14*
X189900000Y-47650000D03*
X188650000Y-53950000D03*
D13*
X158015000Y-124460000D03*
X170942000Y-121920000D03*
D14*
X170850000Y-123850000D03*
X169600000Y-130150000D03*
D13*
X158015000Y-86360000D03*
X170942000Y-83820000D03*
D14*
X170850000Y-85750000D03*
X169600000Y-92050000D03*
D13*
X158015000Y-67310000D03*
X170942000Y-64770000D03*
D14*
X170850000Y-66700000D03*
X169600000Y-73000000D03*
D13*
X158015000Y-48260000D03*
X170942000Y-45720000D03*
D14*
X170850000Y-47650000D03*
X169600000Y-53950000D03*
D13*
X138965000Y-119697500D03*
X151892000Y-117157500D03*
D14*
X151800000Y-119087500D03*
X150550000Y-125387500D03*
D13*
X138965000Y-100647500D03*
X151892000Y-98107500D03*
D14*
X151800000Y-100037500D03*
X150550000Y-106337500D03*
D13*
X138965000Y-81597500D03*
X151892000Y-79057500D03*
D14*
X151800000Y-80987500D03*
X150550000Y-87287500D03*
D13*
X138965000Y-62547500D03*
X151892000Y-60007500D03*
D14*
X151800000Y-61937500D03*
X150550000Y-68237500D03*
D13*
X138965000Y-43497500D03*
X151892000Y-40957500D03*
D14*
X151800000Y-42887500D03*
X150550000Y-49187500D03*
D13*
X107215000Y-124460000D03*
X120142000Y-121920000D03*
D14*
X120050000Y-123850000D03*
X118800000Y-130150000D03*
D13*
X119915000Y-96678750D03*
X132842000Y-94138750D03*
D14*
X132750000Y-96068750D03*
X131500000Y-102368750D03*
D13*
X119915000Y-77628750D03*
X132842000Y-75088750D03*
D14*
X132750000Y-77018750D03*
X131500000Y-83318750D03*
D13*
X119915000Y-58578750D03*
X132842000Y-56038750D03*
D14*
X132750000Y-57968750D03*
X131500000Y-64268750D03*
D13*
X119915000Y-39528750D03*
X132842000Y-36988750D03*
D14*
X132750000Y-38918750D03*
X131500000Y-45218750D03*
D13*
X100865000Y-100647500D03*
X113792000Y-98107500D03*
D14*
X113700000Y-100037500D03*
X112450000Y-106337500D03*
D13*
X100865000Y-81597500D03*
X113792000Y-79057500D03*
D14*
X113700000Y-80987500D03*
X112450000Y-87287500D03*
D13*
X100865000Y-62547500D03*
X113792000Y-60007500D03*
D14*
X113700000Y-61937500D03*
X112450000Y-68237500D03*
D13*
X100865000Y-43497500D03*
X113792000Y-40957500D03*
D14*
X113700000Y-42887500D03*
X112450000Y-49187500D03*
D13*
X81815000Y-103822500D03*
X94742000Y-101282500D03*
D14*
X94650000Y-103212500D03*
X93400000Y-109512500D03*
D13*
X81815000Y-84772500D03*
X94742000Y-82232500D03*
D14*
X94650000Y-84162500D03*
X93400000Y-90462500D03*
D13*
X81815000Y-65722500D03*
X94742000Y-63182500D03*
D14*
X94650000Y-65112500D03*
X93400000Y-71412500D03*
D13*
X81815000Y-46672500D03*
X94742000Y-44132500D03*
D14*
X94650000Y-46062500D03*
X93400000Y-52362500D03*
D13*
X292952500Y-103822500D03*
X305879500Y-101282500D03*
D14*
X305787500Y-103212500D03*
X304537500Y-109512500D03*
D13*
X292952501Y-46672500D03*
X305879501Y-44132500D03*
D14*
X305787501Y-46062500D03*
X304537501Y-52362500D03*
D13*
X273902499Y-62547500D03*
X286829499Y-60007500D03*
D14*
X286737499Y-61937500D03*
X285487499Y-68237500D03*
D13*
X273902499Y-43497500D03*
X286829499Y-40957500D03*
D14*
X286737499Y-42887500D03*
X285487499Y-49187500D03*
D13*
X267552500Y-124460000D03*
X280479500Y-121920000D03*
D14*
X280387500Y-123850000D03*
X279137500Y-130150000D03*
D13*
X254852501Y-96678750D03*
X267779501Y-94138750D03*
D14*
X267687501Y-96068750D03*
X266437501Y-102368750D03*
D13*
X254852501Y-77628749D03*
X267779501Y-75088749D03*
D14*
X267687501Y-77018749D03*
X266437501Y-83318749D03*
D13*
X254852500Y-58578751D03*
X267779500Y-56038751D03*
D14*
X267687500Y-57968751D03*
X266437500Y-64268751D03*
D13*
X254852501Y-39528750D03*
X267779501Y-36988750D03*
D14*
X267687501Y-38918750D03*
X266437501Y-45218750D03*
D13*
X235802500Y-100647499D03*
X248729500Y-98107499D03*
D14*
X248637500Y-100037499D03*
X247387500Y-106337499D03*
D13*
X235802500Y-81597499D03*
X248729500Y-79057499D03*
D14*
X248637500Y-80987499D03*
X247387500Y-87287499D03*
D13*
X235802500Y-62547501D03*
X248729500Y-60007501D03*
D14*
X248637500Y-61937501D03*
X247387500Y-68237501D03*
D13*
X216752499Y-124460002D03*
X229679499Y-121920002D03*
D14*
X229587499Y-123850002D03*
X228337499Y-130150002D03*
D13*
X216752499Y-105410000D03*
X229679499Y-102870000D03*
D14*
X229587499Y-104800000D03*
X228337499Y-111100000D03*
D13*
X216752501Y-86360000D03*
X229679501Y-83820000D03*
D14*
X229587501Y-85750000D03*
X228337501Y-92050000D03*
D13*
X216752499Y-67310000D03*
X229679499Y-64770000D03*
D14*
X229587499Y-66700000D03*
X228337499Y-73000000D03*
D13*
X216752500Y-48259999D03*
X229679500Y-45719999D03*
D14*
X229587500Y-47649999D03*
X228337500Y-53949999D03*
D13*
X197702501Y-124459999D03*
X210629501Y-121919999D03*
D14*
X210537501Y-123849999D03*
X209287501Y-130149999D03*
D13*
X197702501Y-105410000D03*
X210629501Y-102870000D03*
D14*
X210537501Y-104800000D03*
X209287501Y-111100000D03*
D13*
X197702501Y-86360000D03*
X210629501Y-83820000D03*
D14*
X210537501Y-85750000D03*
X209287501Y-92050000D03*
D13*
X197702500Y-67310001D03*
X210629500Y-64770001D03*
D14*
X210537500Y-66700001D03*
X209287500Y-73000001D03*
D10*
X315532500Y-72487549D03*
X331532500Y-72487549D03*
X73081297Y-72328799D03*
X57081297Y-72328799D03*
D16*
X68103750Y-106362500D03*
D17*
X73183750Y-106362500D03*
D16*
X317341250Y-106362500D03*
D17*
X322421250Y-106362500D03*
G04 #@! TA.AperFunction,SMDPad,CuDef*
D15*
G36*
X331824942Y-126352112D02*
G01*
X330785712Y-125752112D01*
X331235712Y-124972690D01*
X332274942Y-125572690D01*
X331824942Y-126352112D01*
G37*
G04 #@! TD.AperFunction*
G04 #@! TA.AperFunction,SMDPad,CuDef*
G36*
X333474942Y-123494228D02*
G01*
X332435712Y-122894228D01*
X332885712Y-122114806D01*
X333924942Y-122714806D01*
X333474942Y-123494228D01*
G37*
G04 #@! TD.AperFunction*
G04 #@! TA.AperFunction,SMDPad,CuDef*
G36*
X322299942Y-142849901D02*
G01*
X321260712Y-142249901D01*
X321710712Y-141470479D01*
X322749942Y-142070479D01*
X322299942Y-142849901D01*
G37*
G04 #@! TD.AperFunction*
G04 #@! TA.AperFunction,SMDPad,CuDef*
G36*
X323949942Y-139992017D02*
G01*
X322910712Y-139392017D01*
X323360712Y-138612595D01*
X324399942Y-139212595D01*
X323949942Y-139992017D01*
G37*
G04 #@! TD.AperFunction*
G04 #@! TA.AperFunction,SMDPad,CuDef*
G36*
X312774942Y-159347685D02*
G01*
X311735712Y-158747685D01*
X312185712Y-157968263D01*
X313224942Y-158568263D01*
X312774942Y-159347685D01*
G37*
G04 #@! TD.AperFunction*
G04 #@! TA.AperFunction,SMDPad,CuDef*
G36*
X314424942Y-156489801D02*
G01*
X313385712Y-155889801D01*
X313835712Y-155110379D01*
X314874942Y-155710379D01*
X314424942Y-156489801D01*
G37*
G04 #@! TD.AperFunction*
D18*
X336237500Y-80943750D03*
X336237500Y-92093750D03*
D19*
X332237500Y-80943750D03*
X332237500Y-92093750D03*
D20*
X331337500Y-89718750D03*
X331337500Y-83318750D03*
X331337500Y-84118750D03*
X331337500Y-88918750D03*
D21*
X331337500Y-87268750D03*
X331337500Y-85768750D03*
X331337500Y-86768750D03*
X331337500Y-86268750D03*
X331337500Y-85268750D03*
X331337500Y-84768750D03*
X331337500Y-87768750D03*
X331337500Y-88268750D03*
D18*
X52700000Y-92093750D03*
X52700000Y-80943750D03*
D19*
X56700000Y-92093750D03*
X56700000Y-80943750D03*
D20*
X57600000Y-83318750D03*
X57600000Y-89718750D03*
X57600000Y-88918750D03*
X57600000Y-84118750D03*
D21*
X57600000Y-85768750D03*
X57600000Y-87268750D03*
X57600000Y-86268750D03*
X57600000Y-86768750D03*
X57600000Y-87768750D03*
X57600000Y-88268750D03*
X57600000Y-85268750D03*
X57600000Y-84768750D03*
D22*
X68897500Y-71913750D03*
D23*
X66357500Y-71913750D03*
X63817500Y-71913750D03*
X61277500Y-71913750D03*
D22*
X327342500Y-71987549D03*
D23*
X324802500Y-71987549D03*
X322262500Y-71987549D03*
X319722500Y-71987549D03*
G04 #@! TA.AperFunction,SMDPad,CuDef*
D15*
G36*
X293367822Y-150403818D02*
G01*
X292178088Y-150247186D01*
X292295562Y-149354886D01*
X293485296Y-149511518D01*
X293367822Y-150403818D01*
G37*
G04 #@! TD.AperFunction*
G04 #@! TA.AperFunction,SMDPad,CuDef*
G36*
X293798558Y-147132050D02*
G01*
X292608824Y-146975418D01*
X292726298Y-146083118D01*
X293916032Y-146239750D01*
X293798558Y-147132050D01*
G37*
G04 #@! TD.AperFunction*
D24*
X288925001Y-104837501D03*
X288925001Y-101537501D03*
G04 #@! TA.AperFunction,SMDPad,CuDef*
D15*
G36*
X303413371Y-133131543D02*
G01*
X302254260Y-132820960D01*
X302487197Y-131951627D01*
X303646308Y-132262210D01*
X303413371Y-133131543D01*
G37*
G04 #@! TD.AperFunction*
G04 #@! TA.AperFunction,SMDPad,CuDef*
G36*
X304267473Y-129943987D02*
G01*
X303108362Y-129633404D01*
X303341299Y-128764071D01*
X304500410Y-129074654D01*
X304267473Y-129943987D01*
G37*
G04 #@! TD.AperFunction*
D24*
X307975000Y-88962500D03*
X307975000Y-85662500D03*
X307974999Y-69912499D03*
X307974999Y-66612499D03*
X212725000Y-52450000D03*
X212725000Y-49150000D03*
D25*
X73025000Y-34942500D03*
X57785000Y-62882500D03*
X73025000Y-37482500D03*
X73025000Y-40022500D03*
X73025000Y-42562500D03*
X73025000Y-45102500D03*
X73025000Y-47642500D03*
X73025000Y-50182500D03*
X73025000Y-52722500D03*
X73025000Y-55262500D03*
X73025000Y-57802500D03*
X73025000Y-60342500D03*
X73025000Y-62882500D03*
X57785000Y-60342500D03*
X57785000Y-57802500D03*
X57785000Y-55262500D03*
X57785000Y-52722500D03*
X57785000Y-50182500D03*
X57785000Y-47642500D03*
X57785000Y-45102500D03*
X57785000Y-42562500D03*
X57785000Y-40022500D03*
X57785000Y-37482500D03*
D26*
X57785000Y-34942500D03*
D25*
X331152500Y-35101250D03*
X315912500Y-63041250D03*
X331152500Y-37641250D03*
X331152500Y-40181250D03*
X331152500Y-42721250D03*
X331152500Y-45261250D03*
X331152500Y-47801250D03*
X331152500Y-50341250D03*
X331152500Y-52881250D03*
X331152500Y-55421250D03*
X331152500Y-57961250D03*
X331152500Y-60501250D03*
X331152500Y-63041250D03*
X315912500Y-60501250D03*
X315912500Y-57961250D03*
X315912500Y-55421250D03*
X315912500Y-52881250D03*
X315912500Y-50341250D03*
X315912500Y-47801250D03*
X315912500Y-45261250D03*
X315912500Y-42721250D03*
X315912500Y-40181250D03*
X315912500Y-37641250D03*
D26*
X315912500Y-35101250D03*
D27*
X68743750Y-84162500D03*
X68743750Y-90462500D03*
X72543750Y-84162500D03*
X72543750Y-90462500D03*
X317981250Y-84162500D03*
X317981250Y-90462500D03*
X321781250Y-84162500D03*
X321781250Y-90462500D03*
G04 #@! TA.AperFunction,SMDPad,CuDef*
G36*
G01*
X70406250Y-79643750D02*
X70881250Y-79643750D01*
G75*
G02*
X71118750Y-79881250I0J-237500D01*
G01*
X71118750Y-80456250D01*
G75*
G02*
X70881250Y-80693750I-237500J0D01*
G01*
X70406250Y-80693750D01*
G75*
G02*
X70168750Y-80456250I0J237500D01*
G01*
X70168750Y-79881250D01*
G75*
G02*
X70406250Y-79643750I237500J0D01*
G01*
G37*
G04 #@! TD.AperFunction*
G04 #@! TA.AperFunction,SMDPad,CuDef*
G36*
G01*
X70406250Y-81393750D02*
X70881250Y-81393750D01*
G75*
G02*
X71118750Y-81631250I0J-237500D01*
G01*
X71118750Y-82206250D01*
G75*
G02*
X70881250Y-82443750I-237500J0D01*
G01*
X70406250Y-82443750D01*
G75*
G02*
X70168750Y-82206250I0J237500D01*
G01*
X70168750Y-81631250D01*
G75*
G02*
X70406250Y-81393750I237500J0D01*
G01*
G37*
G04 #@! TD.AperFunction*
G04 #@! TA.AperFunction,SMDPad,CuDef*
G36*
G01*
X319643750Y-79562500D02*
X320118750Y-79562500D01*
G75*
G02*
X320356250Y-79800000I0J-237500D01*
G01*
X320356250Y-80375000D01*
G75*
G02*
X320118750Y-80612500I-237500J0D01*
G01*
X319643750Y-80612500D01*
G75*
G02*
X319406250Y-80375000I0J237500D01*
G01*
X319406250Y-79800000D01*
G75*
G02*
X319643750Y-79562500I237500J0D01*
G01*
G37*
G04 #@! TD.AperFunction*
G04 #@! TA.AperFunction,SMDPad,CuDef*
G36*
G01*
X319643750Y-81312500D02*
X320118750Y-81312500D01*
G75*
G02*
X320356250Y-81550000I0J-237500D01*
G01*
X320356250Y-82125000D01*
G75*
G02*
X320118750Y-82362500I-237500J0D01*
G01*
X319643750Y-82362500D01*
G75*
G02*
X319406250Y-82125000I0J237500D01*
G01*
X319406250Y-81550000D01*
G75*
G02*
X319643750Y-81312500I237500J0D01*
G01*
G37*
G04 #@! TD.AperFunction*
D22*
X74453750Y-113506250D03*
D23*
X71913750Y-113506250D03*
X69373750Y-113506250D03*
X66833750Y-113506250D03*
X64293750Y-113506250D03*
X61753750Y-113506250D03*
X59213750Y-113506250D03*
X56673750Y-113506250D03*
D24*
X192087500Y-128650000D03*
X192087500Y-125350000D03*
X192087500Y-109600000D03*
X192087500Y-106300000D03*
X192087500Y-90550000D03*
X192087500Y-87250000D03*
X192087500Y-71500000D03*
X192087500Y-68200000D03*
X192087500Y-52450000D03*
X192087500Y-49150000D03*
X173037500Y-128650000D03*
X173037500Y-125350000D03*
X173037500Y-109600000D03*
X173037500Y-106300000D03*
X173037500Y-90550000D03*
X173037500Y-87250000D03*
X173037500Y-71500000D03*
X173037500Y-68200000D03*
X173037500Y-52450000D03*
X173037500Y-49150000D03*
X153987500Y-123887500D03*
X153987500Y-120587500D03*
X153987500Y-104837500D03*
X153987500Y-101537500D03*
X153987500Y-85787500D03*
X153987500Y-82487500D03*
X153987500Y-66737500D03*
X153987500Y-63437500D03*
X153987500Y-47687500D03*
X153987500Y-44387500D03*
X122237500Y-128650000D03*
X122237500Y-125350000D03*
X134937500Y-100868750D03*
X134937500Y-97568750D03*
X134937500Y-81818750D03*
X134937500Y-78518750D03*
X134937500Y-62768750D03*
X134937500Y-59468750D03*
X134937500Y-43718750D03*
X134937500Y-40418750D03*
X115887500Y-104837500D03*
X115887500Y-101537500D03*
X115887500Y-85787500D03*
X115887500Y-82487500D03*
X115887500Y-66737500D03*
X115887500Y-63437500D03*
X115887500Y-47687500D03*
X115887500Y-44387500D03*
X96837500Y-108012500D03*
X96837500Y-104712500D03*
X96837500Y-88962500D03*
X96837500Y-85662500D03*
X96837500Y-69912500D03*
X96837500Y-66612500D03*
X96837500Y-50862500D03*
X96837500Y-47562500D03*
X307975001Y-108012500D03*
X307975001Y-104712500D03*
X307974999Y-50862501D03*
X307974999Y-47562501D03*
X288925000Y-85787500D03*
X288925000Y-82487500D03*
X288925000Y-66737499D03*
X288925000Y-63437499D03*
X288925000Y-47687499D03*
X288925000Y-44387499D03*
X282575000Y-128650001D03*
X282575000Y-125350001D03*
X269875000Y-100868750D03*
X269875000Y-97568750D03*
X269875000Y-81818750D03*
X269875000Y-78518750D03*
X269874999Y-62768749D03*
X269874999Y-59468749D03*
X269875000Y-43718751D03*
X269875000Y-40418751D03*
X250825000Y-123887501D03*
X250825000Y-120587501D03*
X250825001Y-104837500D03*
X250825001Y-101537500D03*
X250825000Y-85787500D03*
X250825000Y-82487500D03*
X250825001Y-66737500D03*
X250825001Y-63437500D03*
X250825000Y-47687500D03*
X250825000Y-44387500D03*
X231787500Y-128650000D03*
X231787500Y-125350000D03*
X231775000Y-109600001D03*
X231775000Y-106300001D03*
X231775000Y-90550001D03*
X231775000Y-87250001D03*
X231775000Y-71500000D03*
X231775000Y-68200000D03*
X231775000Y-52450000D03*
X231775000Y-49150000D03*
X212725000Y-128649999D03*
X212725000Y-125349999D03*
X212724999Y-109600000D03*
X212724999Y-106300000D03*
X212725000Y-90549999D03*
X212725000Y-87249999D03*
X212725000Y-71499999D03*
X212725000Y-68199999D03*
D28*
X310181250Y-127914709D03*
X306143818Y-128527277D03*
X327293750Y-80943750D03*
X77631328Y-70750000D03*
X65557500Y-75850000D03*
X77837500Y-84162500D03*
X78100000Y-75300000D03*
X323937500Y-76050000D03*
X325637500Y-76050000D03*
X75100000Y-81900000D03*
X310956280Y-109500000D03*
X327423525Y-84918750D03*
X58850000Y-85150000D03*
D29*
X212037500Y-49150000D02*
X210537500Y-47650000D01*
X212725000Y-49150000D02*
X212037500Y-49150000D01*
X210629500Y-47558000D02*
X210537500Y-47650000D01*
X210629500Y-45720000D02*
X210629500Y-47558000D01*
X212725000Y-52450000D02*
X212725000Y-53975000D01*
X215125000Y-56375000D02*
X230168750Y-56375000D01*
X212725000Y-53975000D02*
X215125000Y-56375000D01*
X231775000Y-54768750D02*
X231775000Y-52450000D01*
X230168750Y-56375000D02*
X231775000Y-54768750D01*
X231775000Y-52450000D02*
X248381250Y-52450000D01*
X248381250Y-52450000D02*
X250825000Y-50006250D01*
X250825000Y-50006250D02*
X250825000Y-47687500D01*
X250825000Y-47687500D02*
X268225000Y-47687500D01*
X268225000Y-47687500D02*
X269875000Y-46037500D01*
X269875000Y-46037500D02*
X269875000Y-43718751D01*
X275450001Y-51612501D02*
X287318749Y-51612501D01*
X269875000Y-46037500D02*
X275450001Y-51612501D01*
X287318749Y-51612501D02*
X288925000Y-50006250D01*
X288925000Y-50006250D02*
X288925000Y-47687499D01*
X314736250Y-35101250D02*
X315912500Y-35101250D01*
X312374999Y-50862501D02*
X313662500Y-49575000D01*
X313662500Y-49575000D02*
X313662500Y-35625000D01*
X313662500Y-35625000D02*
X314186250Y-35101250D01*
X307974999Y-50862501D02*
X312374999Y-50862501D01*
X314186250Y-35101250D02*
X314736250Y-35101250D01*
X292306250Y-50006250D02*
X288925000Y-50006250D01*
X297087501Y-54787501D02*
X292306250Y-50006250D01*
X306368749Y-54787501D02*
X297087501Y-54787501D01*
X307974999Y-50862501D02*
X307974999Y-53181251D01*
X307974999Y-53181251D02*
X306368749Y-54787501D01*
X210629500Y-66608000D02*
X210537500Y-66700000D01*
X210629500Y-64770000D02*
X210629500Y-66608000D01*
X212037500Y-68200000D02*
X210537500Y-66700000D01*
X212725000Y-68200000D02*
X212037500Y-68200000D01*
X306368749Y-73837501D02*
X307974999Y-72231251D01*
X288925000Y-69056250D02*
X293706251Y-73837501D01*
X293706251Y-73837501D02*
X306368749Y-73837501D01*
X307974999Y-72231251D02*
X307974999Y-69912501D01*
X250825000Y-66737500D02*
X268225000Y-66737500D01*
X268225000Y-66737500D02*
X269875000Y-65087500D01*
X231775000Y-73818750D02*
X231775000Y-71500000D01*
X230168750Y-75425000D02*
X231775000Y-73818750D01*
X212725000Y-71500000D02*
X212725000Y-73025000D01*
X212725000Y-73025000D02*
X215125000Y-75425000D01*
X215125000Y-75425000D02*
X230168750Y-75425000D01*
X269875000Y-65087500D02*
X275450001Y-70662501D01*
X287318749Y-70662501D02*
X288925000Y-69056250D01*
X275450001Y-70662501D02*
X287318749Y-70662501D01*
X231775000Y-71500000D02*
X248381250Y-71500000D01*
X250825000Y-69056250D02*
X250825000Y-66737500D01*
X248381250Y-71500000D02*
X250825000Y-69056250D01*
X288925000Y-66737499D02*
X288925000Y-69056250D01*
X269875000Y-63468750D02*
X269875000Y-65087500D01*
X269874999Y-62768749D02*
X269875000Y-63468750D01*
X331152500Y-65530457D02*
X331152500Y-63041250D01*
X330398193Y-66284764D02*
X331152500Y-65530457D01*
X310800521Y-66284764D02*
X330398193Y-66284764D01*
X307974999Y-69110286D02*
X310800521Y-66284764D01*
X307974999Y-69912499D02*
X307974999Y-69110286D01*
X210629500Y-85658000D02*
X210537500Y-85750000D01*
X210629500Y-83820000D02*
X210629500Y-85658000D01*
X212037500Y-87250000D02*
X210537500Y-85750000D01*
X212725000Y-87250000D02*
X212037500Y-87250000D01*
X306368749Y-92887501D02*
X307974999Y-91281251D01*
X288925000Y-88106250D02*
X293706251Y-92887501D01*
X293706251Y-92887501D02*
X306368749Y-92887501D01*
X307974999Y-91281251D02*
X307974999Y-88962501D01*
X250825000Y-85787500D02*
X268225000Y-85787500D01*
X268225000Y-85787500D02*
X269875000Y-84137500D01*
X231775000Y-92868750D02*
X231775000Y-90550000D01*
X230168750Y-94475000D02*
X231775000Y-92868750D01*
X212725000Y-90550000D02*
X212725000Y-92075000D01*
X212725000Y-92075000D02*
X215125000Y-94475000D01*
X215125000Y-94475000D02*
X230168750Y-94475000D01*
X231775000Y-90550000D02*
X248381250Y-90550000D01*
X250825000Y-88106250D02*
X250825000Y-85787500D01*
X248381250Y-90550000D02*
X250825000Y-88106250D01*
X269875000Y-84137500D02*
X269875000Y-81818750D01*
X288925000Y-88106250D02*
X288925000Y-85787500D01*
X287318749Y-89712501D02*
X288925000Y-88106250D01*
X269875000Y-84137500D02*
X275450001Y-89712501D01*
X275450001Y-89712501D02*
X287318749Y-89712501D01*
X307975000Y-87297502D02*
X307975000Y-88962500D01*
X308931250Y-86341252D02*
X307975000Y-87297502D01*
X308931250Y-68830127D02*
X308931250Y-86341252D01*
X311026602Y-66734775D02*
X308931250Y-68830127D01*
X330584593Y-66734774D02*
X311026602Y-66734775D01*
X332353801Y-64965566D02*
X330584593Y-66734774D01*
X332353801Y-61702551D02*
X332353801Y-64965566D01*
X331152500Y-60501250D02*
X332353801Y-61702551D01*
X210629500Y-104708000D02*
X210537500Y-104800000D01*
X210629500Y-102870000D02*
X210629500Y-104708000D01*
X212037500Y-106300000D02*
X210537500Y-104800000D01*
X212725000Y-106300000D02*
X212037500Y-106300000D01*
X250825000Y-104837500D02*
X268225000Y-104837500D01*
X268225000Y-104837500D02*
X269875000Y-103187500D01*
X231775000Y-111918750D02*
X231775000Y-109600000D01*
X230168750Y-113525000D02*
X231775000Y-111918750D01*
X212725000Y-109600000D02*
X212725000Y-111125000D01*
X212725000Y-111125000D02*
X215125000Y-113525000D01*
X215125000Y-113525000D02*
X230168750Y-113525000D01*
X269875000Y-103187500D02*
X275450001Y-108762501D01*
X287318749Y-108762501D02*
X288925000Y-107156250D01*
X275450001Y-108762501D02*
X287318749Y-108762501D01*
X231775000Y-109600000D02*
X248381250Y-109600000D01*
X248381250Y-109600000D02*
X250825000Y-107156250D01*
X250825000Y-107156250D02*
X250825000Y-104837500D01*
X269875000Y-100868750D02*
X269875000Y-103187500D01*
X288925001Y-105537501D02*
X288925001Y-104837501D01*
X288925000Y-107156250D02*
X288925001Y-105537501D01*
X332803810Y-65151967D02*
X330770993Y-67184784D01*
X331152500Y-57961250D02*
X332803810Y-59612560D01*
X332803810Y-59612560D02*
X332803810Y-65151967D01*
X311213003Y-67184784D02*
X309381260Y-69016527D01*
X330770993Y-67184784D02*
X311213003Y-67184784D01*
X309381260Y-69016527D02*
X309381260Y-104966527D01*
X307975001Y-106372786D02*
X307975001Y-108012500D01*
X309381260Y-104966527D02*
X307975001Y-106372786D01*
X293706251Y-111937501D02*
X306368749Y-111937501D01*
X307974999Y-110331251D02*
X307974999Y-108012501D01*
X288925000Y-107156250D02*
X293706251Y-111937501D01*
X306368749Y-111937501D02*
X307974999Y-110331251D01*
X210629500Y-123758000D02*
X210537500Y-123850000D01*
X210629500Y-121920000D02*
X210629500Y-123758000D01*
X212037500Y-125350000D02*
X210537500Y-123850000D01*
X212725000Y-125350000D02*
X212037500Y-125350000D01*
X250825000Y-126206250D02*
X250825000Y-123887500D01*
X231775000Y-130968750D02*
X231775000Y-128650000D01*
X231775000Y-128650000D02*
X248381250Y-128650000D01*
X215125000Y-132575000D02*
X230168750Y-132575000D01*
X212725000Y-128650000D02*
X212725000Y-130175000D01*
X212725000Y-130175000D02*
X215125000Y-132575000D01*
X230168750Y-132575000D02*
X231775000Y-130968750D01*
X302950284Y-131720811D02*
X302950284Y-132541585D01*
X331152500Y-55421250D02*
X333281250Y-57550000D01*
X333281250Y-65310937D02*
X330957393Y-67634794D01*
X330957393Y-67634794D02*
X311399403Y-67634794D01*
X333281250Y-57550000D02*
X333281250Y-65310937D01*
X311399403Y-67634794D02*
X309831270Y-69202927D01*
X282575000Y-128650001D02*
X286606251Y-128650001D01*
X286606251Y-128650001D02*
X292893750Y-134937500D01*
X292893750Y-134937500D02*
X302418750Y-134937500D01*
X302950284Y-134405966D02*
X302950284Y-132541585D01*
X302418750Y-134937500D02*
X302950284Y-134405966D01*
X318888879Y-127914709D02*
X310181250Y-127914709D01*
X331530327Y-125662401D02*
X330425038Y-126767690D01*
X325966074Y-125662401D02*
X321141187Y-125662401D01*
X330425038Y-126767690D02*
X327071363Y-126767690D01*
X327071363Y-126767690D02*
X325966074Y-125662401D01*
X321141187Y-125662401D02*
X318888879Y-127914709D01*
X309831270Y-124839825D02*
X306143818Y-128527277D01*
X306143818Y-128527277D02*
X302950284Y-131720811D01*
X309831270Y-124839825D02*
X309831270Y-69202927D01*
X250815624Y-126215627D02*
X250825000Y-126206250D01*
X248381250Y-128650000D02*
X250815624Y-126215627D01*
X282575000Y-128650001D02*
X282575000Y-130175000D01*
X282575000Y-130175000D02*
X280174999Y-132575001D01*
X280174999Y-132575001D02*
X257193751Y-132575001D01*
X250834377Y-126215627D02*
X250815624Y-126215627D01*
X257193751Y-132575001D02*
X250834377Y-126215627D01*
X229679500Y-47558000D02*
X229587500Y-47650000D01*
X229679500Y-45720000D02*
X229679500Y-47558000D01*
X231087500Y-49150000D02*
X229587500Y-47650000D01*
X231775000Y-49150000D02*
X231087500Y-49150000D01*
X229679500Y-66608000D02*
X229587500Y-66700000D01*
X229679500Y-64770000D02*
X229679500Y-66608000D01*
X231087500Y-68200000D02*
X229587500Y-66700000D01*
X231775000Y-68200000D02*
X231087500Y-68200000D01*
X229679500Y-85658000D02*
X229587500Y-85750000D01*
X229679500Y-83820000D02*
X229679500Y-85658000D01*
X231775000Y-87250000D02*
X231087500Y-87250000D01*
X231087500Y-87250000D02*
X229587500Y-85750000D01*
X229679500Y-104708000D02*
X229587500Y-104800000D01*
X229679500Y-102870000D02*
X229679500Y-104708000D01*
X231087500Y-106300000D02*
X229587500Y-104800000D01*
X231775000Y-106300000D02*
X231087500Y-106300000D01*
X229679500Y-123758000D02*
X229587500Y-123850000D01*
X229679500Y-121920000D02*
X229679500Y-123758000D01*
X231087500Y-125350000D02*
X229587500Y-123850000D01*
X231775000Y-125350000D02*
X231087500Y-125350000D01*
X248729500Y-42795500D02*
X248637500Y-42887500D01*
X248729500Y-40957500D02*
X248729500Y-42795500D01*
X250137500Y-44387500D02*
X248637500Y-42887500D01*
X250825000Y-44387500D02*
X250137500Y-44387500D01*
X248729500Y-61845500D02*
X248637500Y-61937500D01*
X248729500Y-60007500D02*
X248729500Y-61845500D01*
X250137500Y-63437500D02*
X248637500Y-61937500D01*
X250825000Y-63437500D02*
X250137500Y-63437500D01*
X248729500Y-80895500D02*
X248637500Y-80987500D01*
X248729500Y-79057500D02*
X248729500Y-80895500D01*
X250825000Y-82487500D02*
X250137500Y-82487500D01*
X250137500Y-82487500D02*
X248637500Y-80987500D01*
X248729500Y-99945500D02*
X248637500Y-100037500D01*
X248729500Y-98107500D02*
X248729500Y-99945500D01*
X250137500Y-101537500D02*
X248637500Y-100037500D01*
X250825000Y-101537500D02*
X250137500Y-101537500D01*
X248729500Y-118995500D02*
X248637500Y-119087500D01*
X248729500Y-117157500D02*
X248729500Y-118995500D01*
X250825000Y-120587500D02*
X250137500Y-120587500D01*
X250137500Y-120587500D02*
X248637500Y-119087500D01*
X267779500Y-38826750D02*
X267687500Y-38918750D01*
X267779500Y-36988750D02*
X267779500Y-38826750D01*
X269187500Y-40418750D02*
X267687500Y-38918750D01*
X269875000Y-40418750D02*
X269187500Y-40418750D01*
X267779500Y-57876750D02*
X267687500Y-57968750D01*
X267779500Y-56038750D02*
X267779500Y-57876750D01*
X269187500Y-59468750D02*
X267687500Y-57968750D01*
X269875000Y-59468750D02*
X269187500Y-59468750D01*
X267779500Y-76926750D02*
X267687500Y-77018750D01*
X267779500Y-75088750D02*
X267779500Y-76926750D01*
X269875000Y-78518750D02*
X269187500Y-78518750D01*
X269187500Y-78518750D02*
X267687500Y-77018750D01*
X267779500Y-95976750D02*
X267687500Y-96068750D01*
X267779500Y-94138750D02*
X267779500Y-95976750D01*
X269187500Y-97568750D02*
X267687500Y-96068750D01*
X269875000Y-97568750D02*
X269187500Y-97568750D01*
X280479500Y-123758000D02*
X280387500Y-123850000D01*
X280479500Y-121920000D02*
X280479500Y-123758000D01*
X280479500Y-123758000D02*
X280387500Y-123850000D01*
X280479500Y-121920000D02*
X280479500Y-123758000D01*
X281887501Y-125350001D02*
X280387500Y-123850000D01*
X282575000Y-125350001D02*
X281887501Y-125350001D01*
X291240184Y-144754521D02*
X291136965Y-144833723D01*
X291480094Y-142932244D02*
X291240184Y-144754521D01*
X293262428Y-146607584D02*
X292412205Y-146495649D01*
X292412205Y-146495649D02*
X291136965Y-144833724D01*
X331152500Y-52881250D02*
X333731260Y-55460010D01*
X333731260Y-55460010D02*
X333731260Y-65497337D01*
X333731260Y-65497337D02*
X331143793Y-68084804D01*
X331143793Y-68084804D02*
X311585803Y-68084804D01*
X311585803Y-68084804D02*
X310281279Y-69389328D01*
X311379068Y-159759233D02*
X312480327Y-158657974D01*
X320181347Y-142160190D02*
X322005327Y-142160190D01*
X310281279Y-69389328D02*
X310281279Y-125026226D01*
X305636726Y-159759233D02*
X311379068Y-159759233D01*
X318531250Y-143810287D02*
X320181347Y-142160190D01*
X310281279Y-125026226D02*
X307431250Y-127876255D01*
X305636726Y-159759233D02*
X305196114Y-159759233D01*
X295316233Y-149879352D02*
X294495893Y-149879352D01*
X312480327Y-158657974D02*
X312480327Y-155558919D01*
X315265923Y-143810287D02*
X318531250Y-143810287D01*
X307431250Y-127876255D02*
X307431250Y-135975614D01*
X292831692Y-149879352D02*
X297670893Y-149879352D01*
X305196114Y-159759233D02*
X295316233Y-149879352D01*
X307431250Y-150509842D02*
X307431250Y-127876255D01*
X312480327Y-155558919D02*
X307431250Y-150509842D01*
X307431250Y-135975614D02*
X315265923Y-143810287D01*
X286829500Y-42795500D02*
X286737500Y-42887500D01*
X286829500Y-40957500D02*
X286829500Y-42795500D01*
X288925000Y-44387500D02*
X288237500Y-44387500D01*
X288237500Y-44387500D02*
X286737500Y-42887500D01*
X286829500Y-61845500D02*
X286737500Y-61937500D01*
X286829500Y-60007500D02*
X286829500Y-61845500D01*
X288237500Y-63437500D02*
X286737500Y-61937500D01*
X288925000Y-63437500D02*
X288237500Y-63437500D01*
X286829500Y-80895500D02*
X286737500Y-80987500D01*
X286829500Y-79057500D02*
X286829500Y-80895500D01*
X288925000Y-82487500D02*
X288237500Y-82487500D01*
X288237500Y-82487500D02*
X286737500Y-80987500D01*
X286829500Y-99945500D02*
X286737500Y-100037500D01*
X286829500Y-98107500D02*
X286829500Y-99945500D01*
X288237500Y-101537500D02*
X286737500Y-100037500D01*
X288925000Y-101537500D02*
X288237500Y-101537500D01*
X302345414Y-127529744D02*
X302232740Y-127594796D01*
X302821126Y-125754372D02*
X302345414Y-127529744D01*
X303146688Y-129177799D02*
X302232740Y-127594796D01*
X303804387Y-129354029D02*
X303146688Y-129177799D01*
X313111566Y-153369598D02*
X312985895Y-153403272D01*
X314030568Y-151777844D02*
X313111566Y-153369598D01*
X313534933Y-155452310D02*
X312985895Y-153403272D01*
X314130326Y-155796060D02*
X313534933Y-155452310D01*
X305879500Y-45970500D02*
X305787500Y-46062500D01*
X305879500Y-44132500D02*
X305879500Y-45970500D01*
X307287500Y-47562500D02*
X305787500Y-46062500D01*
X307975000Y-47562500D02*
X307287500Y-47562500D01*
X305879500Y-65020500D02*
X305787500Y-65112500D01*
X305879500Y-63182500D02*
X305879500Y-65020500D01*
X307287500Y-66612500D02*
X305787500Y-65112500D01*
X307975000Y-66612500D02*
X307287500Y-66612500D01*
X305879500Y-84070500D02*
X305787500Y-84162500D01*
X305879500Y-82232500D02*
X305879500Y-84070500D01*
X307975000Y-85662500D02*
X307287500Y-85662500D01*
X307287500Y-85662500D02*
X305787500Y-84162500D01*
X305879500Y-103120500D02*
X305787500Y-103212500D01*
X305879500Y-101282500D02*
X305879500Y-103120500D01*
X307287500Y-104712500D02*
X305787500Y-103212500D01*
X307975000Y-104712500D02*
X307287500Y-104712500D01*
X332161567Y-120378055D02*
X332035896Y-120411729D01*
X333080569Y-118786301D02*
X332161567Y-120378055D01*
X332584934Y-122460767D02*
X332035896Y-120411729D01*
X333180327Y-122804517D02*
X332584934Y-122460767D01*
X331059803Y-127576887D02*
X324146314Y-127576887D01*
X333180327Y-125456363D02*
X331059803Y-127576887D01*
X333180327Y-122804517D02*
X333180327Y-125456363D01*
X333180327Y-122804517D02*
X332584934Y-122460767D01*
X322636567Y-136875844D02*
X322510896Y-136909518D01*
X323555569Y-135284090D02*
X322636567Y-136875844D01*
X323655327Y-139302306D02*
X323059934Y-138958556D01*
X323059934Y-138958556D02*
X322510896Y-136909518D01*
X94742000Y-45970500D02*
X94650000Y-46062500D01*
X94742000Y-44132500D02*
X94742000Y-45970500D01*
X96150000Y-47562500D02*
X94650000Y-46062500D01*
X96837500Y-47562500D02*
X96150000Y-47562500D01*
X115887500Y-47687500D02*
X133287500Y-47687500D01*
X133287500Y-47687500D02*
X134937500Y-46037500D01*
X134937500Y-46037500D02*
X134937500Y-43718750D01*
X140512501Y-51612501D02*
X152381249Y-51612501D01*
X152381249Y-51612501D02*
X153987500Y-50006250D01*
X134937500Y-46037500D02*
X140512501Y-51612501D01*
X153987500Y-50006250D02*
X153987500Y-47687500D01*
X160356251Y-56375001D02*
X171431249Y-56375001D01*
X153987500Y-50006250D02*
X160356251Y-56375001D01*
X171431249Y-56375001D02*
X173037500Y-54768750D01*
X173037500Y-54768750D02*
X173037500Y-52450000D01*
X174643751Y-56375001D02*
X190481249Y-56375001D01*
X190481249Y-56375001D02*
X192087500Y-54768750D01*
X192087500Y-54768750D02*
X192087500Y-52450000D01*
X173037500Y-54768750D02*
X174643751Y-56375001D01*
X73025000Y-45102500D02*
X77227500Y-40900000D01*
X77227500Y-40900000D02*
X95350000Y-40900000D01*
X97762501Y-43312501D02*
X97762501Y-48387499D01*
X95350000Y-40900000D02*
X97762501Y-43312501D01*
X96837500Y-49312500D02*
X96837500Y-50862500D01*
X97762501Y-48387499D02*
X96837500Y-49312500D01*
X106912501Y-51612501D02*
X113487499Y-51612501D01*
X106162500Y-50862500D02*
X106912501Y-51612501D01*
X115887500Y-49212500D02*
X115887500Y-47687500D01*
X113487499Y-51612501D02*
X115887500Y-49212500D01*
X96837500Y-50862500D02*
X106162500Y-50862500D01*
X94742000Y-65020500D02*
X94650000Y-65112500D01*
X94742000Y-63182500D02*
X94742000Y-65020500D01*
X96150000Y-66612500D02*
X94650000Y-65112500D01*
X96837500Y-66612500D02*
X96150000Y-66612500D01*
X173037500Y-73818750D02*
X173037500Y-71500000D01*
X153987500Y-69056250D02*
X160356251Y-75425001D01*
X171431249Y-75425001D02*
X173037500Y-73818750D01*
X160356251Y-75425001D02*
X171431249Y-75425001D01*
X115887500Y-66737500D02*
X133287500Y-66737500D01*
X133287500Y-66737500D02*
X134937500Y-65087500D01*
X134937500Y-65087500D02*
X134937500Y-62768750D01*
X190481249Y-75425001D02*
X192087500Y-73818750D01*
X174643751Y-75425001D02*
X190481249Y-75425001D01*
X173037500Y-73818750D02*
X174643751Y-75425001D01*
X192087500Y-73818750D02*
X192087500Y-71500000D01*
X96837500Y-69912500D02*
X96837500Y-71437500D01*
X111918750Y-72231250D02*
X115887500Y-68262500D01*
X115887500Y-68262500D02*
X115887500Y-66737500D01*
X97631250Y-72231250D02*
X111918750Y-72231250D01*
X96837500Y-71437500D02*
X97631250Y-72231250D01*
X134937500Y-65087500D02*
X140512501Y-70662501D01*
X140512501Y-70662501D02*
X152381249Y-70662501D01*
X153987500Y-69056250D02*
X153987500Y-66737500D01*
X152381249Y-70662501D02*
X153987500Y-69056250D01*
X94437499Y-73837501D02*
X96837500Y-71437500D01*
X80668877Y-67634789D02*
X86871589Y-73837501D01*
X86871589Y-73837501D02*
X94437499Y-73837501D01*
X57980111Y-67634789D02*
X80668877Y-67634789D01*
X55683680Y-65338358D02*
X57980111Y-67634789D01*
X55683680Y-57363820D02*
X55683680Y-65338358D01*
X57785000Y-55262500D02*
X55683680Y-57363820D01*
X94742000Y-84070500D02*
X94650000Y-84162500D01*
X94742000Y-82232500D02*
X94742000Y-84070500D01*
X96837500Y-85662500D02*
X96150000Y-85662500D01*
X96150000Y-85662500D02*
X94650000Y-84162500D01*
X173037500Y-92868750D02*
X173037500Y-90550000D01*
X153987500Y-88106250D02*
X160356251Y-94475001D01*
X171431249Y-94475001D02*
X173037500Y-92868750D01*
X160356251Y-94475001D02*
X171431249Y-94475001D01*
X115887500Y-85787500D02*
X133287500Y-85787500D01*
X133287500Y-85787500D02*
X134937500Y-84137500D01*
X134937500Y-84137500D02*
X134937500Y-81818750D01*
X190481249Y-94475001D02*
X192087500Y-92868750D01*
X174643751Y-94475001D02*
X190481249Y-94475001D01*
X173037500Y-92868750D02*
X174643751Y-94475001D01*
X192087500Y-92868750D02*
X192087500Y-90550000D01*
X96837500Y-88962500D02*
X96837500Y-90487500D01*
X111918750Y-91281250D02*
X115887500Y-87312500D01*
X115887500Y-87312500D02*
X115887500Y-85787500D01*
X97631250Y-91281250D02*
X111918750Y-91281250D01*
X96837500Y-90487500D02*
X97631250Y-91281250D01*
X134937500Y-84137500D02*
X140512501Y-89712501D01*
X140512501Y-89712501D02*
X152381249Y-89712501D01*
X153987500Y-88106250D02*
X153987500Y-85787500D01*
X152381249Y-89712501D02*
X153987500Y-88106250D01*
X55233671Y-65524759D02*
X55233671Y-55273829D01*
X77471209Y-68084799D02*
X57793711Y-68084799D01*
X80214998Y-70828588D02*
X77471209Y-68084799D01*
X57793711Y-68084799D02*
X55233671Y-65524759D01*
X80214999Y-86230911D02*
X80214998Y-70828588D01*
X55233671Y-55273829D02*
X57785000Y-52722500D01*
X86871589Y-92887501D02*
X80214999Y-86230911D01*
X94437499Y-92887501D02*
X86871589Y-92887501D01*
X96837500Y-90487500D02*
X94437499Y-92887501D01*
X94742000Y-103120500D02*
X94650000Y-103212500D01*
X94742000Y-101282500D02*
X94742000Y-103120500D01*
X96150000Y-104712500D02*
X94650000Y-103212500D01*
X96837500Y-104712500D02*
X96150000Y-104712500D01*
X173037500Y-111918750D02*
X173037500Y-109600000D01*
X153987500Y-107156250D02*
X160356251Y-113525001D01*
X160356251Y-113525001D02*
X171431249Y-113525001D01*
X171431249Y-113525001D02*
X173037500Y-111918750D01*
X115887500Y-104837500D02*
X133287500Y-104837500D01*
X133287500Y-104837500D02*
X134937500Y-103187500D01*
X134937500Y-103187500D02*
X134937500Y-100868750D01*
X190481249Y-113525001D02*
X192087500Y-111918750D01*
X192087500Y-111918750D02*
X192087500Y-109600000D01*
X173037500Y-111918750D02*
X174643751Y-113525001D01*
X174643751Y-113525001D02*
X190481249Y-113525001D01*
X96837500Y-108012500D02*
X96837500Y-109537500D01*
X111918750Y-110331250D02*
X115887500Y-106362500D01*
X115887500Y-106362500D02*
X115887500Y-104837500D01*
X97631250Y-110331250D02*
X111918750Y-110331250D01*
X96837500Y-109537500D02*
X97631250Y-110331250D01*
X134937500Y-103187500D02*
X140512501Y-108762501D01*
X152381249Y-108762501D02*
X153987500Y-107156250D01*
X140512501Y-108762501D02*
X152381249Y-108762501D01*
X153987500Y-107156250D02*
X153987500Y-104837500D01*
X54783662Y-53183838D02*
X57785000Y-50182500D01*
X77284809Y-68534809D02*
X57607311Y-68534809D01*
X54783662Y-65711160D02*
X54783662Y-53183838D01*
X94437499Y-111937501D02*
X84037501Y-111937501D01*
X96837500Y-109537500D02*
X94437499Y-111937501D01*
X84037501Y-111937501D02*
X79764989Y-107664989D01*
X79764989Y-71014989D02*
X77284809Y-68534809D01*
X57607311Y-68534809D02*
X54783662Y-65711160D01*
X79764989Y-107664989D02*
X79764989Y-71014989D01*
X113792000Y-42795500D02*
X113700000Y-42887500D01*
X113792000Y-40957500D02*
X113792000Y-42795500D01*
X115200000Y-44387500D02*
X113700000Y-42887500D01*
X115887500Y-44387500D02*
X115200000Y-44387500D01*
X173037500Y-130968750D02*
X173037500Y-128650000D01*
X153987500Y-126206250D02*
X160356251Y-132575001D01*
X171431249Y-132575001D02*
X173037500Y-130968750D01*
X192087500Y-130968750D02*
X192087500Y-128650000D01*
X160356251Y-132575001D02*
X171431249Y-132575001D01*
X190481249Y-132575001D02*
X192087500Y-130968750D01*
X173037500Y-130968750D02*
X174643751Y-132575001D01*
X174643751Y-132575001D02*
X190481249Y-132575001D01*
X153987500Y-126206250D02*
X153987500Y-123887500D01*
X122237500Y-128650000D02*
X151543750Y-128650000D01*
X151543750Y-128650000D02*
X153987500Y-126206250D01*
X122237500Y-126985002D02*
X122237500Y-128650000D01*
X57420911Y-68984819D02*
X77098409Y-68984819D01*
X124500000Y-124722502D02*
X122237500Y-126985002D01*
X54333653Y-65897561D02*
X57420911Y-68984819D01*
X54333652Y-36666348D02*
X54333653Y-65897561D01*
X124500000Y-121600000D02*
X124500000Y-124722502D01*
X57785000Y-34942500D02*
X56057500Y-34942500D01*
X56057500Y-34942500D02*
X54333652Y-36666348D01*
X117750000Y-118600000D02*
X121500000Y-118600000D01*
X77098409Y-68984819D02*
X79314979Y-71201389D01*
X83851101Y-112387511D02*
X111537511Y-112387511D01*
X79314979Y-71201389D02*
X79314980Y-107851390D01*
X79314980Y-107851390D02*
X83851101Y-112387511D01*
X121500000Y-118600000D02*
X124500000Y-121600000D01*
X111537511Y-112387511D02*
X117750000Y-118600000D01*
X113792000Y-61845500D02*
X113700000Y-61937500D01*
X113792000Y-60007500D02*
X113792000Y-61845500D01*
X115200000Y-63437500D02*
X113700000Y-61937500D01*
X115887500Y-63437500D02*
X115200000Y-63437500D01*
X113792000Y-80895500D02*
X113700000Y-80987500D01*
X113792000Y-79057500D02*
X113792000Y-80895500D01*
X115887500Y-82487500D02*
X115200000Y-82487500D01*
X115200000Y-82487500D02*
X113700000Y-80987500D01*
X113792000Y-99945500D02*
X113700000Y-100037500D01*
X113792000Y-98107500D02*
X113792000Y-99945500D01*
X115200000Y-101537500D02*
X113700000Y-100037500D01*
X115887500Y-101537500D02*
X115200000Y-101537500D01*
X132842000Y-38826750D02*
X132750000Y-38918750D01*
X132842000Y-36988750D02*
X132842000Y-38826750D01*
X134250000Y-40418750D02*
X132750000Y-38918750D01*
X134937500Y-40418750D02*
X134250000Y-40418750D01*
X132842000Y-57876750D02*
X132750000Y-57968750D01*
X132842000Y-56038750D02*
X132842000Y-57876750D01*
X134250000Y-59468750D02*
X132750000Y-57968750D01*
X134937500Y-59468750D02*
X134250000Y-59468750D01*
X132842000Y-76926750D02*
X132750000Y-77018750D01*
X132842000Y-75088750D02*
X132842000Y-76926750D01*
X134937500Y-78518750D02*
X134250000Y-78518750D01*
X134250000Y-78518750D02*
X132750000Y-77018750D01*
X132842000Y-95976750D02*
X132750000Y-96068750D01*
X132842000Y-94138750D02*
X132842000Y-95976750D01*
X134250000Y-97568750D02*
X132750000Y-96068750D01*
X134937500Y-97568750D02*
X134250000Y-97568750D01*
X120142000Y-123758000D02*
X120050000Y-123850000D01*
X120142000Y-121920000D02*
X120142000Y-123758000D01*
X122237500Y-125350000D02*
X121550000Y-125350000D01*
X121550000Y-125350000D02*
X120050000Y-123850000D01*
X151892000Y-42795500D02*
X151800000Y-42887500D01*
X151892000Y-40957500D02*
X151892000Y-42795500D01*
X153300000Y-44387500D02*
X151800000Y-42887500D01*
X153987500Y-44387500D02*
X153300000Y-44387500D01*
X151892000Y-61845500D02*
X151800000Y-61937500D01*
X151892000Y-60007500D02*
X151892000Y-61845500D01*
X153300000Y-63437500D02*
X151800000Y-61937500D01*
X153987500Y-63437500D02*
X153300000Y-63437500D01*
X151892000Y-80895500D02*
X151800000Y-80987500D01*
X151892000Y-79057500D02*
X151892000Y-80895500D01*
X153987500Y-82487500D02*
X153300000Y-82487500D01*
X153300000Y-82487500D02*
X151800000Y-80987500D01*
X151892000Y-99945500D02*
X151800000Y-100037500D01*
X151892000Y-98107500D02*
X151892000Y-99945500D01*
X153300000Y-101537500D02*
X151800000Y-100037500D01*
X153987500Y-101537500D02*
X153300000Y-101537500D01*
X151892000Y-118995500D02*
X151800000Y-119087500D01*
X151892000Y-117157500D02*
X151892000Y-118995500D01*
X153987500Y-120587500D02*
X153300000Y-120587500D01*
X153300000Y-120587500D02*
X151800000Y-119087500D01*
X170942000Y-47558000D02*
X170850000Y-47650000D01*
X170942000Y-45720000D02*
X170942000Y-47558000D01*
X172350000Y-49150000D02*
X170850000Y-47650000D01*
X173037500Y-49150000D02*
X172350000Y-49150000D01*
X170942000Y-66608000D02*
X170850000Y-66700000D01*
X170942000Y-64770000D02*
X170942000Y-66608000D01*
X172350000Y-68200000D02*
X170850000Y-66700000D01*
X173037500Y-68200000D02*
X172350000Y-68200000D01*
X170942000Y-85658000D02*
X170850000Y-85750000D01*
X170942000Y-83820000D02*
X170942000Y-85658000D01*
X173037500Y-87250000D02*
X172350000Y-87250000D01*
X172350000Y-87250000D02*
X170850000Y-85750000D01*
X170942000Y-104708000D02*
X170850000Y-104800000D01*
X170942000Y-102870000D02*
X170942000Y-104708000D01*
X172350000Y-106300000D02*
X170850000Y-104800000D01*
X173037500Y-106300000D02*
X172350000Y-106300000D01*
X170942000Y-123758000D02*
X170850000Y-123850000D01*
X170942000Y-121920000D02*
X170942000Y-123758000D01*
X173037500Y-125350000D02*
X172350000Y-125350000D01*
X172350000Y-125350000D02*
X170850000Y-123850000D01*
X189992000Y-47558000D02*
X189900000Y-47650000D01*
X189992000Y-45720000D02*
X189992000Y-47558000D01*
X191400000Y-49150000D02*
X189900000Y-47650000D01*
X192087500Y-49150000D02*
X191400000Y-49150000D01*
X189992000Y-66608000D02*
X189900000Y-66700000D01*
X189992000Y-64770000D02*
X189992000Y-66608000D01*
X191400000Y-68200000D02*
X189900000Y-66700000D01*
X192087500Y-68200000D02*
X191400000Y-68200000D01*
X189992000Y-85658000D02*
X189900000Y-85750000D01*
X189992000Y-83820000D02*
X189992000Y-85658000D01*
X192087500Y-87250000D02*
X191400000Y-87250000D01*
X191400000Y-87250000D02*
X189900000Y-85750000D01*
X189992000Y-104708000D02*
X189900000Y-104800000D01*
X189992000Y-102870000D02*
X189992000Y-104708000D01*
X191400000Y-106300000D02*
X189900000Y-104800000D01*
X192087500Y-106300000D02*
X191400000Y-106300000D01*
D30*
X331337491Y-91295789D02*
X331337491Y-89718751D01*
X336237500Y-92093750D02*
X332135452Y-92093750D01*
X332135452Y-92093750D02*
X331337491Y-91295789D01*
X331337491Y-81737571D02*
X331337491Y-83318751D01*
X336237500Y-80943750D02*
X332131312Y-80943750D01*
X332131312Y-80943750D02*
X331337491Y-81737571D01*
X321781250Y-84162500D02*
X321781250Y-90462500D01*
X321781250Y-90462500D02*
X329025000Y-90462500D01*
X329768750Y-89718750D02*
X331337490Y-89718750D01*
X329025000Y-90462500D02*
X329768750Y-89718750D01*
X332237500Y-80943750D02*
X327293750Y-80943750D01*
X327293750Y-80943750D02*
X327293750Y-80943750D01*
X331152500Y-42721250D02*
X335206289Y-46775039D01*
X335206287Y-66108316D02*
X331754769Y-69559834D01*
X335206289Y-46775039D02*
X335206287Y-66108316D01*
X327230215Y-69559834D02*
X324802500Y-71987549D01*
X331754769Y-69559834D02*
X327230215Y-69559834D01*
X330539312Y-88918750D02*
X331337500Y-88918750D01*
X331337500Y-84118750D02*
X330627498Y-84118750D01*
X324800000Y-71990049D02*
X324802500Y-71987549D01*
X326623524Y-86084001D02*
X326623524Y-85315999D01*
X329458273Y-88918750D02*
X326623524Y-86084001D01*
X326623524Y-84351476D02*
X326856250Y-84118750D01*
X326406250Y-84118750D02*
X326856250Y-84118750D01*
X324802500Y-82515000D02*
X326406250Y-84118750D01*
X319881250Y-80087500D02*
X324755000Y-80087500D01*
X324802500Y-71987549D02*
X324802500Y-80135000D01*
X324755000Y-80087500D02*
X324802500Y-80135000D01*
X324802500Y-80135000D02*
X324802500Y-82515000D01*
X326623524Y-85315999D02*
X326623524Y-84351476D01*
X326856250Y-84118750D02*
X330627498Y-84118750D01*
X330539312Y-88918750D02*
X329458273Y-88918750D01*
X59002752Y-84118750D02*
X57600010Y-84118750D01*
X59650001Y-84765999D02*
X59002752Y-84118750D01*
X57600000Y-88918750D02*
X58310002Y-88918750D01*
X58310002Y-88918750D02*
X59650001Y-87578751D01*
X62952752Y-80168750D02*
X59002752Y-84118750D01*
X66357500Y-71913750D02*
X66357500Y-80142500D01*
X66357500Y-80142500D02*
X66331250Y-80168750D01*
X70643750Y-80168750D02*
X66331250Y-80168750D01*
X66331250Y-80168750D02*
X62952752Y-80168750D01*
X70700000Y-106950000D02*
X74453750Y-110703750D01*
X70700000Y-96600000D02*
X70700000Y-106950000D01*
X74453750Y-113506250D02*
X74453750Y-110703750D01*
X70700000Y-96600000D02*
X60749999Y-86649999D01*
X59650001Y-87578751D02*
X59650001Y-86649999D01*
X60749999Y-86649999D02*
X59650001Y-86649999D01*
X59650001Y-86649999D02*
X59650001Y-84765999D01*
X76560126Y-69678798D02*
X77631328Y-70750000D01*
X66357500Y-71913750D02*
X68592452Y-69678798D01*
X68592452Y-69678798D02*
X76560126Y-69678798D01*
X57600000Y-91295796D02*
X57600000Y-89718750D01*
X56802046Y-92093750D02*
X57600000Y-91295796D01*
X52700000Y-92093750D02*
X56802046Y-92093750D01*
X57600010Y-82151794D02*
X57600010Y-83318750D01*
X57600011Y-81737573D02*
X57600010Y-82151794D01*
X52700000Y-80943750D02*
X56806188Y-80943750D01*
X56806188Y-80943750D02*
X57600011Y-81737573D01*
X72543750Y-84162500D02*
X72543750Y-90462500D01*
X56700000Y-80943750D02*
X60463750Y-80943750D01*
X60463750Y-80943750D02*
X65557500Y-75850000D01*
X59213750Y-113506250D02*
X61970000Y-110750000D01*
X61970000Y-110750000D02*
X67000000Y-110750000D01*
X68103750Y-109646250D02*
X68103750Y-106362500D01*
X67000000Y-110750000D02*
X68103750Y-109646250D01*
X72543750Y-84162500D02*
X77837500Y-84162500D01*
X77837500Y-84162500D02*
X77837500Y-84162500D01*
X68897500Y-71913750D02*
X68897500Y-73897500D01*
X68897500Y-73897500D02*
X70300000Y-75300000D01*
X70300000Y-75300000D02*
X78100000Y-75300000D01*
X78100000Y-75300000D02*
X78100000Y-75300000D01*
D29*
X317981250Y-84162500D02*
X317981250Y-90462500D01*
X321487500Y-76050000D02*
X323937500Y-76050000D01*
X319006250Y-78531250D02*
X321487500Y-76050000D01*
X318725000Y-84162500D02*
X317981250Y-84162500D01*
X325637500Y-76050000D02*
X331707051Y-76050000D01*
X331707051Y-76050000D02*
X335781297Y-71975754D01*
X335781297Y-44810047D02*
X331152500Y-40181250D01*
X335781297Y-71975754D02*
X335781297Y-44810047D01*
X319881250Y-81837500D02*
X319881250Y-83706250D01*
X319881250Y-83706250D02*
X319425000Y-84162500D01*
X317981250Y-84162500D02*
X317981250Y-83806250D01*
X317981250Y-84162500D02*
X317981250Y-79556250D01*
X319425000Y-84162500D02*
X318725000Y-84162500D01*
X317981250Y-79556250D02*
X319006250Y-78531250D01*
X68743750Y-84162500D02*
X69737500Y-84162500D01*
X70643750Y-83256250D02*
X70643750Y-81918750D01*
X69737500Y-84162500D02*
X70643750Y-83256250D01*
X68743750Y-84162500D02*
X68743750Y-90462500D01*
X70662500Y-81900000D02*
X70643750Y-81918750D01*
X75100000Y-81900000D02*
X70662500Y-81900000D01*
X200970498Y-130150000D02*
X197702500Y-126882002D01*
X197702500Y-126882002D02*
X197702500Y-124460000D01*
X209287500Y-130150000D02*
X200970498Y-130150000D01*
X200970498Y-111100000D02*
X197702500Y-107832002D01*
X209287500Y-111100000D02*
X200970498Y-111100000D01*
X197702500Y-107832002D02*
X197702500Y-105410000D01*
X200970498Y-92050000D02*
X197702500Y-88782002D01*
X209287500Y-92050000D02*
X200970498Y-92050000D01*
X197702500Y-88782002D02*
X197702500Y-86360000D01*
X200970498Y-73000000D02*
X197702500Y-69732002D01*
X209287500Y-73000000D02*
X200970498Y-73000000D01*
X197702500Y-69732002D02*
X197702500Y-67310000D01*
X197702500Y-50682002D02*
X197702500Y-48260000D01*
X209287500Y-53950000D02*
X200970498Y-53950000D01*
X200970498Y-53950000D02*
X197702500Y-50682002D01*
X234280150Y-52900010D02*
X230355150Y-56825010D01*
X252167660Y-49300000D02*
X248567651Y-52900009D01*
X272501090Y-49300000D02*
X252167660Y-49300000D01*
X212162510Y-56825010D02*
X209287500Y-53950000D01*
X311016239Y-55237511D02*
X296901100Y-55237510D01*
X275263601Y-52062511D02*
X272501090Y-49300000D01*
X315912500Y-50341250D02*
X311016239Y-55237511D01*
X230355150Y-56825010D02*
X212162510Y-56825010D01*
X248567651Y-52900009D02*
X234280150Y-52900010D01*
X296901100Y-55237510D02*
X293726101Y-52062511D01*
X293726101Y-52062511D02*
X275263601Y-52062511D01*
X216752500Y-126882002D02*
X216752500Y-124460000D01*
X228337500Y-130150000D02*
X220020498Y-130150000D01*
X220020498Y-130150000D02*
X216752500Y-126882002D01*
X220020498Y-53950000D02*
X216752500Y-50682002D01*
X228337500Y-53950000D02*
X220020498Y-53950000D01*
X216752500Y-50682002D02*
X216752500Y-48260000D01*
X220020498Y-73000000D02*
X216752500Y-69732002D01*
X220020498Y-92050000D02*
X216752500Y-88782002D01*
X216752500Y-69732002D02*
X216752500Y-67310000D01*
X228337500Y-92050000D02*
X220020498Y-92050000D01*
X216752500Y-88782002D02*
X216752500Y-86360000D01*
X228337500Y-73000000D02*
X220020498Y-73000000D01*
X220020498Y-111100000D02*
X216752500Y-107832002D01*
X228337500Y-111100000D02*
X220020498Y-111100000D01*
X216752500Y-107832002D02*
X216752500Y-105410000D01*
X313106230Y-55687520D02*
X315912500Y-52881250D01*
X216752499Y-67310000D02*
X216752499Y-62697541D01*
X216752499Y-62697541D02*
X222175020Y-57275020D01*
X222175020Y-57275020D02*
X230541550Y-57275020D01*
X234466550Y-53350020D02*
X248754050Y-53350020D01*
X230541550Y-57275020D02*
X234466550Y-53350020D01*
X272314690Y-49750010D02*
X275077200Y-52512520D01*
X248754050Y-53350020D02*
X252354060Y-49750010D01*
X275077200Y-52512520D02*
X293539701Y-52512521D01*
X293539701Y-52512521D02*
X296714699Y-55687519D01*
X252354060Y-49750010D02*
X272314690Y-49750010D01*
X296714699Y-55687519D02*
X313106230Y-55687520D01*
X235802500Y-122119502D02*
X235802500Y-119697500D01*
X247387500Y-125387500D02*
X239070498Y-125387500D01*
X239070498Y-125387500D02*
X235802500Y-122119502D01*
X239070498Y-49187500D02*
X235802500Y-45919502D01*
X247387500Y-49187500D02*
X239070498Y-49187500D01*
X235802500Y-45919502D02*
X235802500Y-43497500D01*
X239070498Y-68237500D02*
X235802500Y-64969502D01*
X239070498Y-87287500D02*
X235802500Y-84019502D01*
X235802500Y-64969502D02*
X235802500Y-62547500D01*
X247387500Y-87287500D02*
X239070498Y-87287500D01*
X235802500Y-84019502D02*
X235802500Y-81597500D01*
X247387500Y-68237500D02*
X239070498Y-68237500D01*
X239070498Y-106337500D02*
X235802500Y-103069502D01*
X247387500Y-106337500D02*
X239070498Y-106337500D01*
X235802500Y-103069502D02*
X235802500Y-100647500D01*
X235802500Y-56635000D02*
X235802500Y-62547501D01*
X238637470Y-53800030D02*
X235802500Y-56635000D01*
X313949972Y-56137528D02*
X296528298Y-56137528D01*
X313987500Y-56106975D02*
X313980525Y-56106975D01*
X313980525Y-56106975D02*
X313949972Y-56137528D01*
X315912500Y-55421250D02*
X314673225Y-55421250D01*
X296528298Y-56137528D02*
X293353300Y-52962530D01*
X252540460Y-50200020D02*
X248940450Y-53800030D01*
X248940450Y-53800030D02*
X238637470Y-53800030D01*
X293353300Y-52962530D02*
X274890799Y-52962529D01*
X314673225Y-55421250D02*
X313987500Y-56106975D01*
X272128290Y-50200020D02*
X252540460Y-50200020D01*
X274890799Y-52962529D02*
X272128290Y-50200020D01*
X279137500Y-130150000D02*
X270820498Y-130150000D01*
X267552500Y-126882002D02*
X267552500Y-124460000D01*
X270820498Y-130150000D02*
X267552500Y-126882002D01*
X258120498Y-45218750D02*
X254852500Y-41950752D01*
X266437500Y-45218750D02*
X258120498Y-45218750D01*
X254852500Y-41950752D02*
X254852500Y-39528750D01*
X258120498Y-64268750D02*
X254852500Y-61000752D01*
X258120498Y-83318750D02*
X254852500Y-80050752D01*
X254852500Y-61000752D02*
X254852500Y-58578750D01*
X266437500Y-83318750D02*
X258120498Y-83318750D01*
X254852500Y-80050752D02*
X254852500Y-77628750D01*
X266437500Y-64268750D02*
X258120498Y-64268750D01*
X258120498Y-102368750D02*
X254852500Y-99100752D01*
X266437500Y-102368750D02*
X258120498Y-102368750D01*
X254852500Y-99100752D02*
X254852500Y-96678750D01*
X278332150Y-143763202D02*
X278016014Y-146164483D01*
X278016014Y-146164483D02*
X280829495Y-149831083D01*
X280829495Y-149831083D02*
X289075344Y-150916670D01*
X254852500Y-53185000D02*
X254852500Y-58578751D01*
X257387470Y-50650030D02*
X254852500Y-53185000D01*
X271941890Y-50650030D02*
X257387470Y-50650030D01*
X314538788Y-56587538D02*
X296341897Y-56587537D01*
X315912500Y-57961250D02*
X314538788Y-56587538D01*
X274704398Y-53412538D02*
X271941890Y-50650030D01*
X296341897Y-56587537D02*
X293166899Y-53412539D01*
X293166899Y-53412539D02*
X274704398Y-53412538D01*
X289050341Y-127201544D02*
X289677203Y-124862068D01*
X299394773Y-133356605D02*
X291361170Y-131204006D01*
X291361170Y-131204006D02*
X289050341Y-127201544D01*
X277170498Y-49187500D02*
X273902500Y-45919502D01*
X285487500Y-49187500D02*
X277170498Y-49187500D01*
X273902500Y-45919502D02*
X273902500Y-43497500D01*
X277170498Y-68237500D02*
X273902500Y-64969502D01*
X277170498Y-87287500D02*
X273902500Y-84019502D01*
X273902500Y-64969502D02*
X273902500Y-62547500D01*
X285487500Y-87287500D02*
X277170498Y-87287500D01*
X273902500Y-84019502D02*
X273902500Y-81597500D01*
X285487500Y-68237500D02*
X277170498Y-68237500D01*
X277170498Y-106337500D02*
X273902500Y-103069502D01*
X285487500Y-106337500D02*
X277170498Y-106337500D01*
X273902500Y-103069502D02*
X273902500Y-100647500D01*
X300354459Y-149611562D02*
X301565460Y-147514046D01*
X301550629Y-154075730D02*
X300354459Y-149611562D01*
X308753364Y-158234231D02*
X301550629Y-154075730D01*
X273902499Y-55885001D02*
X273902499Y-62547500D01*
X312448797Y-57037547D02*
X296155496Y-57037546D01*
X315912500Y-60501250D02*
X312448797Y-57037547D01*
X296155496Y-57037546D02*
X292980498Y-53862548D01*
X292980498Y-53862548D02*
X275924952Y-53862548D01*
X275924952Y-53862548D02*
X273902499Y-55885001D01*
X327803364Y-125242689D02*
X320600633Y-121084188D01*
X318339981Y-118463750D02*
X318756895Y-120019712D01*
X318756895Y-120019712D02*
X320600633Y-121084188D01*
X320615460Y-114522504D02*
X318339981Y-118463750D01*
X296220498Y-52362500D02*
X292952500Y-49094502D01*
X304537500Y-52362500D02*
X296220498Y-52362500D01*
X292952500Y-49094502D02*
X292952500Y-46672500D01*
X296220498Y-71412500D02*
X292952500Y-68144502D01*
X296220498Y-90462500D02*
X292952500Y-87194502D01*
X292952500Y-68144502D02*
X292952500Y-65722500D01*
X304537500Y-90462500D02*
X296220498Y-90462500D01*
X292952500Y-87194502D02*
X292952500Y-84772500D01*
X304537500Y-71412500D02*
X296220498Y-71412500D01*
X296220498Y-109512500D02*
X292952500Y-106244502D01*
X304537500Y-109512500D02*
X296220498Y-109512500D01*
X292952500Y-106244502D02*
X292952500Y-103822500D01*
X318278364Y-141740478D02*
X311075629Y-137581977D01*
X309879459Y-133117809D02*
X311090460Y-131020293D01*
X311075629Y-137581977D02*
X309879459Y-133117809D01*
X294749944Y-57487556D02*
X292952500Y-59285000D01*
X292952500Y-59285000D02*
X292952500Y-65722501D01*
X310358806Y-57487556D02*
X315912500Y-63041250D01*
X310358806Y-57487556D02*
X294749944Y-57487556D01*
X319816186Y-121868635D02*
X320600633Y-121084188D01*
X319816186Y-125076887D02*
X319816186Y-121868635D01*
X319816186Y-125076887D02*
X310956280Y-116216981D01*
X310956280Y-109500000D02*
X310956280Y-116216981D01*
X85082998Y-52362500D02*
X81815000Y-49094502D01*
X93400000Y-52362500D02*
X85082998Y-52362500D01*
X81815000Y-49094502D02*
X81815000Y-46672500D01*
X85082998Y-71412500D02*
X81815000Y-68144502D01*
X85082998Y-90462500D02*
X81815000Y-87194502D01*
X81815000Y-68144502D02*
X81815000Y-65722500D01*
X93400000Y-90462500D02*
X85082998Y-90462500D01*
X81815000Y-87194502D02*
X81815000Y-84772500D01*
X93400000Y-71412500D02*
X85082998Y-71412500D01*
X85082998Y-109512500D02*
X81815000Y-106244502D01*
X93400000Y-109512500D02*
X85082998Y-109512500D01*
X81815000Y-106244502D02*
X81815000Y-103822500D01*
X58166509Y-67184779D02*
X72643496Y-67184780D01*
X56133690Y-65151962D02*
X58166509Y-67184779D01*
X57785000Y-57802500D02*
X56133690Y-59453810D01*
X56133690Y-59453810D02*
X56133690Y-65151962D01*
X74105776Y-65722500D02*
X81815000Y-65722500D01*
X72643496Y-67184780D02*
X74105776Y-65722500D01*
X104132998Y-49187500D02*
X100865000Y-45919502D01*
X112450000Y-49187500D02*
X104132998Y-49187500D01*
X100865000Y-45919502D02*
X100865000Y-43497500D01*
X104132998Y-68237500D02*
X100865000Y-64969502D01*
X104132998Y-87287500D02*
X100865000Y-84019502D01*
X100865000Y-64969502D02*
X100865000Y-62547500D01*
X112450000Y-87287500D02*
X104132998Y-87287500D01*
X100865000Y-84019502D02*
X100865000Y-81597500D01*
X112450000Y-68237500D02*
X104132998Y-68237500D01*
X104132998Y-106337500D02*
X100865000Y-103069502D01*
X112450000Y-106337500D02*
X104132998Y-106337500D01*
X100865000Y-103069502D02*
X100865000Y-100647500D01*
X56583699Y-64965561D02*
X56583699Y-61543801D01*
X100865000Y-62547500D02*
X98647500Y-62547500D01*
X98647500Y-62547500D02*
X92800038Y-56700038D01*
X56583699Y-61543801D02*
X57785000Y-60342500D01*
X92800038Y-56700038D02*
X82491828Y-56700038D01*
X82491828Y-56700038D02*
X72457095Y-66734771D01*
X58352908Y-66734770D02*
X56583699Y-64965561D01*
X72457095Y-66734771D02*
X58352908Y-66734770D01*
X118800000Y-130150000D02*
X110482998Y-130150000D01*
X110482998Y-130150000D02*
X107215000Y-126882002D01*
X123182998Y-45218750D02*
X119915000Y-41950752D01*
X131500000Y-45218750D02*
X123182998Y-45218750D01*
X119915000Y-41950752D02*
X119915000Y-39528750D01*
X123182998Y-64268750D02*
X119915000Y-61000752D01*
X123182998Y-83318750D02*
X119915000Y-80050752D01*
X119915000Y-61000752D02*
X119915000Y-58578750D01*
X131500000Y-83318750D02*
X123182998Y-83318750D01*
X119915000Y-80050752D02*
X119915000Y-77628750D01*
X131500000Y-64268750D02*
X123182998Y-64268750D01*
X123182998Y-102368750D02*
X119915000Y-99100752D01*
X131500000Y-102368750D02*
X123182998Y-102368750D01*
X119915000Y-99100752D02*
X119915000Y-96678750D01*
X107215000Y-124460000D02*
X107215000Y-126882002D01*
X119915000Y-55765000D02*
X119915000Y-58578750D01*
X117562541Y-53412541D02*
X119915000Y-55765000D01*
X97246689Y-53412541D02*
X117562541Y-53412541D01*
X57785000Y-62882500D02*
X57785000Y-65530454D01*
X58539307Y-66284761D02*
X72270694Y-66284762D01*
X94409203Y-56250027D02*
X97246689Y-53412541D01*
X82305428Y-56250028D02*
X94409203Y-56250027D01*
X57785000Y-65530454D02*
X58539307Y-66284761D01*
X72270694Y-66284762D02*
X82305428Y-56250028D01*
X138965000Y-122119502D02*
X138965000Y-119697500D01*
X150550000Y-125387500D02*
X142232998Y-125387500D01*
X142232998Y-125387500D02*
X138965000Y-122119502D01*
X142232998Y-49187500D02*
X138965000Y-45919502D01*
X150550000Y-49187500D02*
X142232998Y-49187500D01*
X138965000Y-45919502D02*
X138965000Y-43497500D01*
X142232998Y-68237500D02*
X138965000Y-64969502D01*
X142232998Y-87287500D02*
X138965000Y-84019502D01*
X138965000Y-64969502D02*
X138965000Y-62547500D01*
X150550000Y-87287500D02*
X142232998Y-87287500D01*
X138965000Y-84019502D02*
X138965000Y-81597500D01*
X150550000Y-68237500D02*
X142232998Y-68237500D01*
X142232998Y-106337500D02*
X138965000Y-103069502D01*
X150550000Y-106337500D02*
X142232998Y-106337500D01*
X138965000Y-103069502D02*
X138965000Y-100647500D01*
X138965000Y-51974230D02*
X138965000Y-55621250D01*
X136028300Y-49037530D02*
X138965000Y-51974230D01*
X73025000Y-52722500D02*
X76102518Y-55800018D01*
X114046699Y-52962531D02*
X117971700Y-49037530D01*
X76102518Y-55800018D02*
X94222802Y-55800018D01*
X117971700Y-49037530D02*
X136028300Y-49037530D01*
X97060289Y-52962531D02*
X114046699Y-52962531D01*
X138965000Y-55621250D02*
X138965000Y-62547500D01*
X94222802Y-55800018D02*
X97060289Y-52962531D01*
X158015000Y-126882002D02*
X158015000Y-124460000D01*
X169600000Y-130150000D02*
X161282998Y-130150000D01*
X161282998Y-130150000D02*
X158015000Y-126882002D01*
X161282998Y-53950000D02*
X158015000Y-50682002D01*
X169600000Y-53950000D02*
X161282998Y-53950000D01*
X158015000Y-50682002D02*
X158015000Y-48260000D01*
X161282998Y-73000000D02*
X158015000Y-69732002D01*
X161282998Y-92050000D02*
X158015000Y-88782002D01*
X158015000Y-69732002D02*
X158015000Y-67310000D01*
X169600000Y-92050000D02*
X161282998Y-92050000D01*
X158015000Y-88782002D02*
X158015000Y-86360000D01*
X169600000Y-73000000D02*
X161282998Y-73000000D01*
X161282998Y-111100000D02*
X158015000Y-107832002D01*
X169600000Y-111100000D02*
X161282998Y-111100000D01*
X158015000Y-107832002D02*
X158015000Y-105410000D01*
X78192510Y-55350010D02*
X73025000Y-50182500D01*
X96873889Y-52512521D02*
X94036401Y-55350009D01*
X94036401Y-55350009D02*
X78192510Y-55350010D01*
X117785300Y-48587520D02*
X113860299Y-52512521D01*
X158015000Y-67310000D02*
X158015000Y-55306570D01*
X158015000Y-55306570D02*
X155220951Y-52512521D01*
X113860299Y-52512521D02*
X96873889Y-52512521D01*
X136214700Y-48587520D02*
X117785300Y-48587520D01*
X155220951Y-52512521D02*
X140139701Y-52512521D01*
X140139701Y-52512521D02*
X136214700Y-48587520D01*
X177065000Y-126882002D02*
X177065000Y-124460000D01*
X188650000Y-130150000D02*
X180332998Y-130150000D01*
X180332998Y-130150000D02*
X177065000Y-126882002D01*
X180332998Y-53950000D02*
X177065000Y-50682002D01*
X188650000Y-53950000D02*
X180332998Y-53950000D01*
X177065000Y-50682002D02*
X177065000Y-48260000D01*
X180332998Y-73000000D02*
X177065000Y-69732002D01*
X180332998Y-92050000D02*
X177065000Y-88782002D01*
X177065000Y-69732002D02*
X177065000Y-67310000D01*
X188650000Y-92050000D02*
X180332998Y-92050000D01*
X177065000Y-88782002D02*
X177065000Y-86360000D01*
X188650000Y-73000000D02*
X180332998Y-73000000D01*
X180332998Y-111100000D02*
X177065000Y-107832002D01*
X188650000Y-111100000D02*
X180332998Y-111100000D01*
X177065000Y-107832002D02*
X177065000Y-105410000D01*
X177065000Y-64735000D02*
X177065000Y-67310000D01*
X175730000Y-63400000D02*
X177065000Y-64735000D01*
X173450000Y-63400000D02*
X175730000Y-63400000D01*
X80282500Y-54900000D02*
X93850000Y-54900000D01*
X96687489Y-52062511D02*
X113673899Y-52062511D01*
X93850000Y-54900000D02*
X96687489Y-52062511D01*
X113673899Y-52062511D02*
X117598900Y-48137510D01*
X117598900Y-48137510D02*
X136401100Y-48137510D01*
X73025000Y-47642500D02*
X80282500Y-54900000D01*
X136401100Y-48137510D02*
X140326101Y-52062511D01*
X140326101Y-52062511D02*
X155407351Y-52062511D01*
X155407351Y-52062511D02*
X160169851Y-56825011D01*
X166875011Y-56825011D02*
X173450000Y-63400000D01*
X160169851Y-56825011D02*
X166875011Y-56825011D01*
X331337500Y-85768750D02*
X331337500Y-87268750D01*
X331337500Y-85768750D02*
X328273525Y-85768750D01*
X328273525Y-85768750D02*
X327423525Y-84918750D01*
X57600000Y-85768750D02*
X57600000Y-87268750D01*
X57600000Y-85768750D02*
X58231250Y-85768750D01*
X58231250Y-85768750D02*
X58850000Y-85150000D01*
X334181270Y-65683737D02*
X334181270Y-53370020D01*
X331330193Y-68534814D02*
X334181270Y-65683737D01*
X311772203Y-68534814D02*
X331330193Y-68534814D01*
X327024130Y-112477462D02*
X316448425Y-112477462D01*
X310731289Y-106760326D02*
X310731289Y-69575728D01*
X327066186Y-112519518D02*
X327024130Y-112477462D01*
X334181270Y-53370020D02*
X331152500Y-50341250D01*
X316448425Y-112477462D02*
X310731289Y-106760326D01*
X310731289Y-69575728D02*
X311772203Y-68534814D01*
X311181299Y-106573926D02*
X315667660Y-111060287D01*
X330181250Y-111060287D02*
X331396314Y-112275351D01*
X334631280Y-51280030D02*
X334631279Y-65870138D01*
X331152500Y-47801250D02*
X334631280Y-51280030D01*
X311181299Y-69762128D02*
X311181299Y-106573926D01*
X334631279Y-65870138D02*
X331516593Y-68984824D01*
X315667660Y-111060287D02*
X330181250Y-111060287D01*
X331516593Y-68984824D02*
X311958603Y-68984824D01*
X331396314Y-112275351D02*
X331396314Y-115019518D01*
X311958603Y-68984824D02*
X311181299Y-69762128D01*
X189992000Y-123758000D02*
X189900000Y-123850000D01*
X189992000Y-121920000D02*
X189992000Y-123758000D01*
X192087500Y-125350000D02*
X191400000Y-125350000D01*
X191400000Y-125350000D02*
X189900000Y-123850000D01*
M02*
