G04 #@! TF.GenerationSoftware,KiCad,Pcbnew,(5.1.6)-1*
G04 #@! TF.CreationDate,2020-10-06T00:54:28+08:00*
G04 #@! TF.ProjectId,Galia,47616c69-612e-46b6-9963-61645f706362,rev?*
G04 #@! TF.SameCoordinates,Original*
G04 #@! TF.FileFunction,Profile,NP*
%FSLAX46Y46*%
G04 Gerber Fmt 4.6, Leading zero omitted, Abs format (unit mm)*
G04 Created by KiCad (PCBNEW (5.1.6)-1) date 2020-10-06 00:54:28*
%MOMM*%
%LPD*%
G01*
G04 APERTURE LIST*
G04 #@! TA.AperFunction,Profile*
%ADD10C,0.100000*%
G04 #@! TD*
G04 APERTURE END LIST*
D10*
X51594298Y-103081197D02*
X54581549Y-103081199D01*
X74631546Y-103131198D02*
X77581548Y-103131198D01*
X74631548Y-106281198D02*
X74631546Y-103131198D01*
X54581549Y-103081199D02*
X54581548Y-106281198D01*
X54581548Y-106281198D02*
X74631548Y-106281198D01*
X51594298Y-92081200D02*
X51594298Y-87076197D01*
X51594298Y-103081197D02*
X51594298Y-114886997D01*
X77581548Y-92081198D02*
X74581548Y-92081198D01*
X54581548Y-92081198D02*
X51594298Y-92081200D01*
X54581550Y-88881197D02*
X54581548Y-92081198D01*
X74581548Y-92081198D02*
X74581549Y-88881197D01*
X77581548Y-103131198D02*
X77581548Y-92081198D01*
X74581549Y-88881197D02*
X54581550Y-88881197D01*
X334356250Y-92081250D02*
X337343500Y-92081250D01*
X334356250Y-88881250D02*
X334356250Y-92081250D01*
X314356250Y-88881250D02*
X334356250Y-88881250D01*
X314356250Y-92081250D02*
X314356250Y-88881250D01*
X311356250Y-92081250D02*
X314356250Y-92081250D01*
X311356250Y-103131250D02*
X311356250Y-92081250D01*
X334356250Y-106281250D02*
X314306250Y-106281250D01*
X337343500Y-103081250D02*
X334356250Y-103081250D01*
X334356250Y-103081250D02*
X334356250Y-106281250D01*
X314306250Y-106281250D02*
X314306250Y-103131250D01*
X314306250Y-103131250D02*
X311356250Y-103131250D01*
X337343500Y-103081250D02*
X337343500Y-118792514D01*
X337343500Y-92081250D02*
X337343500Y-87076249D01*
X195262500Y-53500000D02*
X193675001Y-53499999D01*
X195262500Y-110650000D02*
X193675001Y-110649999D01*
X195262500Y-91600000D02*
X193675001Y-91599999D01*
X193675001Y-91599999D02*
X193675000Y-105250000D01*
X195262500Y-105250000D02*
X195262500Y-91600000D01*
X195262500Y-72550000D02*
X193675001Y-72549999D01*
X195262500Y-86200000D02*
X195262500Y-72550000D01*
X193675001Y-72549999D02*
X193675000Y-86200000D01*
X193675000Y-67150000D02*
X195262500Y-67150000D01*
X193675001Y-53499999D02*
X193675000Y-67150000D01*
X195262500Y-67150000D02*
X195262500Y-53500000D01*
X193675000Y-86200000D02*
X195262500Y-86200000D01*
X193675000Y-105250000D02*
X195262500Y-105250000D01*
X193675000Y-124300000D02*
X195262500Y-124300000D01*
X193675001Y-110649999D02*
X193675000Y-124300000D01*
X195262500Y-124300000D02*
X195262500Y-110650000D01*
X195262500Y-129700000D02*
X193675001Y-129699999D01*
X195262500Y-135525049D02*
X195262500Y-129700000D01*
X193675001Y-129699999D02*
X193675302Y-135524995D01*
X193675000Y-48100000D02*
X195262500Y-48100000D01*
X51594298Y-77932197D02*
X51594298Y-33543697D01*
X58676295Y-33543693D02*
X58676298Y-65954797D01*
X57100298Y-77932199D02*
X51594298Y-77932197D01*
X72134298Y-65954799D02*
X72134258Y-33543847D01*
X193675302Y-135524995D02*
G75*
G02*
X192675298Y-136524997I-1000003J1D01*
G01*
X193675299Y-42133819D02*
X193675000Y-48100000D01*
X192675298Y-136524997D02*
X105775298Y-136524999D01*
X58676298Y-65954797D02*
X72134298Y-65954799D01*
X105775295Y-136524995D02*
G75*
G02*
X104775299Y-135524997I1J999997D01*
G01*
X57100300Y-87076198D02*
X57100298Y-77932199D01*
X73134244Y-32543755D02*
X136449346Y-32543699D01*
X52594297Y-32543695D02*
X57676296Y-32543697D01*
X192826322Y-41145292D02*
G75*
G02*
X193675299Y-42133819I-151023J-988530D01*
G01*
X136600376Y-32555167D02*
X192826326Y-41145291D01*
X72134254Y-33543853D02*
G75*
G02*
X73134244Y-32543755I1000044J54D01*
G01*
X136449349Y-32543697D02*
G75*
G02*
X136600376Y-32555167I0J-999998D01*
G01*
X51594294Y-33543700D02*
G75*
G02*
X52594297Y-32543695I1000004J1D01*
G01*
X51594298Y-87076197D02*
X57100300Y-87076198D01*
X104775299Y-135524997D02*
X104775298Y-116886997D01*
X103775298Y-115886993D02*
G75*
G02*
X104775298Y-116886997I-2J-1000002D01*
G01*
X52594300Y-115886997D02*
G75*
G02*
X51594298Y-114886997I-1J1000001D01*
G01*
X103775298Y-115886999D02*
X52594297Y-115886995D01*
X57676297Y-32543699D02*
G75*
G02*
X58676295Y-33543693I1J-999997D01*
G01*
X337343500Y-77932249D02*
X331837500Y-77932249D01*
X337343500Y-33543748D02*
X337343500Y-77932249D01*
X336343499Y-32543749D02*
G75*
G02*
X337343500Y-33543748I1J-1000000D01*
G01*
X310259460Y-165654176D02*
G75*
G02*
X309166873Y-166125269I-864545J502560D01*
G01*
X315803501Y-32543799D02*
G75*
G02*
X316803548Y-33543894I-2J-1000049D01*
G01*
X331261500Y-32543749D02*
X336343500Y-32543749D01*
X330261500Y-33543749D02*
G75*
G02*
X331261500Y-32543749I1000000J0D01*
G01*
X196262499Y-136525048D02*
G75*
G02*
X195262500Y-135525049I0J999999D01*
G01*
X337208042Y-119295073D02*
X310259458Y-165654176D01*
X330261500Y-65954849D02*
X330261500Y-33543749D01*
X196111473Y-41145343D02*
X252337422Y-32555219D01*
X274287500Y-157163200D02*
X274287500Y-137525049D01*
X316803500Y-65954849D02*
X330261500Y-65954849D01*
X273287500Y-136525049D02*
X196262500Y-136525049D01*
X275059458Y-158136851D02*
G75*
G02*
X274287500Y-157163200I228042J973651D01*
G01*
X316803548Y-33543894D02*
X316803500Y-65954849D01*
X195262500Y-48100000D02*
X195262500Y-42133873D01*
X309166873Y-166125269D02*
X275059457Y-158136851D01*
X331837500Y-87076249D02*
X337343500Y-87076249D01*
X273287500Y-136525049D02*
G75*
G02*
X274287500Y-137525049I0J-1000000D01*
G01*
X337343499Y-118792514D02*
G75*
G02*
X337208042Y-119295073I-999999J0D01*
G01*
X252488449Y-32543749D02*
X315803500Y-32543799D01*
X252337422Y-32555219D02*
G75*
G02*
X252488449Y-32543749I151026J-988530D01*
G01*
X195262500Y-42133874D02*
G75*
G02*
X196111473Y-41145343I1000000J1D01*
G01*
X331837500Y-77932249D02*
X331837500Y-87076249D01*
M02*
