G04 #@! TF.GenerationSoftware,KiCad,Pcbnew,(5.1.6)-1*
G04 #@! TF.CreationDate,2020-10-02T12:38:06+08:00*
G04 #@! TF.ProjectId,Galia,47616c69-612e-46b6-9963-61645f706362,rev?*
G04 #@! TF.SameCoordinates,Original*
G04 #@! TF.FileFunction,Profile,NP*
%FSLAX46Y46*%
G04 Gerber Fmt 4.6, Leading zero omitted, Abs format (unit mm)*
G04 Created by KiCad (PCBNEW (5.1.6)-1) date 2020-10-02 12:38:06*
%MOMM*%
%LPD*%
G01*
G04 APERTURE LIST*
G04 #@! TA.AperFunction,Profile*
%ADD10C,0.010000*%
G04 #@! TD*
G04 APERTURE END LIST*
D10*
X51594298Y-81944697D02*
X51594298Y-33543697D01*
X58676295Y-33543693D02*
X58676298Y-65954797D01*
X57100298Y-81944699D02*
X51594298Y-81944697D01*
X72134298Y-65954799D02*
X72134258Y-33543847D01*
X193675302Y-135524995D02*
G75*
G02*
X192675298Y-136524997I-1000003J1D01*
G01*
X193675299Y-42133819D02*
X193675299Y-135524995D01*
X192675298Y-136524997D02*
X105775298Y-136524999D01*
X58676298Y-65954797D02*
X72134298Y-65954799D01*
X105775295Y-136524995D02*
G75*
G02*
X104775299Y-135524997I1J999997D01*
G01*
X57100300Y-91088698D02*
X57100298Y-81944699D01*
X73134244Y-32543755D02*
X136449346Y-32543699D01*
X52594297Y-32543695D02*
X57676296Y-32543697D01*
X51594298Y-114886997D02*
X51594298Y-91088697D01*
X192826322Y-41145292D02*
G75*
G02*
X193675299Y-42133819I-151023J-988530D01*
G01*
X136600376Y-32555167D02*
X192826326Y-41145291D01*
X72134254Y-33543853D02*
G75*
G02*
X73134244Y-32543755I1000044J54D01*
G01*
X136449349Y-32543697D02*
G75*
G02*
X136600376Y-32555167I0J-999998D01*
G01*
X51594294Y-33543700D02*
G75*
G02*
X52594297Y-32543695I1000004J1D01*
G01*
X51594298Y-91088697D02*
X57100300Y-91088698D01*
X104775299Y-135524997D02*
X104775298Y-116886997D01*
X103775298Y-115886993D02*
G75*
G02*
X104775298Y-116886997I-2J-1000002D01*
G01*
X52594300Y-115886997D02*
G75*
G02*
X51594298Y-114886997I-1J1000001D01*
G01*
X103775298Y-115886999D02*
X52594297Y-115886995D01*
X57676297Y-32543699D02*
G75*
G02*
X58676295Y-33543693I1J-999997D01*
G01*
X336756000Y-81944749D02*
X331250000Y-81944749D01*
X336756000Y-33543748D02*
X336756000Y-81944749D01*
X335755999Y-32543749D02*
G75*
G02*
X336756000Y-33543748I1J-1000000D01*
G01*
X309671960Y-165654176D02*
G75*
G02*
X308579373Y-166125269I-864545J502560D01*
G01*
X315216001Y-32543799D02*
G75*
G02*
X316216048Y-33543894I-2J-1000049D01*
G01*
X330674000Y-32543749D02*
X335756000Y-32543749D01*
X329674000Y-33543749D02*
G75*
G02*
X330674000Y-32543749I1000000J0D01*
G01*
X195674999Y-136525048D02*
G75*
G02*
X194675000Y-135525049I0J999999D01*
G01*
X336620542Y-119295073D02*
X309671958Y-165654176D01*
X329674000Y-65954849D02*
X329674000Y-33543749D01*
X195523973Y-41145343D02*
X251749922Y-32555219D01*
X273700000Y-157163200D02*
X273700000Y-137525049D01*
X316216000Y-65954849D02*
X329674000Y-65954849D01*
X272700000Y-136525049D02*
X195675000Y-136525049D01*
X274471958Y-158136851D02*
G75*
G02*
X273700000Y-157163200I228042J973651D01*
G01*
X316216048Y-33543894D02*
X316216000Y-65954849D01*
X194675000Y-135525049D02*
X194675000Y-42133873D01*
X308579373Y-166125269D02*
X274471957Y-158136851D01*
X331250000Y-91088749D02*
X336756000Y-91088749D01*
X336756000Y-91088749D02*
X336756000Y-118792514D01*
X272700000Y-136525049D02*
G75*
G02*
X273700000Y-137525049I0J-1000000D01*
G01*
X336755999Y-118792514D02*
G75*
G02*
X336620542Y-119295073I-999999J0D01*
G01*
X251900949Y-32543749D02*
X315216000Y-32543799D01*
X251749922Y-32555219D02*
G75*
G02*
X251900949Y-32543749I151026J-988530D01*
G01*
X194675000Y-42133874D02*
G75*
G02*
X195523973Y-41145343I1000000J1D01*
G01*
X331250000Y-81944749D02*
X331250000Y-91088749D01*
M02*
