M48
; DRILL file {KiCad (5.1.6)-1} date 10/02/20 12:38:07
; FORMAT={-:-/ absolute / inch / decimal}
; #@! TF.CreationDate,2020-10-02T12:38:07+08:00
; #@! TF.GenerationSoftware,Kicad,Pcbnew,(5.1.6)-1
; #@! TF.FileFunction,NonPlated,1,2,NPTH
FMAT,2
INCH
T1C0.0591
T2C0.0748
T3C0.1181
T4C0.1614
%
G90
G05
T1
X8.7894Y-4.8228
X8.7894Y-5.1772
X10.2894Y-2.2291
X10.2894Y-2.5834
X8.7894Y-2.5728
X8.7894Y-2.9272
X5.75Y-2.3853
X5.75Y-2.7397
X5.75Y-3.1353
X5.75Y-3.4897
X7.25Y-3.3228
X7.25Y-3.6772
X8.0394Y-3.3228
X8.0394Y-3.6772
X5.75Y-3.8853
X5.75Y-4.2397
X6.5Y-3.3228
X6.5Y-3.6772
X10.2894Y-2.9791
X10.2894Y-3.3334
X11.0394Y-1.6353
X11.0394Y-1.9897
X8.7894Y-3.3228
X8.7894Y-3.6772
X3.5Y-2.5103
X3.5Y-2.8647
X5.0Y-2.2291
X5.0Y-2.5834
X7.25Y-4.0728
X7.25Y-4.4272
X4.25Y-3.8853
X4.25Y-4.2397
X5.75Y-4.6353
X5.75Y-4.9897
X9.5394Y-4.6353
X9.5394Y-4.9897
X6.5Y-4.8228
X6.5Y-5.1772
X12.3275Y-5.5378
X12.5047Y-5.2309
X10.2894Y-3.7291
X10.2894Y-4.0834
X8.0394Y-4.8228
X8.0394Y-5.1772
X8.7894Y-4.0728
X8.7894Y-4.4272
X11.0394Y-3.8853
X11.0394Y-4.2397
X11.7894Y-2.5103
X11.7894Y-2.8647
X3.5Y-1.7603
X3.5Y-2.1147
X5.75Y-1.6353
X5.75Y-1.9897
X5.0Y-2.9791
X5.0Y-3.3334
X6.5Y-1.8228
X6.5Y-2.1772
X9.5394Y-1.6353
X9.5394Y-1.9897
X11.0394Y-2.3853
X11.0394Y-2.7397
X11.9525Y-6.1871
X12.1297Y-5.8803
X12.7025Y-4.8883
X12.8797Y-4.5814
X11.7894Y-4.0103
X11.7894Y-4.3647
X8.0394Y-2.5728
X8.0394Y-2.9272
X5.0Y-3.7291
X5.0Y-4.0834
X7.25Y-2.5728
X7.25Y-2.9272
X9.5394Y-3.1353
X9.5394Y-3.4897
X8.7894Y-1.8228
X8.7894Y-2.1772
X11.7894Y-3.2603
X11.7894Y-3.6147
X3.5Y-3.2603
X3.5Y-3.6147
X4.25Y-2.3853
X4.25Y-2.7397
X11.0394Y-3.1353
X11.0394Y-3.4897
X8.0394Y-1.8228
X8.0394Y-2.1772
X9.5394Y-3.8853
X9.5394Y-4.2397
X9.5394Y-2.3853
X9.5394Y-2.7397
X11.5792Y-5.2557
X11.6709Y-4.9135
X4.25Y-1.6353
X4.25Y-1.9897
X3.5Y-4.0103
X3.5Y-4.3647
X6.5Y-4.0728
X6.5Y-4.4272
X8.0394Y-4.0728
X8.0394Y-4.4272
X10.7894Y-4.8228
X10.7894Y-5.1772
X11.7894Y-1.7603
X11.7894Y-2.1147
X10.2894Y-1.4791
X10.2894Y-1.8334
X11.1752Y-5.9712
X11.2215Y-5.6199
X5.0Y-1.4791
X5.0Y-1.8334
X4.5Y-4.8228
X4.5Y-5.1772
X7.25Y-1.8228
X7.25Y-2.1772
X4.25Y-3.1353
X4.25Y-3.4897
X7.25Y-4.8228
X7.25Y-5.1772
X6.5Y-2.5728
X6.5Y-2.9272
T2
X9.3394Y-1.8125
X9.7394Y-1.8125
X10.8394Y-2.5625
X11.2394Y-2.5625
X11.8679Y-5.9337
X12.2143Y-6.1337
X12.6179Y-4.6348
X12.9643Y-4.8348
X11.5894Y-4.1875
X11.9894Y-4.1875
X7.8394Y-2.75
X8.2394Y-2.75
X4.8Y-3.9062
X5.2Y-3.9062
X7.05Y-2.75
X7.45Y-2.75
X9.3394Y-3.3125
X9.7394Y-3.3125
X8.5894Y-2.0
X8.9894Y-2.0
X11.5894Y-3.4375
X11.9894Y-3.4375
X3.3Y-3.4375
X3.7Y-3.4375
X4.05Y-2.5625
X4.45Y-2.5625
X10.8394Y-3.3125
X11.2394Y-3.3125
X7.8394Y-2.0
X8.2394Y-2.0
X9.3394Y-4.0625
X9.7394Y-4.0625
X9.3394Y-2.5625
X9.7394Y-2.5625
X11.4318Y-5.0329
X11.8182Y-5.1364
X4.05Y-1.8125
X4.45Y-1.8125
X3.3Y-4.1875
X3.7Y-4.1875
X6.3Y-4.25
X6.7Y-4.25
X7.8394Y-4.25
X8.2394Y-4.25
X10.5894Y-5.0
X10.9894Y-5.0
X11.5894Y-1.9375
X11.9894Y-1.9375
X10.0894Y-1.6562
X10.4894Y-1.6562
X11.0Y-5.7694
X11.3966Y-5.8216
X4.8Y-1.6562
X5.2Y-1.6562
X4.3Y-5.0
X4.7Y-5.0
X7.05Y-2.0
X7.45Y-2.0
X4.05Y-3.3125
X4.45Y-3.3125
X7.05Y-5.0
X7.45Y-5.0
X6.3Y-2.75
X6.7Y-2.75
X8.5894Y-5.0
X8.9894Y-5.0
X10.0894Y-2.4063
X10.4894Y-2.4063
X8.5894Y-2.75
X8.9894Y-2.75
X5.55Y-2.5625
X5.95Y-2.5625
X5.55Y-3.3125
X5.95Y-3.3125
X7.05Y-3.5
X7.45Y-3.5
X7.8394Y-3.5
X8.2394Y-3.5
X5.55Y-4.0625
X5.95Y-4.0625
X6.3Y-3.5
X6.7Y-3.5
X10.0894Y-3.1562
X10.4894Y-3.1562
X10.8394Y-1.8125
X11.2394Y-1.8125
X8.5894Y-3.5
X8.9894Y-3.5
X3.3Y-2.6875
X3.7Y-2.6875
X4.8Y-2.4062
X5.2Y-2.4062
X7.05Y-4.25
X7.45Y-4.25
X4.05Y-4.0625
X4.45Y-4.0625
X5.55Y-4.8125
X5.95Y-4.8125
X9.3394Y-4.8125
X9.7394Y-4.8125
X6.3Y-5.0
X6.7Y-5.0
X12.2429Y-5.2844
X12.5893Y-5.4844
X10.0894Y-3.9062
X10.4894Y-3.9062
X7.8394Y-5.0
X8.2394Y-5.0
X8.5894Y-4.25
X8.9894Y-4.25
X10.8394Y-4.0625
X11.2394Y-4.0625
X11.5894Y-2.6875
X11.9894Y-2.6875
X3.3Y-1.9375
X3.7Y-1.9375
X5.55Y-1.8125
X5.95Y-1.8125
X4.8Y-3.1562
X5.2Y-3.1562
X6.3Y-2.0
X6.7Y-2.0
T3
X11.6394Y-1.8375
X11.8894Y-1.7375
X10.1394Y-1.5562
X10.3894Y-1.4563
X11.0627Y-5.6768
X11.3236Y-5.6103
X4.85Y-1.5562
X5.1Y-1.4563
X4.35Y-4.9
X4.6Y-4.8
X7.1Y-1.9
X7.35Y-1.8
X4.1Y-3.2125
X4.35Y-3.1125
X7.1Y-4.9
X7.35Y-4.8
X6.35Y-2.65
X6.6Y-2.55
X8.6394Y-4.9
X8.8894Y-4.8
X10.1394Y-2.3063
X10.3894Y-2.2063
X8.6394Y-2.65
X8.8894Y-2.55
X5.6Y-2.4625
X5.85Y-2.3625
X5.6Y-3.2125
X5.85Y-3.1125
X7.1Y-3.4
X7.35Y-3.3
X7.8894Y-3.4
X8.1394Y-3.3
X5.6Y-3.9625
X5.85Y-3.8625
X6.35Y-3.4
X6.6Y-3.3
X10.1394Y-3.0562
X10.3894Y-2.9562
X10.8894Y-1.7125
X11.1394Y-1.6125
X8.6394Y-3.4
X8.8894Y-3.3
X3.35Y-2.5875
X3.6Y-2.4875
X4.85Y-2.3062
X5.1Y-2.2062
X7.1Y-4.15
X7.35Y-4.05
X4.1Y-3.9625
X4.35Y-3.8625
X5.6Y-4.7125
X5.85Y-4.6125
X9.3894Y-4.7125
X9.6394Y-4.6125
X6.35Y-4.9
X6.6Y-4.8
X12.3362Y-5.2227
X12.6027Y-5.2611
X10.1394Y-3.8062
X10.3894Y-3.7062
X7.8894Y-4.9
X8.1394Y-4.8
X8.6394Y-4.15
X8.8894Y-4.05
X10.8894Y-3.9625
X11.1394Y-3.8625
X11.6394Y-2.5875
X11.8894Y-2.4875
X3.35Y-1.8375
X3.6Y-1.7375
X5.6Y-1.7125
X5.85Y-1.6125
X4.85Y-3.0562
X5.1Y-2.9562
X6.35Y-1.9
X6.6Y-1.8
X9.3894Y-1.7125
X9.6394Y-1.6125
X10.8894Y-2.4625
X11.1394Y-2.3625
X11.9612Y-5.8721
X12.2277Y-5.9105
X12.7112Y-4.5732
X12.9777Y-4.6116
X11.6394Y-4.0875
X11.8894Y-3.9875
X7.8894Y-2.65
X8.1394Y-2.55
X4.85Y-3.8062
X5.1Y-3.7062
X7.1Y-2.65
X7.35Y-2.55
X9.3894Y-3.2125
X9.6394Y-3.1125
X8.6394Y-1.9
X8.8894Y-1.8
X11.6394Y-3.3375
X11.8894Y-3.2375
X3.35Y-3.3375
X3.6Y-3.2375
X4.1Y-2.4625
X4.35Y-2.3625
X10.8894Y-3.2125
X11.1394Y-3.1125
X7.8894Y-1.9
X8.1394Y-1.8
X9.3894Y-3.9625
X9.6394Y-3.8625
X9.3894Y-2.4625
X9.6394Y-2.3625
X11.506Y-4.9492
X11.7734Y-4.9173
X4.1Y-1.7125
X4.35Y-1.6125
X3.35Y-4.0875
X3.6Y-3.9875
X6.35Y-4.15
X6.6Y-4.05
X7.8894Y-4.15
X8.1394Y-4.05
X10.6394Y-4.9
X10.8894Y-4.8
T4
X8.0394Y-5.0
X8.7894Y-4.25
X11.0394Y-4.0625
X11.7894Y-2.6875
X3.5Y-1.9375
X5.75Y-1.8125
X5.0Y-3.1562
X6.5Y-2.0
X9.5394Y-1.8125
X11.0394Y-2.5625
X12.0411Y-6.0337
X12.7911Y-4.7348
X11.7894Y-4.1875
X8.0394Y-2.75
X5.0Y-3.9062
X7.25Y-2.75
X9.5394Y-3.3125
X8.7894Y-2.0
X11.7894Y-3.4375
X3.5Y-3.4375
X4.25Y-2.5625
X11.0394Y-3.3125
X8.0394Y-2.0
X9.5394Y-4.0625
X9.5394Y-2.5625
X11.625Y-5.0846
X4.25Y-1.8125
X3.5Y-4.1875
X6.5Y-4.25
X8.0394Y-4.25
X10.7894Y-5.0
X11.7894Y-1.9375
X10.2894Y-1.6562
X11.1983Y-5.7955
X5.0Y-1.6562
X4.5Y-5.0
X7.25Y-2.0
X4.25Y-3.3125
X7.25Y-5.0
X6.5Y-2.75
X8.7894Y-5.0
X10.2894Y-2.4063
X8.7894Y-2.75
X5.75Y-2.5625
X5.75Y-3.3125
X7.25Y-3.5
X8.0394Y-3.5
X5.75Y-4.0625
X6.5Y-3.5
X10.2894Y-3.1562
X11.0394Y-1.8125
X8.7894Y-3.5
X3.5Y-2.6875
X5.0Y-2.4062
X7.25Y-4.25
X4.25Y-4.0625
X5.75Y-4.8125
X9.5394Y-4.8125
X6.5Y-5.0
X12.4161Y-5.3844
X10.2894Y-3.9062
T0
M30
