G04 #@! TF.GenerationSoftware,KiCad,Pcbnew,(5.1.6)-1*
G04 #@! TF.CreationDate,2020-10-06T00:54:28+08:00*
G04 #@! TF.ProjectId,Galia,47616c69-612e-46b6-9963-61645f706362,rev?*
G04 #@! TF.SameCoordinates,Original*
G04 #@! TF.FileFunction,Copper,L1,Top*
G04 #@! TF.FilePolarity,Positive*
%FSLAX46Y46*%
G04 Gerber Fmt 4.6, Leading zero omitted, Abs format (unit mm)*
G04 Created by KiCad (PCBNEW (5.1.6)-1) date 2020-10-06 00:54:28*
%MOMM*%
%LPD*%
G01*
G04 APERTURE LIST*
G04 #@! TA.AperFunction,ComponentPad*
%ADD10C,4.400000*%
G04 #@! TD*
G04 #@! TA.AperFunction,ComponentPad*
%ADD11R,2.500000X2.500000*%
G04 #@! TD*
G04 #@! TA.AperFunction,ComponentPad*
%ADD12C,2.400000*%
G04 #@! TD*
G04 #@! TA.AperFunction,ComponentPad*
%ADD13C,2.000000*%
G04 #@! TD*
G04 #@! TA.AperFunction,ComponentPad*
%ADD14C,0.100000*%
G04 #@! TD*
G04 #@! TA.AperFunction,ComponentPad*
%ADD15O,2.200000X1.000000*%
G04 #@! TD*
G04 #@! TA.AperFunction,ComponentPad*
%ADD16O,1.800000X1.000000*%
G04 #@! TD*
G04 #@! TA.AperFunction,ComponentPad*
%ADD17O,1.700000X1.700000*%
G04 #@! TD*
G04 #@! TA.AperFunction,ComponentPad*
%ADD18R,1.700000X1.700000*%
G04 #@! TD*
G04 #@! TA.AperFunction,ComponentPad*
%ADD19C,1.752600*%
G04 #@! TD*
G04 #@! TA.AperFunction,ComponentPad*
%ADD20R,1.752600X1.752600*%
G04 #@! TD*
G04 #@! TA.AperFunction,ViaPad*
%ADD21C,0.700000*%
G04 #@! TD*
G04 #@! TA.AperFunction,Conductor*
%ADD22C,0.250000*%
G04 #@! TD*
G04 #@! TA.AperFunction,Conductor*
%ADD23C,1.000000*%
G04 #@! TD*
G04 #@! TA.AperFunction,Conductor*
%ADD24C,0.500000*%
G04 #@! TD*
G04 APERTURE END LIST*
D10*
X73081297Y-72328799D03*
X57081297Y-72328799D03*
X331532500Y-72487549D03*
X315532500Y-72487549D03*
D11*
X312856250Y-101581250D03*
X312856250Y-93581250D03*
X312856250Y-104581250D03*
X312856250Y-90581250D03*
X335856250Y-104581250D03*
X335856250Y-90581250D03*
X76081548Y-93581198D03*
X76081548Y-101581198D03*
X76081548Y-90581198D03*
X76081548Y-104581198D03*
X53081548Y-90581198D03*
X53081548Y-104581198D03*
D10*
X56356248Y-109537500D03*
X332581250Y-109537500D03*
X302418750Y-140493750D03*
X271462500Y-112712500D03*
X290512500Y-57150000D03*
X214312500Y-117475000D03*
X214312500Y-60325000D03*
X117475000Y-112712500D03*
X98425000Y-57150000D03*
X174625000Y-117475000D03*
X174625000Y-60325000D03*
D12*
X305787500Y-103212500D03*
X304537500Y-109512500D03*
D13*
X324146314Y-127576887D03*
G04 #@! TA.AperFunction,ComponentPad*
D14*
G36*
X331030289Y-113653493D02*
G01*
X332762339Y-114653493D01*
X331762339Y-116385543D01*
X330030289Y-115385543D01*
X331030289Y-113653493D01*
G37*
G04 #@! TD.AperFunction*
D13*
X329231250Y-113769518D03*
X327066186Y-112519518D03*
X319816186Y-125076887D03*
G04 #@! TA.AperFunction,ComponentPad*
D14*
G36*
X330264967Y-121179068D02*
G01*
X331997017Y-122179068D01*
X330397017Y-124950350D01*
X328664967Y-123950350D01*
X330264967Y-121179068D01*
G37*
G04 #@! TD.AperFunction*
G04 #@! TA.AperFunction,ComponentPad*
G36*
X320565483Y-115579068D02*
G01*
X322297533Y-116579068D01*
X320697533Y-119350350D01*
X318965483Y-118350350D01*
X320565483Y-115579068D01*
G37*
G04 #@! TD.AperFunction*
D12*
X248637500Y-42887501D03*
X247387500Y-49187501D03*
X248637501Y-119087500D03*
X247387501Y-125387500D03*
X322510896Y-136909518D03*
X318278364Y-141740478D03*
X327803364Y-125242689D03*
X332035896Y-120411729D03*
X312985895Y-153403272D03*
X308753363Y-158234232D03*
X291136965Y-144833723D03*
X289075344Y-150916668D03*
X286737500Y-100037499D03*
X285487500Y-106337499D03*
X302232740Y-127594796D03*
X299394773Y-133356605D03*
X305787498Y-84162500D03*
X304537498Y-90462500D03*
X305787500Y-65112501D03*
X304537500Y-71412501D03*
X286737500Y-80987499D03*
X285487500Y-87287499D03*
X189900000Y-123850000D03*
X188650000Y-130150000D03*
X210537500Y-47650000D03*
X209287500Y-53950000D03*
X170850000Y-104800000D03*
X169600000Y-111100000D03*
X189900000Y-104800000D03*
X188650000Y-111100000D03*
X189900000Y-85750000D03*
X188650000Y-92050000D03*
X189900000Y-66700000D03*
X188650000Y-73000000D03*
X189900000Y-47650000D03*
X188650000Y-53950000D03*
X170850000Y-123850000D03*
X169600000Y-130150000D03*
X170850000Y-85750000D03*
X169600000Y-92050000D03*
X170850000Y-66700000D03*
X169600000Y-73000000D03*
X170850000Y-47650000D03*
X169600000Y-53950000D03*
X151800000Y-119087500D03*
X150550000Y-125387500D03*
X151800000Y-100037500D03*
X150550000Y-106337500D03*
X151800000Y-80987500D03*
X150550000Y-87287500D03*
X151800000Y-61937500D03*
X150550000Y-68237500D03*
X151800000Y-42887500D03*
X150550000Y-49187500D03*
X120050000Y-123850000D03*
X118800000Y-130150000D03*
X132750000Y-96068750D03*
X131500000Y-102368750D03*
X132750000Y-77018750D03*
X131500000Y-83318750D03*
X132750000Y-57968750D03*
X131500000Y-64268750D03*
X132750000Y-38918750D03*
X131500000Y-45218750D03*
X113700000Y-100037500D03*
X112450000Y-106337500D03*
X113700000Y-80987500D03*
X112450000Y-87287500D03*
X113700000Y-61937500D03*
X112450000Y-68237500D03*
X113700000Y-42887500D03*
X112450000Y-49187500D03*
X94650000Y-103212500D03*
X93400000Y-109512500D03*
X94650000Y-84162500D03*
X93400000Y-90462500D03*
X94650000Y-65112500D03*
X93400000Y-71412500D03*
X94650000Y-46062500D03*
X93400000Y-52362500D03*
X305787501Y-46062500D03*
X304537501Y-52362500D03*
X286737499Y-61937500D03*
X285487499Y-68237500D03*
X286737499Y-42887500D03*
X285487499Y-49187500D03*
X280387500Y-123850000D03*
X279137500Y-130150000D03*
X267687501Y-96068750D03*
X266437501Y-102368750D03*
X267687501Y-77018749D03*
X266437501Y-83318749D03*
X267687500Y-57968751D03*
X266437500Y-64268751D03*
X267687501Y-38918750D03*
X266437501Y-45218750D03*
X248637500Y-100037499D03*
X247387500Y-106337499D03*
X248637500Y-80987499D03*
X247387500Y-87287499D03*
X248637500Y-61937501D03*
X247387500Y-68237501D03*
X229587499Y-123850002D03*
X228337499Y-130150002D03*
X229587499Y-104800000D03*
X228337499Y-111100000D03*
X229587501Y-85750000D03*
X228337501Y-92050000D03*
X229587499Y-66700000D03*
X228337499Y-73000000D03*
X229587500Y-47649999D03*
X228337500Y-53949999D03*
X210537501Y-123849999D03*
X209287501Y-130149999D03*
X210537501Y-104800000D03*
X209287501Y-111100000D03*
X210537501Y-85750000D03*
X209287501Y-92050000D03*
X210537500Y-66700001D03*
X209287500Y-73000001D03*
D15*
X336237500Y-76931250D03*
X336237500Y-88081250D03*
D16*
X332237500Y-76931250D03*
X332237500Y-88081250D03*
D15*
X52700000Y-88081250D03*
X52700000Y-76931250D03*
D16*
X56700000Y-88081250D03*
X56700000Y-76931250D03*
D17*
X61595000Y-71913750D03*
X64135000Y-71913750D03*
X66675000Y-71913750D03*
D18*
X69215000Y-71913750D03*
X327342500Y-71987549D03*
D17*
X324802500Y-71987549D03*
X322262500Y-71987549D03*
X319722500Y-71987549D03*
D19*
X73025000Y-34942500D03*
X57785000Y-62882500D03*
X73025000Y-37482500D03*
X73025000Y-40022500D03*
X73025000Y-42562500D03*
X73025000Y-45102500D03*
X73025000Y-47642500D03*
X73025000Y-50182500D03*
X73025000Y-52722500D03*
X73025000Y-55262500D03*
X73025000Y-57802500D03*
X73025000Y-60342500D03*
X73025000Y-62882500D03*
X57785000Y-60342500D03*
X57785000Y-57802500D03*
X57785000Y-55262500D03*
X57785000Y-52722500D03*
X57785000Y-50182500D03*
X57785000Y-47642500D03*
X57785000Y-45102500D03*
X57785000Y-42562500D03*
X57785000Y-40022500D03*
X57785000Y-37482500D03*
D20*
X57785000Y-34942500D03*
D19*
X331152500Y-35101250D03*
X315912500Y-63041250D03*
X331152500Y-37641250D03*
X331152500Y-40181250D03*
X331152500Y-42721250D03*
X331152500Y-45261250D03*
X331152500Y-47801250D03*
X331152500Y-50341250D03*
X331152500Y-52881250D03*
X331152500Y-55421250D03*
X331152500Y-57961250D03*
X331152500Y-60501250D03*
X331152500Y-63041250D03*
X315912500Y-60501250D03*
X315912500Y-57961250D03*
X315912500Y-55421250D03*
X315912500Y-52881250D03*
X315912500Y-50341250D03*
X315912500Y-47801250D03*
X315912500Y-45261250D03*
X315912500Y-42721250D03*
X315912500Y-40181250D03*
X315912500Y-37641250D03*
D20*
X315912500Y-35101250D03*
D18*
X74453750Y-113506250D03*
D17*
X71913750Y-113506250D03*
X69373750Y-113506250D03*
X66833750Y-113506250D03*
X64293750Y-113506250D03*
X61753750Y-113506250D03*
X59213750Y-113506250D03*
X56673750Y-113506250D03*
D21*
X310181250Y-127914709D03*
X306143818Y-128527277D03*
X77631328Y-70750000D03*
X79950000Y-80850000D03*
X80300000Y-76750000D03*
X322800000Y-76918750D03*
X77750000Y-73000000D03*
X310956280Y-109500000D03*
X324800000Y-77700000D03*
X58850000Y-81750000D03*
X81700000Y-74750000D03*
X80250000Y-82600000D03*
D22*
X306756386Y-127914709D02*
X306143818Y-128527277D01*
X310181250Y-127914709D02*
X306756386Y-127914709D01*
D23*
X327342500Y-69532500D02*
X327342500Y-71987549D01*
X331787500Y-68262500D02*
X328612500Y-68262500D01*
X328612500Y-68262500D02*
X327342500Y-69532500D01*
X333555625Y-66494375D02*
X331787500Y-68262500D01*
X333555625Y-40044375D02*
X333555625Y-66494375D01*
X331152500Y-37641250D02*
X333555625Y-40044375D01*
D24*
X332135381Y-88081250D02*
X336237500Y-88081250D01*
X331337490Y-77725139D02*
X331337490Y-87283359D01*
X331337490Y-87283359D02*
X332135381Y-88081250D01*
X332131379Y-76931250D02*
X331337490Y-77725139D01*
X336237500Y-76931250D02*
X332131379Y-76931250D01*
X312856250Y-106331250D02*
X312856250Y-104581250D01*
X335856250Y-106331250D02*
X335406240Y-106781260D01*
X313306260Y-106781260D02*
X312856250Y-106331250D01*
X335856250Y-104581250D02*
X335856250Y-106331250D01*
X329231250Y-113769518D02*
X329231250Y-106781270D01*
X329231250Y-106781270D02*
X329231260Y-106781260D01*
X335406240Y-106781260D02*
X329231260Y-106781260D01*
X329231260Y-106781260D02*
X313306260Y-106781260D01*
D23*
X310606250Y-104581250D02*
X309650000Y-103625000D01*
X312856250Y-104581250D02*
X310606250Y-104581250D01*
X309650000Y-88402930D02*
X313509189Y-84543741D01*
X309650000Y-103625000D02*
X309650000Y-88402930D01*
X321905439Y-84543741D02*
X327342500Y-79106680D01*
X313509189Y-84543741D02*
X321905439Y-84543741D01*
X327342500Y-71987549D02*
X327342500Y-79106680D01*
D24*
X77631328Y-47168828D02*
X73025000Y-42562500D01*
X77631328Y-70750000D02*
X77631328Y-47168828D01*
X59213750Y-113506250D02*
X59506250Y-113506250D01*
X57600008Y-77725070D02*
X57600008Y-87283288D01*
X52700000Y-76931250D02*
X56806188Y-76931250D01*
X57600008Y-87283288D02*
X56802046Y-88081250D01*
X56806188Y-76931250D02*
X57600008Y-77725070D01*
X56802046Y-88081250D02*
X52700000Y-88081250D01*
X52700000Y-90199650D02*
X53081548Y-90581198D01*
X52700000Y-88081250D02*
X52700000Y-90199650D01*
D23*
X80300000Y-44757500D02*
X73025000Y-37482500D01*
X80300000Y-76750000D02*
X80300000Y-44757500D01*
X76081548Y-84718452D02*
X79950000Y-80850000D01*
X76081548Y-90581198D02*
X76081548Y-84718452D01*
D24*
X69215000Y-71913750D02*
X69215000Y-77715000D01*
X72350000Y-80850000D02*
X79950000Y-80850000D01*
X69215000Y-77715000D02*
X72350000Y-80850000D01*
D22*
X319722500Y-68507787D02*
X319722500Y-71987549D01*
X314261189Y-46912561D02*
X314261190Y-64622649D01*
X315912500Y-45261250D02*
X314261189Y-46912561D01*
X314261190Y-64622649D02*
X316924969Y-67286428D01*
X316924969Y-67286428D02*
X318501141Y-67286428D01*
X318501141Y-67286428D02*
X319722500Y-68507787D01*
X314711199Y-49002551D02*
X314711199Y-64436248D01*
X315912500Y-47801250D02*
X314711199Y-49002551D01*
X322262500Y-71987549D02*
X322262500Y-68347787D01*
X320751131Y-66836418D02*
X317111369Y-66836418D01*
X322262500Y-68347787D02*
X320751131Y-66836418D01*
X314711199Y-64436248D02*
X317111369Y-66836418D01*
X75606298Y-65463798D02*
X73025000Y-62882500D01*
X76516630Y-79466630D02*
X75606299Y-78556299D01*
X66368771Y-111431229D02*
X76904543Y-111431229D01*
X75606299Y-78556299D02*
X75606298Y-65463798D01*
X64293750Y-113506250D02*
X66368771Y-111431229D01*
X79833370Y-79466630D02*
X76516630Y-79466630D01*
X81149970Y-107185802D02*
X81149970Y-80783230D01*
X76904543Y-111431229D02*
X81149970Y-107185802D01*
X81149970Y-80783230D02*
X79833370Y-79466630D01*
X80392570Y-78116600D02*
X77989420Y-78116600D01*
X77989420Y-78116600D02*
X76956328Y-77083508D01*
X82499998Y-80799998D02*
X82499997Y-80224027D01*
X76956328Y-77083508D02*
X76956328Y-59193828D01*
X82499997Y-80224027D02*
X80392570Y-78116600D01*
X66833750Y-113506250D02*
X68008751Y-114681251D01*
X75563751Y-114681251D02*
X82500000Y-107745002D01*
X82500000Y-107745002D02*
X82500000Y-80800000D01*
X76956328Y-59193828D02*
X73025000Y-55262500D01*
X68008751Y-114681251D02*
X75563751Y-114681251D01*
X82500000Y-80800000D02*
X82499998Y-80799998D01*
X76056308Y-63373808D02*
X73025000Y-60342500D01*
X76056307Y-77456307D02*
X76056308Y-63373808D01*
X77616620Y-79016620D02*
X76056307Y-77456307D01*
X80019770Y-79016620D02*
X77616620Y-79016620D01*
X70998761Y-111881239D02*
X77090943Y-111881239D01*
X81599980Y-107372202D02*
X81599979Y-80596829D01*
X81599979Y-80596829D02*
X80019770Y-79016620D01*
X69373750Y-113506250D02*
X70998761Y-111881239D01*
X77090943Y-111881239D02*
X81599980Y-107372202D01*
X73088751Y-112331249D02*
X71913750Y-113506250D01*
X77277343Y-112331249D02*
X73088751Y-112331249D01*
X82049990Y-107558602D02*
X77277343Y-112331249D01*
X82049990Y-80999990D02*
X82049990Y-107558602D01*
X82049988Y-80410428D02*
X82049988Y-80999988D01*
X73025000Y-57802500D02*
X76506318Y-61283818D01*
X82049988Y-80999988D02*
X82049990Y-80999990D01*
X76506318Y-77269908D02*
X77803020Y-78566610D01*
X77803020Y-78566610D02*
X80206170Y-78566610D01*
X76506318Y-61283818D02*
X76506318Y-77269908D01*
X80206170Y-78566610D02*
X82049988Y-80410428D01*
X332353801Y-41382551D02*
X332353801Y-64392892D01*
X331152500Y-40181250D02*
X332353801Y-41382551D01*
X332353801Y-64392892D02*
X330416834Y-66329859D01*
X330416834Y-66329859D02*
X328531190Y-66329859D01*
X328531190Y-66329859D02*
X323555524Y-71305524D01*
X322800000Y-76918750D02*
X323555524Y-76163226D01*
X323555524Y-71305524D02*
X323555524Y-76163226D01*
X78306329Y-45303829D02*
X73025000Y-40022500D01*
X78306329Y-72443671D02*
X77750000Y-73000000D01*
X78306329Y-68693671D02*
X78306329Y-72443671D01*
X78306329Y-68693671D02*
X78306329Y-45303829D01*
X208592499Y-72305000D02*
X209287500Y-73000001D01*
X209287500Y-65692999D02*
X208592499Y-66388000D01*
X208592499Y-66388000D02*
X208592499Y-72305000D01*
X209287500Y-53950000D02*
X209287500Y-65692999D01*
X208592500Y-91354999D02*
X209287501Y-92050000D01*
X208592500Y-85437999D02*
X208592500Y-91354999D01*
X209287500Y-84742999D02*
X208592500Y-85437999D01*
X209287500Y-73000001D02*
X209287500Y-84742999D01*
X208592500Y-110404999D02*
X209287501Y-111100000D01*
X208592500Y-104487999D02*
X208592500Y-110404999D01*
X209287501Y-103792998D02*
X208592500Y-104487999D01*
X209287501Y-92050000D02*
X209287501Y-103792998D01*
X208592500Y-129454998D02*
X209287501Y-130149999D01*
X209287501Y-111100000D02*
X209287501Y-122842997D01*
X209287501Y-122842997D02*
X208592500Y-123537998D01*
X208592500Y-123537998D02*
X208592500Y-129454998D01*
X227642500Y-66387998D02*
X227642500Y-72304998D01*
X228337501Y-65692997D02*
X227642500Y-66387998D01*
X227642500Y-72304998D02*
X228337501Y-72999999D01*
X228337501Y-53950000D02*
X228337501Y-65692997D01*
X227642501Y-85437998D02*
X227642501Y-91354998D01*
X228337502Y-84742997D02*
X227642501Y-85437998D01*
X227642501Y-91354998D02*
X228337502Y-92049999D01*
X228337502Y-73000000D02*
X228337502Y-84742997D01*
X227642499Y-104487998D02*
X227642499Y-110404998D01*
X228337500Y-103792997D02*
X227642499Y-104487998D01*
X227642499Y-110404998D02*
X228337500Y-111099999D01*
X228337500Y-92050000D02*
X228337500Y-103792997D01*
X227642499Y-123538000D02*
X227642499Y-129455000D01*
X228337500Y-122842999D02*
X227642499Y-123538000D01*
X227642499Y-129455000D02*
X228337500Y-130150001D01*
X228337500Y-111100002D02*
X228337500Y-122842999D01*
X246692501Y-118775498D02*
X246692501Y-124692498D01*
X247387502Y-118080497D02*
X246692501Y-118775498D01*
X246692501Y-124692498D02*
X247387502Y-125387499D01*
X247387502Y-106337500D02*
X247387502Y-118080497D01*
X246692500Y-99725497D02*
X246692500Y-105642497D01*
X247387501Y-99030496D02*
X246692500Y-99725497D01*
X246692500Y-105642497D02*
X247387501Y-106337498D01*
X247387501Y-87287499D02*
X247387501Y-99030496D01*
X246692500Y-80675497D02*
X246692500Y-86592497D01*
X247387501Y-79980496D02*
X246692500Y-80675497D01*
X246692500Y-86592497D02*
X247387501Y-87287498D01*
X247387501Y-68237499D02*
X247387501Y-79980496D01*
X246692500Y-61625499D02*
X246692500Y-67542499D01*
X247387501Y-60930498D02*
X246692500Y-61625499D01*
X246692500Y-67542499D02*
X247387501Y-68237500D01*
X247387501Y-49187501D02*
X247387501Y-60930498D01*
X265742500Y-57656749D02*
X265742500Y-63573749D01*
X266437501Y-56961748D02*
X265742500Y-57656749D01*
X265742500Y-63573749D02*
X266437501Y-64268750D01*
X266437501Y-45218751D02*
X266437501Y-56961748D01*
X265742501Y-76706747D02*
X265742501Y-82623747D01*
X266437502Y-76011746D02*
X265742501Y-76706747D01*
X265742501Y-82623747D02*
X266437502Y-83318748D01*
X266437502Y-64268749D02*
X266437502Y-76011746D01*
X265742501Y-95756748D02*
X265742501Y-101673748D01*
X266437502Y-95061747D02*
X265742501Y-95756748D01*
X265742501Y-101673748D02*
X266437502Y-102368749D01*
X266437502Y-83318750D02*
X266437502Y-95061747D01*
X270820498Y-130150000D02*
X266437501Y-125767003D01*
X279137500Y-130150000D02*
X270820498Y-130150000D01*
X277937501Y-131349999D02*
X279137500Y-130150000D01*
X281274951Y-149716669D02*
X277937501Y-146379219D01*
X277937501Y-146379219D02*
X277937501Y-131349999D01*
X287875345Y-149716669D02*
X281274951Y-149716669D01*
X289075344Y-150916668D02*
X287875345Y-149716669D01*
X266437501Y-125767003D02*
X266437501Y-102368750D01*
X284792500Y-99725497D02*
X284792500Y-105642497D01*
X285487501Y-99030496D02*
X284792500Y-99725497D01*
X284792500Y-105642497D02*
X285487501Y-106337498D01*
X285487501Y-87287499D02*
X285487501Y-99030496D01*
X284792500Y-80675497D02*
X284792500Y-86592497D01*
X285487501Y-79980496D02*
X284792500Y-80675497D01*
X284792500Y-86592497D02*
X285487501Y-87287498D01*
X285487501Y-68237499D02*
X285487501Y-79980496D01*
X284792499Y-61625498D02*
X284792499Y-67542498D01*
X285487500Y-60930497D02*
X284792499Y-61625498D01*
X284792499Y-67542498D02*
X285487500Y-68237499D01*
X285487500Y-49187500D02*
X285487500Y-60930497D01*
X298194774Y-132156606D02*
X293391636Y-132156606D01*
X293391636Y-132156606D02*
X285487500Y-124252470D01*
X299394773Y-133356605D02*
X298194774Y-132156606D01*
X285487500Y-124252470D02*
X285487500Y-106337499D01*
X308753363Y-158234232D02*
X303671113Y-158234232D01*
X303671113Y-158234232D02*
X299394773Y-153957892D01*
X299394773Y-153957892D02*
X299394773Y-133356605D01*
X303842500Y-64800499D02*
X303842500Y-70717499D01*
X304537501Y-64105498D02*
X303842500Y-64800499D01*
X303842500Y-70717499D02*
X304537501Y-71412500D01*
X304537501Y-52362501D02*
X304537501Y-64105498D01*
X303842498Y-83850498D02*
X303842498Y-89767498D01*
X304537499Y-83155497D02*
X303842498Y-83850498D01*
X303842498Y-89767498D02*
X304537499Y-90462499D01*
X304537499Y-71412500D02*
X304537499Y-83155497D01*
X303842500Y-102900498D02*
X303842500Y-108817498D01*
X304537501Y-102205497D02*
X303842500Y-102900498D01*
X303842500Y-108817498D02*
X304537501Y-109512499D01*
X304537501Y-90462500D02*
X304537501Y-102205497D01*
X304550000Y-109500000D02*
X304537500Y-109512500D01*
X310956280Y-109500000D02*
X304550000Y-109500000D01*
X319975420Y-141740478D02*
X327803364Y-133912534D01*
X318278364Y-141740478D02*
X319975420Y-141740478D01*
X327803364Y-133912534D02*
X327803364Y-125242689D01*
X92705000Y-102900498D02*
X92705000Y-108817498D01*
X93400001Y-102205497D02*
X92705000Y-102900498D01*
X92705000Y-108817498D02*
X93400001Y-109512499D01*
X93400001Y-90462500D02*
X93400001Y-102205497D01*
X92705000Y-83850498D02*
X92705000Y-89767498D01*
X93400001Y-83155497D02*
X92705000Y-83850498D01*
X92705000Y-89767498D02*
X93400001Y-90462499D01*
X93400001Y-71412500D02*
X93400001Y-83155497D01*
X92705000Y-64800498D02*
X92705000Y-70717498D01*
X93400001Y-64105497D02*
X92705000Y-64800498D01*
X92705000Y-70717498D02*
X93400001Y-71412499D01*
X93400001Y-52362500D02*
X93400001Y-64105497D01*
X111755000Y-61625498D02*
X111755000Y-67542498D01*
X112450001Y-60930497D02*
X111755000Y-61625498D01*
X111755000Y-67542498D02*
X112450001Y-68237499D01*
X112450001Y-49187500D02*
X112450001Y-60930497D01*
X111755000Y-80675498D02*
X111755000Y-86592498D01*
X112450001Y-79980497D02*
X111755000Y-80675498D01*
X111755000Y-86592498D02*
X112450001Y-87287499D01*
X112450001Y-68237500D02*
X112450001Y-79980497D01*
X111755000Y-99725498D02*
X111755000Y-105642498D01*
X112450001Y-99030497D02*
X111755000Y-99725498D01*
X111755000Y-105642498D02*
X112450001Y-106337499D01*
X112450001Y-87287500D02*
X112450001Y-99030497D01*
X130805000Y-95756748D02*
X130805000Y-101673748D01*
X131500001Y-95061747D02*
X130805000Y-95756748D01*
X130805000Y-101673748D02*
X131500001Y-102368749D01*
X131500001Y-83318750D02*
X131500001Y-95061747D01*
X130805000Y-76706748D02*
X130805000Y-82623748D01*
X131500001Y-76011747D02*
X130805000Y-76706748D01*
X130805000Y-82623748D02*
X131500001Y-83318749D01*
X131500001Y-64268750D02*
X131500001Y-76011747D01*
X130805000Y-57656748D02*
X130805000Y-63573748D01*
X131500001Y-56961747D02*
X130805000Y-57656748D01*
X130805000Y-63573748D02*
X131500001Y-64268749D01*
X131500001Y-45218750D02*
X131500001Y-56961747D01*
X131500000Y-117450000D02*
X118800000Y-130150000D01*
X131500000Y-102368750D02*
X131500000Y-117450000D01*
X149855000Y-61625498D02*
X149855000Y-67542498D01*
X150550001Y-60930497D02*
X149855000Y-61625498D01*
X149855000Y-67542498D02*
X150550001Y-68237499D01*
X150550001Y-49187500D02*
X150550001Y-60930497D01*
X149855000Y-80675498D02*
X149855000Y-86592498D01*
X150550001Y-79980497D02*
X149855000Y-80675498D01*
X149855000Y-86592498D02*
X150550001Y-87287499D01*
X150550001Y-68237500D02*
X150550001Y-79980497D01*
X149855000Y-99725498D02*
X149855000Y-105642498D01*
X150550001Y-99030497D02*
X149855000Y-99725498D01*
X149855000Y-105642498D02*
X150550001Y-106337499D01*
X150550001Y-87287500D02*
X150550001Y-99030497D01*
X149855000Y-118775498D02*
X149855000Y-124692498D01*
X150550001Y-118080497D02*
X149855000Y-118775498D01*
X149855000Y-124692498D02*
X150550001Y-125387499D01*
X150550001Y-106337500D02*
X150550001Y-118080497D01*
X168905000Y-123537998D02*
X168905000Y-129454998D01*
X169600001Y-122842997D02*
X168905000Y-123537998D01*
X168905000Y-129454998D02*
X169600001Y-130149999D01*
X169600001Y-111100000D02*
X169600001Y-122842997D01*
X168905000Y-104487998D02*
X168905000Y-110404998D01*
X169600001Y-103792997D02*
X168905000Y-104487998D01*
X168905000Y-110404998D02*
X169600001Y-111099999D01*
X169600001Y-92050000D02*
X169600001Y-103792997D01*
X168905000Y-85437998D02*
X168905000Y-91354998D01*
X169600001Y-84742997D02*
X168905000Y-85437998D01*
X168905000Y-91354998D02*
X169600001Y-92049999D01*
X169600001Y-73000000D02*
X169600001Y-84742997D01*
X168905000Y-66387998D02*
X168905000Y-72304998D01*
X169600001Y-65692997D02*
X168905000Y-66387998D01*
X168905000Y-72304998D02*
X169600001Y-72999999D01*
X169600001Y-53950000D02*
X169600001Y-65692997D01*
X187955000Y-66387998D02*
X187955000Y-72304998D01*
X188650001Y-65692997D02*
X187955000Y-66387998D01*
X187955000Y-72304998D02*
X188650001Y-72999999D01*
X188650001Y-53950000D02*
X188650001Y-65692997D01*
X187955000Y-85437998D02*
X187955000Y-91354998D01*
X188650001Y-84742997D02*
X187955000Y-85437998D01*
X187955000Y-91354998D02*
X188650001Y-92049999D01*
X188650001Y-73000000D02*
X188650001Y-84742997D01*
X187955000Y-104487998D02*
X187955000Y-110404998D01*
X188650001Y-103792997D02*
X187955000Y-104487998D01*
X187955000Y-110404998D02*
X188650001Y-111099999D01*
X188650001Y-92050000D02*
X188650001Y-103792997D01*
X187955000Y-123537998D02*
X187955000Y-129454998D01*
X188650001Y-122842997D02*
X187955000Y-123537998D01*
X187955000Y-129454998D02*
X188650001Y-130149999D01*
X188650001Y-111100000D02*
X188650001Y-122842997D01*
X56133690Y-66769940D02*
X61277500Y-71913750D01*
X56133690Y-46753810D02*
X56133690Y-66769940D01*
X57785000Y-45102500D02*
X56133690Y-46753810D01*
X56583699Y-48843801D02*
X57785000Y-47642500D01*
X56583699Y-64679949D02*
X56583699Y-48843801D01*
X63817500Y-71913750D02*
X56583699Y-64679949D01*
X313811181Y-39742569D02*
X315912500Y-37641250D01*
X318314741Y-69312608D02*
X313811181Y-64809048D01*
X313811181Y-64809048D02*
X313811181Y-39742569D01*
X318314741Y-73432493D02*
X318314741Y-69312608D01*
X322475999Y-77593751D02*
X318314741Y-73432493D01*
X322582248Y-77700000D02*
X322475999Y-77593751D01*
X324800000Y-77700000D02*
X322582248Y-77700000D01*
X55683680Y-39583820D02*
X55683681Y-66956341D01*
X57785000Y-37482500D02*
X55683680Y-39583820D01*
X59606298Y-80993702D02*
X58850000Y-81750000D01*
X55683681Y-66956341D02*
X59606298Y-70878958D01*
X59606298Y-70878958D02*
X59606298Y-80993702D01*
D23*
X334755635Y-38704385D02*
X331152500Y-35101250D01*
X332924501Y-75387550D02*
X334755635Y-73556416D01*
X328542510Y-78529170D02*
X331684130Y-75387550D01*
X312856250Y-86893750D02*
X314006249Y-85743751D01*
X331684130Y-75387550D02*
X332924501Y-75387550D01*
X312856250Y-90581250D02*
X312856250Y-86893750D01*
X314006249Y-85743751D02*
X322402500Y-85743750D01*
X328542510Y-79603740D02*
X328542510Y-78529170D01*
X334755635Y-73556416D02*
X334755635Y-38704385D01*
X322402500Y-85743750D02*
X328542510Y-79603740D01*
X73025000Y-34942500D02*
X81700000Y-43617500D01*
X81700000Y-43617500D02*
X81700000Y-74750000D01*
X78331548Y-104581198D02*
X76081548Y-104581198D01*
X80250000Y-82600000D02*
X80250000Y-102662746D01*
X80250000Y-102662746D02*
X78331548Y-104581198D01*
M02*
