G04 #@! TF.GenerationSoftware,KiCad,Pcbnew,(5.1.6)-1*
G04 #@! TF.CreationDate,2020-10-04T11:11:15+08:00*
G04 #@! TF.ProjectId,Galia,47616c69-612e-46b6-9963-61645f706362,rev?*
G04 #@! TF.SameCoordinates,Original*
G04 #@! TF.FileFunction,Paste,Bot*
G04 #@! TF.FilePolarity,Positive*
%FSLAX46Y46*%
G04 Gerber Fmt 4.6, Leading zero omitted, Abs format (unit mm)*
G04 Created by KiCad (PCBNEW (5.1.6)-1) date 2020-10-04 11:11:15*
%MOMM*%
%LPD*%
G01*
G04 APERTURE LIST*
%ADD10R,2.550000X2.500000*%
%ADD11C,0.100000*%
%ADD12R,0.800000X0.600000*%
%ADD13R,0.800000X0.300000*%
%ADD14R,1.200000X0.900000*%
%ADD15R,1.000000X1.700000*%
G04 APERTURE END LIST*
D10*
X235802500Y-43497501D03*
X248729500Y-40957501D03*
X235802501Y-119697500D03*
X248729501Y-117157500D03*
D11*
G36*
X312819642Y-130575261D02*
G01*
X311569642Y-132740325D01*
X309361278Y-131465325D01*
X310611278Y-129300261D01*
X312819642Y-130575261D01*
G37*
G36*
X325284752Y-134839057D02*
G01*
X324034752Y-137004121D01*
X321826388Y-135729121D01*
X323076388Y-133564057D01*
X325284752Y-134839057D01*
G37*
G36*
X334809752Y-118341268D02*
G01*
X333559752Y-120506332D01*
X331351388Y-119231332D01*
X332601388Y-117066268D01*
X334809752Y-118341268D01*
G37*
G36*
X322344642Y-114077472D02*
G01*
X321094642Y-116242536D01*
X318886278Y-114967536D01*
X320136278Y-112802472D01*
X322344642Y-114077472D01*
G37*
G36*
X303294641Y-147069015D02*
G01*
X302044641Y-149234079D01*
X299836277Y-147959079D01*
X301086277Y-145794015D01*
X303294641Y-147069015D01*
G37*
G36*
X315759751Y-151332811D02*
G01*
X314509751Y-153497875D01*
X312301387Y-152222875D01*
X313551387Y-150057811D01*
X315759751Y-151332811D01*
G37*
G36*
X279759400Y-142690316D02*
G01*
X279433084Y-145168928D01*
X276904900Y-144836086D01*
X277231216Y-142357474D01*
X279759400Y-142690316D01*
G37*
G36*
X292907344Y-141859358D02*
G01*
X292581028Y-144337970D01*
X290052844Y-144005128D01*
X290379160Y-141526516D01*
X292907344Y-141859358D01*
G37*
D10*
X273902500Y-100647499D03*
X286829500Y-98107499D03*
D11*
G36*
X291232282Y-123984655D02*
G01*
X290585235Y-126399470D01*
X288122124Y-125739481D01*
X288769171Y-123324666D01*
X291232282Y-123984655D01*
G37*
G36*
X304376205Y-124876958D02*
G01*
X303729158Y-127291773D01*
X301266047Y-126631784D01*
X301913094Y-124216969D01*
X304376205Y-124876958D01*
G37*
D10*
X292952498Y-84772500D03*
X305879498Y-82232500D03*
X292952500Y-65722501D03*
X305879500Y-63182501D03*
X273902500Y-81597499D03*
X286829500Y-79057499D03*
X177065000Y-124460000D03*
X189992000Y-121920000D03*
X197702500Y-48260000D03*
X210629500Y-45720000D03*
X158015000Y-105410000D03*
X170942000Y-102870000D03*
X177065000Y-105410000D03*
X189992000Y-102870000D03*
X177065000Y-86360000D03*
X189992000Y-83820000D03*
X177065000Y-67310000D03*
X189992000Y-64770000D03*
X177065000Y-48260000D03*
X189992000Y-45720000D03*
X158015000Y-124460000D03*
X170942000Y-121920000D03*
X158015000Y-86360000D03*
X170942000Y-83820000D03*
X158015000Y-67310000D03*
X170942000Y-64770000D03*
X158015000Y-48260000D03*
X170942000Y-45720000D03*
X138965000Y-119697500D03*
X151892000Y-117157500D03*
X138965000Y-100647500D03*
X151892000Y-98107500D03*
X138965000Y-81597500D03*
X151892000Y-79057500D03*
X138965000Y-62547500D03*
X151892000Y-60007500D03*
X138965000Y-43497500D03*
X151892000Y-40957500D03*
X107215000Y-124460000D03*
X120142000Y-121920000D03*
X119915000Y-96678750D03*
X132842000Y-94138750D03*
X119915000Y-77628750D03*
X132842000Y-75088750D03*
X119915000Y-58578750D03*
X132842000Y-56038750D03*
X119915000Y-39528750D03*
X132842000Y-36988750D03*
X100865000Y-100647500D03*
X113792000Y-98107500D03*
X100865000Y-81597500D03*
X113792000Y-79057500D03*
X100865000Y-62547500D03*
X113792000Y-60007500D03*
X100865000Y-43497500D03*
X113792000Y-40957500D03*
X81815000Y-103822500D03*
X94742000Y-101282500D03*
X81815000Y-84772500D03*
X94742000Y-82232500D03*
X81815000Y-65722500D03*
X94742000Y-63182500D03*
X81815000Y-46672500D03*
X94742000Y-44132500D03*
X292952500Y-103822500D03*
X305879500Y-101282500D03*
X292952501Y-46672500D03*
X305879501Y-44132500D03*
X273902499Y-62547500D03*
X286829499Y-60007500D03*
X273902499Y-43497500D03*
X286829499Y-40957500D03*
X267552500Y-124460000D03*
X280479500Y-121920000D03*
X254852501Y-96678750D03*
X267779501Y-94138750D03*
X254852501Y-77628749D03*
X267779501Y-75088749D03*
X254852500Y-58578751D03*
X267779500Y-56038751D03*
X254852501Y-39528750D03*
X267779501Y-36988750D03*
X235802500Y-100647499D03*
X248729500Y-98107499D03*
X235802500Y-81597499D03*
X248729500Y-79057499D03*
X235802500Y-62547501D03*
X248729500Y-60007501D03*
X216752499Y-124460002D03*
X229679499Y-121920002D03*
X216752499Y-105410000D03*
X229679499Y-102870000D03*
X216752501Y-86360000D03*
X229679501Y-83820000D03*
X216752499Y-67310000D03*
X229679499Y-64770000D03*
X216752500Y-48259999D03*
X229679500Y-45719999D03*
X197702501Y-124459999D03*
X210629501Y-121919999D03*
X197702501Y-105410000D03*
X210629501Y-102870000D03*
X197702501Y-86360000D03*
X210629501Y-83820000D03*
X197702500Y-67310001D03*
X210629500Y-64770001D03*
D11*
G36*
X331824942Y-126352112D02*
G01*
X330785712Y-125752112D01*
X331235712Y-124972690D01*
X332274942Y-125572690D01*
X331824942Y-126352112D01*
G37*
G36*
X333474942Y-123494228D02*
G01*
X332435712Y-122894228D01*
X332885712Y-122114806D01*
X333924942Y-122714806D01*
X333474942Y-123494228D01*
G37*
G36*
X322299942Y-142849901D02*
G01*
X321260712Y-142249901D01*
X321710712Y-141470479D01*
X322749942Y-142070479D01*
X322299942Y-142849901D01*
G37*
G36*
X323949942Y-139992017D02*
G01*
X322910712Y-139392017D01*
X323360712Y-138612595D01*
X324399942Y-139212595D01*
X323949942Y-139992017D01*
G37*
G36*
X312774942Y-159347685D02*
G01*
X311735712Y-158747685D01*
X312185712Y-157968263D01*
X313224942Y-158568263D01*
X312774942Y-159347685D01*
G37*
G36*
X314424942Y-156489801D02*
G01*
X313385712Y-155889801D01*
X313835712Y-155110379D01*
X314874942Y-155710379D01*
X314424942Y-156489801D01*
G37*
D12*
X331337500Y-89718750D03*
X331337500Y-83318750D03*
X331337500Y-84118750D03*
X331337500Y-88918750D03*
D13*
X331337500Y-87268750D03*
X331337500Y-85768750D03*
X331337500Y-86768750D03*
X331337500Y-86268750D03*
X331337500Y-85268750D03*
X331337500Y-84768750D03*
X331337500Y-87768750D03*
X331337500Y-88268750D03*
D12*
X57600000Y-83318750D03*
X57600000Y-89718750D03*
X57600000Y-88918750D03*
X57600000Y-84118750D03*
D13*
X57600000Y-85768750D03*
X57600000Y-87268750D03*
X57600000Y-86268750D03*
X57600000Y-86768750D03*
X57600000Y-87768750D03*
X57600000Y-88268750D03*
X57600000Y-85268750D03*
X57600000Y-84768750D03*
D11*
G36*
X293367822Y-150403818D02*
G01*
X292178088Y-150247186D01*
X292295562Y-149354886D01*
X293485296Y-149511518D01*
X293367822Y-150403818D01*
G37*
G36*
X293798558Y-147132050D02*
G01*
X292608824Y-146975418D01*
X292726298Y-146083118D01*
X293916032Y-146239750D01*
X293798558Y-147132050D01*
G37*
D14*
X288925001Y-104837501D03*
X288925001Y-101537501D03*
D11*
G36*
X303413371Y-133131543D02*
G01*
X302254260Y-132820960D01*
X302487197Y-131951627D01*
X303646308Y-132262210D01*
X303413371Y-133131543D01*
G37*
G36*
X304267473Y-129943987D02*
G01*
X303108362Y-129633404D01*
X303341299Y-128764071D01*
X304500410Y-129074654D01*
X304267473Y-129943987D01*
G37*
D14*
X307975000Y-88962500D03*
X307975000Y-85662500D03*
X307974999Y-69912499D03*
X307974999Y-66612499D03*
X212725000Y-52450000D03*
X212725000Y-49150000D03*
D15*
X68743750Y-84162500D03*
X68743750Y-90462500D03*
X72543750Y-84162500D03*
X72543750Y-90462500D03*
X317981250Y-84162500D03*
X317981250Y-90462500D03*
X321781250Y-84162500D03*
X321781250Y-90462500D03*
G36*
G01*
X70406250Y-79643750D02*
X70881250Y-79643750D01*
G75*
G02*
X71118750Y-79881250I0J-237500D01*
G01*
X71118750Y-80456250D01*
G75*
G02*
X70881250Y-80693750I-237500J0D01*
G01*
X70406250Y-80693750D01*
G75*
G02*
X70168750Y-80456250I0J237500D01*
G01*
X70168750Y-79881250D01*
G75*
G02*
X70406250Y-79643750I237500J0D01*
G01*
G37*
G36*
G01*
X70406250Y-81393750D02*
X70881250Y-81393750D01*
G75*
G02*
X71118750Y-81631250I0J-237500D01*
G01*
X71118750Y-82206250D01*
G75*
G02*
X70881250Y-82443750I-237500J0D01*
G01*
X70406250Y-82443750D01*
G75*
G02*
X70168750Y-82206250I0J237500D01*
G01*
X70168750Y-81631250D01*
G75*
G02*
X70406250Y-81393750I237500J0D01*
G01*
G37*
G36*
G01*
X319643750Y-79562500D02*
X320118750Y-79562500D01*
G75*
G02*
X320356250Y-79800000I0J-237500D01*
G01*
X320356250Y-80375000D01*
G75*
G02*
X320118750Y-80612500I-237500J0D01*
G01*
X319643750Y-80612500D01*
G75*
G02*
X319406250Y-80375000I0J237500D01*
G01*
X319406250Y-79800000D01*
G75*
G02*
X319643750Y-79562500I237500J0D01*
G01*
G37*
G36*
G01*
X319643750Y-81312500D02*
X320118750Y-81312500D01*
G75*
G02*
X320356250Y-81550000I0J-237500D01*
G01*
X320356250Y-82125000D01*
G75*
G02*
X320118750Y-82362500I-237500J0D01*
G01*
X319643750Y-82362500D01*
G75*
G02*
X319406250Y-82125000I0J237500D01*
G01*
X319406250Y-81550000D01*
G75*
G02*
X319643750Y-81312500I237500J0D01*
G01*
G37*
D14*
X192087500Y-128650000D03*
X192087500Y-125350000D03*
X192087500Y-109600000D03*
X192087500Y-106300000D03*
X192087500Y-90550000D03*
X192087500Y-87250000D03*
X192087500Y-71500000D03*
X192087500Y-68200000D03*
X192087500Y-52450000D03*
X192087500Y-49150000D03*
X173037500Y-128650000D03*
X173037500Y-125350000D03*
X173037500Y-109600000D03*
X173037500Y-106300000D03*
X173037500Y-90550000D03*
X173037500Y-87250000D03*
X173037500Y-71500000D03*
X173037500Y-68200000D03*
X173037500Y-52450000D03*
X173037500Y-49150000D03*
X153987500Y-123887500D03*
X153987500Y-120587500D03*
X153987500Y-104837500D03*
X153987500Y-101537500D03*
X153987500Y-85787500D03*
X153987500Y-82487500D03*
X153987500Y-66737500D03*
X153987500Y-63437500D03*
X153987500Y-47687500D03*
X153987500Y-44387500D03*
X122237500Y-128650000D03*
X122237500Y-125350000D03*
X134937500Y-100868750D03*
X134937500Y-97568750D03*
X134937500Y-81818750D03*
X134937500Y-78518750D03*
X134937500Y-62768750D03*
X134937500Y-59468750D03*
X134937500Y-43718750D03*
X134937500Y-40418750D03*
X115887500Y-104837500D03*
X115887500Y-101537500D03*
X115887500Y-85787500D03*
X115887500Y-82487500D03*
X115887500Y-66737500D03*
X115887500Y-63437500D03*
X115887500Y-47687500D03*
X115887500Y-44387500D03*
X96837500Y-108012500D03*
X96837500Y-104712500D03*
X96837500Y-88962500D03*
X96837500Y-85662500D03*
X96837500Y-69912500D03*
X96837500Y-66612500D03*
X96837500Y-50862500D03*
X96837500Y-47562500D03*
X307975001Y-108012500D03*
X307975001Y-104712500D03*
X307974999Y-50862501D03*
X307974999Y-47562501D03*
X288925000Y-85787500D03*
X288925000Y-82487500D03*
X288925000Y-66737499D03*
X288925000Y-63437499D03*
X288925000Y-47687499D03*
X288925000Y-44387499D03*
X282575000Y-128650001D03*
X282575000Y-125350001D03*
X269875000Y-100868750D03*
X269875000Y-97568750D03*
X269875000Y-81818750D03*
X269875000Y-78518750D03*
X269874999Y-62768749D03*
X269874999Y-59468749D03*
X269875000Y-43718751D03*
X269875000Y-40418751D03*
X250825000Y-123887501D03*
X250825000Y-120587501D03*
X250825001Y-104837500D03*
X250825001Y-101537500D03*
X250825000Y-85787500D03*
X250825000Y-82487500D03*
X250825001Y-66737500D03*
X250825001Y-63437500D03*
X250825000Y-47687500D03*
X250825000Y-44387500D03*
X231787500Y-128650000D03*
X231787500Y-125350000D03*
X231775000Y-109600001D03*
X231775000Y-106300001D03*
X231775000Y-90550001D03*
X231775000Y-87250001D03*
X231775000Y-71500000D03*
X231775000Y-68200000D03*
X231775000Y-52450000D03*
X231775000Y-49150000D03*
X212725000Y-128649999D03*
X212725000Y-125349999D03*
X212724999Y-109600000D03*
X212724999Y-106300000D03*
X212725000Y-90549999D03*
X212725000Y-87249999D03*
X212725000Y-71499999D03*
X212725000Y-68199999D03*
M02*
