M48
; DRILL file {KiCad (5.1.6)-1} date 10/04/20 11:11:16
; FORMAT={-:-/ absolute / inch / decimal}
; #@! TF.CreationDate,2020-10-04T11:11:16+08:00
; #@! TF.GenerationSoftware,Kicad,Pcbnew,(5.1.6)-1
; #@! TF.FileFunction,Plated,1,2,PTH
FMAT,2
INCH
T1C0.0138
T2C0.0236
T3C0.0394
T4C0.0430
T5C0.0591
T6C0.0787
T7C0.0866
%
G90
G05
T1
X2.3169Y-3.3524
X2.581Y-2.9862
X2.9567Y-3.2244
X3.0564Y-2.7854
X3.0645Y-3.3135
X3.0748Y-2.9646
X12.0529Y-5.0601
X12.2119Y-5.036
X12.2424Y-4.311
X12.7534Y-2.9941
X12.8204Y-2.9941
X12.8856Y-3.1868
X12.8907Y-3.3433
T3
X2.4125Y-2.8312
X2.5125Y-2.8312
X2.6125Y-2.8312
X2.7125Y-2.8312
X12.5912Y-4.9243
X12.7617Y-5.0227
X12.8766Y-4.4299
X12.9619Y-4.4791
X13.0471Y-4.5283
X2.2312Y-4.4688
X2.3312Y-4.4688
X2.4312Y-4.4688
X2.5312Y-4.4688
X2.6313Y-4.4688
X2.7312Y-4.4688
X2.8312Y-4.4688
X2.9312Y-4.4688
X12.5875Y-2.8342
X12.6875Y-2.8342
X12.7875Y-2.8342
X12.8875Y-2.8342
T4
X12.4375Y-1.3819
X12.4375Y-1.4819
X12.4375Y-1.5819
X12.4375Y-1.6819
X12.4375Y-1.7819
X12.4375Y-1.8819
X12.4375Y-1.9819
X12.4375Y-2.0819
X12.4375Y-2.1819
X12.4375Y-2.2819
X12.4375Y-2.3819
X12.4375Y-2.4819
X13.0375Y-1.3819
X13.0375Y-1.4819
X13.0375Y-1.5819
X13.0375Y-1.6819
X13.0375Y-1.7819
X13.0375Y-1.8819
X13.0375Y-1.9819
X13.0375Y-2.0819
X13.0375Y-2.1819
X13.0375Y-2.2819
X13.0375Y-2.3819
X13.0375Y-2.4819
X2.275Y-1.3757
X2.275Y-1.4757
X2.275Y-1.5757
X2.275Y-1.6757
X2.275Y-1.7757
X2.275Y-1.8757
X2.275Y-1.9757
X2.275Y-2.0757
X2.275Y-2.1757
X2.275Y-2.2757
X2.275Y-2.3757
X2.275Y-2.4757
X2.875Y-1.3757
X2.875Y-1.4757
X2.875Y-1.5757
X2.875Y-1.6757
X2.875Y-1.7757
X2.875Y-1.8757
X2.875Y-1.9757
X2.875Y-2.0757
X2.875Y-2.1757
X2.875Y-2.2757
X2.875Y-2.3757
X2.875Y-2.4757
T5
X6.6772Y-2.874
X6.7264Y-2.626
X7.4272Y-2.874
X7.4764Y-2.626
X4.4272Y-1.9365
X4.4764Y-1.6885
X4.4272Y-3.4365
X4.4764Y-3.1885
X11.2397Y-2.6865
X11.2889Y-2.4385
X9.7397Y-3.4365
X9.7889Y-3.1885
X8.2397Y-2.124
X8.2889Y-1.876
X3.6772Y-2.0615
X3.7264Y-1.8135
X8.2397Y-4.374
X8.2889Y-4.126
X7.4272Y-4.374
X7.4764Y-4.126
X5.9272Y-4.1865
X5.9764Y-3.9385
X11.3809Y-5.9416
X11.4621Y-5.7021
X5.9272Y-2.6865
X5.9764Y-2.4385
X8.9897Y-2.874
X9.0389Y-2.626
X9.7397Y-4.1865
X9.7889Y-3.9385
X8.2397Y-5.124
X8.2889Y-4.876
X7.4272Y-3.624
X7.4764Y-3.376
X6.6772Y-4.374
X6.7264Y-4.126
X4.4272Y-4.1865
X4.4764Y-3.9385
X12.5306Y-5.5803
X12.6973Y-5.3901
X5.1772Y-3.2803
X5.2264Y-3.0322
X11.2397Y-1.9365
X11.2889Y-1.6885
X10.4897Y-2.5303
X10.5389Y-2.2822
X11.2397Y-3.4365
X11.2889Y-3.1885
X11.9897Y-2.8115
X12.0389Y-2.5635
X5.9272Y-4.9365
X5.9764Y-4.6885
X12.9056Y-4.9308
X13.0723Y-4.7406
X3.6772Y-4.3115
X3.7264Y-4.0635
X9.7397Y-4.9365
X9.7889Y-4.6885
X9.7397Y-1.9365
X9.7889Y-1.6885
X8.9897Y-3.624
X9.0389Y-3.376
X10.4897Y-3.2803
X10.5389Y-3.0322
X8.2397Y-2.874
X8.2889Y-2.626
X11.9897Y-3.5615
X12.0389Y-3.3135
X5.1772Y-2.5303
X5.2264Y-2.2822
X6.6772Y-5.124
X6.7264Y-4.876
X5.9272Y-3.4365
X5.9764Y-3.1885
X7.4272Y-5.124
X7.4764Y-4.876
X5.1772Y-1.7803
X5.2264Y-1.5322
X8.9897Y-4.374
X9.0389Y-4.126
X10.4897Y-4.0303
X10.5389Y-3.7822
X11.9897Y-2.0615
X12.0389Y-1.8135
X8.9897Y-2.124
X9.0389Y-1.876
X11.7872Y-5.2503
X11.8989Y-5.0234
X5.9272Y-1.9365
X5.9764Y-1.6885
X11.2397Y-4.1865
X11.2889Y-3.9385
X3.6772Y-3.5615
X3.7264Y-3.3135
X4.4272Y-2.6865
X4.4764Y-2.4385
X9.7397Y-2.6865
X9.7889Y-2.4385
X8.9897Y-5.124
X9.0389Y-4.876
X8.2397Y-3.624
X8.2889Y-3.376
X11.9897Y-4.3115
X12.0389Y-4.0635
X12.1556Y-6.2297
X12.3223Y-6.0395
X5.1772Y-4.0303
X5.2264Y-3.7822
X7.4272Y-2.124
X7.4764Y-1.876
X4.6772Y-5.124
X4.7264Y-4.876
X6.6772Y-2.124
X6.7264Y-1.876
X10.4897Y-1.7803
X10.5389Y-1.5322
X10.9897Y-5.124
X11.0389Y-4.876
X3.6772Y-2.8115
X3.7264Y-2.5635
X6.6772Y-3.624
X6.7264Y-3.376
T6
X2.6812Y-4.1875
X2.8813Y-4.1875
X12.4938Y-4.1875
X12.6937Y-4.1875
T7
X8.4375Y-4.625
X13.0938Y-4.0625
X12.4225Y-2.8538
X2.8772Y-2.8476
X13.0525Y-2.8538
X3.875Y-2.25
X10.6875Y-4.4375
X6.875Y-4.625
X8.4375Y-2.375
X11.9062Y-5.5312
X2.2187Y-4.0625
X6.875Y-2.375
X2.2473Y-2.8476
X11.4375Y-2.25
X4.625Y-4.4375
T2
G00X2.0984Y-3.1868
M15
G01X2.0512Y-3.1868
M16
G05
G00X2.0984Y-3.6257
M15
G01X2.0512Y-3.6257
M16
G05
G00X2.248Y-3.1868
M15
G01X2.2165Y-3.1868
M16
G05
G00X2.248Y-3.6257
M15
G01X2.2165Y-3.6257
M16
G05
G00X13.0645Y-3.1868
M15
G01X13.096Y-3.1868
M16
G05
G00X13.0645Y-3.6257
M15
G01X13.096Y-3.6257
M16
G05
G00X13.2141Y-3.1868
M15
G01X13.2613Y-3.1868
M16
G05
G00X13.2141Y-3.6257
M15
G01X13.2613Y-3.6257
M16
G05
T5
G00X12.6361Y-4.6024
M15
G01X12.6105Y-4.6468
M16
G05
G00X13.018Y-4.8229
M15
G01X12.9924Y-4.8672
M16
G05
T0
M30
