0
SECTION
2
HEADER
9
$INSUNITS
70
4
9
$ACADVER
1
AC1014
9
$HANDSEED
5
FFFF
0
ENDSEC
0
SECTION
2
TABLES
0
TABLE
2
VPORT
5
8
100
AcDbSymbolTable
0
ENDTAB
0
TABLE
2
LTYPE
5
5
100
AcDbSymbolTable
0
LTYPE
5
14
100
AcDbSymbolTableRecord
100
AcDbLinetypeTableRecord
2
BYBLOCK
70
0
0
LTYPE
5
15
100
AcDbSymbolTableRecord
100
AcDbLinetypeTableRecord
2
BYLAYER
70
0
0
ENDTAB
0
TABLE
2
LAYER
5
2
100
AcDbSymbolTable
70
2
0
LAYER
5
50
100
AcDbSymbolTableRecord
100
AcDbLayerTableRecord
2
0
70
0
6
CONTINUOUS
0
ENDTAB
0
TABLE
2
STYLE
5
3
100
AcDbSymbolTable
70
1
0
STYLE
5
11
100
AcDbSymbolTableRecord
100
AcDbTextStyleTableRecord
2
STANDARD
70
0
0
ENDTAB
0
TABLE
2
VIEW
5
6
100
AcDbSymbolTable
70
0
0
ENDTAB
0
TABLE
2
UCS
5
7
100
AcDbSymbolTable
70
0
0
ENDTAB
0
TABLE
2
APPID
5
9
100
AcDbSymbolTable
70
2
0
APPID
5
12
100
AcDbSymbolTableRecord
100
AcDbRegAppTableRecord
2
ACAD
70
0
0
ENDTAB
0
TABLE
2
DIMSTYLE
5
A
100
AcDbSymbolTable
70
1
0
ENDTAB
0
TABLE
2
BLOCK_RECORD
5
1
100
AcDbSymbolTable
70
1
0
BLOCK_RECORD
5
1F
100
AcDbSymbolTableRecord
100
AcDbBlockTableRecord
2
*MODEL_SPACE
0
BLOCK_RECORD
5
1B
100
AcDbSymbolTableRecord
100
AcDbBlockTableRecord
2
*PAPER_SPACE
0
ENDTAB
0
ENDSEC
0
SECTION
2
BLOCKS
0
BLOCK
5
20
100
AcDbEntity
100
AcDbBlockBegin
2
*MODEL_SPACE
0
ENDBLK
5
21
100
AcDbEntity
100
AcDbBlockEnd
0
BLOCK
5
1C
100
AcDbEntity
100
AcDbBlockBegin
2
*PAPER_SPACE
0
ENDBLK
5
1D
100
AcDbEntity
100
AcDbBlockEnd
0
ENDSEC
0
SECTION
2
ENTITIES
0
ARC
5
100
100
AcDbEntity
8
0
100
AcDbCircle
10
33.793000864871651
20
-19.941997039594227
30
-1.035626458105784e-06
40
0.99999898297406054
210
-2.146841984175009e-09
220
-3.6931644478574064e-09
230
1
100
AcDbArc
50
59.830499432930942
51
89.999998392859297
0
LINE
5
101
100
AcDbEntity
8
0
100
AcDbLine
10
33.793000892921519
20
-18.941998062373411
30
-1.0317861809383544e-06
11
-51.456300135128721
21
-18.941997062373893
31
-1.0317861720565702e-06
0
ARC
5
102
100
AcDbEntity
8
0
100
AcDbCircle
10
-51.456299135128361
20
-19.941997039594227
30
-9.3819160145155845e-07
40
0.99999997722082945
210
4.9411295015592901e-15
220
-4.9411276197043491e-09
230
1
100
AcDbArc
50
90.00005729580144
51
180.00009999727018
0
LINE
5
103
100
AcDbEntity
8
0
100
AcDbLine
10
-52.456299135126862
20
-19.941998784923467
30
-1.0367273084455064e-06
11
-52.456299135126841
21
-103.79799338409336
31
-1.4510702328607294e-06
0
ARC
5
104
100
AcDbEntity
8
0
100
AcDbCircle
10
-51.456299135128361
20
-103.79799512942257
30
-1.4510702417425136e-06
40
1.0000000000000007
210
8.881784196987717e-15
220
-1.5501637435790304e-20
230
1
100
AcDbArc
50
179.99990000272982
51
188.6863998051486
0
LINE
5
105
100
AcDbEntity
8
0
100
AcDbLine
10
-52.444828898080893
20
-103.9490213083383
30
-1.4518164803689615e-06
11
-43.854628898080897
21
-160.17502002755566
31
-1.7296361543017724e-06
0
ARC
5
106
100
AcDbEntity
8
0
100
AcDbCircle
10
-42.866099135128373
20
-160.02399384863995
30
-1.679233535440095e-06
40
0.99999999948042917
210
-7.3767909327506309e-10
220
-1.127015684288424e-10
230
1
100
AcDbArc
50
188.6863998051478
51
270.0000000000004
0
LINE
5
107
100
AcDbEntity
8
0
100
AcDbLine
10
-42.866099135128366
20
-161.02399382586074
30
-1.7338310387415845e-06
11
50.525000864871672
21
-161.02399282586077
31
-1.7338310343006924e-06
0
ARC
5
108
100
AcDbEntity
8
0
100
AcDbCircle
10
50.525000864871672
20
-160.02399384863995
30
-9.3819157045425624e-07
40
0.99999897722081954
210
0
220
-4.9411236790462627e-09
230
1
100
AcDbArc
50
-90
51
0
0
LINE
5
109
100
AcDbEntity
8
0
100
AcDbLine
10
51.524999864871674
20
-160.02399384863995
30
-1.7288899156753246e-06
11
51.52500086487165
21
-82.998995603206893
31
-1.3482997918146111e-06
0
ARC
5
110
100
AcDbEntity
8
0
100
AcDbCircle
10
52.525000864871664
20
-82.998995603206893
30
-9.3819153082127346e-07
40
0.99999997722083123
210
0
220
-4.9411231788146122e-09
230
1
100
AcDbArc
50
90
51
180
0
LINE
5
111
100
AcDbEntity
8
0
100
AcDbLine
10
52.525000864871664
20
-81.998995625986055
30
-1.3433586687483512e-06
11
72.163000864871648
21
-81.998995625986097
31
-1.3433586687483512e-06
0
ARC
5
112
100
AcDbEntity
8
0
100
AcDbCircle
10
72.163000864871648
20
-80.998995648765288
30
-9.3819116667256608e-07
40
0.99999997722081346
210
0
220
-4.9411276197069002e-09
230
1
100
AcDbArc
50
270
51
346.81800028979126
0
LINE
5
113
100
AcDbEntity
8
0
100
AcDbLine
10
73.136651458241047
20
-81.227040643584729
30
-1.339544342116028e-06
11
81.12565145824108
21
-47.119041420537329
31
-1.1710124647734688e-06
0
ARC
5
114
100
AcDbEntity
8
0
100
AcDbCircle
10
80.152000864871709
20
-46.890996425717873
30
-1.0699009033262103e-06
40
0.99999999881536616
210
1.0971103429855928e-09
220
-2.5696130027171364e-10
230
1
100
AcDbArc
50
-13.181999710209857
51
59.830599432932338
0
LINE
5
115
100
AcDbEntity
8
0
100
AcDbLine
10
80.65455915589267
20
-46.026453118489059
30
-1.1656138498850055e-06
11
34.295560162244804
21
-19.077455474038832
31
-1.0324554899909799e-06
0
LWPOLYLINE
5
116
100
AcDbEntity
8
0
100
AcDbPolyline
90
4
70
1
43
0.0
10
-3.0999991351283462
20
-158.49799388340099
10
10.900000864871659
20
-158.49799388340099
10
10.900000864871659
20
-144.49799420230966
10
-3.0999991351283467
20
-144.49799420230966
0
LWPOLYLINE
5
117
100
AcDbEntity
8
0
100
AcDbPolyline
90
4
70
1
43
0.0
10
-11.831299135128363
20
-101.34799518523161
10
2.1687008648716426
20
-101.34799518523161
10
2.1687008648716422
20
-87.347995504140258
10
-11.831299135128363
20
-87.347995504140258
0
LWPOLYLINE
5
118
100
AcDbEntity
8
0
100
AcDbPolyline
90
4
70
1
43
0.0
10
-3.0999991351283462
20
-139.44799431734452
10
10.900000864871659
20
-139.44799431734452
10
10.900000864871659
20
-125.44799463625317
10
-3.0999991351283467
20
-125.44799463625317
0
LWPOLYLINE
5
119
100
AcDbEntity
8
0
100
AcDbPolyline
90
4
70
1
43
0.0
10
35.000000864871652
20
-125.44899463623037
10
35.000000864871652
20
-139.44899431732176
10
49.000000864871652
20
-139.44899431732176
10
49.000000864871652
20
-125.44899463623037
0
LWPOLYLINE
5
120
100
AcDbEntity
8
0
100
AcDbPolyline
90
4
70
1
43
0.0
10
11.187500864871646
20
-120.39899475126526
10
25.187000864871671
20
-120.39899475126526
10
25.187000864871671
20
-106.39899507017391
10
11.187500864871646
20
-106.39899507017391
0
LWPOLYLINE
5
121
100
AcDbEntity
8
0
100
AcDbPolyline
90
4
70
1
43
0.0
10
-7.8624991351283526
20
-120.39899475126526
10
6.1375008648716554
20
-120.39899475126526
10
6.1375008648716562
20
-106.39899507017391
10
-7.8624991351283509
20
-106.39899507017391
0
LWPOLYLINE
5
122
100
AcDbEntity
8
0
100
AcDbPolyline
90
4
70
1
43
0.0
10
7.2188008648716471
20
-87.347995504140258
10
7.2188008648716462
20
-101.34799518523161
10
21.219000864871646
20
-101.34799518523161
10
21.219000864871646
20
-87.347995504140258
0
LWPOLYLINE
5
123
100
AcDbEntity
8
0
100
AcDbPolyline
90
4
70
1
43
0.0
10
15.950000864871651
20
-158.49799388340099
10
29.950000864871654
20
-158.49799388340099
10
29.950000864871654
20
-144.49799420230966
10
15.950000864871651
20
-144.49799420230966
0
LWPOLYLINE
5
124
100
AcDbEntity
8
0
100
AcDbPolyline
90
4
70
1
43
0.0
10
-22.149999135128361
20
-144.49899420228684
10
-22.149999135128361
20
-158.4989938833782
10
-8.1499991351283558
20
-158.4989938833782
10
-8.1499991351283558
20
-144.49899420228684
0
LWPOLYLINE
5
125
100
AcDbEntity
8
0
100
AcDbPolyline
90
4
70
1
43
0.0
10
-22.149999135128361
20
-139.44899431732176
10
-8.1499991351283558
20
-139.44899431732176
10
-8.1499991351283558
20
-125.44899463623037
10
-22.149999135128361
20
-125.44899463623037
0
LWPOLYLINE
5
126
100
AcDbEntity
8
0
100
AcDbPolyline
90
4
70
1
43
0.0
10
-26.912499135128364
20
-120.39899475126526
10
-12.912499135128359
20
-120.39899475126526
10
-12.912499135128359
20
-106.39899507017391
10
-26.912499135128364
20
-106.39899507017391
0
LWPOLYLINE
5
127
100
AcDbEntity
8
0
100
AcDbPolyline
90
4
70
1
43
0.0
10
-49.93119913512836
20
-101.34799518523161
10
-35.931299135128363
20
-101.34799518523161
10
-35.931299135128363
20
-87.347995504140258
10
-49.93119913512836
20
-87.347995504140258
0
LWPOLYLINE
5
128
100
AcDbEntity
8
0
100
AcDbPolyline
90
4
70
1
43
0.0
10
-30.881199135128369
20
-101.34799518523161
10
-16.881199135128359
20
-101.34799518523161
10
-16.881199135128359
20
-87.347995504140258
10
-30.881199135128369
20
-87.347995504140258
0
LWPOLYLINE
5
129
100
AcDbEntity
8
0
100
AcDbPolyline
90
4
70
1
43
0.0
10
35.000000864871652
20
-158.49799388340099
10
49.000000864871652
20
-158.49799388340099
10
49.000000864871652
20
-144.49799420230966
10
35.000000864871652
20
-144.49799420230966
0
LWPOLYLINE
5
130
100
AcDbEntity
8
0
100
AcDbPolyline
90
4
70
1
43
0.0
10
15.950000864871651
20
-139.44899431732176
10
29.950000864871654
20
-139.44899431732176
10
29.950000864871654
20
-125.44899463623037
10
15.950000864871651
20
-125.44899463623037
0
LWPOLYLINE
5
131
100
AcDbEntity
8
0
100
AcDbPolyline
90
4
70
1
43
0.0
10
-41.199999135128365
20
-139.44899431732176
10
-27.199999135128362
20
-139.44899431732176
10
-27.199999135128362
20
-125.44899463623037
10
-41.199999135128365
20
-125.44899463623037
0
LWPOLYLINE
5
132
100
AcDbEntity
8
0
100
AcDbPolyline
90
4
70
1
43
0.0
10
35.000000864871652
20
-74.648995793413135
10
35.000000864871652
20
-88.648995474504517
10
49.000000864871652
20
-88.648995474504517
10
49.000000864871652
20
-74.648995793413135
0
LWPOLYLINE
5
133
100
AcDbEntity
8
0
100
AcDbPolyline
90
4
70
1
43
0.0
10
-23.737499135128356
20
-63.248996053095837
10
-9.7374991351283509
20
-63.248996053095837
10
-9.7374991351283509
20
-49.248996372004484
10
-23.737499135128356
20
-49.248996372004484
0
LWPOLYLINE
5
134
100
AcDbEntity
8
0
100
AcDbPolyline
90
4
70
1
43
0.0
10
-41.199999135128365
20
-144.49899420228684
10
-41.199999135128365
20
-158.4989938833782
10
-27.199999135128362
20
-158.4989938833782
10
-27.199999135128362
20
-144.49899420228684
0
LWPOLYLINE
5
135
100
AcDbEntity
8
0
100
AcDbPolyline
90
4
70
1
43
0.0
10
-42.787499135128364
20
-63.247996053118655
10
-28.787499135128364
20
-63.247996053118655
10
-28.787499135128364
20
-49.247996372027309
10
-42.787499135128364
20
-49.247996372027309
0
LWPOLYLINE
5
136
100
AcDbEntity
8
0
100
AcDbPolyline
90
4
70
1
43
0.0
10
-45.962499135128361
20
-82.298995619152322
10
-31.962499135128361
20
-82.298995619152322
10
-31.962499135128361
20
-68.298995938060955
10
-45.962499135128361
20
-68.298995938060955
0
LWPOLYLINE
5
137
100
AcDbEntity
8
0
100
AcDbPolyline
90
4
70
1
43
0.0
10
-4.6874991351283608
20
-63.248996053095837
10
9.3125008648716463
20
-63.248996053095837
10
9.3125008648716481
20
-49.248996372004484
10
-4.6874991351283599
20
-49.248996372004484
0
LWPOLYLINE
5
138
100
AcDbEntity
8
0
100
AcDbPolyline
90
4
70
1
43
0.0
10
30.237000864871668
20
-120.39799475128804
10
44.237000864871654
20
-120.39799475128804
10
44.237000864871654
20
-106.39799507019671
10
30.237000864871668
20
-106.39799507019671
0
LWPOLYLINE
5
139
100
AcDbEntity
8
0
100
AcDbPolyline
90
4
70
1
43
0.0
10
25.70300086487164
20
-33.366996733783559
10
37.827000864871671
20
-40.366996574329228
10
44.827000864871664
20
-28.242996850504127
10
32.70300086487164
20
-21.242997009958486
0
LWPOLYLINE
5
140
100
AcDbEntity
8
0
100
AcDbPolyline
90
4
70
1
43
0.0
10
11.187500864871646
20
-82.29799561917514
10
25.187000864871671
20
-82.29799561917514
10
25.187000864871671
20
-68.297995938083773
10
11.187500864871646
20
-68.297995938083773
0
LWPOLYLINE
5
141
100
AcDbEntity
8
0
100
AcDbPolyline
90
4
70
1
43
0.0
10
42.200000864871654
20
-42.89199651681183
10
54.32500086487164
20
-49.891996357357499
10
61.32500086487164
20
-37.767996633532434
10
49.200000864871647
20
-30.767996792986722
0
LWPOLYLINE
5
142
100
AcDbEntity
8
0
100
AcDbPolyline
90
4
70
1
43
0.0
10
-7.8624991351283526
20
-82.29799561917514
10
6.1375008648716554
20
-82.29799561917514
10
6.1375008648716562
20
-68.297995938083773
10
-7.8624991351283509
20
-68.297995938083773
0
LWPOLYLINE
5
143
100
AcDbEntity
8
0
100
AcDbPolyline
90
4
70
1
43
0.0
10
56.180000864871673
20
-63.406996049496755
10
54.35200086487167
20
-77.286995733321632
10
68.23300086487167
20
-79.114995691681273
10
70.06000086487164
20
-65.234996007856424
0
LWPOLYLINE
5
144
100
AcDbEntity
8
0
100
AcDbPolyline
90
4
70
1
43
0.0
10
-45.962499135128361
20
-120.39899475126526
10
-31.962499135128361
20
-120.39899475126526
10
-31.962499135128361
20
-106.39899507017391
10
-45.962499135128361
20
-106.39899507017391
0
LWPOLYLINE
5
145
100
AcDbEntity
8
0
100
AcDbPolyline
90
4
70
1
43
0.0
10
-26.912499135128364
20
-68.298995938060955
10
-26.912499135128364
20
-82.298995619152322
10
-12.912499135128359
20
-82.298995619152322
10
-12.912499135128359
20
-68.298995938060955
0
LWPOLYLINE
5
146
100
AcDbEntity
8
0
100
AcDbPolyline
90
4
70
1
43
0.0
10
35.576000864871659
20
-65.371996004735678
10
49.099000864871655
20
-68.99599592218388
10
52.722000864871667
20
-55.472996230226883
10
39.200000864871669
20
-51.848996312778617
0
LWPOLYLINE
5
147
100
AcDbEntity
8
0
100
AcDbPolyline
90
4
70
1
43
0.0
10
58.69400086487164
20
-52.416996299840022
10
70.818000864871649
20
-59.416996140385699
10
77.818000864871678
20
-47.292996416560626
10
65.694000864871654
20
-40.29299657601495
0
LWPOLYLINE
5
148
100
AcDbEntity
8
0
100
AcDbPolyline
90
4
70
1
43
0.0
10
14.362500864871654
20
-63.248996053095837
10
28.362000864871661
20
-63.248996053095837
10
28.362000864871661
20
-49.248996372004484
10
14.362500864871654
20
-49.248996372004484
0
LINE
5
149
100
AcDbEntity
8
0
100
AcDbLine
10
-10.512499135128309
20
-24.753996929980794
30
-1.0605039824085338e-06
11
-10.51249913512831
21
-40.753996565513752
31
-1.1395619736731533e-06
0
ARC
5
150
100
AcDbEntity
8
0
100
AcDbCircle
10
-12.512499135128312
20
-40.753996565513759
30
-9.3819136612190487e-07
40
1.999999954441618
210
-5.4857513107805111e-24
220
-4.941125399260822e-09
230
1
100
AcDbArc
50
-90.000000000000057
51
0
0
LINE
5
151
100
AcDbEntity
8
0
100
AcDbLine
10
-12.512499135128314
20
-42.753996519955365
30
-1.1494442242465652e-06
11
-14.35349913512834
21
-42.753996519955365
31
-1.1494442242465652e-06
0
LINE
5
152
100
AcDbEntity
8
0
100
AcDbLine
10
-14.35349913512834
20
-42.753996519955365
30
-1.1494442242465652e-06
11
-14.35349913512834
21
-45.003996468702198
31
-1.1605617622478803e-06
0
LINE
5
153
100
AcDbEntity
8
0
100
AcDbLine
10
-14.35349913512834
20
-45.003996468702198
30
-1.1605617622478803e-06
11
-48.853499135128338
21
-45.003996468702198
31
-1.1605617622478803e-06
0
LINE
5
154
100
AcDbEntity
8
0
100
AcDbLine
10
-48.853499135128338
20
-45.003996468702198
30
-1.1605617622478803e-06
11
-48.853499135128338
21
-22.017996992304553
31
-1.0469850719729834e-06
0
LINE
5
155
100
AcDbEntity
8
0
100
AcDbLine
10
-48.853499135128338
20
-22.017996992304553
30
-1.0469850719729834e-06
11
-14.35349913512834
21
-22.017996992304553
31
-1.0469850719729834e-06
0
LINE
5
156
100
AcDbEntity
8
0
100
AcDbLine
10
-14.35349913512834
20
-22.017996992304553
30
-1.0469850719729834e-06
11
-14.35349913512834
21
-22.75399697553916
31
-1.0506217318351219e-06
0
LINE
5
157
100
AcDbEntity
8
0
100
AcDbLine
10
-14.35349913512834
20
-22.75399697553916
30
-1.0506217318351219e-06
11
-12.512499135128312
21
-22.75399697553916
31
-1.0506217318351219e-06
0
ARC
5
158
100
AcDbEntity
8
0
100
AcDbCircle
10
-12.512499135128312
20
-24.753996929980794
30
-1.0605039824085338e-06
40
2.000000000000004
210
0
220
0
230
1
100
AcDbArc
50
0
51
90
0
CIRCLE
5
159
100
AcDbEntity
8
0
100
AcDbCircle
10
24.537000864871722
20
-23.704996953876108
30
-9.3819137143284094e-07
40
1.0500000000000043
210
-6.9045283853076426e-48
220
-4.9411247972596725e-09
230
1
0
CIRCLE
5
160
100
AcDbEntity
8
0
100
AcDbCircle
10
-27.849999135128364
20
-65.773995995578446
30
-9.3819141509615418e-07
40
1.0500000000000043
210
-8.6723262191343457e-50
220
-4.9411245635285102e-09
230
1
0
CIRCLE
5
161
100
AcDbEntity
8
0
100
AcDbCircle
10
-24.674999135128356
20
-141.97399425980427
30
-9.3819142326780269e-07
40
1.0500000000000043
210
-8.6723262191343457e-50
220
-4.9411245635285102e-09
230
1
0
CIRCLE
5
162
100
AcDbEntity
8
0
100
AcDbCircle
10
32.475000864871653
20
-141.97399425980427
30
-9.3819142326780269e-07
40
1.0500000000000043
210
-8.6723262191343457e-50
220
-4.9411245635285102e-09
230
1
0
CIRCLE
5
163
100
AcDbEntity
8
0
100
AcDbCircle
10
27.712000864871648
20
-84.823995561634916
30
-9.381914149186201e-07
40
1.0500000000000043
210
-8.6723262191343457e-50
220
-4.9411245635285102e-09
230
1
0
CIRCLE
5
164
100
AcDbEntity
8
0
100
AcDbCircle
10
55.494000864871651
20
-53.866996266810212
30
-9.3819141068510295e-07
40
1.0500000000000043
210
-8.6723262191343457e-50
220
-4.9411245635285102e-09
230
1
0
ENDSEC
0
SECTION
2
OBJECTS
0
DICTIONARY
5
C
100
AcDbDictionary
3
ACAD_GROUP
350
D
3
ACAD_MLINESTYLE
350
17
0
DICTIONARY
5
D
100
AcDbDictionary
0
DICTIONARY
5
1A
330
C
100
AcDbDictionary
0
DICTIONARY
5
17
100
AcDbDictionary
0
ENDSEC
0
EOF
