0
SECTION
2
HEADER
9
$INSUNITS
70
4
9
$ACADVER
1
AC1014
9
$HANDSEED
5
FFFF
0
ENDSEC
0
SECTION
2
TABLES
0
TABLE
2
VPORT
5
8
100
AcDbSymbolTable
0
ENDTAB
0
TABLE
2
LTYPE
5
5
100
AcDbSymbolTable
0
LTYPE
5
14
100
AcDbSymbolTableRecord
100
AcDbLinetypeTableRecord
2
BYBLOCK
70
0
0
LTYPE
5
15
100
AcDbSymbolTableRecord
100
AcDbLinetypeTableRecord
2
BYLAYER
70
0
0
ENDTAB
0
TABLE
2
LAYER
5
2
100
AcDbSymbolTable
70
2
0
LAYER
5
50
100
AcDbSymbolTableRecord
100
AcDbLayerTableRecord
2
0
70
0
6
CONTINUOUS
0
ENDTAB
0
TABLE
2
STYLE
5
3
100
AcDbSymbolTable
70
1
0
STYLE
5
11
100
AcDbSymbolTableRecord
100
AcDbTextStyleTableRecord
2
STANDARD
70
0
0
ENDTAB
0
TABLE
2
VIEW
5
6
100
AcDbSymbolTable
70
0
0
ENDTAB
0
TABLE
2
UCS
5
7
100
AcDbSymbolTable
70
0
0
ENDTAB
0
TABLE
2
APPID
5
9
100
AcDbSymbolTable
70
2
0
APPID
5
12
100
AcDbSymbolTableRecord
100
AcDbRegAppTableRecord
2
ACAD
70
0
0
ENDTAB
0
TABLE
2
DIMSTYLE
5
A
100
AcDbSymbolTable
70
1
0
ENDTAB
0
TABLE
2
BLOCK_RECORD
5
1
100
AcDbSymbolTable
70
1
0
BLOCK_RECORD
5
1F
100
AcDbSymbolTableRecord
100
AcDbBlockTableRecord
2
*MODEL_SPACE
0
BLOCK_RECORD
5
1B
100
AcDbSymbolTableRecord
100
AcDbBlockTableRecord
2
*PAPER_SPACE
0
ENDTAB
0
ENDSEC
0
SECTION
2
BLOCKS
0
BLOCK
5
20
100
AcDbEntity
100
AcDbBlockBegin
2
*MODEL_SPACE
0
ENDBLK
5
21
100
AcDbEntity
100
AcDbBlockEnd
0
BLOCK
5
1C
100
AcDbEntity
100
AcDbBlockBegin
2
*PAPER_SPACE
0
ENDBLK
5
1D
100
AcDbEntity
100
AcDbBlockEnd
0
ENDSEC
0
SECTION
2
ENTITIES
0
LWPOLYLINE
5
100
100
AcDbEntity
8
0
100
AcDbPolyline
90
26
70
1
43
0.0
10
116.7129999870172
20
151.52500000000003
10
193.738
20
151.52499900000004
42
-0.41421356237309503
10
194.737999
20
150.52500000000003
10
194.73799999999997
20
57.133900000000004
42
-0.37047483435145923
10
193.88902618235596
20
56.145370237047487
10
137.66302618235596
20
47.555170237047463
42
-0.037920166332312114
10
137.51199825467071
20
47.543700000001508
10
74.196998254583491
20
47.543750000001531
42
-0.41422652368208035
10
73.196950001057957
20
48.543846000103237
10
73.196999999999974
20
80.95480000000002
10
59.738000000000042
20
80.95480000000002
10
59.738000000000007
20
48.543699999999994
42
-0.41421356237309503
10
58.738000000000028
20
47.543700000000015
10
53.656001745329291
20
47.5437000000015
42
-0.41421378067490833
10
52.656000000000489
20
48.543698999999663
10
52.655999999999992
20
96.944700000000026
10
58.162999999999982
20
96.944700000000026
10
58.162999999999982
20
106.08870000000003
10
52.655999999999992
20
106.08870000000003
10
52.656001000000032
20
133.79300002804987
42
-0.13240496586511152
10
52.791458414751062
20
134.29555929737316
10
79.740456673097441
20
180.65455829100944
42
-0.32981416072135444
10
80.833054331233257
20
181.12564840777353
10
114.9410450000141
20
173.13665059336932
42
-0.34832491068229959
10
115.71299999999994
20
172.16299999999995
10
115.71299999999994
20
152.52499999999998
42
0.41421355857053482
0
CIRCLE
5
101
100
AcDbEntity
8
0
100
AcDbCircle
10
99.487999999999985
20
72.150000000000006
30
-2.7755575615628914e-16
40
1.0500000000000043
210
0
220
0
230
1
0
CIRCLE
5
102
100
AcDbEntity
8
0
100
AcDbCircle
10
57.419000000000011
20
118.18799999999999
30
-2.7755575615628914e-16
40
1.0499999999999865
210
0
220
0
230
1
0
CIRCLE
5
103
100
AcDbEntity
8
0
100
AcDbCircle
10
175.68799999999996
20
75.324999999999989
30
-2.7755575615628914e-16
40
1.0500000000000043
210
0
220
0
230
1
0
CIRCLE
5
104
100
AcDbEntity
8
0
100
AcDbCircle
10
58.468000000000018
20
87.487500000000011
30
-2.7755575615628914e-16
40
1.0499999999999687
210
0
220
0
230
1
0
CIRCLE
5
105
100
AcDbEntity
8
0
100
AcDbCircle
10
175.68799999999996
20
132.47500000000002
30
-2.7755575615628914e-16
40
1.0500000000000043
210
0
220
0
230
1
0
CIRCLE
5
106
100
AcDbEntity
8
0
100
AcDbCircle
10
118.538
20
127.712
30
-2.7755575615628914e-16
40
1.0500000000000043
210
0
220
0
230
1
0
CIRCLE
5
107
100
AcDbEntity
8
0
100
AcDbCircle
10
87.58099999999996
20
155.49399999999997
30
-2.7755575615628914e-16
40
1.0500000000000043
210
0
220
0
230
1
0
CIRCLE
5
108
100
AcDbEntity
8
0
100
AcDbCircle
10
74.467999999999989
20
87.487500000000011
30
-2.7755575615628914e-16
40
1.0500000000000043
210
0
220
0
230
1
0
LWPOLYLINE
5
109
100
AcDbEntity
8
0
100
AcDbPolyline
90
26
70
1
43
0.0
10
194.93799899999999
20
150.52500000214155
10
194.93799999999987
20
57.133900000000004
42
-0.37047477583394972
10
193.91923166297914
20
55.947664321758324
10
137.69323141882714
20
47.357464284457023
42
-0.037920126457268444
10
137.51199809673025
20
47.343700000001576
10
74.196997905517648
20
47.343750000166523
42
-0.41422435365239269
10
72.996950001058195
20
48.543846308634372
10
72.996999691468588
20
80.754800000000017
10
59.938000000000038
20
80.754800000000017
10
59.938000000000002
20
48.543699999999994
42
-0.41421356237311024
10
58.737999999999964
20
47.34370000000002
10
53.656002094395149
20
47.343700000001895
42
-0.4142138294904702
10
52.456000000000493
20
48.543698999999663
10
52.455999999999996
20
97.144700000000029
10
57.962999999999987
20
97.144700000000029
10
57.962999999999987
20
105.88870000000003
10
52.455999992780903
20
105.88870000000003
10
52.456001000004299
20
133.79300003365984
42
-0.13240526925097443
10
52.618550644041228
20
134.39607249465666
10
79.567548007712972
20
180.75506994921363
42
-0.32981416072138386
10
80.878665197481055
20
181.32037808933265
10
114.98665400001691
20
173.3313807120432
42
-0.34832491068230081
10
115.91299999999993
20
172.16299999999995
10
115.91299999999993
20
152.52499999999998
42
0.41421355857054265
10
116.71299998961376
20
151.72500000000002
10
193.738
20
151.72499900000003
42
-0.41421356185039243
0
ENDSEC
0
SECTION
2
OBJECTS
0
DICTIONARY
5
C
100
AcDbDictionary
3
ACAD_GROUP
350
D
3
ACAD_MLINESTYLE
350
17
0
DICTIONARY
5
D
100
AcDbDictionary
0
DICTIONARY
5
1A
330
C
100
AcDbDictionary
0
DICTIONARY
5
17
100
AcDbDictionary
0
ENDSEC
0
EOF
