  0
SECTION
  2
HEADER
  9
$ANGBASE
  50
0.0
  9
$ANGDIR
  70
1
  9
$MEASUREMENT
  70
1
  0
ENDSEC
  0
SECTION
  2
TABLES
  0
TABLE
  2
LTYPE
  70
4
  0
LTYPE
  5
40F
  2
CONTINUOUS
  70
0
  3
Solid line
  72
65
  73
0
  40
0.0
  0
LTYPE
  5
410
  2
DASHDOT
 70
0
  3
Dash Dot ____ _ ____ _
 72
65
 73
4
 40
2.0
 49
1.25
 49
-0.25
 49
0.25
 49
-0.25
  0
LTYPE
  5
411
  2
DASHED
 70
0
  3
Dashed __ __ __ __ __
 72
65
 73
2
 40
0.75
 49
0.5
 49
-0.25
  0
LTYPE
  5
43B
  2
DOTTED
 70
0
  3
Dotted .  .  .  .
 72
65
 73
2
 40
0.2
 49
0.0
 49
-0.2
  0
ENDTAB
  0
TABLE
  2
STYLE
  70
4
  0
STYLE
  2
KICAD
  70
0
  40
0
  41
1
  42
1
  50
0
  71
0
  3
isocp.shx
  0
STYLE
  2
KICADB
  70
0
  40
0
  41
1
  42
1
  50
0
  71
0
  3
isocp.shx
  0
STYLE
  2
KICADI
  70
0
  40
0
  41
1
  42
1
  50
15
  71
0
  3
isocp.shx
  0
STYLE
  2
KICADBI
  70
0
  40
0
  41
1
  42
1
  50
15
  71
0
  3
isocp.shx
  0
ENDTAB
  0
TABLE
  2
LAYER
  70
1
  0
LAYER
  2
BLACK
  70
0
  62
7
  6
CONTINUOUS
  0
ENDTAB
  0
ENDSEC
  0
SECTION
  2
ENTITIES
0
CIRCLE
8
BLACK
10
76.6625
20
-139.7
40
17
0
LINE
8
BLACK
6
CONTINUOUS
10
293.037
20
-113.362
11
294.037
21
-113.362
0
LINE
8
BLACK
6
CONTINUOUS
10
307.037
20
-99.3625
11
307.037
21
-100.362
0
LINE
8
BLACK
6
CONTINUOUS
10
293.037
20
-99.3625
11
294.037
21
-99.3625
0
LINE
8
BLACK
6
CONTINUOUS
10
307.037
20
-113.362
11
307.037
21
-112.362
0
LINE
8
BLACK
6
CONTINUOUS
10
306.037
20
-113.362
11
307.037
21
-113.362
0
LINE
8
BLACK
6
CONTINUOUS
10
293.037
20
-112.362
11
293.037
21
-113.362
0
LINE
8
BLACK
6
CONTINUOUS
10
307.037
20
-99.3625
11
306.037
21
-99.3625
0
LINE
8
BLACK
6
CONTINUOUS
10
293.037
20
-100.362
11
293.037
21
-99.3625
0
LINE
8
BLACK
6
CONTINUOUS
10
290.512
20
-115.887
11
290.512
21
-96.8375
0
LINE
8
BLACK
6
CONTINUOUS
10
309.562
20
-115.887
11
290.512
21
-115.887
0
LINE
8
BLACK
6
CONTINUOUS
10
309.562
20
-96.8375
11
309.562
21
-115.887
0
LINE
8
BLACK
6
CONTINUOUS
10
290.512
20
-96.8375
11
309.562
21
-96.8375
0
LINE
8
BLACK
6
CONTINUOUS
10
195.462
20
-130
11
195.462
21
-124
0
LINE
8
BLACK
6
CONTINUOUS
10
195.062
20
-130
11
195.062
21
-124
0
LINE
8
BLACK
6
CONTINUOUS
10
193.875
20
-130
11
193.875
21
-124
0
LINE
8
BLACK
6
CONTINUOUS
10
193.475
20
-130
11
193.475
21
-124
0
LINE
8
BLACK
6
CONTINUOUS
10
195.462
20
-110.95
11
195.462
21
-104.95
0
LINE
8
BLACK
6
CONTINUOUS
10
195.062
20
-110.95
11
195.062
21
-104.95
0
LINE
8
BLACK
6
CONTINUOUS
10
193.875
20
-110.95
11
193.875
21
-104.95
0
LINE
8
BLACK
6
CONTINUOUS
10
193.475
20
-110.95
11
193.475
21
-104.95
0
LINE
8
BLACK
6
CONTINUOUS
10
195.462
20
-91.9
11
195.462
21
-85.9
0
LINE
8
BLACK
6
CONTINUOUS
10
195.062
20
-91.9
11
195.062
21
-85.9
0
LINE
8
BLACK
6
CONTINUOUS
10
193.875
20
-91.9
11
193.875
21
-85.9
0
LINE
8
BLACK
6
CONTINUOUS
10
193.475
20
-91.9
11
193.475
21
-85.9
0
LINE
8
BLACK
6
CONTINUOUS
10
195.462
20
-72.85
11
195.462
21
-66.85
0
LINE
8
BLACK
6
CONTINUOUS
10
195.062
20
-72.85
11
195.062
21
-66.85
0
LINE
8
BLACK
6
CONTINUOUS
10
193.875
20
-72.85
11
193.875
21
-66.85
0
LINE
8
BLACK
6
CONTINUOUS
10
193.475
20
-72.85
11
193.475
21
-66.85
0
LINE
8
BLACK
6
CONTINUOUS
10
195.462
20
-53.8
11
195.462
21
-47.8
0
LINE
8
BLACK
6
CONTINUOUS
10
195.062
20
-53.8
11
195.062
21
-47.8
0
LINE
8
BLACK
6
CONTINUOUS
10
193.875
20
-53.8
11
193.875
21
-47.8
0
LINE
8
BLACK
6
CONTINUOUS
10
193.475
20
-53.8
11
193.475
21
-47.8
0
LINE
8
BLACK
6
CONTINUOUS
10
235.887
20
-53.0375
11
236.887
21
-53.0375
0
LINE
8
BLACK
6
CONTINUOUS
10
249.887
20
-39.0375
11
249.887
21
-40.0375
0
LINE
8
BLACK
6
CONTINUOUS
10
235.887
20
-39.0375
11
236.887
21
-39.0375
0
LINE
8
BLACK
6
CONTINUOUS
10
249.887
20
-53.0375
11
249.887
21
-52.0375
0
LINE
8
BLACK
6
CONTINUOUS
10
248.887
20
-53.0375
11
249.887
21
-53.0375
0
LINE
8
BLACK
6
CONTINUOUS
10
235.887
20
-52.0375
11
235.887
21
-53.0375
0
LINE
8
BLACK
6
CONTINUOUS
10
249.887
20
-39.0375
11
248.887
21
-39.0375
0
LINE
8
BLACK
6
CONTINUOUS
10
235.887
20
-40.0375
11
235.887
21
-39.0375
0
LINE
8
BLACK
6
CONTINUOUS
10
233.362
20
-55.5625
11
233.362
21
-36.5125
0
LINE
8
BLACK
6
CONTINUOUS
10
252.412
20
-55.5625
11
233.362
21
-55.5625
0
LINE
8
BLACK
6
CONTINUOUS
10
252.412
20
-36.5125
11
252.412
21
-55.5625
0
LINE
8
BLACK
6
CONTINUOUS
10
233.362
20
-36.5125
11
252.412
21
-36.5125
0
LINE
8
BLACK
6
CONTINUOUS
10
235.888
20
-129.237
11
236.888
21
-129.237
0
LINE
8
BLACK
6
CONTINUOUS
10
249.888
20
-115.237
11
249.888
21
-116.237
0
LINE
8
BLACK
6
CONTINUOUS
10
235.888
20
-115.237
11
236.888
21
-115.237
0
LINE
8
BLACK
6
CONTINUOUS
10
249.888
20
-129.237
11
249.888
21
-128.237
0
LINE
8
BLACK
6
CONTINUOUS
10
248.888
20
-129.237
11
249.888
21
-129.237
0
LINE
8
BLACK
6
CONTINUOUS
10
235.888
20
-128.237
11
235.888
21
-129.237
0
LINE
8
BLACK
6
CONTINUOUS
10
249.888
20
-115.237
11
248.888
21
-115.237
0
LINE
8
BLACK
6
CONTINUOUS
10
235.888
20
-116.237
11
235.888
21
-115.237
0
LINE
8
BLACK
6
CONTINUOUS
10
233.363
20
-131.762
11
233.363
21
-112.712
0
LINE
8
BLACK
6
CONTINUOUS
10
252.413
20
-131.762
11
233.363
21
-131.762
0
LINE
8
BLACK
6
CONTINUOUS
10
252.413
20
-112.712
11
252.413
21
-131.762
0
LINE
8
BLACK
6
CONTINUOUS
10
233.363
20
-112.712
11
252.413
21
-112.712
0
LINE
8
BLACK
6
CONTINUOUS
10
306.394
20
-139.325
11
307.26
21
-139.825
0
LINE
8
BLACK
6
CONTINUOUS
10
325.518
20
-134.2
11
325.018
21
-135.066
0
LINE
8
BLACK
6
CONTINUOUS
10
313.394
20
-127.2
11
314.26
21
-127.7
0
LINE
8
BLACK
6
CONTINUOUS
10
318.518
20
-146.325
11
319.018
21
-145.459
0
LINE
8
BLACK
6
CONTINUOUS
10
317.652
20
-145.825
11
318.518
21
-146.325
0
LINE
8
BLACK
6
CONTINUOUS
10
306.894
20
-138.459
11
306.394
21
-139.325
0
LINE
8
BLACK
6
CONTINUOUS
10
325.518
20
-134.2
11
324.652
21
-133.7
0
LINE
8
BLACK
6
CONTINUOUS
10
312.894
20
-128.066
11
313.394
21
-127.2
0
LINE
8
BLACK
6
CONTINUOUS
10
302.945
20
-140.249
11
312.47
21
-123.751
0
LINE
8
BLACK
6
CONTINUOUS
10
319.443
20
-149.774
11
302.945
21
-140.249
0
LINE
8
BLACK
6
CONTINUOUS
10
328.968
20
-133.276
11
319.443
21
-149.774
0
LINE
8
BLACK
6
CONTINUOUS
10
312.47
20
-123.751
11
328.968
21
-133.276
0
LINE
8
BLACK
6
CONTINUOUS
10
321.995
20
-107.253
11
338.493
21
-116.778
0
LINE
8
BLACK
6
CONTINUOUS
10
338.493
20
-116.778
11
328.968
21
-133.276
0
LINE
8
BLACK
6
CONTINUOUS
10
328.968
20
-133.276
11
312.47
21
-123.751
0
LINE
8
BLACK
6
CONTINUOUS
10
312.47
20
-123.751
11
321.995
21
-107.253
0
LINE
8
BLACK
6
CONTINUOUS
10
322.419
20
-111.569
11
322.919
21
-110.703
0
LINE
8
BLACK
6
CONTINUOUS
10
335.043
20
-117.703
11
334.177
21
-117.203
0
LINE
8
BLACK
6
CONTINUOUS
10
316.419
20
-121.961
11
315.919
21
-122.827
0
LINE
8
BLACK
6
CONTINUOUS
10
327.177
20
-129.327
11
328.043
21
-129.827
0
LINE
8
BLACK
6
CONTINUOUS
10
328.043
20
-129.827
11
328.543
21
-128.961
0
LINE
8
BLACK
6
CONTINUOUS
10
322.919
20
-110.703
11
323.785
21
-111.203
0
LINE
8
BLACK
6
CONTINUOUS
10
335.043
20
-117.703
11
334.543
21
-118.569
0
LINE
8
BLACK
6
CONTINUOUS
10
315.919
20
-122.827
11
316.785
21
-123.327
0
LINE
8
BLACK
6
CONTINUOUS
10
296.869
20
-155.818
11
297.735
21
-156.318
0
LINE
8
BLACK
6
CONTINUOUS
10
315.993
20
-150.694
11
315.493
21
-151.56
0
LINE
8
BLACK
6
CONTINUOUS
10
303.869
20
-143.694
11
304.735
21
-144.194
0
LINE
8
BLACK
6
CONTINUOUS
10
308.993
20
-162.818
11
309.493
21
-161.952
0
LINE
8
BLACK
6
CONTINUOUS
10
308.127
20
-162.318
11
308.993
21
-162.818
0
LINE
8
BLACK
6
CONTINUOUS
10
297.369
20
-154.952
11
296.869
21
-155.818
0
LINE
8
BLACK
6
CONTINUOUS
10
315.993
20
-150.694
11
315.127
21
-150.194
0
LINE
8
BLACK
6
CONTINUOUS
10
303.369
20
-144.56
11
303.869
21
-143.694
0
LINE
8
BLACK
6
CONTINUOUS
10
293.42
20
-156.743
11
302.945
21
-140.245
0
LINE
8
BLACK
6
CONTINUOUS
10
309.918
20
-166.268
11
293.42
21
-156.743
0
LINE
8
BLACK
6
CONTINUOUS
10
319.443
20
-149.77
11
309.918
21
-166.268
0
LINE
8
BLACK
6
CONTINUOUS
10
302.945
20
-140.245
11
319.443
21
-149.77
0
LINE
8
BLACK
6
CONTINUOUS
10
277.171
20
-153.233
11
278.163
21
-153.363
0
LINE
8
BLACK
6
CONTINUOUS
10
292.879
20
-141.18
11
292.748
21
-142.171
0
LINE
8
BLACK
6
CONTINUOUS
10
278.999
20
-139.352
11
279.99
21
-139.483
0
LINE
8
BLACK
6
CONTINUOUS
10
291.051
20
-155.06
11
291.182
21
-154.069
0
LINE
8
BLACK
6
CONTINUOUS
10
290.06
20
-154.93
11
291.051
21
-155.06
0
LINE
8
BLACK
6
CONTINUOUS
10
277.302
20
-152.241
11
277.171
21
-153.233
0
LINE
8
BLACK
6
CONTINUOUS
10
292.879
20
-141.18
11
291.887
21
-141.049
0
LINE
8
BLACK
6
CONTINUOUS
10
278.868
20
-140.344
11
278.999
21
-139.352
0
LINE
8
BLACK
6
CONTINUOUS
10
274.338
20
-155.406
11
276.825
21
-136.519
0
LINE
8
BLACK
6
CONTINUOUS
10
293.225
20
-157.893
11
274.338
21
-155.406
0
LINE
8
BLACK
6
CONTINUOUS
10
295.712
20
-139.006
11
293.225
21
-157.893
0
LINE
8
BLACK
6
CONTINUOUS
10
276.825
20
-136.519
11
295.712
21
-139.006
0
LINE
8
BLACK
6
CONTINUOUS
10
273.988
20
-110.187
11
274.988
21
-110.187
0
LINE
8
BLACK
6
CONTINUOUS
10
287.988
20
-96.1875
11
287.988
21
-97.1875
0
LINE
8
BLACK
6
CONTINUOUS
10
273.988
20
-96.1875
11
274.988
21
-96.1875
0
LINE
8
BLACK
6
CONTINUOUS
10
287.988
20
-110.187
11
287.988
21
-109.187
0
LINE
8
BLACK
6
CONTINUOUS
10
286.988
20
-110.187
11
287.988
21
-110.187
0
LINE
8
BLACK
6
CONTINUOUS
10
273.988
20
-109.187
11
273.988
21
-110.187
0
LINE
8
BLACK
6
CONTINUOUS
10
287.988
20
-96.1875
11
286.988
21
-96.1875
0
LINE
8
BLACK
6
CONTINUOUS
10
273.988
20
-97.1875
11
273.988
21
-96.1875
0
LINE
8
BLACK
6
CONTINUOUS
10
271.462
20
-112.712
11
271.462
21
-93.6625
0
LINE
8
BLACK
6
CONTINUOUS
10
290.512
20
-112.712
11
271.462
21
-112.712
0
LINE
8
BLACK
6
CONTINUOUS
10
290.512
20
-93.6625
11
290.512
21
-112.712
0
LINE
8
BLACK
6
CONTINUOUS
10
271.462
20
-93.6625
11
290.512
21
-93.6625
0
LINE
8
BLACK
6
CONTINUOUS
10
287.29
20
-134.099
11
288.256
21
-134.358
0
LINE
8
BLACK
6
CONTINUOUS
10
304.437
20
-124.2
11
304.178
21
-125.165
0
LINE
8
BLACK
6
CONTINUOUS
10
290.914
20
-120.576
11
291.88
21
-120.835
0
LINE
8
BLACK
6
CONTINUOUS
10
300.813
20
-137.722
11
301.072
21
-136.757
0
LINE
8
BLACK
6
CONTINUOUS
10
299.847
20
-137.464
11
300.813
21
-137.722
0
LINE
8
BLACK
6
CONTINUOUS
10
287.549
20
-133.133
11
287.29
21
-134.099
0
LINE
8
BLACK
6
CONTINUOUS
10
304.437
20
-124.2
11
303.471
21
-123.941
0
LINE
8
BLACK
6
CONTINUOUS
10
290.655
20
-121.542
11
290.914
21
-120.576
0
LINE
8
BLACK
6
CONTINUOUS
10
284.198
20
-135.884
11
289.128
21
-117.484
0
LINE
8
BLACK
6
CONTINUOUS
10
302.599
20
-140.815
11
284.198
21
-135.884
0
LINE
8
BLACK
6
CONTINUOUS
10
307.529
20
-122.414
11
302.599
21
-140.815
0
LINE
8
BLACK
6
CONTINUOUS
10
289.128
20
-117.484
11
307.529
21
-122.414
0
LINE
8
BLACK
6
CONTINUOUS
10
293.037
20
-94.3125
11
294.037
21
-94.3125
0
LINE
8
BLACK
6
CONTINUOUS
10
307.037
20
-80.3125
11
307.037
21
-81.3125
0
LINE
8
BLACK
6
CONTINUOUS
10
293.037
20
-80.3125
11
294.037
21
-80.3125
0
LINE
8
BLACK
6
CONTINUOUS
10
307.037
20
-94.3125
11
307.037
21
-93.3125
0
LINE
8
BLACK
6
CONTINUOUS
10
306.037
20
-94.3125
11
307.037
21
-94.3125
0
LINE
8
BLACK
6
CONTINUOUS
10
293.037
20
-93.3125
11
293.037
21
-94.3125
0
LINE
8
BLACK
6
CONTINUOUS
10
307.037
20
-80.3125
11
306.037
21
-80.3125
0
LINE
8
BLACK
6
CONTINUOUS
10
293.037
20
-81.3125
11
293.037
21
-80.3125
0
LINE
8
BLACK
6
CONTINUOUS
10
290.512
20
-96.8375
11
290.512
21
-77.7875
0
LINE
8
BLACK
6
CONTINUOUS
10
309.562
20
-96.8375
11
290.512
21
-96.8375
0
LINE
8
BLACK
6
CONTINUOUS
10
309.562
20
-77.7875
11
309.562
21
-96.8375
0
LINE
8
BLACK
6
CONTINUOUS
10
290.512
20
-77.7875
11
309.562
21
-77.7875
0
LINE
8
BLACK
6
CONTINUOUS
10
293.037
20
-75.2625
11
294.037
21
-75.2625
0
LINE
8
BLACK
6
CONTINUOUS
10
307.037
20
-61.2625
11
307.037
21
-62.2625
0
LINE
8
BLACK
6
CONTINUOUS
10
293.037
20
-61.2625
11
294.037
21
-61.2625
0
LINE
8
BLACK
6
CONTINUOUS
10
307.037
20
-75.2625
11
307.037
21
-74.2625
0
LINE
8
BLACK
6
CONTINUOUS
10
306.037
20
-75.2625
11
307.037
21
-75.2625
0
LINE
8
BLACK
6
CONTINUOUS
10
293.037
20
-74.2625
11
293.037
21
-75.2625
0
LINE
8
BLACK
6
CONTINUOUS
10
307.037
20
-61.2625
11
306.037
21
-61.2625
0
LINE
8
BLACK
6
CONTINUOUS
10
293.037
20
-62.2625
11
293.037
21
-61.2625
0
LINE
8
BLACK
6
CONTINUOUS
10
290.512
20
-77.7875
11
290.512
21
-58.7375
0
LINE
8
BLACK
6
CONTINUOUS
10
309.562
20
-77.7875
11
290.512
21
-77.7875
0
LINE
8
BLACK
6
CONTINUOUS
10
309.562
20
-58.7375
11
309.562
21
-77.7875
0
LINE
8
BLACK
6
CONTINUOUS
10
290.512
20
-58.7375
11
309.562
21
-58.7375
0
LINE
8
BLACK
6
CONTINUOUS
10
273.988
20
-91.1375
11
274.988
21
-91.1375
0
LINE
8
BLACK
6
CONTINUOUS
10
287.988
20
-77.1375
11
287.988
21
-78.1375
0
LINE
8
BLACK
6
CONTINUOUS
10
273.988
20
-77.1375
11
274.988
21
-77.1375
0
LINE
8
BLACK
6
CONTINUOUS
10
287.988
20
-91.1375
11
287.988
21
-90.1375
0
LINE
8
BLACK
6
CONTINUOUS
10
286.988
20
-91.1375
11
287.988
21
-91.1375
0
LINE
8
BLACK
6
CONTINUOUS
10
273.988
20
-90.1375
11
273.988
21
-91.1375
0
LINE
8
BLACK
6
CONTINUOUS
10
287.988
20
-77.1375
11
286.988
21
-77.1375
0
LINE
8
BLACK
6
CONTINUOUS
10
273.988
20
-78.1375
11
273.988
21
-77.1375
0
LINE
8
BLACK
6
CONTINUOUS
10
271.462
20
-93.6625
11
271.462
21
-74.6125
0
LINE
8
BLACK
6
CONTINUOUS
10
290.512
20
-93.6625
11
271.462
21
-93.6625
0
LINE
8
BLACK
6
CONTINUOUS
10
290.512
20
-74.6125
11
290.512
21
-93.6625
0
LINE
8
BLACK
6
CONTINUOUS
10
271.462
20
-74.6125
11
290.512
21
-74.6125
0
LINE
8
BLACK
6
CONTINUOUS
10
177.15
20
-134
11
178.15
21
-134
0
LINE
8
BLACK
6
CONTINUOUS
10
191.15
20
-120
11
191.15
21
-121
0
LINE
8
BLACK
6
CONTINUOUS
10
177.15
20
-120
11
178.15
21
-120
0
LINE
8
BLACK
6
CONTINUOUS
10
191.15
20
-134
11
191.15
21
-133
0
LINE
8
BLACK
6
CONTINUOUS
10
190.15
20
-134
11
191.15
21
-134
0
LINE
8
BLACK
6
CONTINUOUS
10
177.15
20
-133
11
177.15
21
-134
0
LINE
8
BLACK
6
CONTINUOUS
10
191.15
20
-120
11
190.15
21
-120
0
LINE
8
BLACK
6
CONTINUOUS
10
177.15
20
-121
11
177.15
21
-120
0
LINE
8
BLACK
6
CONTINUOUS
10
174.625
20
-136.525
11
174.625
21
-117.475
0
LINE
8
BLACK
6
CONTINUOUS
10
193.675
20
-136.525
11
174.625
21
-136.525
0
LINE
8
BLACK
6
CONTINUOUS
10
193.675
20
-117.475
11
193.675
21
-136.525
0
LINE
8
BLACK
6
CONTINUOUS
10
174.625
20
-117.475
11
193.675
21
-117.475
0
LINE
8
BLACK
6
CONTINUOUS
10
197.787
20
-57.8
11
198.787
21
-57.8
0
LINE
8
BLACK
6
CONTINUOUS
10
211.787
20
-43.8
11
211.787
21
-44.8
0
LINE
8
BLACK
6
CONTINUOUS
10
197.787
20
-43.8
11
198.787
21
-43.8
0
LINE
8
BLACK
6
CONTINUOUS
10
211.787
20
-57.8
11
211.787
21
-56.8
0
LINE
8
BLACK
6
CONTINUOUS
10
210.787
20
-57.8
11
211.787
21
-57.8
0
LINE
8
BLACK
6
CONTINUOUS
10
197.787
20
-56.8
11
197.787
21
-57.8
0
LINE
8
BLACK
6
CONTINUOUS
10
211.787
20
-43.8
11
210.787
21
-43.8
0
LINE
8
BLACK
6
CONTINUOUS
10
197.787
20
-44.8
11
197.787
21
-43.8
0
LINE
8
BLACK
6
CONTINUOUS
10
195.262
20
-60.325
11
195.262
21
-41.275
0
LINE
8
BLACK
6
CONTINUOUS
10
214.312
20
-60.325
11
195.262
21
-60.325
0
LINE
8
BLACK
6
CONTINUOUS
10
214.312
20
-41.275
11
214.312
21
-60.325
0
LINE
8
BLACK
6
CONTINUOUS
10
195.262
20
-41.275
11
214.312
21
-41.275
0
LINE
8
BLACK
6
CONTINUOUS
10
158.1
20
-114.95
11
159.1
21
-114.95
0
LINE
8
BLACK
6
CONTINUOUS
10
172.1
20
-100.95
11
172.1
21
-101.95
0
LINE
8
BLACK
6
CONTINUOUS
10
158.1
20
-100.95
11
159.1
21
-100.95
0
LINE
8
BLACK
6
CONTINUOUS
10
172.1
20
-114.95
11
172.1
21
-113.95
0
LINE
8
BLACK
6
CONTINUOUS
10
171.1
20
-114.95
11
172.1
21
-114.95
0
LINE
8
BLACK
6
CONTINUOUS
10
158.1
20
-113.95
11
158.1
21
-114.95
0
LINE
8
BLACK
6
CONTINUOUS
10
172.1
20
-100.95
11
171.1
21
-100.95
0
LINE
8
BLACK
6
CONTINUOUS
10
158.1
20
-101.95
11
158.1
21
-100.95
0
LINE
8
BLACK
6
CONTINUOUS
10
155.575
20
-117.475
11
155.575
21
-98.425
0
LINE
8
BLACK
6
CONTINUOUS
10
174.625
20
-117.475
11
155.575
21
-117.475
0
LINE
8
BLACK
6
CONTINUOUS
10
174.625
20
-98.425
11
174.625
21
-117.475
0
LINE
8
BLACK
6
CONTINUOUS
10
155.575
20
-98.425
11
174.625
21
-98.425
0
LINE
8
BLACK
6
CONTINUOUS
10
177.15
20
-114.95
11
178.15
21
-114.95
0
LINE
8
BLACK
6
CONTINUOUS
10
191.15
20
-100.95
11
191.15
21
-101.95
0
LINE
8
BLACK
6
CONTINUOUS
10
177.15
20
-100.95
11
178.15
21
-100.95
0
LINE
8
BLACK
6
CONTINUOUS
10
191.15
20
-114.95
11
191.15
21
-113.95
0
LINE
8
BLACK
6
CONTINUOUS
10
190.15
20
-114.95
11
191.15
21
-114.95
0
LINE
8
BLACK
6
CONTINUOUS
10
177.15
20
-113.95
11
177.15
21
-114.95
0
LINE
8
BLACK
6
CONTINUOUS
10
191.15
20
-100.95
11
190.15
21
-100.95
0
LINE
8
BLACK
6
CONTINUOUS
10
177.15
20
-101.95
11
177.15
21
-100.95
0
LINE
8
BLACK
6
CONTINUOUS
10
174.625
20
-117.475
11
174.625
21
-98.425
0
LINE
8
BLACK
6
CONTINUOUS
10
193.675
20
-117.475
11
174.625
21
-117.475
0
LINE
8
BLACK
6
CONTINUOUS
10
193.675
20
-98.425
11
193.675
21
-117.475
0
LINE
8
BLACK
6
CONTINUOUS
10
174.625
20
-98.425
11
193.675
21
-98.425
0
LINE
8
BLACK
6
CONTINUOUS
10
177.15
20
-95.9
11
178.15
21
-95.9
0
LINE
8
BLACK
6
CONTINUOUS
10
191.15
20
-81.9
11
191.15
21
-82.9
0
LINE
8
BLACK
6
CONTINUOUS
10
177.15
20
-81.9
11
178.15
21
-81.9
0
LINE
8
BLACK
6
CONTINUOUS
10
191.15
20
-95.9
11
191.15
21
-94.9
0
LINE
8
BLACK
6
CONTINUOUS
10
190.15
20
-95.9
11
191.15
21
-95.9
0
LINE
8
BLACK
6
CONTINUOUS
10
177.15
20
-94.9
11
177.15
21
-95.9
0
LINE
8
BLACK
6
CONTINUOUS
10
191.15
20
-81.9
11
190.15
21
-81.9
0
LINE
8
BLACK
6
CONTINUOUS
10
177.15
20
-82.9
11
177.15
21
-81.9
0
LINE
8
BLACK
6
CONTINUOUS
10
174.625
20
-98.425
11
174.625
21
-79.375
0
LINE
8
BLACK
6
CONTINUOUS
10
193.675
20
-98.425
11
174.625
21
-98.425
0
LINE
8
BLACK
6
CONTINUOUS
10
193.675
20
-79.375
11
193.675
21
-98.425
0
LINE
8
BLACK
6
CONTINUOUS
10
174.625
20
-79.375
11
193.675
21
-79.375
0
LINE
8
BLACK
6
CONTINUOUS
10
177.15
20
-76.85
11
178.15
21
-76.85
0
LINE
8
BLACK
6
CONTINUOUS
10
191.15
20
-62.85
11
191.15
21
-63.85
0
LINE
8
BLACK
6
CONTINUOUS
10
177.15
20
-62.85
11
178.15
21
-62.85
0
LINE
8
BLACK
6
CONTINUOUS
10
191.15
20
-76.85
11
191.15
21
-75.85
0
LINE
8
BLACK
6
CONTINUOUS
10
190.15
20
-76.85
11
191.15
21
-76.85
0
LINE
8
BLACK
6
CONTINUOUS
10
177.15
20
-75.85
11
177.15
21
-76.85
0
LINE
8
BLACK
6
CONTINUOUS
10
191.15
20
-62.85
11
190.15
21
-62.85
0
LINE
8
BLACK
6
CONTINUOUS
10
177.15
20
-63.85
11
177.15
21
-62.85
0
LINE
8
BLACK
6
CONTINUOUS
10
174.625
20
-79.375
11
174.625
21
-60.325
0
LINE
8
BLACK
6
CONTINUOUS
10
193.675
20
-79.375
11
174.625
21
-79.375
0
LINE
8
BLACK
6
CONTINUOUS
10
193.675
20
-60.325
11
193.675
21
-79.375
0
LINE
8
BLACK
6
CONTINUOUS
10
174.625
20
-60.325
11
193.675
21
-60.325
0
LINE
8
BLACK
6
CONTINUOUS
10
177.15
20
-57.8
11
178.15
21
-57.8
0
LINE
8
BLACK
6
CONTINUOUS
10
191.15
20
-43.8
11
191.15
21
-44.8
0
LINE
8
BLACK
6
CONTINUOUS
10
177.15
20
-43.8
11
178.15
21
-43.8
0
LINE
8
BLACK
6
CONTINUOUS
10
191.15
20
-57.8
11
191.15
21
-56.8
0
LINE
8
BLACK
6
CONTINUOUS
10
190.15
20
-57.8
11
191.15
21
-57.8
0
LINE
8
BLACK
6
CONTINUOUS
10
177.15
20
-56.8
11
177.15
21
-57.8
0
LINE
8
BLACK
6
CONTINUOUS
10
191.15
20
-43.8
11
190.15
21
-43.8
0
LINE
8
BLACK
6
CONTINUOUS
10
177.15
20
-44.8
11
177.15
21
-43.8
0
LINE
8
BLACK
6
CONTINUOUS
10
174.625
20
-60.325
11
174.625
21
-41.275
0
LINE
8
BLACK
6
CONTINUOUS
10
193.675
20
-60.325
11
174.625
21
-60.325
0
LINE
8
BLACK
6
CONTINUOUS
10
193.675
20
-41.275
11
193.675
21
-60.325
0
LINE
8
BLACK
6
CONTINUOUS
10
174.625
20
-41.275
11
193.675
21
-41.275
0
LINE
8
BLACK
6
CONTINUOUS
10
158.1
20
-134
11
159.1
21
-134
0
LINE
8
BLACK
6
CONTINUOUS
10
172.1
20
-120
11
172.1
21
-121
0
LINE
8
BLACK
6
CONTINUOUS
10
158.1
20
-120
11
159.1
21
-120
0
LINE
8
BLACK
6
CONTINUOUS
10
172.1
20
-134
11
172.1
21
-133
0
LINE
8
BLACK
6
CONTINUOUS
10
171.1
20
-134
11
172.1
21
-134
0
LINE
8
BLACK
6
CONTINUOUS
10
158.1
20
-133
11
158.1
21
-134
0
LINE
8
BLACK
6
CONTINUOUS
10
172.1
20
-120
11
171.1
21
-120
0
LINE
8
BLACK
6
CONTINUOUS
10
158.1
20
-121
11
158.1
21
-120
0
LINE
8
BLACK
6
CONTINUOUS
10
155.575
20
-136.525
11
155.575
21
-117.475
0
LINE
8
BLACK
6
CONTINUOUS
10
174.625
20
-136.525
11
155.575
21
-136.525
0
LINE
8
BLACK
6
CONTINUOUS
10
174.625
20
-117.475
11
174.625
21
-136.525
0
LINE
8
BLACK
6
CONTINUOUS
10
155.575
20
-117.475
11
174.625
21
-117.475
0
LINE
8
BLACK
6
CONTINUOUS
10
158.1
20
-95.9
11
159.1
21
-95.9
0
LINE
8
BLACK
6
CONTINUOUS
10
172.1
20
-81.9
11
172.1
21
-82.9
0
LINE
8
BLACK
6
CONTINUOUS
10
158.1
20
-81.9
11
159.1
21
-81.9
0
LINE
8
BLACK
6
CONTINUOUS
10
172.1
20
-95.9
11
172.1
21
-94.9
0
LINE
8
BLACK
6
CONTINUOUS
10
171.1
20
-95.9
11
172.1
21
-95.9
0
LINE
8
BLACK
6
CONTINUOUS
10
158.1
20
-94.9
11
158.1
21
-95.9
0
LINE
8
BLACK
6
CONTINUOUS
10
172.1
20
-81.9
11
171.1
21
-81.9
0
LINE
8
BLACK
6
CONTINUOUS
10
158.1
20
-82.9
11
158.1
21
-81.9
0
LINE
8
BLACK
6
CONTINUOUS
10
155.575
20
-98.425
11
155.575
21
-79.375
0
LINE
8
BLACK
6
CONTINUOUS
10
174.625
20
-98.425
11
155.575
21
-98.425
0
LINE
8
BLACK
6
CONTINUOUS
10
174.625
20
-79.375
11
174.625
21
-98.425
0
LINE
8
BLACK
6
CONTINUOUS
10
155.575
20
-79.375
11
174.625
21
-79.375
0
LINE
8
BLACK
6
CONTINUOUS
10
158.1
20
-76.85
11
159.1
21
-76.85
0
LINE
8
BLACK
6
CONTINUOUS
10
172.1
20
-62.85
11
172.1
21
-63.85
0
LINE
8
BLACK
6
CONTINUOUS
10
158.1
20
-62.85
11
159.1
21
-62.85
0
LINE
8
BLACK
6
CONTINUOUS
10
172.1
20
-76.85
11
172.1
21
-75.85
0
LINE
8
BLACK
6
CONTINUOUS
10
171.1
20
-76.85
11
172.1
21
-76.85
0
LINE
8
BLACK
6
CONTINUOUS
10
158.1
20
-75.85
11
158.1
21
-76.85
0
LINE
8
BLACK
6
CONTINUOUS
10
172.1
20
-62.85
11
171.1
21
-62.85
0
LINE
8
BLACK
6
CONTINUOUS
10
158.1
20
-63.85
11
158.1
21
-62.85
0
LINE
8
BLACK
6
CONTINUOUS
10
155.575
20
-79.375
11
155.575
21
-60.325
0
LINE
8
BLACK
6
CONTINUOUS
10
174.625
20
-79.375
11
155.575
21
-79.375
0
LINE
8
BLACK
6
CONTINUOUS
10
174.625
20
-60.325
11
174.625
21
-79.375
0
LINE
8
BLACK
6
CONTINUOUS
10
155.575
20
-60.325
11
174.625
21
-60.325
0
LINE
8
BLACK
6
CONTINUOUS
10
158.1
20
-57.8
11
159.1
21
-57.8
0
LINE
8
BLACK
6
CONTINUOUS
10
172.1
20
-43.8
11
172.1
21
-44.8
0
LINE
8
BLACK
6
CONTINUOUS
10
158.1
20
-43.8
11
159.1
21
-43.8
0
LINE
8
BLACK
6
CONTINUOUS
10
172.1
20
-57.8
11
172.1
21
-56.8
0
LINE
8
BLACK
6
CONTINUOUS
10
171.1
20
-57.8
11
172.1
21
-57.8
0
LINE
8
BLACK
6
CONTINUOUS
10
158.1
20
-56.8
11
158.1
21
-57.8
0
LINE
8
BLACK
6
CONTINUOUS
10
172.1
20
-43.8
11
171.1
21
-43.8
0
LINE
8
BLACK
6
CONTINUOUS
10
158.1
20
-44.8
11
158.1
21
-43.8
0
LINE
8
BLACK
6
CONTINUOUS
10
155.575
20
-60.325
11
155.575
21
-41.275
0
LINE
8
BLACK
6
CONTINUOUS
10
174.625
20
-60.325
11
155.575
21
-60.325
0
LINE
8
BLACK
6
CONTINUOUS
10
174.625
20
-41.275
11
174.625
21
-60.325
0
LINE
8
BLACK
6
CONTINUOUS
10
155.575
20
-41.275
11
174.625
21
-41.275
0
LINE
8
BLACK
6
CONTINUOUS
10
139.05
20
-129.237
11
140.05
21
-129.237
0
LINE
8
BLACK
6
CONTINUOUS
10
153.05
20
-115.237
11
153.05
21
-116.237
0
LINE
8
BLACK
6
CONTINUOUS
10
139.05
20
-115.237
11
140.05
21
-115.237
0
LINE
8
BLACK
6
CONTINUOUS
10
153.05
20
-129.237
11
153.05
21
-128.237
0
LINE
8
BLACK
6
CONTINUOUS
10
152.05
20
-129.237
11
153.05
21
-129.237
0
LINE
8
BLACK
6
CONTINUOUS
10
139.05
20
-128.237
11
139.05
21
-129.237
0
LINE
8
BLACK
6
CONTINUOUS
10
153.05
20
-115.237
11
152.05
21
-115.237
0
LINE
8
BLACK
6
CONTINUOUS
10
139.05
20
-116.237
11
139.05
21
-115.237
0
LINE
8
BLACK
6
CONTINUOUS
10
136.525
20
-131.762
11
136.525
21
-112.712
0
LINE
8
BLACK
6
CONTINUOUS
10
155.575
20
-131.762
11
136.525
21
-131.762
0
LINE
8
BLACK
6
CONTINUOUS
10
155.575
20
-112.712
11
155.575
21
-131.762
0
LINE
8
BLACK
6
CONTINUOUS
10
136.525
20
-112.712
11
155.575
21
-112.712
0
LINE
8
BLACK
6
CONTINUOUS
10
139.05
20
-110.188
11
140.05
21
-110.188
0
LINE
8
BLACK
6
CONTINUOUS
10
153.05
20
-96.1875
11
153.05
21
-97.1875
0
LINE
8
BLACK
6
CONTINUOUS
10
139.05
20
-96.1875
11
140.05
21
-96.1875
0
LINE
8
BLACK
6
CONTINUOUS
10
153.05
20
-110.188
11
153.05
21
-109.188
0
LINE
8
BLACK
6
CONTINUOUS
10
152.05
20
-110.188
11
153.05
21
-110.188
0
LINE
8
BLACK
6
CONTINUOUS
10
139.05
20
-109.188
11
139.05
21
-110.188
0
LINE
8
BLACK
6
CONTINUOUS
10
153.05
20
-96.1875
11
152.05
21
-96.1875
0
LINE
8
BLACK
6
CONTINUOUS
10
139.05
20
-97.1875
11
139.05
21
-96.1875
0
LINE
8
BLACK
6
CONTINUOUS
10
136.525
20
-112.712
11
136.525
21
-93.6625
0
LINE
8
BLACK
6
CONTINUOUS
10
155.575
20
-112.712
11
136.525
21
-112.712
0
LINE
8
BLACK
6
CONTINUOUS
10
155.575
20
-93.6625
11
155.575
21
-112.712
0
LINE
8
BLACK
6
CONTINUOUS
10
136.525
20
-93.6625
11
155.575
21
-93.6625
0
LINE
8
BLACK
6
CONTINUOUS
10
139.05
20
-91.1375
11
140.05
21
-91.1375
0
LINE
8
BLACK
6
CONTINUOUS
10
153.05
20
-77.1375
11
153.05
21
-78.1375
0
LINE
8
BLACK
6
CONTINUOUS
10
139.05
20
-77.1375
11
140.05
21
-77.1375
0
LINE
8
BLACK
6
CONTINUOUS
10
153.05
20
-91.1375
11
153.05
21
-90.1375
0
LINE
8
BLACK
6
CONTINUOUS
10
152.05
20
-91.1375
11
153.05
21
-91.1375
0
LINE
8
BLACK
6
CONTINUOUS
10
139.05
20
-90.1375
11
139.05
21
-91.1375
0
LINE
8
BLACK
6
CONTINUOUS
10
153.05
20
-77.1375
11
152.05
21
-77.1375
0
LINE
8
BLACK
6
CONTINUOUS
10
139.05
20
-78.1375
11
139.05
21
-77.1375
0
LINE
8
BLACK
6
CONTINUOUS
10
136.525
20
-93.6625
11
136.525
21
-74.6125
0
LINE
8
BLACK
6
CONTINUOUS
10
155.575
20
-93.6625
11
136.525
21
-93.6625
0
LINE
8
BLACK
6
CONTINUOUS
10
155.575
20
-74.6125
11
155.575
21
-93.6625
0
LINE
8
BLACK
6
CONTINUOUS
10
136.525
20
-74.6125
11
155.575
21
-74.6125
0
LINE
8
BLACK
6
CONTINUOUS
10
139.05
20
-72.0875
11
140.05
21
-72.0875
0
LINE
8
BLACK
6
CONTINUOUS
10
153.05
20
-58.0875
11
153.05
21
-59.0875
0
LINE
8
BLACK
6
CONTINUOUS
10
139.05
20
-58.0875
11
140.05
21
-58.0875
0
LINE
8
BLACK
6
CONTINUOUS
10
153.05
20
-72.0875
11
153.05
21
-71.0875
0
LINE
8
BLACK
6
CONTINUOUS
10
152.05
20
-72.0875
11
153.05
21
-72.0875
0
LINE
8
BLACK
6
CONTINUOUS
10
139.05
20
-71.0875
11
139.05
21
-72.0875
0
LINE
8
BLACK
6
CONTINUOUS
10
153.05
20
-58.0875
11
152.05
21
-58.0875
0
LINE
8
BLACK
6
CONTINUOUS
10
139.05
20
-59.0875
11
139.05
21
-58.0875
0
LINE
8
BLACK
6
CONTINUOUS
10
136.525
20
-74.6125
11
136.525
21
-55.5625
0
LINE
8
BLACK
6
CONTINUOUS
10
155.575
20
-74.6125
11
136.525
21
-74.6125
0
LINE
8
BLACK
6
CONTINUOUS
10
155.575
20
-55.5625
11
155.575
21
-74.6125
0
LINE
8
BLACK
6
CONTINUOUS
10
136.525
20
-55.5625
11
155.575
21
-55.5625
0
LINE
8
BLACK
6
CONTINUOUS
10
139.05
20
-53.0375
11
140.05
21
-53.0375
0
LINE
8
BLACK
6
CONTINUOUS
10
153.05
20
-39.0375
11
153.05
21
-40.0375
0
LINE
8
BLACK
6
CONTINUOUS
10
139.05
20
-39.0375
11
140.05
21
-39.0375
0
LINE
8
BLACK
6
CONTINUOUS
10
153.05
20
-53.0375
11
153.05
21
-52.0375
0
LINE
8
BLACK
6
CONTINUOUS
10
152.05
20
-53.0375
11
153.05
21
-53.0375
0
LINE
8
BLACK
6
CONTINUOUS
10
139.05
20
-52.0375
11
139.05
21
-53.0375
0
LINE
8
BLACK
6
CONTINUOUS
10
153.05
20
-39.0375
11
152.05
21
-39.0375
0
LINE
8
BLACK
6
CONTINUOUS
10
139.05
20
-40.0375
11
139.05
21
-39.0375
0
LINE
8
BLACK
6
CONTINUOUS
10
136.525
20
-55.5625
11
136.525
21
-36.5125
0
LINE
8
BLACK
6
CONTINUOUS
10
155.575
20
-55.5625
11
136.525
21
-55.5625
0
LINE
8
BLACK
6
CONTINUOUS
10
155.575
20
-36.5125
11
155.575
21
-55.5625
0
LINE
8
BLACK
6
CONTINUOUS
10
136.525
20
-36.5125
11
155.575
21
-36.5125
0
LINE
8
BLACK
6
CONTINUOUS
10
107.3
20
-134
11
108.3
21
-134
0
LINE
8
BLACK
6
CONTINUOUS
10
121.3
20
-120
11
121.3
21
-121
0
LINE
8
BLACK
6
CONTINUOUS
10
107.3
20
-120
11
108.3
21
-120
0
LINE
8
BLACK
6
CONTINUOUS
10
121.3
20
-134
11
121.3
21
-133
0
LINE
8
BLACK
6
CONTINUOUS
10
120.3
20
-134
11
121.3
21
-134
0
LINE
8
BLACK
6
CONTINUOUS
10
107.3
20
-133
11
107.3
21
-134
0
LINE
8
BLACK
6
CONTINUOUS
10
121.3
20
-120
11
120.3
21
-120
0
LINE
8
BLACK
6
CONTINUOUS
10
107.3
20
-121
11
107.3
21
-120
0
LINE
8
BLACK
6
CONTINUOUS
10
104.775
20
-136.525
11
104.775
21
-117.475
0
LINE
8
BLACK
6
CONTINUOUS
10
123.825
20
-136.525
11
104.775
21
-136.525
0
LINE
8
BLACK
6
CONTINUOUS
10
123.825
20
-117.475
11
123.825
21
-136.525
0
LINE
8
BLACK
6
CONTINUOUS
10
104.775
20
-117.475
11
123.825
21
-117.475
0
LINE
8
BLACK
6
CONTINUOUS
10
120
20
-106.219
11
121
21
-106.219
0
LINE
8
BLACK
6
CONTINUOUS
10
134
20
-92.2188
11
134
21
-93.2188
0
LINE
8
BLACK
6
CONTINUOUS
10
120
20
-92.2188
11
121
21
-92.2188
0
LINE
8
BLACK
6
CONTINUOUS
10
134
20
-106.219
11
134
21
-105.219
0
LINE
8
BLACK
6
CONTINUOUS
10
133
20
-106.219
11
134
21
-106.219
0
LINE
8
BLACK
6
CONTINUOUS
10
120
20
-105.219
11
120
21
-106.219
0
LINE
8
BLACK
6
CONTINUOUS
10
134
20
-92.2188
11
133
21
-92.2188
0
LINE
8
BLACK
6
CONTINUOUS
10
120
20
-93.2188
11
120
21
-92.2188
0
LINE
8
BLACK
6
CONTINUOUS
10
117.475
20
-108.744
11
117.475
21
-89.6937
0
LINE
8
BLACK
6
CONTINUOUS
10
136.525
20
-108.744
11
117.475
21
-108.744
0
LINE
8
BLACK
6
CONTINUOUS
10
136.525
20
-89.6937
11
136.525
21
-108.744
0
LINE
8
BLACK
6
CONTINUOUS
10
117.475
20
-89.6937
11
136.525
21
-89.6937
0
LINE
8
BLACK
6
CONTINUOUS
10
120
20
-87.1688
11
121
21
-87.1688
0
LINE
8
BLACK
6
CONTINUOUS
10
134
20
-73.1688
11
134
21
-74.1688
0
LINE
8
BLACK
6
CONTINUOUS
10
120
20
-73.1688
11
121
21
-73.1688
0
LINE
8
BLACK
6
CONTINUOUS
10
134
20
-87.1688
11
134
21
-86.1688
0
LINE
8
BLACK
6
CONTINUOUS
10
133
20
-87.1688
11
134
21
-87.1688
0
LINE
8
BLACK
6
CONTINUOUS
10
120
20
-86.1688
11
120
21
-87.1688
0
LINE
8
BLACK
6
CONTINUOUS
10
134
20
-73.1688
11
133
21
-73.1688
0
LINE
8
BLACK
6
CONTINUOUS
10
120
20
-74.1688
11
120
21
-73.1688
0
LINE
8
BLACK
6
CONTINUOUS
10
117.475
20
-89.6937
11
117.475
21
-70.6437
0
LINE
8
BLACK
6
CONTINUOUS
10
136.525
20
-89.6937
11
117.475
21
-89.6937
0
LINE
8
BLACK
6
CONTINUOUS
10
136.525
20
-70.6437
11
136.525
21
-89.6937
0
LINE
8
BLACK
6
CONTINUOUS
10
117.475
20
-70.6437
11
136.525
21
-70.6437
0
LINE
8
BLACK
6
CONTINUOUS
10
120
20
-68.1187
11
121
21
-68.1187
0
LINE
8
BLACK
6
CONTINUOUS
10
134
20
-54.1187
11
134
21
-55.1187
0
LINE
8
BLACK
6
CONTINUOUS
10
120
20
-54.1187
11
121
21
-54.1187
0
LINE
8
BLACK
6
CONTINUOUS
10
134
20
-68.1187
11
134
21
-67.1187
0
LINE
8
BLACK
6
CONTINUOUS
10
133
20
-68.1187
11
134
21
-68.1187
0
LINE
8
BLACK
6
CONTINUOUS
10
120
20
-67.1187
11
120
21
-68.1187
0
LINE
8
BLACK
6
CONTINUOUS
10
134
20
-54.1187
11
133
21
-54.1187
0
LINE
8
BLACK
6
CONTINUOUS
10
120
20
-55.1187
11
120
21
-54.1187
0
LINE
8
BLACK
6
CONTINUOUS
10
117.475
20
-70.6437
11
117.475
21
-51.5938
0
LINE
8
BLACK
6
CONTINUOUS
10
136.525
20
-70.6437
11
117.475
21
-70.6437
0
LINE
8
BLACK
6
CONTINUOUS
10
136.525
20
-51.5938
11
136.525
21
-70.6437
0
LINE
8
BLACK
6
CONTINUOUS
10
117.475
20
-51.5938
11
136.525
21
-51.5938
0
LINE
8
BLACK
6
CONTINUOUS
10
120
20
-49.0687
11
121
21
-49.0687
0
LINE
8
BLACK
6
CONTINUOUS
10
134
20
-35.0688
11
134
21
-36.0688
0
LINE
8
BLACK
6
CONTINUOUS
10
120
20
-35.0688
11
121
21
-35.0688
0
LINE
8
BLACK
6
CONTINUOUS
10
134
20
-49.0687
11
134
21
-48.0687
0
LINE
8
BLACK
6
CONTINUOUS
10
133
20
-49.0687
11
134
21
-49.0687
0
LINE
8
BLACK
6
CONTINUOUS
10
120
20
-48.0687
11
120
21
-49.0687
0
LINE
8
BLACK
6
CONTINUOUS
10
134
20
-35.0688
11
133
21
-35.0688
0
LINE
8
BLACK
6
CONTINUOUS
10
120
20
-36.0688
11
120
21
-35.0688
0
LINE
8
BLACK
6
CONTINUOUS
10
117.475
20
-51.5938
11
117.475
21
-32.5437
0
LINE
8
BLACK
6
CONTINUOUS
10
136.525
20
-51.5938
11
117.475
21
-51.5938
0
LINE
8
BLACK
6
CONTINUOUS
10
136.525
20
-32.5437
11
136.525
21
-51.5938
0
LINE
8
BLACK
6
CONTINUOUS
10
117.475
20
-32.5437
11
136.525
21
-32.5437
0
LINE
8
BLACK
6
CONTINUOUS
10
100.95
20
-110.188
11
101.95
21
-110.188
0
LINE
8
BLACK
6
CONTINUOUS
10
114.95
20
-96.1875
11
114.95
21
-97.1875
0
LINE
8
BLACK
6
CONTINUOUS
10
100.95
20
-96.1875
11
101.95
21
-96.1875
0
LINE
8
BLACK
6
CONTINUOUS
10
114.95
20
-110.188
11
114.95
21
-109.188
0
LINE
8
BLACK
6
CONTINUOUS
10
113.95
20
-110.188
11
114.95
21
-110.188
0
LINE
8
BLACK
6
CONTINUOUS
10
100.95
20
-109.188
11
100.95
21
-110.188
0
LINE
8
BLACK
6
CONTINUOUS
10
114.95
20
-96.1875
11
113.95
21
-96.1875
0
LINE
8
BLACK
6
CONTINUOUS
10
100.95
20
-97.1875
11
100.95
21
-96.1875
0
LINE
8
BLACK
6
CONTINUOUS
10
98.425
20
-112.712
11
98.425
21
-93.6625
0
LINE
8
BLACK
6
CONTINUOUS
10
117.475
20
-112.712
11
98.425
21
-112.712
0
LINE
8
BLACK
6
CONTINUOUS
10
117.475
20
-93.6625
11
117.475
21
-112.712
0
LINE
8
BLACK
6
CONTINUOUS
10
98.425
20
-93.6625
11
117.475
21
-93.6625
0
LINE
8
BLACK
6
CONTINUOUS
10
100.95
20
-91.1375
11
101.95
21
-91.1375
0
LINE
8
BLACK
6
CONTINUOUS
10
114.95
20
-77.1375
11
114.95
21
-78.1375
0
LINE
8
BLACK
6
CONTINUOUS
10
100.95
20
-77.1375
11
101.95
21
-77.1375
0
LINE
8
BLACK
6
CONTINUOUS
10
114.95
20
-91.1375
11
114.95
21
-90.1375
0
LINE
8
BLACK
6
CONTINUOUS
10
113.95
20
-91.1375
11
114.95
21
-91.1375
0
LINE
8
BLACK
6
CONTINUOUS
10
100.95
20
-90.1375
11
100.95
21
-91.1375
0
LINE
8
BLACK
6
CONTINUOUS
10
114.95
20
-77.1375
11
113.95
21
-77.1375
0
LINE
8
BLACK
6
CONTINUOUS
10
100.95
20
-78.1375
11
100.95
21
-77.1375
0
LINE
8
BLACK
6
CONTINUOUS
10
98.425
20
-93.6625
11
98.425
21
-74.6125
0
LINE
8
BLACK
6
CONTINUOUS
10
117.475
20
-93.6625
11
98.425
21
-93.6625
0
LINE
8
BLACK
6
CONTINUOUS
10
117.475
20
-74.6125
11
117.475
21
-93.6625
0
LINE
8
BLACK
6
CONTINUOUS
10
98.425
20
-74.6125
11
117.475
21
-74.6125
0
LINE
8
BLACK
6
CONTINUOUS
10
100.95
20
-72.0875
11
101.95
21
-72.0875
0
LINE
8
BLACK
6
CONTINUOUS
10
114.95
20
-58.0875
11
114.95
21
-59.0875
0
LINE
8
BLACK
6
CONTINUOUS
10
100.95
20
-58.0875
11
101.95
21
-58.0875
0
LINE
8
BLACK
6
CONTINUOUS
10
114.95
20
-72.0875
11
114.95
21
-71.0875
0
LINE
8
BLACK
6
CONTINUOUS
10
113.95
20
-72.0875
11
114.95
21
-72.0875
0
LINE
8
BLACK
6
CONTINUOUS
10
100.95
20
-71.0875
11
100.95
21
-72.0875
0
LINE
8
BLACK
6
CONTINUOUS
10
114.95
20
-58.0875
11
113.95
21
-58.0875
0
LINE
8
BLACK
6
CONTINUOUS
10
100.95
20
-59.0875
11
100.95
21
-58.0875
0
LINE
8
BLACK
6
CONTINUOUS
10
98.425
20
-74.6125
11
98.425
21
-55.5625
0
LINE
8
BLACK
6
CONTINUOUS
10
117.475
20
-74.6125
11
98.425
21
-74.6125
0
LINE
8
BLACK
6
CONTINUOUS
10
117.475
20
-55.5625
11
117.475
21
-74.6125
0
LINE
8
BLACK
6
CONTINUOUS
10
98.425
20
-55.5625
11
117.475
21
-55.5625
0
LINE
8
BLACK
6
CONTINUOUS
10
100.95
20
-53.0375
11
101.95
21
-53.0375
0
LINE
8
BLACK
6
CONTINUOUS
10
114.95
20
-39.0375
11
114.95
21
-40.0375
0
LINE
8
BLACK
6
CONTINUOUS
10
100.95
20
-39.0375
11
101.95
21
-39.0375
0
LINE
8
BLACK
6
CONTINUOUS
10
114.95
20
-53.0375
11
114.95
21
-52.0375
0
LINE
8
BLACK
6
CONTINUOUS
10
113.95
20
-53.0375
11
114.95
21
-53.0375
0
LINE
8
BLACK
6
CONTINUOUS
10
100.95
20
-52.0375
11
100.95
21
-53.0375
0
LINE
8
BLACK
6
CONTINUOUS
10
114.95
20
-39.0375
11
113.95
21
-39.0375
0
LINE
8
BLACK
6
CONTINUOUS
10
100.95
20
-40.0375
11
100.95
21
-39.0375
0
LINE
8
BLACK
6
CONTINUOUS
10
98.425
20
-55.5625
11
98.425
21
-36.5125
0
LINE
8
BLACK
6
CONTINUOUS
10
117.475
20
-55.5625
11
98.425
21
-55.5625
0
LINE
8
BLACK
6
CONTINUOUS
10
117.475
20
-36.5125
11
117.475
21
-55.5625
0
LINE
8
BLACK
6
CONTINUOUS
10
98.425
20
-36.5125
11
117.475
21
-36.5125
0
LINE
8
BLACK
6
CONTINUOUS
10
81.9
20
-113.362
11
82.9
21
-113.362
0
LINE
8
BLACK
6
CONTINUOUS
10
95.9
20
-99.3625
11
95.9
21
-100.362
0
LINE
8
BLACK
6
CONTINUOUS
10
81.9
20
-99.3625
11
82.9
21
-99.3625
0
LINE
8
BLACK
6
CONTINUOUS
10
95.9
20
-113.362
11
95.9
21
-112.362
0
LINE
8
BLACK
6
CONTINUOUS
10
94.9
20
-113.362
11
95.9
21
-113.362
0
LINE
8
BLACK
6
CONTINUOUS
10
81.9
20
-112.362
11
81.9
21
-113.362
0
LINE
8
BLACK
6
CONTINUOUS
10
95.9
20
-99.3625
11
94.9
21
-99.3625
0
LINE
8
BLACK
6
CONTINUOUS
10
81.9
20
-100.362
11
81.9
21
-99.3625
0
LINE
8
BLACK
6
CONTINUOUS
10
79.375
20
-115.887
11
79.375
21
-96.8375
0
LINE
8
BLACK
6
CONTINUOUS
10
98.425
20
-115.887
11
79.375
21
-115.887
0
LINE
8
BLACK
6
CONTINUOUS
10
98.425
20
-96.8375
11
98.425
21
-115.887
0
LINE
8
BLACK
6
CONTINUOUS
10
79.375
20
-96.8375
11
98.425
21
-96.8375
0
LINE
8
BLACK
6
CONTINUOUS
10
81.9
20
-94.3125
11
82.9
21
-94.3125
0
LINE
8
BLACK
6
CONTINUOUS
10
95.9
20
-80.3125
11
95.9
21
-81.3125
0
LINE
8
BLACK
6
CONTINUOUS
10
81.9
20
-80.3125
11
82.9
21
-80.3125
0
LINE
8
BLACK
6
CONTINUOUS
10
95.9
20
-94.3125
11
95.9
21
-93.3125
0
LINE
8
BLACK
6
CONTINUOUS
10
94.9
20
-94.3125
11
95.9
21
-94.3125
0
LINE
8
BLACK
6
CONTINUOUS
10
81.9
20
-93.3125
11
81.9
21
-94.3125
0
LINE
8
BLACK
6
CONTINUOUS
10
95.9
20
-80.3125
11
94.9
21
-80.3125
0
LINE
8
BLACK
6
CONTINUOUS
10
81.9
20
-81.3125
11
81.9
21
-80.3125
0
LINE
8
BLACK
6
CONTINUOUS
10
79.375
20
-96.8375
11
79.375
21
-77.7875
0
LINE
8
BLACK
6
CONTINUOUS
10
98.425
20
-96.8375
11
79.375
21
-96.8375
0
LINE
8
BLACK
6
CONTINUOUS
10
98.425
20
-77.7875
11
98.425
21
-96.8375
0
LINE
8
BLACK
6
CONTINUOUS
10
79.375
20
-77.7875
11
98.425
21
-77.7875
0
LINE
8
BLACK
6
CONTINUOUS
10
81.9
20
-75.2625
11
82.9
21
-75.2625
0
LINE
8
BLACK
6
CONTINUOUS
10
95.9
20
-61.2625
11
95.9
21
-62.2625
0
LINE
8
BLACK
6
CONTINUOUS
10
81.9
20
-61.2625
11
82.9
21
-61.2625
0
LINE
8
BLACK
6
CONTINUOUS
10
95.9
20
-75.2625
11
95.9
21
-74.2625
0
LINE
8
BLACK
6
CONTINUOUS
10
94.9
20
-75.2625
11
95.9
21
-75.2625
0
LINE
8
BLACK
6
CONTINUOUS
10
81.9
20
-74.2625
11
81.9
21
-75.2625
0
LINE
8
BLACK
6
CONTINUOUS
10
95.9
20
-61.2625
11
94.9
21
-61.2625
0
LINE
8
BLACK
6
CONTINUOUS
10
81.9
20
-62.2625
11
81.9
21
-61.2625
0
LINE
8
BLACK
6
CONTINUOUS
10
79.375
20
-77.7875
11
79.375
21
-58.7375
0
LINE
8
BLACK
6
CONTINUOUS
10
98.425
20
-77.7875
11
79.375
21
-77.7875
0
LINE
8
BLACK
6
CONTINUOUS
10
98.425
20
-58.7375
11
98.425
21
-77.7875
0
LINE
8
BLACK
6
CONTINUOUS
10
79.375
20
-58.7375
11
98.425
21
-58.7375
0
LINE
8
BLACK
6
CONTINUOUS
10
81.9
20
-56.2125
11
82.9
21
-56.2125
0
LINE
8
BLACK
6
CONTINUOUS
10
95.9
20
-42.2125
11
95.9
21
-43.2125
0
LINE
8
BLACK
6
CONTINUOUS
10
81.9
20
-42.2125
11
82.9
21
-42.2125
0
LINE
8
BLACK
6
CONTINUOUS
10
95.9
20
-56.2125
11
95.9
21
-55.2125
0
LINE
8
BLACK
6
CONTINUOUS
10
94.9
20
-56.2125
11
95.9
21
-56.2125
0
LINE
8
BLACK
6
CONTINUOUS
10
81.9
20
-55.2125
11
81.9
21
-56.2125
0
LINE
8
BLACK
6
CONTINUOUS
10
95.9
20
-42.2125
11
94.9
21
-42.2125
0
LINE
8
BLACK
6
CONTINUOUS
10
81.9
20
-43.2125
11
81.9
21
-42.2125
0
LINE
8
BLACK
6
CONTINUOUS
10
79.375
20
-58.7375
11
79.375
21
-39.6875
0
LINE
8
BLACK
6
CONTINUOUS
10
98.425
20
-58.7375
11
79.375
21
-58.7375
0
LINE
8
BLACK
6
CONTINUOUS
10
98.425
20
-39.6875
11
98.425
21
-58.7375
0
LINE
8
BLACK
6
CONTINUOUS
10
79.375
20
-39.6875
11
98.425
21
-39.6875
0
LINE
8
BLACK
6
CONTINUOUS
10
293.038
20
-56.2125
11
294.038
21
-56.2125
0
LINE
8
BLACK
6
CONTINUOUS
10
307.038
20
-42.2125
11
307.038
21
-43.2125
0
LINE
8
BLACK
6
CONTINUOUS
10
293.038
20
-42.2125
11
294.038
21
-42.2125
0
LINE
8
BLACK
6
CONTINUOUS
10
307.038
20
-56.2125
11
307.038
21
-55.2125
0
LINE
8
BLACK
6
CONTINUOUS
10
306.038
20
-56.2125
11
307.038
21
-56.2125
0
LINE
8
BLACK
6
CONTINUOUS
10
293.038
20
-55.2125
11
293.038
21
-56.2125
0
LINE
8
BLACK
6
CONTINUOUS
10
307.038
20
-42.2125
11
306.038
21
-42.2125
0
LINE
8
BLACK
6
CONTINUOUS
10
293.038
20
-43.2125
11
293.038
21
-42.2125
0
LINE
8
BLACK
6
CONTINUOUS
10
290.513
20
-58.7375
11
290.513
21
-39.6875
0
LINE
8
BLACK
6
CONTINUOUS
10
309.563
20
-58.7375
11
290.513
21
-58.7375
0
LINE
8
BLACK
6
CONTINUOUS
10
309.563
20
-39.6875
11
309.563
21
-58.7375
0
LINE
8
BLACK
6
CONTINUOUS
10
290.513
20
-39.6875
11
309.563
21
-39.6875
0
LINE
8
BLACK
6
CONTINUOUS
10
273.987
20
-72.0875
11
274.987
21
-72.0875
0
LINE
8
BLACK
6
CONTINUOUS
10
287.987
20
-58.0875
11
287.987
21
-59.0875
0
LINE
8
BLACK
6
CONTINUOUS
10
273.987
20
-58.0875
11
274.987
21
-58.0875
0
LINE
8
BLACK
6
CONTINUOUS
10
287.987
20
-72.0875
11
287.987
21
-71.0875
0
LINE
8
BLACK
6
CONTINUOUS
10
286.987
20
-72.0875
11
287.987
21
-72.0875
0
LINE
8
BLACK
6
CONTINUOUS
10
273.987
20
-71.0875
11
273.987
21
-72.0875
0
LINE
8
BLACK
6
CONTINUOUS
10
287.987
20
-58.0875
11
286.987
21
-58.0875
0
LINE
8
BLACK
6
CONTINUOUS
10
273.987
20
-59.0875
11
273.987
21
-58.0875
0
LINE
8
BLACK
6
CONTINUOUS
10
271.462
20
-74.6125
11
271.462
21
-55.5625
0
LINE
8
BLACK
6
CONTINUOUS
10
290.512
20
-74.6125
11
271.462
21
-74.6125
0
LINE
8
BLACK
6
CONTINUOUS
10
290.512
20
-55.5625
11
290.512
21
-74.6125
0
LINE
8
BLACK
6
CONTINUOUS
10
271.462
20
-55.5625
11
290.512
21
-55.5625
0
LINE
8
BLACK
6
CONTINUOUS
10
273.987
20
-53.0375
11
274.987
21
-53.0375
0
LINE
8
BLACK
6
CONTINUOUS
10
287.987
20
-39.0375
11
287.987
21
-40.0375
0
LINE
8
BLACK
6
CONTINUOUS
10
273.987
20
-39.0375
11
274.987
21
-39.0375
0
LINE
8
BLACK
6
CONTINUOUS
10
287.987
20
-53.0375
11
287.987
21
-52.0375
0
LINE
8
BLACK
6
CONTINUOUS
10
286.987
20
-53.0375
11
287.987
21
-53.0375
0
LINE
8
BLACK
6
CONTINUOUS
10
273.987
20
-52.0375
11
273.987
21
-53.0375
0
LINE
8
BLACK
6
CONTINUOUS
10
287.987
20
-39.0375
11
286.987
21
-39.0375
0
LINE
8
BLACK
6
CONTINUOUS
10
273.987
20
-40.0375
11
273.987
21
-39.0375
0
LINE
8
BLACK
6
CONTINUOUS
10
271.462
20
-55.5625
11
271.462
21
-36.5125
0
LINE
8
BLACK
6
CONTINUOUS
10
290.512
20
-55.5625
11
271.462
21
-55.5625
0
LINE
8
BLACK
6
CONTINUOUS
10
290.512
20
-36.5125
11
290.512
21
-55.5625
0
LINE
8
BLACK
6
CONTINUOUS
10
271.462
20
-36.5125
11
290.512
21
-36.5125
0
LINE
8
BLACK
6
CONTINUOUS
10
267.637
20
-134
11
268.637
21
-134
0
LINE
8
BLACK
6
CONTINUOUS
10
281.637
20
-120
11
281.637
21
-121
0
LINE
8
BLACK
6
CONTINUOUS
10
267.637
20
-120
11
268.637
21
-120
0
LINE
8
BLACK
6
CONTINUOUS
10
281.637
20
-134
11
281.637
21
-133
0
LINE
8
BLACK
6
CONTINUOUS
10
280.637
20
-134
11
281.637
21
-134
0
LINE
8
BLACK
6
CONTINUOUS
10
267.637
20
-133
11
267.637
21
-134
0
LINE
8
BLACK
6
CONTINUOUS
10
281.637
20
-120
11
280.637
21
-120
0
LINE
8
BLACK
6
CONTINUOUS
10
267.637
20
-121
11
267.637
21
-120
0
LINE
8
BLACK
6
CONTINUOUS
10
265.113
20
-136.525
11
265.113
21
-117.475
0
LINE
8
BLACK
6
CONTINUOUS
10
284.162
20
-136.525
11
265.113
21
-136.525
0
LINE
8
BLACK
6
CONTINUOUS
10
284.162
20
-117.475
11
284.162
21
-136.525
0
LINE
8
BLACK
6
CONTINUOUS
10
265.113
20
-117.475
11
284.162
21
-117.475
0
LINE
8
BLACK
6
CONTINUOUS
10
254.938
20
-106.219
11
255.938
21
-106.219
0
LINE
8
BLACK
6
CONTINUOUS
10
268.938
20
-92.2188
11
268.938
21
-93.2188
0
LINE
8
BLACK
6
CONTINUOUS
10
254.938
20
-92.2188
11
255.938
21
-92.2188
0
LINE
8
BLACK
6
CONTINUOUS
10
268.938
20
-106.219
11
268.938
21
-105.219
0
LINE
8
BLACK
6
CONTINUOUS
10
267.938
20
-106.219
11
268.938
21
-106.219
0
LINE
8
BLACK
6
CONTINUOUS
10
254.938
20
-105.219
11
254.938
21
-106.219
0
LINE
8
BLACK
6
CONTINUOUS
10
268.938
20
-92.2188
11
267.938
21
-92.2188
0
LINE
8
BLACK
6
CONTINUOUS
10
254.938
20
-93.2188
11
254.938
21
-92.2188
0
LINE
8
BLACK
6
CONTINUOUS
10
252.413
20
-108.744
11
252.413
21
-89.6937
0
LINE
8
BLACK
6
CONTINUOUS
10
271.463
20
-108.744
11
252.413
21
-108.744
0
LINE
8
BLACK
6
CONTINUOUS
10
271.463
20
-89.6937
11
271.463
21
-108.744
0
LINE
8
BLACK
6
CONTINUOUS
10
252.413
20
-89.6937
11
271.463
21
-89.6937
0
LINE
8
BLACK
6
CONTINUOUS
10
254.938
20
-87.1687
11
255.938
21
-87.1687
0
LINE
8
BLACK
6
CONTINUOUS
10
268.938
20
-73.1687
11
268.938
21
-74.1687
0
LINE
8
BLACK
6
CONTINUOUS
10
254.938
20
-73.1687
11
255.938
21
-73.1687
0
LINE
8
BLACK
6
CONTINUOUS
10
268.938
20
-87.1687
11
268.938
21
-86.1687
0
LINE
8
BLACK
6
CONTINUOUS
10
267.938
20
-87.1687
11
268.938
21
-87.1687
0
LINE
8
BLACK
6
CONTINUOUS
10
254.938
20
-86.1687
11
254.938
21
-87.1687
0
LINE
8
BLACK
6
CONTINUOUS
10
268.938
20
-73.1687
11
267.938
21
-73.1687
0
LINE
8
BLACK
6
CONTINUOUS
10
254.938
20
-74.1687
11
254.938
21
-73.1687
0
LINE
8
BLACK
6
CONTINUOUS
10
252.413
20
-89.6937
11
252.413
21
-70.6437
0
LINE
8
BLACK
6
CONTINUOUS
10
271.463
20
-89.6937
11
252.413
21
-89.6937
0
LINE
8
BLACK
6
CONTINUOUS
10
271.463
20
-70.6437
11
271.463
21
-89.6937
0
LINE
8
BLACK
6
CONTINUOUS
10
252.413
20
-70.6437
11
271.463
21
-70.6437
0
LINE
8
BLACK
6
CONTINUOUS
10
254.938
20
-68.1188
11
255.938
21
-68.1188
0
LINE
8
BLACK
6
CONTINUOUS
10
268.938
20
-54.1188
11
268.938
21
-55.1188
0
LINE
8
BLACK
6
CONTINUOUS
10
254.938
20
-54.1188
11
255.938
21
-54.1188
0
LINE
8
BLACK
6
CONTINUOUS
10
268.938
20
-68.1188
11
268.938
21
-67.1188
0
LINE
8
BLACK
6
CONTINUOUS
10
267.938
20
-68.1188
11
268.938
21
-68.1188
0
LINE
8
BLACK
6
CONTINUOUS
10
254.938
20
-67.1188
11
254.938
21
-68.1188
0
LINE
8
BLACK
6
CONTINUOUS
10
268.938
20
-54.1188
11
267.938
21
-54.1188
0
LINE
8
BLACK
6
CONTINUOUS
10
254.938
20
-55.1188
11
254.938
21
-54.1188
0
LINE
8
BLACK
6
CONTINUOUS
10
252.412
20
-70.6438
11
252.412
21
-51.5938
0
LINE
8
BLACK
6
CONTINUOUS
10
271.462
20
-70.6438
11
252.412
21
-70.6438
0
LINE
8
BLACK
6
CONTINUOUS
10
271.462
20
-51.5938
11
271.462
21
-70.6438
0
LINE
8
BLACK
6
CONTINUOUS
10
252.412
20
-51.5938
11
271.462
21
-51.5938
0
LINE
8
BLACK
6
CONTINUOUS
10
254.938
20
-49.0687
11
255.938
21
-49.0687
0
LINE
8
BLACK
6
CONTINUOUS
10
268.938
20
-35.0688
11
268.938
21
-36.0688
0
LINE
8
BLACK
6
CONTINUOUS
10
254.938
20
-35.0688
11
255.938
21
-35.0688
0
LINE
8
BLACK
6
CONTINUOUS
10
268.938
20
-49.0687
11
268.938
21
-48.0687
0
LINE
8
BLACK
6
CONTINUOUS
10
267.938
20
-49.0687
11
268.938
21
-49.0687
0
LINE
8
BLACK
6
CONTINUOUS
10
254.938
20
-48.0687
11
254.938
21
-49.0687
0
LINE
8
BLACK
6
CONTINUOUS
10
268.938
20
-35.0688
11
267.938
21
-35.0688
0
LINE
8
BLACK
6
CONTINUOUS
10
254.938
20
-36.0688
11
254.938
21
-35.0688
0
LINE
8
BLACK
6
CONTINUOUS
10
252.413
20
-51.5938
11
252.413
21
-32.5437
0
LINE
8
BLACK
6
CONTINUOUS
10
271.463
20
-51.5938
11
252.413
21
-51.5938
0
LINE
8
BLACK
6
CONTINUOUS
10
271.463
20
-32.5437
11
271.463
21
-51.5938
0
LINE
8
BLACK
6
CONTINUOUS
10
252.413
20
-32.5437
11
271.463
21
-32.5437
0
LINE
8
BLACK
6
CONTINUOUS
10
235.887
20
-110.187
11
236.887
21
-110.187
0
LINE
8
BLACK
6
CONTINUOUS
10
249.887
20
-96.1875
11
249.887
21
-97.1875
0
LINE
8
BLACK
6
CONTINUOUS
10
235.887
20
-96.1875
11
236.887
21
-96.1875
0
LINE
8
BLACK
6
CONTINUOUS
10
249.887
20
-110.187
11
249.887
21
-109.187
0
LINE
8
BLACK
6
CONTINUOUS
10
248.887
20
-110.187
11
249.887
21
-110.187
0
LINE
8
BLACK
6
CONTINUOUS
10
235.887
20
-109.187
11
235.887
21
-110.187
0
LINE
8
BLACK
6
CONTINUOUS
10
249.887
20
-96.1875
11
248.887
21
-96.1875
0
LINE
8
BLACK
6
CONTINUOUS
10
235.887
20
-97.1875
11
235.887
21
-96.1875
0
LINE
8
BLACK
6
CONTINUOUS
10
233.362
20
-112.712
11
233.362
21
-93.6625
0
LINE
8
BLACK
6
CONTINUOUS
10
252.412
20
-112.712
11
233.362
21
-112.712
0
LINE
8
BLACK
6
CONTINUOUS
10
252.412
20
-93.6625
11
252.412
21
-112.712
0
LINE
8
BLACK
6
CONTINUOUS
10
233.362
20
-93.6625
11
252.412
21
-93.6625
0
LINE
8
BLACK
6
CONTINUOUS
10
235.887
20
-91.1375
11
236.887
21
-91.1375
0
LINE
8
BLACK
6
CONTINUOUS
10
249.887
20
-77.1375
11
249.887
21
-78.1375
0
LINE
8
BLACK
6
CONTINUOUS
10
235.887
20
-77.1375
11
236.887
21
-77.1375
0
LINE
8
BLACK
6
CONTINUOUS
10
249.887
20
-91.1375
11
249.887
21
-90.1375
0
LINE
8
BLACK
6
CONTINUOUS
10
248.887
20
-91.1375
11
249.887
21
-91.1375
0
LINE
8
BLACK
6
CONTINUOUS
10
235.887
20
-90.1375
11
235.887
21
-91.1375
0
LINE
8
BLACK
6
CONTINUOUS
10
249.887
20
-77.1375
11
248.887
21
-77.1375
0
LINE
8
BLACK
6
CONTINUOUS
10
235.887
20
-78.1375
11
235.887
21
-77.1375
0
LINE
8
BLACK
6
CONTINUOUS
10
233.362
20
-93.6625
11
233.362
21
-74.6125
0
LINE
8
BLACK
6
CONTINUOUS
10
252.412
20
-93.6625
11
233.362
21
-93.6625
0
LINE
8
BLACK
6
CONTINUOUS
10
252.412
20
-74.6125
11
252.412
21
-93.6625
0
LINE
8
BLACK
6
CONTINUOUS
10
233.362
20
-74.6125
11
252.412
21
-74.6125
0
LINE
8
BLACK
6
CONTINUOUS
10
235.887
20
-72.0875
11
236.887
21
-72.0875
0
LINE
8
BLACK
6
CONTINUOUS
10
249.887
20
-58.0875
11
249.887
21
-59.0875
0
LINE
8
BLACK
6
CONTINUOUS
10
235.887
20
-58.0875
11
236.887
21
-58.0875
0
LINE
8
BLACK
6
CONTINUOUS
10
249.887
20
-72.0875
11
249.887
21
-71.0875
0
LINE
8
BLACK
6
CONTINUOUS
10
248.887
20
-72.0875
11
249.887
21
-72.0875
0
LINE
8
BLACK
6
CONTINUOUS
10
235.887
20
-71.0875
11
235.887
21
-72.0875
0
LINE
8
BLACK
6
CONTINUOUS
10
249.887
20
-58.0875
11
248.887
21
-58.0875
0
LINE
8
BLACK
6
CONTINUOUS
10
235.887
20
-59.0875
11
235.887
21
-58.0875
0
LINE
8
BLACK
6
CONTINUOUS
10
233.362
20
-74.6125
11
233.362
21
-55.5625
0
LINE
8
BLACK
6
CONTINUOUS
10
252.412
20
-74.6125
11
233.362
21
-74.6125
0
LINE
8
BLACK
6
CONTINUOUS
10
252.412
20
-55.5625
11
252.412
21
-74.6125
0
LINE
8
BLACK
6
CONTINUOUS
10
233.362
20
-55.5625
11
252.412
21
-55.5625
0
LINE
8
BLACK
6
CONTINUOUS
10
216.837
20
-134
11
217.837
21
-134
0
LINE
8
BLACK
6
CONTINUOUS
10
230.837
20
-120
11
230.837
21
-121
0
LINE
8
BLACK
6
CONTINUOUS
10
216.837
20
-120
11
217.837
21
-120
0
LINE
8
BLACK
6
CONTINUOUS
10
230.837
20
-134
11
230.837
21
-133
0
LINE
8
BLACK
6
CONTINUOUS
10
229.837
20
-134
11
230.837
21
-134
0
LINE
8
BLACK
6
CONTINUOUS
10
216.837
20
-133
11
216.837
21
-134
0
LINE
8
BLACK
6
CONTINUOUS
10
230.837
20
-120
11
229.837
21
-120
0
LINE
8
BLACK
6
CONTINUOUS
10
216.837
20
-121
11
216.837
21
-120
0
LINE
8
BLACK
6
CONTINUOUS
10
214.312
20
-136.525
11
214.312
21
-117.475
0
LINE
8
BLACK
6
CONTINUOUS
10
233.362
20
-136.525
11
214.312
21
-136.525
0
LINE
8
BLACK
6
CONTINUOUS
10
233.362
20
-117.475
11
233.362
21
-136.525
0
LINE
8
BLACK
6
CONTINUOUS
10
214.312
20
-117.475
11
233.362
21
-117.475
0
LINE
8
BLACK
6
CONTINUOUS
10
216.837
20
-114.95
11
217.837
21
-114.95
0
LINE
8
BLACK
6
CONTINUOUS
10
230.837
20
-100.95
11
230.837
21
-101.95
0
LINE
8
BLACK
6
CONTINUOUS
10
216.837
20
-100.95
11
217.837
21
-100.95
0
LINE
8
BLACK
6
CONTINUOUS
10
230.837
20
-114.95
11
230.837
21
-113.95
0
LINE
8
BLACK
6
CONTINUOUS
10
229.837
20
-114.95
11
230.837
21
-114.95
0
LINE
8
BLACK
6
CONTINUOUS
10
216.837
20
-113.95
11
216.837
21
-114.95
0
LINE
8
BLACK
6
CONTINUOUS
10
230.837
20
-100.95
11
229.837
21
-100.95
0
LINE
8
BLACK
6
CONTINUOUS
10
216.837
20
-101.95
11
216.837
21
-100.95
0
LINE
8
BLACK
6
CONTINUOUS
10
214.312
20
-117.475
11
214.312
21
-98.425
0
LINE
8
BLACK
6
CONTINUOUS
10
233.362
20
-117.475
11
214.312
21
-117.475
0
LINE
8
BLACK
6
CONTINUOUS
10
233.362
20
-98.425
11
233.362
21
-117.475
0
LINE
8
BLACK
6
CONTINUOUS
10
214.312
20
-98.425
11
233.362
21
-98.425
0
LINE
8
BLACK
6
CONTINUOUS
10
216.838
20
-95.9
11
217.838
21
-95.9
0
LINE
8
BLACK
6
CONTINUOUS
10
230.838
20
-81.9
11
230.838
21
-82.9
0
LINE
8
BLACK
6
CONTINUOUS
10
216.838
20
-81.9
11
217.838
21
-81.9
0
LINE
8
BLACK
6
CONTINUOUS
10
230.838
20
-95.9
11
230.838
21
-94.9
0
LINE
8
BLACK
6
CONTINUOUS
10
229.838
20
-95.9
11
230.838
21
-95.9
0
LINE
8
BLACK
6
CONTINUOUS
10
216.838
20
-94.9
11
216.838
21
-95.9
0
LINE
8
BLACK
6
CONTINUOUS
10
230.838
20
-81.9
11
229.838
21
-81.9
0
LINE
8
BLACK
6
CONTINUOUS
10
216.838
20
-82.9
11
216.838
21
-81.9
0
LINE
8
BLACK
6
CONTINUOUS
10
214.313
20
-98.425
11
214.313
21
-79.375
0
LINE
8
BLACK
6
CONTINUOUS
10
233.363
20
-98.425
11
214.313
21
-98.425
0
LINE
8
BLACK
6
CONTINUOUS
10
233.363
20
-79.375
11
233.363
21
-98.425
0
LINE
8
BLACK
6
CONTINUOUS
10
214.313
20
-79.375
11
233.363
21
-79.375
0
LINE
8
BLACK
6
CONTINUOUS
10
216.837
20
-76.85
11
217.837
21
-76.85
0
LINE
8
BLACK
6
CONTINUOUS
10
230.837
20
-62.85
11
230.837
21
-63.85
0
LINE
8
BLACK
6
CONTINUOUS
10
216.837
20
-62.85
11
217.837
21
-62.85
0
LINE
8
BLACK
6
CONTINUOUS
10
230.837
20
-76.85
11
230.837
21
-75.85
0
LINE
8
BLACK
6
CONTINUOUS
10
229.837
20
-76.85
11
230.837
21
-76.85
0
LINE
8
BLACK
6
CONTINUOUS
10
216.837
20
-75.85
11
216.837
21
-76.85
0
LINE
8
BLACK
6
CONTINUOUS
10
230.837
20
-62.85
11
229.837
21
-62.85
0
LINE
8
BLACK
6
CONTINUOUS
10
216.837
20
-63.85
11
216.837
21
-62.85
0
LINE
8
BLACK
6
CONTINUOUS
10
214.312
20
-79.375
11
214.312
21
-60.325
0
LINE
8
BLACK
6
CONTINUOUS
10
233.362
20
-79.375
11
214.312
21
-79.375
0
LINE
8
BLACK
6
CONTINUOUS
10
233.362
20
-60.325
11
233.362
21
-79.375
0
LINE
8
BLACK
6
CONTINUOUS
10
214.312
20
-60.325
11
233.362
21
-60.325
0
LINE
8
BLACK
6
CONTINUOUS
10
216.837
20
-57.8
11
217.837
21
-57.8
0
LINE
8
BLACK
6
CONTINUOUS
10
230.837
20
-43.8
11
230.837
21
-44.8
0
LINE
8
BLACK
6
CONTINUOUS
10
216.837
20
-43.8
11
217.837
21
-43.8
0
LINE
8
BLACK
6
CONTINUOUS
10
230.837
20
-57.8
11
230.837
21
-56.8
0
LINE
8
BLACK
6
CONTINUOUS
10
229.837
20
-57.8
11
230.837
21
-57.8
0
LINE
8
BLACK
6
CONTINUOUS
10
216.837
20
-56.8
11
216.837
21
-57.8
0
LINE
8
BLACK
6
CONTINUOUS
10
230.837
20
-43.8
11
229.837
21
-43.8
0
LINE
8
BLACK
6
CONTINUOUS
10
216.837
20
-44.8
11
216.837
21
-43.8
0
LINE
8
BLACK
6
CONTINUOUS
10
214.312
20
-60.325
11
214.312
21
-41.275
0
LINE
8
BLACK
6
CONTINUOUS
10
233.362
20
-60.325
11
214.312
21
-60.325
0
LINE
8
BLACK
6
CONTINUOUS
10
233.362
20
-41.275
11
233.362
21
-60.325
0
LINE
8
BLACK
6
CONTINUOUS
10
214.312
20
-41.275
11
233.362
21
-41.275
0
LINE
8
BLACK
6
CONTINUOUS
10
197.788
20
-134
11
198.788
21
-134
0
LINE
8
BLACK
6
CONTINUOUS
10
211.788
20
-120
11
211.788
21
-121
0
LINE
8
BLACK
6
CONTINUOUS
10
197.788
20
-120
11
198.788
21
-120
0
LINE
8
BLACK
6
CONTINUOUS
10
211.788
20
-134
11
211.788
21
-133
0
LINE
8
BLACK
6
CONTINUOUS
10
210.788
20
-134
11
211.788
21
-134
0
LINE
8
BLACK
6
CONTINUOUS
10
197.788
20
-133
11
197.788
21
-134
0
LINE
8
BLACK
6
CONTINUOUS
10
211.788
20
-120
11
210.788
21
-120
0
LINE
8
BLACK
6
CONTINUOUS
10
197.788
20
-121
11
197.788
21
-120
0
LINE
8
BLACK
6
CONTINUOUS
10
195.263
20
-136.525
11
195.263
21
-117.475
0
LINE
8
BLACK
6
CONTINUOUS
10
214.313
20
-136.525
11
195.263
21
-136.525
0
LINE
8
BLACK
6
CONTINUOUS
10
214.313
20
-117.475
11
214.313
21
-136.525
0
LINE
8
BLACK
6
CONTINUOUS
10
195.263
20
-117.475
11
214.313
21
-117.475
0
LINE
8
BLACK
6
CONTINUOUS
10
197.788
20
-114.95
11
198.788
21
-114.95
0
LINE
8
BLACK
6
CONTINUOUS
10
211.788
20
-100.95
11
211.788
21
-101.95
0
LINE
8
BLACK
6
CONTINUOUS
10
197.788
20
-100.95
11
198.788
21
-100.95
0
LINE
8
BLACK
6
CONTINUOUS
10
211.788
20
-114.95
11
211.788
21
-113.95
0
LINE
8
BLACK
6
CONTINUOUS
10
210.788
20
-114.95
11
211.788
21
-114.95
0
LINE
8
BLACK
6
CONTINUOUS
10
197.788
20
-113.95
11
197.788
21
-114.95
0
LINE
8
BLACK
6
CONTINUOUS
10
211.788
20
-100.95
11
210.788
21
-100.95
0
LINE
8
BLACK
6
CONTINUOUS
10
197.788
20
-101.95
11
197.788
21
-100.95
0
LINE
8
BLACK
6
CONTINUOUS
10
195.263
20
-117.475
11
195.263
21
-98.425
0
LINE
8
BLACK
6
CONTINUOUS
10
214.313
20
-117.475
11
195.263
21
-117.475
0
LINE
8
BLACK
6
CONTINUOUS
10
214.313
20
-98.425
11
214.313
21
-117.475
0
LINE
8
BLACK
6
CONTINUOUS
10
195.263
20
-98.425
11
214.313
21
-98.425
0
LINE
8
BLACK
6
CONTINUOUS
10
197.788
20
-95.9
11
198.788
21
-95.9
0
LINE
8
BLACK
6
CONTINUOUS
10
211.788
20
-81.9
11
211.788
21
-82.9
0
LINE
8
BLACK
6
CONTINUOUS
10
197.788
20
-81.9
11
198.788
21
-81.9
0
LINE
8
BLACK
6
CONTINUOUS
10
211.788
20
-95.9
11
211.788
21
-94.9
0
LINE
8
BLACK
6
CONTINUOUS
10
210.788
20
-95.9
11
211.788
21
-95.9
0
LINE
8
BLACK
6
CONTINUOUS
10
197.788
20
-94.9
11
197.788
21
-95.9
0
LINE
8
BLACK
6
CONTINUOUS
10
211.788
20
-81.9
11
210.788
21
-81.9
0
LINE
8
BLACK
6
CONTINUOUS
10
197.788
20
-82.9
11
197.788
21
-81.9
0
LINE
8
BLACK
6
CONTINUOUS
10
195.263
20
-98.425
11
195.263
21
-79.375
0
LINE
8
BLACK
6
CONTINUOUS
10
214.313
20
-98.425
11
195.263
21
-98.425
0
LINE
8
BLACK
6
CONTINUOUS
10
214.313
20
-79.375
11
214.313
21
-98.425
0
LINE
8
BLACK
6
CONTINUOUS
10
195.263
20
-79.375
11
214.313
21
-79.375
0
LINE
8
BLACK
6
CONTINUOUS
10
197.787
20
-76.85
11
198.787
21
-76.85
0
LINE
8
BLACK
6
CONTINUOUS
10
211.787
20
-62.85
11
211.787
21
-63.85
0
LINE
8
BLACK
6
CONTINUOUS
10
197.787
20
-62.85
11
198.787
21
-62.85
0
LINE
8
BLACK
6
CONTINUOUS
10
211.787
20
-76.85
11
211.787
21
-75.85
0
LINE
8
BLACK
6
CONTINUOUS
10
210.787
20
-76.85
11
211.787
21
-76.85
0
LINE
8
BLACK
6
CONTINUOUS
10
197.787
20
-75.85
11
197.787
21
-76.85
0
LINE
8
BLACK
6
CONTINUOUS
10
211.787
20
-62.85
11
210.787
21
-62.85
0
LINE
8
BLACK
6
CONTINUOUS
10
197.787
20
-63.85
11
197.787
21
-62.85
0
LINE
8
BLACK
6
CONTINUOUS
10
195.262
20
-79.375
11
195.262
21
-60.325
0
LINE
8
BLACK
6
CONTINUOUS
10
214.312
20
-79.375
11
195.262
21
-79.375
0
LINE
8
BLACK
6
CONTINUOUS
10
214.312
20
-60.325
11
214.312
21
-79.375
0
LINE
8
BLACK
6
CONTINUOUS
10
195.262
20
-60.325
11
214.312
21
-60.325
0
LINE
8
BLACK
6
CONTINUOUS
10
338.337
20
-91.0438
11
338.337
21
-81.9937
0
LINE
8
BLACK
6
CONTINUOUS
10
331.738
20
-91.0438
11
331.738
21
-81.9937
0
LINE
8
BLACK
6
CONTINUOUS
10
338.337
20
-81.9937
11
331.738
21
-81.9937
0
LINE
8
BLACK
6
CONTINUOUS
10
338.337
20
-91.0438
11
331.738
21
-91.0438
0
LINE
8
BLACK
6
CONTINUOUS
10
50.6
20
-81.9937
11
50.6
21
-91.0438
0
LINE
8
BLACK
6
CONTINUOUS
10
57.2
20
-81.9937
11
57.2
21
-91.0438
0
LINE
8
BLACK
6
CONTINUOUS
10
50.6
20
-91.0438
11
57.2
21
-91.0438
0
LINE
8
BLACK
6
CONTINUOUS
10
50.6
20
-81.9937
11
57.2
21
-81.9937
0
LINE
8
BLACK
6
CONTINUOUS
10
68.961
20
-29.6085
11
68.961
21
-34.6885
0
LINE
8
BLACK
6
CONTINUOUS
10
61.595
20
-29.6085
11
68.961
21
-29.6085
0
LINE
8
BLACK
6
CONTINUOUS
10
61.595
20
-34.6885
11
61.595
21
-29.6085
0
LINE
8
BLACK
6
CONTINUOUS
10
68.961
20
-34.6885
11
61.595
21
-34.6885
0
LINE
8
BLACK
6
CONTINUOUS
10
327.089
20
-29.7672
11
327.089
21
-34.8472
0
LINE
8
BLACK
6
CONTINUOUS
10
319.722
20
-29.7672
11
327.089
21
-29.7672
0
LINE
8
BLACK
6
CONTINUOUS
10
319.722
20
-34.8472
11
319.722
21
-29.7672
0
LINE
8
BLACK
6
CONTINUOUS
10
327.089
20
-34.8472
11
319.722
21
-34.8472
0
LINE
8
BLACK
6
CONTINUOUS
10
335.78
20
-85.9235
11
335.733
21
-85.8759
0
LINE
8
BLACK
6
CONTINUOUS
10
335.733
20
-85.8759
11
335.685
21
-85.733
0
LINE
8
BLACK
6
CONTINUOUS
10
335.685
20
-85.733
11
335.685
21
-85.6378
0
LINE
8
BLACK
6
CONTINUOUS
10
335.685
20
-85.6378
11
335.733
21
-85.4949
0
LINE
8
BLACK
6
CONTINUOUS
10
335.733
20
-85.4949
11
335.828
21
-85.3997
0
LINE
8
BLACK
6
CONTINUOUS
10
335.828
20
-85.3997
11
335.923
21
-85.3521
0
LINE
8
BLACK
6
CONTINUOUS
10
335.923
20
-85.3521
11
336.114
21
-85.3045
0
LINE
8
BLACK
6
CONTINUOUS
10
336.114
20
-85.3045
11
336.257
21
-85.3045
0
LINE
8
BLACK
6
CONTINUOUS
10
336.257
20
-85.3045
11
336.447
21
-85.3521
0
LINE
8
BLACK
6
CONTINUOUS
10
336.447
20
-85.3521
11
336.542
21
-85.3997
0
LINE
8
BLACK
6
CONTINUOUS
10
336.542
20
-85.3997
11
336.637
21
-85.4949
0
LINE
8
BLACK
6
CONTINUOUS
10
336.637
20
-85.4949
11
336.685
21
-85.6378
0
LINE
8
BLACK
6
CONTINUOUS
10
336.685
20
-85.6378
11
336.685
21
-85.733
0
LINE
8
BLACK
6
CONTINUOUS
10
336.685
20
-85.733
11
336.637
21
-85.8759
0
LINE
8
BLACK
6
CONTINUOUS
10
336.637
20
-85.8759
11
336.59
21
-85.9235
0
LINE
8
BLACK
6
CONTINUOUS
10
336.685
20
-86.3521
11
335.876
21
-86.3521
0
LINE
8
BLACK
6
CONTINUOUS
10
335.876
20
-86.3521
11
335.78
21
-86.3997
0
LINE
8
BLACK
6
CONTINUOUS
10
335.78
20
-86.3997
11
335.733
21
-86.4473
0
LINE
8
BLACK
6
CONTINUOUS
10
335.733
20
-86.4473
11
335.685
21
-86.5426
0
LINE
8
BLACK
6
CONTINUOUS
10
335.685
20
-86.5426
11
335.685
21
-86.733
0
LINE
8
BLACK
6
CONTINUOUS
10
335.685
20
-86.733
11
335.733
21
-86.8283
0
LINE
8
BLACK
6
CONTINUOUS
10
335.733
20
-86.8283
11
335.78
21
-86.8759
0
LINE
8
BLACK
6
CONTINUOUS
10
335.78
20
-86.8759
11
335.876
21
-86.9235
0
LINE
8
BLACK
6
CONTINUOUS
10
335.876
20
-86.9235
11
336.685
21
-86.9235
0
LINE
8
BLACK
6
CONTINUOUS
10
336.685
20
-87.2568
11
336.685
21
-87.8283
0
LINE
8
BLACK
6
CONTINUOUS
10
335.685
20
-87.5426
11
336.685
21
-87.5426
0
LINE
8
BLACK
6
CONTINUOUS
10
53.1571
20
-87.114
11
53.2048
21
-87.1616
0
LINE
8
BLACK
6
CONTINUOUS
10
53.2048
20
-87.1616
11
53.2524
21
-87.3045
0
LINE
8
BLACK
6
CONTINUOUS
10
53.2524
20
-87.3045
11
53.2524
21
-87.3997
0
LINE
8
BLACK
6
CONTINUOUS
10
53.2524
20
-87.3997
11
53.2048
21
-87.5426
0
LINE
8
BLACK
6
CONTINUOUS
10
53.2048
20
-87.5426
11
53.1095
21
-87.6378
0
LINE
8
BLACK
6
CONTINUOUS
10
53.1095
20
-87.6378
11
53.0143
21
-87.6854
0
LINE
8
BLACK
6
CONTINUOUS
10
53.0143
20
-87.6854
11
52.8238
21
-87.733
0
LINE
8
BLACK
6
CONTINUOUS
10
52.8238
20
-87.733
11
52.681
21
-87.733
0
LINE
8
BLACK
6
CONTINUOUS
10
52.681
20
-87.733
11
52.4905
21
-87.6854
0
LINE
8
BLACK
6
CONTINUOUS
10
52.4905
20
-87.6854
11
52.3952
21
-87.6378
0
LINE
8
BLACK
6
CONTINUOUS
10
52.3952
20
-87.6378
11
52.3
21
-87.5426
0
LINE
8
BLACK
6
CONTINUOUS
10
52.3
20
-87.5426
11
52.2524
21
-87.3997
0
LINE
8
BLACK
6
CONTINUOUS
10
52.2524
20
-87.3997
11
52.2524
21
-87.3045
0
LINE
8
BLACK
6
CONTINUOUS
10
52.2524
20
-87.3045
11
52.3
21
-87.1616
0
LINE
8
BLACK
6
CONTINUOUS
10
52.3
20
-87.1616
11
52.3476
21
-87.114
0
LINE
8
BLACK
6
CONTINUOUS
10
52.2524
20
-86.6854
11
53.0619
21
-86.6854
0
LINE
8
BLACK
6
CONTINUOUS
10
53.0619
20
-86.6854
11
53.1571
21
-86.6378
0
LINE
8
BLACK
6
CONTINUOUS
10
53.1571
20
-86.6378
11
53.2048
21
-86.5902
0
LINE
8
BLACK
6
CONTINUOUS
10
53.2048
20
-86.5902
11
53.2524
21
-86.4949
0
LINE
8
BLACK
6
CONTINUOUS
10
53.2524
20
-86.4949
11
53.2524
21
-86.3045
0
LINE
8
BLACK
6
CONTINUOUS
10
53.2524
20
-86.3045
11
53.2048
21
-86.2092
0
LINE
8
BLACK
6
CONTINUOUS
10
53.2048
20
-86.2092
11
53.1571
21
-86.1616
0
LINE
8
BLACK
6
CONTINUOUS
10
53.1571
20
-86.1616
11
53.0619
21
-86.114
0
LINE
8
BLACK
6
CONTINUOUS
10
53.0619
20
-86.114
11
52.2524
21
-86.114
0
LINE
8
BLACK
6
CONTINUOUS
10
52.2524
20
-85.7807
11
52.2524
21
-85.2092
0
LINE
8
BLACK
6
CONTINUOUS
10
53.2524
20
-85.4949
11
52.2524
21
-85.4949
  0
ENDSEC
  0
EOF
