  0
SECTION
  2
HEADER
  9
$ANGBASE
  50
0.0
  9
$ANGDIR
  70
1
  9
$MEASUREMENT
  70
1
  0
ENDSEC
  0
SECTION
  2
TABLES
  0
TABLE
  2
LTYPE
  70
4
  0
LTYPE
  5
40F
  2
CONTINUOUS
  70
0
  3
Solid line
  72
65
  73
0
  40
0.0
  0
LTYPE
  5
410
  2
DASHDOT
 70
0
  3
Dash Dot ____ _ ____ _
 72
65
 73
4
 40
2.0
 49
1.25
 49
-0.25
 49
0.25
 49
-0.25
  0
LTYPE
  5
411
  2
DASHED
 70
0
  3
Dashed __ __ __ __ __
 72
65
 73
2
 40
0.75
 49
0.5
 49
-0.25
  0
LTYPE
  5
43B
  2
DOTTED
 70
0
  3
Dotted .  .  .  .
 72
65
 73
2
 40
0.2
 49
0.0
 49
-0.2
  0
ENDTAB
  0
TABLE
  2
STYLE
  70
4
  0
STYLE
  2
KICAD
  70
0
  40
0
  41
1
  42
1
  50
0
  71
0
  3
isocp.shx
  0
STYLE
  2
KICADB
  70
0
  40
0
  41
1
  42
1
  50
0
  71
0
  3
isocp.shx
  0
STYLE
  2
KICADI
  70
0
  40
0
  41
1
  42
1
  50
15
  71
0
  3
isocp.shx
  0
STYLE
  2
KICADBI
  70
0
  40
0
  41
1
  42
1
  50
15
  71
0
  3
isocp.shx
  0
ENDTAB
  0
TABLE
  2
LAYER
  70
1
  0
LAYER
  2
BLACK
  70
0
  62
7
  6
CONTINUOUS
  0
ENDTAB
  0
ENDSEC
  0
SECTION
  2
ENTITIES
0
LINE
8
BLACK
6
CONTINUOUS
10
302.74
20
-139.436
11
302.94
21
-139.519
0
LINE
8
BLACK
6
CONTINUOUS
10
302.94
20
-139.519
11
303.12
21
-139.639
0
LINE
8
BLACK
6
CONTINUOUS
10
303.12
20
-139.639
11
303.273
21
-139.793
0
LINE
8
BLACK
6
CONTINUOUS
10
303.273
20
-139.793
11
303.394
21
-139.973
0
LINE
8
BLACK
6
CONTINUOUS
10
303.394
20
-139.973
11
303.476
21
-140.173
0
LINE
8
BLACK
6
CONTINUOUS
10
303.476
20
-140.173
11
303.519
21
-140.385
0
LINE
8
BLACK
6
CONTINUOUS
10
303.519
20
-140.385
11
303.519
21
-140.602
0
LINE
8
BLACK
6
CONTINUOUS
10
303.519
20
-140.602
11
303.476
21
-140.815
0
LINE
8
BLACK
6
CONTINUOUS
10
303.476
20
-140.815
11
303.394
21
-141.015
0
LINE
8
BLACK
6
CONTINUOUS
10
303.394
20
-141.015
11
303.273
21
-141.195
0
LINE
8
BLACK
6
CONTINUOUS
10
303.273
20
-141.195
11
303.12
21
-141.348
0
LINE
8
BLACK
6
CONTINUOUS
10
303.12
20
-141.348
11
302.94
21
-141.469
0
LINE
8
BLACK
6
CONTINUOUS
10
302.94
20
-141.469
11
302.74
21
-141.551
0
LINE
8
BLACK
6
CONTINUOUS
10
302.74
20
-141.551
11
302.527
21
-141.594
0
LINE
8
BLACK
6
CONTINUOUS
10
302.527
20
-141.594
11
302.31
21
-141.594
0
LINE
8
BLACK
6
CONTINUOUS
10
302.31
20
-141.594
11
302.098
21
-141.551
0
LINE
8
BLACK
6
CONTINUOUS
10
302.098
20
-141.551
11
301.898
21
-141.469
0
LINE
8
BLACK
6
CONTINUOUS
10
301.898
20
-141.469
11
301.718
21
-141.348
0
LINE
8
BLACK
6
CONTINUOUS
10
301.718
20
-141.348
11
301.564
21
-141.195
0
LINE
8
BLACK
6
CONTINUOUS
10
301.564
20
-141.195
11
301.444
21
-141.015
0
LINE
8
BLACK
6
CONTINUOUS
10
301.444
20
-141.015
11
301.361
21
-140.815
0
LINE
8
BLACK
6
CONTINUOUS
10
301.361
20
-140.815
11
301.319
21
-140.602
0
LINE
8
BLACK
6
CONTINUOUS
10
301.319
20
-140.602
11
301.319
21
-140.385
0
LINE
8
BLACK
6
CONTINUOUS
10
301.319
20
-140.385
11
301.361
21
-140.173
0
LINE
8
BLACK
6
CONTINUOUS
10
301.361
20
-140.173
11
301.444
21
-139.973
0
LINE
8
BLACK
6
CONTINUOUS
10
301.444
20
-139.973
11
301.564
21
-139.793
0
LINE
8
BLACK
6
CONTINUOUS
10
301.564
20
-139.793
11
301.718
21
-139.639
0
LINE
8
BLACK
6
CONTINUOUS
10
301.718
20
-139.639
11
301.898
21
-139.519
0
LINE
8
BLACK
6
CONTINUOUS
10
301.898
20
-139.519
11
302.098
21
-139.436
0
LINE
8
BLACK
6
CONTINUOUS
10
302.098
20
-139.436
11
302.31
21
-139.394
0
LINE
8
BLACK
6
CONTINUOUS
10
302.31
20
-139.394
11
302.527
21
-139.394
0
LINE
8
BLACK
6
CONTINUOUS
10
302.527
20
-139.394
11
302.74
21
-139.436
0
LINE
8
BLACK
6
CONTINUOUS
10
174.946
20
-116.417
11
175.146
21
-116.5
0
LINE
8
BLACK
6
CONTINUOUS
10
175.146
20
-116.5
11
175.326
21
-116.621
0
LINE
8
BLACK
6
CONTINUOUS
10
175.326
20
-116.621
11
175.479
21
-116.774
0
LINE
8
BLACK
6
CONTINUOUS
10
175.479
20
-116.774
11
175.6
21
-116.954
0
LINE
8
BLACK
6
CONTINUOUS
10
175.6
20
-116.954
11
175.683
21
-117.154
0
LINE
8
BLACK
6
CONTINUOUS
10
175.683
20
-117.154
11
175.725
21
-117.367
0
LINE
8
BLACK
6
CONTINUOUS
10
175.725
20
-117.367
11
175.725
21
-117.583
0
LINE
8
BLACK
6
CONTINUOUS
10
175.725
20
-117.583
11
175.683
21
-117.796
0
LINE
8
BLACK
6
CONTINUOUS
10
175.683
20
-117.796
11
175.6
21
-117.996
0
LINE
8
BLACK
6
CONTINUOUS
10
175.6
20
-117.996
11
175.479
21
-118.176
0
LINE
8
BLACK
6
CONTINUOUS
10
175.479
20
-118.176
11
175.326
21
-118.329
0
LINE
8
BLACK
6
CONTINUOUS
10
175.326
20
-118.329
11
175.146
21
-118.45
0
LINE
8
BLACK
6
CONTINUOUS
10
175.146
20
-118.45
11
174.946
21
-118.533
0
LINE
8
BLACK
6
CONTINUOUS
10
174.946
20
-118.533
11
174.733
21
-118.575
0
LINE
8
BLACK
6
CONTINUOUS
10
174.733
20
-118.575
11
174.517
21
-118.575
0
LINE
8
BLACK
6
CONTINUOUS
10
174.517
20
-118.575
11
174.304
21
-118.533
0
LINE
8
BLACK
6
CONTINUOUS
10
174.304
20
-118.533
11
174.104
21
-118.45
0
LINE
8
BLACK
6
CONTINUOUS
10
174.104
20
-118.45
11
173.924
21
-118.329
0
LINE
8
BLACK
6
CONTINUOUS
10
173.924
20
-118.329
11
173.771
21
-118.176
0
LINE
8
BLACK
6
CONTINUOUS
10
173.771
20
-118.176
11
173.65
21
-117.996
0
LINE
8
BLACK
6
CONTINUOUS
10
173.65
20
-117.996
11
173.567
21
-117.796
0
LINE
8
BLACK
6
CONTINUOUS
10
173.567
20
-117.796
11
173.525
21
-117.583
0
LINE
8
BLACK
6
CONTINUOUS
10
173.525
20
-117.583
11
173.525
21
-117.367
0
LINE
8
BLACK
6
CONTINUOUS
10
173.525
20
-117.367
11
173.567
21
-117.154
0
LINE
8
BLACK
6
CONTINUOUS
10
173.567
20
-117.154
11
173.65
21
-116.954
0
LINE
8
BLACK
6
CONTINUOUS
10
173.65
20
-116.954
11
173.771
21
-116.774
0
LINE
8
BLACK
6
CONTINUOUS
10
173.771
20
-116.774
11
173.924
21
-116.621
0
LINE
8
BLACK
6
CONTINUOUS
10
173.924
20
-116.621
11
174.104
21
-116.5
0
LINE
8
BLACK
6
CONTINUOUS
10
174.104
20
-116.5
11
174.304
21
-116.417
0
LINE
8
BLACK
6
CONTINUOUS
10
174.304
20
-116.417
11
174.517
21
-116.375
0
LINE
8
BLACK
6
CONTINUOUS
10
174.517
20
-116.375
11
174.733
21
-116.375
0
LINE
8
BLACK
6
CONTINUOUS
10
174.733
20
-116.375
11
174.946
21
-116.417
0
LINE
8
BLACK
6
CONTINUOUS
10
214.633
20
-116.417
11
214.834
21
-116.5
0
LINE
8
BLACK
6
CONTINUOUS
10
214.834
20
-116.5
11
215.014
21
-116.621
0
LINE
8
BLACK
6
CONTINUOUS
10
215.014
20
-116.621
11
215.167
21
-116.774
0
LINE
8
BLACK
6
CONTINUOUS
10
215.167
20
-116.774
11
215.287
21
-116.954
0
LINE
8
BLACK
6
CONTINUOUS
10
215.287
20
-116.954
11
215.37
21
-117.154
0
LINE
8
BLACK
6
CONTINUOUS
10
215.37
20
-117.154
11
215.412
21
-117.367
0
LINE
8
BLACK
6
CONTINUOUS
10
215.412
20
-117.367
11
215.412
21
-117.583
0
LINE
8
BLACK
6
CONTINUOUS
10
215.412
20
-117.583
11
215.37
21
-117.796
0
LINE
8
BLACK
6
CONTINUOUS
10
215.37
20
-117.796
11
215.287
21
-117.996
0
LINE
8
BLACK
6
CONTINUOUS
10
215.287
20
-117.996
11
215.167
21
-118.176
0
LINE
8
BLACK
6
CONTINUOUS
10
215.167
20
-118.176
11
215.014
21
-118.329
0
LINE
8
BLACK
6
CONTINUOUS
10
215.014
20
-118.329
11
214.834
21
-118.45
0
LINE
8
BLACK
6
CONTINUOUS
10
214.834
20
-118.45
11
214.633
21
-118.533
0
LINE
8
BLACK
6
CONTINUOUS
10
214.633
20
-118.533
11
214.421
21
-118.575
0
LINE
8
BLACK
6
CONTINUOUS
10
214.421
20
-118.575
11
214.204
21
-118.575
0
LINE
8
BLACK
6
CONTINUOUS
10
214.204
20
-118.575
11
213.992
21
-118.533
0
LINE
8
BLACK
6
CONTINUOUS
10
213.992
20
-118.533
11
213.791
21
-118.45
0
LINE
8
BLACK
6
CONTINUOUS
10
213.791
20
-118.45
11
213.611
21
-118.329
0
LINE
8
BLACK
6
CONTINUOUS
10
213.611
20
-118.329
11
213.458
21
-118.176
0
LINE
8
BLACK
6
CONTINUOUS
10
213.458
20
-118.176
11
213.338
21
-117.996
0
LINE
8
BLACK
6
CONTINUOUS
10
213.338
20
-117.996
11
213.255
21
-117.796
0
LINE
8
BLACK
6
CONTINUOUS
10
213.255
20
-117.796
11
213.212
21
-117.583
0
LINE
8
BLACK
6
CONTINUOUS
10
213.212
20
-117.583
11
213.212
21
-117.367
0
LINE
8
BLACK
6
CONTINUOUS
10
213.212
20
-117.367
11
213.255
21
-117.154
0
LINE
8
BLACK
6
CONTINUOUS
10
213.255
20
-117.154
11
213.338
21
-116.954
0
LINE
8
BLACK
6
CONTINUOUS
10
213.338
20
-116.954
11
213.458
21
-116.774
0
LINE
8
BLACK
6
CONTINUOUS
10
213.458
20
-116.774
11
213.611
21
-116.621
0
LINE
8
BLACK
6
CONTINUOUS
10
213.611
20
-116.621
11
213.791
21
-116.5
0
LINE
8
BLACK
6
CONTINUOUS
10
213.791
20
-116.5
11
213.992
21
-116.417
0
LINE
8
BLACK
6
CONTINUOUS
10
213.992
20
-116.417
11
214.204
21
-116.375
0
LINE
8
BLACK
6
CONTINUOUS
10
214.204
20
-116.375
11
214.421
21
-116.375
0
LINE
8
BLACK
6
CONTINUOUS
10
214.421
20
-116.375
11
214.633
21
-116.417
0
LINE
8
BLACK
6
CONTINUOUS
10
117.796
20
-111.655
11
117.996
21
-111.738
0
LINE
8
BLACK
6
CONTINUOUS
10
117.996
20
-111.738
11
118.176
21
-111.858
0
LINE
8
BLACK
6
CONTINUOUS
10
118.176
20
-111.858
11
118.329
21
-112.011
0
LINE
8
BLACK
6
CONTINUOUS
10
118.329
20
-112.011
11
118.45
21
-112.191
0
LINE
8
BLACK
6
CONTINUOUS
10
118.45
20
-112.191
11
118.533
21
-112.392
0
LINE
8
BLACK
6
CONTINUOUS
10
118.533
20
-112.392
11
118.575
21
-112.604
0
LINE
8
BLACK
6
CONTINUOUS
10
118.575
20
-112.604
11
118.575
21
-112.821
0
LINE
8
BLACK
6
CONTINUOUS
10
118.575
20
-112.821
11
118.533
21
-113.033
0
LINE
8
BLACK
6
CONTINUOUS
10
118.533
20
-113.033
11
118.45
21
-113.234
0
LINE
8
BLACK
6
CONTINUOUS
10
118.45
20
-113.234
11
118.329
21
-113.414
0
LINE
8
BLACK
6
CONTINUOUS
10
118.329
20
-113.414
11
118.176
21
-113.567
0
LINE
8
BLACK
6
CONTINUOUS
10
118.176
20
-113.567
11
117.996
21
-113.687
0
LINE
8
BLACK
6
CONTINUOUS
10
117.996
20
-113.687
11
117.796
21
-113.77
0
LINE
8
BLACK
6
CONTINUOUS
10
117.796
20
-113.77
11
117.583
21
-113.812
0
LINE
8
BLACK
6
CONTINUOUS
10
117.583
20
-113.812
11
117.367
21
-113.812
0
LINE
8
BLACK
6
CONTINUOUS
10
117.367
20
-113.812
11
117.154
21
-113.77
0
LINE
8
BLACK
6
CONTINUOUS
10
117.154
20
-113.77
11
116.954
21
-113.687
0
LINE
8
BLACK
6
CONTINUOUS
10
116.954
20
-113.687
11
116.774
21
-113.567
0
LINE
8
BLACK
6
CONTINUOUS
10
116.774
20
-113.567
11
116.621
21
-113.414
0
LINE
8
BLACK
6
CONTINUOUS
10
116.621
20
-113.414
11
116.5
21
-113.234
0
LINE
8
BLACK
6
CONTINUOUS
10
116.5
20
-113.234
11
116.417
21
-113.033
0
LINE
8
BLACK
6
CONTINUOUS
10
116.417
20
-113.033
11
116.375
21
-112.821
0
LINE
8
BLACK
6
CONTINUOUS
10
116.375
20
-112.821
11
116.375
21
-112.604
0
LINE
8
BLACK
6
CONTINUOUS
10
116.375
20
-112.604
11
116.417
21
-112.392
0
LINE
8
BLACK
6
CONTINUOUS
10
116.417
20
-112.392
11
116.5
21
-112.191
0
LINE
8
BLACK
6
CONTINUOUS
10
116.5
20
-112.191
11
116.621
21
-112.011
0
LINE
8
BLACK
6
CONTINUOUS
10
116.621
20
-112.011
11
116.774
21
-111.858
0
LINE
8
BLACK
6
CONTINUOUS
10
116.774
20
-111.858
11
116.954
21
-111.738
0
LINE
8
BLACK
6
CONTINUOUS
10
116.954
20
-111.738
11
117.154
21
-111.655
0
LINE
8
BLACK
6
CONTINUOUS
10
117.154
20
-111.655
11
117.367
21
-111.612
0
LINE
8
BLACK
6
CONTINUOUS
10
117.367
20
-111.612
11
117.583
21
-111.612
0
LINE
8
BLACK
6
CONTINUOUS
10
117.583
20
-111.612
11
117.796
21
-111.655
0
LINE
8
BLACK
6
CONTINUOUS
10
271.783
20
-111.655
11
271.984
21
-111.738
0
LINE
8
BLACK
6
CONTINUOUS
10
271.984
20
-111.738
11
272.164
21
-111.858
0
LINE
8
BLACK
6
CONTINUOUS
10
272.164
20
-111.858
11
272.317
21
-112.011
0
LINE
8
BLACK
6
CONTINUOUS
10
272.317
20
-112.011
11
272.437
21
-112.191
0
LINE
8
BLACK
6
CONTINUOUS
10
272.437
20
-112.191
11
272.52
21
-112.392
0
LINE
8
BLACK
6
CONTINUOUS
10
272.52
20
-112.392
11
272.562
21
-112.604
0
LINE
8
BLACK
6
CONTINUOUS
10
272.562
20
-112.604
11
272.562
21
-112.821
0
LINE
8
BLACK
6
CONTINUOUS
10
272.562
20
-112.821
11
272.52
21
-113.033
0
LINE
8
BLACK
6
CONTINUOUS
10
272.52
20
-113.033
11
272.437
21
-113.234
0
LINE
8
BLACK
6
CONTINUOUS
10
272.437
20
-113.234
11
272.317
21
-113.414
0
LINE
8
BLACK
6
CONTINUOUS
10
272.317
20
-113.414
11
272.164
21
-113.567
0
LINE
8
BLACK
6
CONTINUOUS
10
272.164
20
-113.567
11
271.984
21
-113.687
0
LINE
8
BLACK
6
CONTINUOUS
10
271.984
20
-113.687
11
271.783
21
-113.77
0
LINE
8
BLACK
6
CONTINUOUS
10
271.783
20
-113.77
11
271.571
21
-113.812
0
LINE
8
BLACK
6
CONTINUOUS
10
271.571
20
-113.812
11
271.354
21
-113.812
0
LINE
8
BLACK
6
CONTINUOUS
10
271.354
20
-113.812
11
271.142
21
-113.77
0
LINE
8
BLACK
6
CONTINUOUS
10
271.142
20
-113.77
11
270.941
21
-113.687
0
LINE
8
BLACK
6
CONTINUOUS
10
270.941
20
-113.687
11
270.761
21
-113.567
0
LINE
8
BLACK
6
CONTINUOUS
10
270.761
20
-113.567
11
270.608
21
-113.414
0
LINE
8
BLACK
6
CONTINUOUS
10
270.608
20
-113.414
11
270.488
21
-113.234
0
LINE
8
BLACK
6
CONTINUOUS
10
270.488
20
-113.234
11
270.405
21
-113.033
0
LINE
8
BLACK
6
CONTINUOUS
10
270.405
20
-113.033
11
270.363
21
-112.821
0
LINE
8
BLACK
6
CONTINUOUS
10
270.363
20
-112.821
11
270.363
21
-112.604
0
LINE
8
BLACK
6
CONTINUOUS
10
270.363
20
-112.604
11
270.405
21
-112.392
0
LINE
8
BLACK
6
CONTINUOUS
10
270.405
20
-112.392
11
270.488
21
-112.191
0
LINE
8
BLACK
6
CONTINUOUS
10
270.488
20
-112.191
11
270.608
21
-112.011
0
LINE
8
BLACK
6
CONTINUOUS
10
270.608
20
-112.011
11
270.761
21
-111.858
0
LINE
8
BLACK
6
CONTINUOUS
10
270.761
20
-111.858
11
270.941
21
-111.738
0
LINE
8
BLACK
6
CONTINUOUS
10
270.941
20
-111.738
11
271.142
21
-111.655
0
LINE
8
BLACK
6
CONTINUOUS
10
271.142
20
-111.655
11
271.354
21
-111.612
0
LINE
8
BLACK
6
CONTINUOUS
10
271.354
20
-111.612
11
271.571
21
-111.612
0
LINE
8
BLACK
6
CONTINUOUS
10
271.571
20
-111.612
11
271.783
21
-111.655
0
LINE
8
BLACK
6
CONTINUOUS
10
56.6771
20
-102.13
11
56.8773
21
-102.213
0
LINE
8
BLACK
6
CONTINUOUS
10
56.8773
20
-102.213
11
57.0575
21
-102.333
0
LINE
8
BLACK
6
CONTINUOUS
10
57.0575
20
-102.333
11
57.2107
21
-102.486
0
LINE
8
BLACK
6
CONTINUOUS
10
57.2107
20
-102.486
11
57.3311
21
-102.666
0
LINE
8
BLACK
6
CONTINUOUS
10
57.3311
20
-102.666
11
57.414
21
-102.867
0
LINE
8
BLACK
6
CONTINUOUS
10
57.414
20
-102.867
11
57.4562
21
-103.079
0
LINE
8
BLACK
6
CONTINUOUS
10
57.4562
20
-103.079
11
57.4562
21
-103.296
0
LINE
8
BLACK
6
CONTINUOUS
10
57.4562
20
-103.296
11
57.414
21
-103.508
0
LINE
8
BLACK
6
CONTINUOUS
10
57.414
20
-103.508
11
57.3311
21
-103.709
0
LINE
8
BLACK
6
CONTINUOUS
10
57.3311
20
-103.709
11
57.2107
21
-103.889
0
LINE
8
BLACK
6
CONTINUOUS
10
57.2107
20
-103.889
11
57.0575
21
-104.042
0
LINE
8
BLACK
6
CONTINUOUS
10
57.0575
20
-104.042
11
56.8773
21
-104.162
0
LINE
8
BLACK
6
CONTINUOUS
10
56.8773
20
-104.162
11
56.6771
21
-104.245
0
LINE
8
BLACK
6
CONTINUOUS
10
56.6771
20
-104.245
11
56.4646
21
-104.287
0
LINE
8
BLACK
6
CONTINUOUS
10
56.4646
20
-104.287
11
56.2479
21
-104.287
0
LINE
8
BLACK
6
CONTINUOUS
10
56.2479
20
-104.287
11
56.0354
21
-104.245
0
LINE
8
BLACK
6
CONTINUOUS
10
56.0354
20
-104.245
11
55.8352
21
-104.162
0
LINE
8
BLACK
6
CONTINUOUS
10
55.8352
20
-104.162
11
55.655
21
-104.042
0
LINE
8
BLACK
6
CONTINUOUS
10
55.655
20
-104.042
11
55.5018
21
-103.889
0
LINE
8
BLACK
6
CONTINUOUS
10
55.5018
20
-103.889
11
55.3814
21
-103.709
0
LINE
8
BLACK
6
CONTINUOUS
10
55.3814
20
-103.709
11
55.2985
21
-103.508
0
LINE
8
BLACK
6
CONTINUOUS
10
55.2985
20
-103.508
11
55.2562
21
-103.296
0
LINE
8
BLACK
6
CONTINUOUS
10
55.2562
20
-103.296
11
55.2562
21
-103.079
0
LINE
8
BLACK
6
CONTINUOUS
10
55.2562
20
-103.079
11
55.2985
21
-102.867
0
LINE
8
BLACK
6
CONTINUOUS
10
55.2985
20
-102.867
11
55.3814
21
-102.666
0
LINE
8
BLACK
6
CONTINUOUS
10
55.3814
20
-102.666
11
55.5018
21
-102.486
0
LINE
8
BLACK
6
CONTINUOUS
10
55.5018
20
-102.486
11
55.655
21
-102.333
0
LINE
8
BLACK
6
CONTINUOUS
10
55.655
20
-102.333
11
55.8352
21
-102.213
0
LINE
8
BLACK
6
CONTINUOUS
10
55.8352
20
-102.213
11
56.0354
21
-102.13
0
LINE
8
BLACK
6
CONTINUOUS
10
56.0354
20
-102.13
11
56.2479
21
-102.087
0
LINE
8
BLACK
6
CONTINUOUS
10
56.2479
20
-102.087
11
56.4646
21
-102.087
0
LINE
8
BLACK
6
CONTINUOUS
10
56.4646
20
-102.087
11
56.6771
21
-102.13
0
LINE
8
BLACK
6
CONTINUOUS
10
332.902
20
-102.13
11
333.102
21
-102.213
0
LINE
8
BLACK
6
CONTINUOUS
10
333.102
20
-102.213
11
333.282
21
-102.333
0
LINE
8
BLACK
6
CONTINUOUS
10
333.282
20
-102.333
11
333.436
21
-102.486
0
LINE
8
BLACK
6
CONTINUOUS
10
333.436
20
-102.486
11
333.556
21
-102.666
0
LINE
8
BLACK
6
CONTINUOUS
10
333.556
20
-102.666
11
333.639
21
-102.867
0
LINE
8
BLACK
6
CONTINUOUS
10
333.639
20
-102.867
11
333.681
21
-103.079
0
LINE
8
BLACK
6
CONTINUOUS
10
333.681
20
-103.079
11
333.681
21
-103.296
0
LINE
8
BLACK
6
CONTINUOUS
10
333.681
20
-103.296
11
333.639
21
-103.508
0
LINE
8
BLACK
6
CONTINUOUS
10
333.639
20
-103.508
11
333.556
21
-103.709
0
LINE
8
BLACK
6
CONTINUOUS
10
333.556
20
-103.709
11
333.436
21
-103.889
0
LINE
8
BLACK
6
CONTINUOUS
10
333.436
20
-103.889
11
333.282
21
-104.042
0
LINE
8
BLACK
6
CONTINUOUS
10
333.282
20
-104.042
11
333.102
21
-104.162
0
LINE
8
BLACK
6
CONTINUOUS
10
333.102
20
-104.162
11
332.902
21
-104.245
0
LINE
8
BLACK
6
CONTINUOUS
10
332.902
20
-104.245
11
332.69
21
-104.287
0
LINE
8
BLACK
6
CONTINUOUS
10
332.69
20
-104.287
11
332.473
21
-104.287
0
LINE
8
BLACK
6
CONTINUOUS
10
332.473
20
-104.287
11
332.26
21
-104.245
0
LINE
8
BLACK
6
CONTINUOUS
10
332.26
20
-104.245
11
332.06
21
-104.162
0
LINE
8
BLACK
6
CONTINUOUS
10
332.06
20
-104.162
11
331.88
21
-104.042
0
LINE
8
BLACK
6
CONTINUOUS
10
331.88
20
-104.042
11
331.727
21
-103.889
0
LINE
8
BLACK
6
CONTINUOUS
10
331.727
20
-103.889
11
331.606
21
-103.709
0
LINE
8
BLACK
6
CONTINUOUS
10
331.606
20
-103.709
11
331.524
21
-103.508
0
LINE
8
BLACK
6
CONTINUOUS
10
331.524
20
-103.508
11
331.481
21
-103.296
0
LINE
8
BLACK
6
CONTINUOUS
10
331.481
20
-103.296
11
331.481
21
-103.079
0
LINE
8
BLACK
6
CONTINUOUS
10
331.481
20
-103.079
11
331.524
21
-102.867
0
LINE
8
BLACK
6
CONTINUOUS
10
331.524
20
-102.867
11
331.606
21
-102.666
0
LINE
8
BLACK
6
CONTINUOUS
10
331.606
20
-102.666
11
331.727
21
-102.486
0
LINE
8
BLACK
6
CONTINUOUS
10
331.727
20
-102.486
11
331.88
21
-102.333
0
LINE
8
BLACK
6
CONTINUOUS
10
331.88
20
-102.333
11
332.06
21
-102.213
0
LINE
8
BLACK
6
CONTINUOUS
10
332.06
20
-102.213
11
332.26
21
-102.13
0
LINE
8
BLACK
6
CONTINUOUS
10
332.26
20
-102.13
11
332.473
21
-102.087
0
LINE
8
BLACK
6
CONTINUOUS
10
332.473
20
-102.087
11
332.69
21
-102.087
0
LINE
8
BLACK
6
CONTINUOUS
10
332.69
20
-102.087
11
332.902
21
-102.13
0
LINE
8
BLACK
6
CONTINUOUS
10
331.858
20
-71.4298
11
332.059
21
-71.5127
0
LINE
8
BLACK
6
CONTINUOUS
10
332.059
20
-71.5127
11
332.239
21
-71.6331
0
LINE
8
BLACK
6
CONTINUOUS
10
332.239
20
-71.6331
11
332.392
21
-71.7863
0
LINE
8
BLACK
6
CONTINUOUS
10
332.392
20
-71.7863
11
332.512
21
-71.9665
0
LINE
8
BLACK
6
CONTINUOUS
10
332.512
20
-71.9665
11
332.595
21
-72.1667
0
LINE
8
BLACK
6
CONTINUOUS
10
332.595
20
-72.1667
11
332.637
21
-72.3792
0
LINE
8
BLACK
6
CONTINUOUS
10
332.637
20
-72.3792
11
332.637
21
-72.5959
0
LINE
8
BLACK
6
CONTINUOUS
10
332.637
20
-72.5959
11
332.595
21
-72.8084
0
LINE
8
BLACK
6
CONTINUOUS
10
332.595
20
-72.8084
11
332.512
21
-73.0086
0
LINE
8
BLACK
6
CONTINUOUS
10
332.512
20
-73.0086
11
332.392
21
-73.1888
0
LINE
8
BLACK
6
CONTINUOUS
10
332.392
20
-73.1888
11
332.239
21
-73.342
0
LINE
8
BLACK
6
CONTINUOUS
10
332.239
20
-73.342
11
332.059
21
-73.4624
0
LINE
8
BLACK
6
CONTINUOUS
10
332.059
20
-73.4624
11
331.858
21
-73.5453
0
LINE
8
BLACK
6
CONTINUOUS
10
331.858
20
-73.5453
11
331.646
21
-73.5875
0
LINE
8
BLACK
6
CONTINUOUS
10
331.646
20
-73.5875
11
331.429
21
-73.5875
0
LINE
8
BLACK
6
CONTINUOUS
10
331.429
20
-73.5875
11
331.217
21
-73.5453
0
LINE
8
BLACK
6
CONTINUOUS
10
331.217
20
-73.5453
11
331.016
21
-73.4624
0
LINE
8
BLACK
6
CONTINUOUS
10
331.016
20
-73.4624
11
330.836
21
-73.342
0
LINE
8
BLACK
6
CONTINUOUS
10
330.836
20
-73.342
11
330.683
21
-73.1888
0
LINE
8
BLACK
6
CONTINUOUS
10
330.683
20
-73.1888
11
330.563
21
-73.0086
0
LINE
8
BLACK
6
CONTINUOUS
10
330.563
20
-73.0086
11
330.48
21
-72.8084
0
LINE
8
BLACK
6
CONTINUOUS
10
330.48
20
-72.8084
11
330.438
21
-72.5959
0
LINE
8
BLACK
6
CONTINUOUS
10
330.438
20
-72.5959
11
330.438
21
-72.3792
0
LINE
8
BLACK
6
CONTINUOUS
10
330.438
20
-72.3792
11
330.48
21
-72.1667
0
LINE
8
BLACK
6
CONTINUOUS
10
330.48
20
-72.1667
11
330.563
21
-71.9665
0
LINE
8
BLACK
6
CONTINUOUS
10
330.563
20
-71.9665
11
330.683
21
-71.7863
0
LINE
8
BLACK
6
CONTINUOUS
10
330.683
20
-71.7863
11
330.836
21
-71.6331
0
LINE
8
BLACK
6
CONTINUOUS
10
330.836
20
-71.6331
11
331.016
21
-71.5127
0
LINE
8
BLACK
6
CONTINUOUS
10
331.016
20
-71.5127
11
331.217
21
-71.4298
0
LINE
8
BLACK
6
CONTINUOUS
10
331.217
20
-71.4298
11
331.429
21
-71.3875
0
LINE
8
BLACK
6
CONTINUOUS
10
331.429
20
-71.3875
11
331.646
21
-71.3875
0
LINE
8
BLACK
6
CONTINUOUS
10
331.646
20
-71.3875
11
331.858
21
-71.4298
0
LINE
8
BLACK
6
CONTINUOUS
10
315.853
20
-71.4298
11
316.054
21
-71.5127
0
LINE
8
BLACK
6
CONTINUOUS
10
316.054
20
-71.5127
11
316.234
21
-71.6331
0
LINE
8
BLACK
6
CONTINUOUS
10
316.234
20
-71.6331
11
316.387
21
-71.7863
0
LINE
8
BLACK
6
CONTINUOUS
10
316.387
20
-71.7863
11
316.507
21
-71.9665
0
LINE
8
BLACK
6
CONTINUOUS
10
316.507
20
-71.9665
11
316.59
21
-72.1667
0
LINE
8
BLACK
6
CONTINUOUS
10
316.59
20
-72.1667
11
316.632
21
-72.3792
0
LINE
8
BLACK
6
CONTINUOUS
10
316.632
20
-72.3792
11
316.632
21
-72.5959
0
LINE
8
BLACK
6
CONTINUOUS
10
316.632
20
-72.5959
11
316.59
21
-72.8084
0
LINE
8
BLACK
6
CONTINUOUS
10
316.59
20
-72.8084
11
316.507
21
-73.0086
0
LINE
8
BLACK
6
CONTINUOUS
10
316.507
20
-73.0086
11
316.387
21
-73.1888
0
LINE
8
BLACK
6
CONTINUOUS
10
316.387
20
-73.1888
11
316.234
21
-73.342
0
LINE
8
BLACK
6
CONTINUOUS
10
316.234
20
-73.342
11
316.054
21
-73.4624
0
LINE
8
BLACK
6
CONTINUOUS
10
316.054
20
-73.4624
11
315.853
21
-73.5453
0
LINE
8
BLACK
6
CONTINUOUS
10
315.853
20
-73.5453
11
315.641
21
-73.5875
0
LINE
8
BLACK
6
CONTINUOUS
10
315.641
20
-73.5875
11
315.424
21
-73.5875
0
LINE
8
BLACK
6
CONTINUOUS
10
315.424
20
-73.5875
11
315.212
21
-73.5453
0
LINE
8
BLACK
6
CONTINUOUS
10
315.212
20
-73.5453
11
315.011
21
-73.4624
0
LINE
8
BLACK
6
CONTINUOUS
10
315.011
20
-73.4624
11
314.831
21
-73.342
0
LINE
8
BLACK
6
CONTINUOUS
10
314.831
20
-73.342
11
314.678
21
-73.1888
0
LINE
8
BLACK
6
CONTINUOUS
10
314.678
20
-73.1888
11
314.558
21
-73.0086
0
LINE
8
BLACK
6
CONTINUOUS
10
314.558
20
-73.0086
11
314.475
21
-72.8084
0
LINE
8
BLACK
6
CONTINUOUS
10
314.475
20
-72.8084
11
314.433
21
-72.5959
0
LINE
8
BLACK
6
CONTINUOUS
10
314.433
20
-72.5959
11
314.433
21
-72.3792
0
LINE
8
BLACK
6
CONTINUOUS
10
314.433
20
-72.3792
11
314.475
21
-72.1667
0
LINE
8
BLACK
6
CONTINUOUS
10
314.475
20
-72.1667
11
314.558
21
-71.9665
0
LINE
8
BLACK
6
CONTINUOUS
10
314.558
20
-71.9665
11
314.678
21
-71.7863
0
LINE
8
BLACK
6
CONTINUOUS
10
314.678
20
-71.7863
11
314.831
21
-71.6331
0
LINE
8
BLACK
6
CONTINUOUS
10
314.831
20
-71.6331
11
315.011
21
-71.5127
0
LINE
8
BLACK
6
CONTINUOUS
10
315.011
20
-71.5127
11
315.212
21
-71.4298
0
LINE
8
BLACK
6
CONTINUOUS
10
315.212
20
-71.4298
11
315.424
21
-71.3875
0
LINE
8
BLACK
6
CONTINUOUS
10
315.424
20
-71.3875
11
315.641
21
-71.3875
0
LINE
8
BLACK
6
CONTINUOUS
10
315.641
20
-71.3875
11
315.853
21
-71.4298
0
LINE
8
BLACK
6
CONTINUOUS
10
57.4022
20
-71.2711
11
57.6023
21
-71.354
0
LINE
8
BLACK
6
CONTINUOUS
10
57.6023
20
-71.354
11
57.7825
21
-71.4744
0
LINE
8
BLACK
6
CONTINUOUS
10
57.7825
20
-71.4744
11
57.9357
21
-71.6276
0
LINE
8
BLACK
6
CONTINUOUS
10
57.9357
20
-71.6276
11
58.0561
21
-71.8078
0
LINE
8
BLACK
6
CONTINUOUS
10
58.0561
20
-71.8078
11
58.139
21
-72.0079
0
LINE
8
BLACK
6
CONTINUOUS
10
58.139
20
-72.0079
11
58.1813
21
-72.2205
0
LINE
8
BLACK
6
CONTINUOUS
10
58.1813
20
-72.2205
11
58.1813
21
-72.4371
0
LINE
8
BLACK
6
CONTINUOUS
10
58.1813
20
-72.4371
11
58.139
21
-72.6497
0
LINE
8
BLACK
6
CONTINUOUS
10
58.139
20
-72.6497
11
58.0561
21
-72.8498
0
LINE
8
BLACK
6
CONTINUOUS
10
58.0561
20
-72.8498
11
57.9357
21
-73.03
0
LINE
8
BLACK
6
CONTINUOUS
10
57.9357
20
-73.03
11
57.7825
21
-73.1832
0
LINE
8
BLACK
6
CONTINUOUS
10
57.7825
20
-73.1832
11
57.6023
21
-73.3036
0
LINE
8
BLACK
6
CONTINUOUS
10
57.6023
20
-73.3036
11
57.4022
21
-73.3865
0
LINE
8
BLACK
6
CONTINUOUS
10
57.4022
20
-73.3865
11
57.1896
21
-73.4288
0
LINE
8
BLACK
6
CONTINUOUS
10
57.1896
20
-73.4288
11
56.973
21
-73.4288
0
LINE
8
BLACK
6
CONTINUOUS
10
56.973
20
-73.4288
11
56.7604
21
-73.3865
0
LINE
8
BLACK
6
CONTINUOUS
10
56.7604
20
-73.3865
11
56.5603
21
-73.3036
0
LINE
8
BLACK
6
CONTINUOUS
10
56.5603
20
-73.3036
11
56.3801
21
-73.1832
0
LINE
8
BLACK
6
CONTINUOUS
10
56.3801
20
-73.1832
11
56.2269
21
-73.03
0
LINE
8
BLACK
6
CONTINUOUS
10
56.2269
20
-73.03
11
56.1065
21
-72.8498
0
LINE
8
BLACK
6
CONTINUOUS
10
56.1065
20
-72.8498
11
56.0236
21
-72.6497
0
LINE
8
BLACK
6
CONTINUOUS
10
56.0236
20
-72.6497
11
55.9813
21
-72.4371
0
LINE
8
BLACK
6
CONTINUOUS
10
55.9813
20
-72.4371
11
55.9813
21
-72.2205
0
LINE
8
BLACK
6
CONTINUOUS
10
55.9813
20
-72.2205
11
56.0236
21
-72.0079
0
LINE
8
BLACK
6
CONTINUOUS
10
56.0236
20
-72.0079
11
56.1065
21
-71.8078
0
LINE
8
BLACK
6
CONTINUOUS
10
56.1065
20
-71.8078
11
56.2269
21
-71.6276
0
LINE
8
BLACK
6
CONTINUOUS
10
56.2269
20
-71.6276
11
56.3801
21
-71.4744
0
LINE
8
BLACK
6
CONTINUOUS
10
56.3801
20
-71.4744
11
56.5603
21
-71.354
0
LINE
8
BLACK
6
CONTINUOUS
10
56.5603
20
-71.354
11
56.7604
21
-71.2711
0
LINE
8
BLACK
6
CONTINUOUS
10
56.7604
20
-71.2711
11
56.973
21
-71.2288
0
LINE
8
BLACK
6
CONTINUOUS
10
56.973
20
-71.2288
11
57.1896
21
-71.2288
0
LINE
8
BLACK
6
CONTINUOUS
10
57.1896
20
-71.2288
11
57.4022
21
-71.2711
0
LINE
8
BLACK
6
CONTINUOUS
10
73.4022
20
-71.2711
11
73.6023
21
-71.354
0
LINE
8
BLACK
6
CONTINUOUS
10
73.6023
20
-71.354
11
73.7825
21
-71.4744
0
LINE
8
BLACK
6
CONTINUOUS
10
73.7825
20
-71.4744
11
73.9357
21
-71.6276
0
LINE
8
BLACK
6
CONTINUOUS
10
73.9357
20
-71.6276
11
74.0561
21
-71.8078
0
LINE
8
BLACK
6
CONTINUOUS
10
74.0561
20
-71.8078
11
74.139
21
-72.0079
0
LINE
8
BLACK
6
CONTINUOUS
10
74.139
20
-72.0079
11
74.1813
21
-72.2205
0
LINE
8
BLACK
6
CONTINUOUS
10
74.1813
20
-72.2205
11
74.1813
21
-72.4371
0
LINE
8
BLACK
6
CONTINUOUS
10
74.1813
20
-72.4371
11
74.139
21
-72.6497
0
LINE
8
BLACK
6
CONTINUOUS
10
74.139
20
-72.6497
11
74.0561
21
-72.8498
0
LINE
8
BLACK
6
CONTINUOUS
10
74.0561
20
-72.8498
11
73.9357
21
-73.03
0
LINE
8
BLACK
6
CONTINUOUS
10
73.9357
20
-73.03
11
73.7825
21
-73.1832
0
LINE
8
BLACK
6
CONTINUOUS
10
73.7825
20
-73.1832
11
73.6023
21
-73.3036
0
LINE
8
BLACK
6
CONTINUOUS
10
73.6023
20
-73.3036
11
73.4022
21
-73.3865
0
LINE
8
BLACK
6
CONTINUOUS
10
73.4022
20
-73.3865
11
73.1896
21
-73.4288
0
LINE
8
BLACK
6
CONTINUOUS
10
73.1896
20
-73.4288
11
72.973
21
-73.4288
0
LINE
8
BLACK
6
CONTINUOUS
10
72.973
20
-73.4288
11
72.7604
21
-73.3865
0
LINE
8
BLACK
6
CONTINUOUS
10
72.7604
20
-73.3865
11
72.5603
21
-73.3036
0
LINE
8
BLACK
6
CONTINUOUS
10
72.5603
20
-73.3036
11
72.3801
21
-73.1832
0
LINE
8
BLACK
6
CONTINUOUS
10
72.3801
20
-73.1832
11
72.2269
21
-73.03
0
LINE
8
BLACK
6
CONTINUOUS
10
72.2269
20
-73.03
11
72.1065
21
-72.8498
0
LINE
8
BLACK
6
CONTINUOUS
10
72.1065
20
-72.8498
11
72.0236
21
-72.6497
0
LINE
8
BLACK
6
CONTINUOUS
10
72.0236
20
-72.6497
11
71.9813
21
-72.4371
0
LINE
8
BLACK
6
CONTINUOUS
10
71.9813
20
-72.4371
11
71.9813
21
-72.2205
0
LINE
8
BLACK
6
CONTINUOUS
10
71.9813
20
-72.2205
11
72.0236
21
-72.0079
0
LINE
8
BLACK
6
CONTINUOUS
10
72.0236
20
-72.0079
11
72.1065
21
-71.8078
0
LINE
8
BLACK
6
CONTINUOUS
10
72.1065
20
-71.8078
11
72.2269
21
-71.6276
0
LINE
8
BLACK
6
CONTINUOUS
10
72.2269
20
-71.6276
11
72.3801
21
-71.4744
0
LINE
8
BLACK
6
CONTINUOUS
10
72.3801
20
-71.4744
11
72.5603
21
-71.354
0
LINE
8
BLACK
6
CONTINUOUS
10
72.5603
20
-71.354
11
72.7604
21
-71.2711
0
LINE
8
BLACK
6
CONTINUOUS
10
72.7604
20
-71.2711
11
72.973
21
-71.2288
0
LINE
8
BLACK
6
CONTINUOUS
10
72.973
20
-71.2288
11
73.1896
21
-71.2288
0
LINE
8
BLACK
6
CONTINUOUS
10
73.1896
20
-71.2288
11
73.4022
21
-71.2711
0
LINE
8
BLACK
6
CONTINUOUS
10
174.946
20
-59.2673
11
175.146
21
-59.3502
0
LINE
8
BLACK
6
CONTINUOUS
10
175.146
20
-59.3502
11
175.326
21
-59.4706
0
LINE
8
BLACK
6
CONTINUOUS
10
175.326
20
-59.4706
11
175.479
21
-59.6238
0
LINE
8
BLACK
6
CONTINUOUS
10
175.479
20
-59.6238
11
175.6
21
-59.804
0
LINE
8
BLACK
6
CONTINUOUS
10
175.6
20
-59.804
11
175.683
21
-60.0041
0
LINE
8
BLACK
6
CONTINUOUS
10
175.683
20
-60.0041
11
175.725
21
-60.2167
0
LINE
8
BLACK
6
CONTINUOUS
10
175.725
20
-60.2167
11
175.725
21
-60.4333
0
LINE
8
BLACK
6
CONTINUOUS
10
175.725
20
-60.4333
11
175.683
21
-60.6459
0
LINE
8
BLACK
6
CONTINUOUS
10
175.683
20
-60.6459
11
175.6
21
-60.846
0
LINE
8
BLACK
6
CONTINUOUS
10
175.6
20
-60.846
11
175.479
21
-61.0262
0
LINE
8
BLACK
6
CONTINUOUS
10
175.479
20
-61.0262
11
175.326
21
-61.1794
0
LINE
8
BLACK
6
CONTINUOUS
10
175.326
20
-61.1794
11
175.146
21
-61.2998
0
LINE
8
BLACK
6
CONTINUOUS
10
175.146
20
-61.2998
11
174.946
21
-61.3827
0
LINE
8
BLACK
6
CONTINUOUS
10
174.946
20
-61.3827
11
174.733
21
-61.425
0
LINE
8
BLACK
6
CONTINUOUS
10
174.733
20
-61.425
11
174.517
21
-61.425
0
LINE
8
BLACK
6
CONTINUOUS
10
174.517
20
-61.425
11
174.304
21
-61.3827
0
LINE
8
BLACK
6
CONTINUOUS
10
174.304
20
-61.3827
11
174.104
21
-61.2998
0
LINE
8
BLACK
6
CONTINUOUS
10
174.104
20
-61.2998
11
173.924
21
-61.1794
0
LINE
8
BLACK
6
CONTINUOUS
10
173.924
20
-61.1794
11
173.771
21
-61.0262
0
LINE
8
BLACK
6
CONTINUOUS
10
173.771
20
-61.0262
11
173.65
21
-60.846
0
LINE
8
BLACK
6
CONTINUOUS
10
173.65
20
-60.846
11
173.567
21
-60.6459
0
LINE
8
BLACK
6
CONTINUOUS
10
173.567
20
-60.6459
11
173.525
21
-60.4333
0
LINE
8
BLACK
6
CONTINUOUS
10
173.525
20
-60.4333
11
173.525
21
-60.2167
0
LINE
8
BLACK
6
CONTINUOUS
10
173.525
20
-60.2167
11
173.567
21
-60.0041
0
LINE
8
BLACK
6
CONTINUOUS
10
173.567
20
-60.0041
11
173.65
21
-59.804
0
LINE
8
BLACK
6
CONTINUOUS
10
173.65
20
-59.804
11
173.771
21
-59.6238
0
LINE
8
BLACK
6
CONTINUOUS
10
173.771
20
-59.6238
11
173.924
21
-59.4706
0
LINE
8
BLACK
6
CONTINUOUS
10
173.924
20
-59.4706
11
174.104
21
-59.3502
0
LINE
8
BLACK
6
CONTINUOUS
10
174.104
20
-59.3502
11
174.304
21
-59.2673
0
LINE
8
BLACK
6
CONTINUOUS
10
174.304
20
-59.2673
11
174.517
21
-59.225
0
LINE
8
BLACK
6
CONTINUOUS
10
174.517
20
-59.225
11
174.733
21
-59.225
0
LINE
8
BLACK
6
CONTINUOUS
10
174.733
20
-59.225
11
174.946
21
-59.2673
0
LINE
8
BLACK
6
CONTINUOUS
10
214.633
20
-59.2673
11
214.834
21
-59.3502
0
LINE
8
BLACK
6
CONTINUOUS
10
214.834
20
-59.3502
11
215.014
21
-59.4706
0
LINE
8
BLACK
6
CONTINUOUS
10
215.014
20
-59.4706
11
215.167
21
-59.6238
0
LINE
8
BLACK
6
CONTINUOUS
10
215.167
20
-59.6238
11
215.287
21
-59.804
0
LINE
8
BLACK
6
CONTINUOUS
10
215.287
20
-59.804
11
215.37
21
-60.0041
0
LINE
8
BLACK
6
CONTINUOUS
10
215.37
20
-60.0041
11
215.412
21
-60.2167
0
LINE
8
BLACK
6
CONTINUOUS
10
215.412
20
-60.2167
11
215.412
21
-60.4333
0
LINE
8
BLACK
6
CONTINUOUS
10
215.412
20
-60.4333
11
215.37
21
-60.6459
0
LINE
8
BLACK
6
CONTINUOUS
10
215.37
20
-60.6459
11
215.287
21
-60.846
0
LINE
8
BLACK
6
CONTINUOUS
10
215.287
20
-60.846
11
215.167
21
-61.0262
0
LINE
8
BLACK
6
CONTINUOUS
10
215.167
20
-61.0262
11
215.014
21
-61.1794
0
LINE
8
BLACK
6
CONTINUOUS
10
215.014
20
-61.1794
11
214.834
21
-61.2998
0
LINE
8
BLACK
6
CONTINUOUS
10
214.834
20
-61.2998
11
214.633
21
-61.3827
0
LINE
8
BLACK
6
CONTINUOUS
10
214.633
20
-61.3827
11
214.421
21
-61.425
0
LINE
8
BLACK
6
CONTINUOUS
10
214.421
20
-61.425
11
214.204
21
-61.425
0
LINE
8
BLACK
6
CONTINUOUS
10
214.204
20
-61.425
11
213.992
21
-61.3827
0
LINE
8
BLACK
6
CONTINUOUS
10
213.992
20
-61.3827
11
213.791
21
-61.2998
0
LINE
8
BLACK
6
CONTINUOUS
10
213.791
20
-61.2998
11
213.611
21
-61.1794
0
LINE
8
BLACK
6
CONTINUOUS
10
213.611
20
-61.1794
11
213.458
21
-61.0262
0
LINE
8
BLACK
6
CONTINUOUS
10
213.458
20
-61.0262
11
213.338
21
-60.846
0
LINE
8
BLACK
6
CONTINUOUS
10
213.338
20
-60.846
11
213.255
21
-60.6459
0
LINE
8
BLACK
6
CONTINUOUS
10
213.255
20
-60.6459
11
213.212
21
-60.4333
0
LINE
8
BLACK
6
CONTINUOUS
10
213.212
20
-60.4333
11
213.212
21
-60.2167
0
LINE
8
BLACK
6
CONTINUOUS
10
213.212
20
-60.2167
11
213.255
21
-60.0041
0
LINE
8
BLACK
6
CONTINUOUS
10
213.255
20
-60.0041
11
213.338
21
-59.804
0
LINE
8
BLACK
6
CONTINUOUS
10
213.338
20
-59.804
11
213.458
21
-59.6238
0
LINE
8
BLACK
6
CONTINUOUS
10
213.458
20
-59.6238
11
213.611
21
-59.4706
0
LINE
8
BLACK
6
CONTINUOUS
10
213.611
20
-59.4706
11
213.791
21
-59.3502
0
LINE
8
BLACK
6
CONTINUOUS
10
213.791
20
-59.3502
11
213.992
21
-59.2673
0
LINE
8
BLACK
6
CONTINUOUS
10
213.992
20
-59.2673
11
214.204
21
-59.225
0
LINE
8
BLACK
6
CONTINUOUS
10
214.204
20
-59.225
11
214.421
21
-59.225
0
LINE
8
BLACK
6
CONTINUOUS
10
214.421
20
-59.225
11
214.633
21
-59.2673
0
LINE
8
BLACK
6
CONTINUOUS
10
98.7459
20
-56.0923
11
98.946
21
-56.1752
0
LINE
8
BLACK
6
CONTINUOUS
10
98.946
20
-56.1752
11
99.1262
21
-56.2956
0
LINE
8
BLACK
6
CONTINUOUS
10
99.1262
20
-56.2956
11
99.2794
21
-56.4488
0
LINE
8
BLACK
6
CONTINUOUS
10
99.2794
20
-56.4488
11
99.3998
21
-56.629
0
LINE
8
BLACK
6
CONTINUOUS
10
99.3998
20
-56.629
11
99.4827
21
-56.8291
0
LINE
8
BLACK
6
CONTINUOUS
10
99.4827
20
-56.8291
11
99.525
21
-57.0417
0
LINE
8
BLACK
6
CONTINUOUS
10
99.525
20
-57.0417
11
99.525
21
-57.2583
0
LINE
8
BLACK
6
CONTINUOUS
10
99.525
20
-57.2583
11
99.4827
21
-57.4709
0
LINE
8
BLACK
6
CONTINUOUS
10
99.4827
20
-57.4709
11
99.3998
21
-57.671
0
LINE
8
BLACK
6
CONTINUOUS
10
99.3998
20
-57.671
11
99.2794
21
-57.8512
0
LINE
8
BLACK
6
CONTINUOUS
10
99.2794
20
-57.8512
11
99.1262
21
-58.0044
0
LINE
8
BLACK
6
CONTINUOUS
10
99.1262
20
-58.0044
11
98.946
21
-58.1248
0
LINE
8
BLACK
6
CONTINUOUS
10
98.946
20
-58.1248
11
98.7459
21
-58.2077
0
LINE
8
BLACK
6
CONTINUOUS
10
98.7459
20
-58.2077
11
98.5333
21
-58.25
0
LINE
8
BLACK
6
CONTINUOUS
10
98.5333
20
-58.25
11
98.3167
21
-58.25
0
LINE
8
BLACK
6
CONTINUOUS
10
98.3167
20
-58.25
11
98.1041
21
-58.2077
0
LINE
8
BLACK
6
CONTINUOUS
10
98.1041
20
-58.2077
11
97.904
21
-58.1248
0
LINE
8
BLACK
6
CONTINUOUS
10
97.904
20
-58.1248
11
97.7238
21
-58.0044
0
LINE
8
BLACK
6
CONTINUOUS
10
97.7238
20
-58.0044
11
97.5706
21
-57.8512
0
LINE
8
BLACK
6
CONTINUOUS
10
97.5706
20
-57.8512
11
97.4502
21
-57.671
0
LINE
8
BLACK
6
CONTINUOUS
10
97.4502
20
-57.671
11
97.3673
21
-57.4709
0
LINE
8
BLACK
6
CONTINUOUS
10
97.3673
20
-57.4709
11
97.325
21
-57.2583
0
LINE
8
BLACK
6
CONTINUOUS
10
97.325
20
-57.2583
11
97.325
21
-57.0417
0
LINE
8
BLACK
6
CONTINUOUS
10
97.325
20
-57.0417
11
97.3673
21
-56.8291
0
LINE
8
BLACK
6
CONTINUOUS
10
97.3673
20
-56.8291
11
97.4502
21
-56.629
0
LINE
8
BLACK
6
CONTINUOUS
10
97.4502
20
-56.629
11
97.5706
21
-56.4488
0
LINE
8
BLACK
6
CONTINUOUS
10
97.5706
20
-56.4488
11
97.7238
21
-56.2956
0
LINE
8
BLACK
6
CONTINUOUS
10
97.7238
20
-56.2956
11
97.904
21
-56.1752
0
LINE
8
BLACK
6
CONTINUOUS
10
97.904
20
-56.1752
11
98.1041
21
-56.0923
0
LINE
8
BLACK
6
CONTINUOUS
10
98.1041
20
-56.0923
11
98.3167
21
-56.05
0
LINE
8
BLACK
6
CONTINUOUS
10
98.3167
20
-56.05
11
98.5333
21
-56.05
0
LINE
8
BLACK
6
CONTINUOUS
10
98.5333
20
-56.05
11
98.7459
21
-56.0923
0
LINE
8
BLACK
6
CONTINUOUS
10
290.833
20
-56.0923
11
291.034
21
-56.1752
0
LINE
8
BLACK
6
CONTINUOUS
10
291.034
20
-56.1752
11
291.214
21
-56.2956
0
LINE
8
BLACK
6
CONTINUOUS
10
291.214
20
-56.2956
11
291.367
21
-56.4488
0
LINE
8
BLACK
6
CONTINUOUS
10
291.367
20
-56.4488
11
291.487
21
-56.629
0
LINE
8
BLACK
6
CONTINUOUS
10
291.487
20
-56.629
11
291.57
21
-56.8291
0
LINE
8
BLACK
6
CONTINUOUS
10
291.57
20
-56.8291
11
291.613
21
-57.0417
0
LINE
8
BLACK
6
CONTINUOUS
10
291.613
20
-57.0417
11
291.613
21
-57.2583
0
LINE
8
BLACK
6
CONTINUOUS
10
291.613
20
-57.2583
11
291.57
21
-57.4709
0
LINE
8
BLACK
6
CONTINUOUS
10
291.57
20
-57.4709
11
291.487
21
-57.671
0
LINE
8
BLACK
6
CONTINUOUS
10
291.487
20
-57.671
11
291.367
21
-57.8512
0
LINE
8
BLACK
6
CONTINUOUS
10
291.367
20
-57.8512
11
291.214
21
-58.0044
0
LINE
8
BLACK
6
CONTINUOUS
10
291.214
20
-58.0044
11
291.034
21
-58.1248
0
LINE
8
BLACK
6
CONTINUOUS
10
291.034
20
-58.1248
11
290.833
21
-58.2077
0
LINE
8
BLACK
6
CONTINUOUS
10
290.833
20
-58.2077
11
290.621
21
-58.25
0
LINE
8
BLACK
6
CONTINUOUS
10
290.621
20
-58.25
11
290.404
21
-58.25
0
LINE
8
BLACK
6
CONTINUOUS
10
290.404
20
-58.25
11
290.192
21
-58.2077
0
LINE
8
BLACK
6
CONTINUOUS
10
290.192
20
-58.2077
11
289.991
21
-58.1248
0
LINE
8
BLACK
6
CONTINUOUS
10
289.991
20
-58.1248
11
289.811
21
-58.0044
0
LINE
8
BLACK
6
CONTINUOUS
10
289.811
20
-58.0044
11
289.658
21
-57.8512
0
LINE
8
BLACK
6
CONTINUOUS
10
289.658
20
-57.8512
11
289.538
21
-57.671
0
LINE
8
BLACK
6
CONTINUOUS
10
289.538
20
-57.671
11
289.455
21
-57.4709
0
LINE
8
BLACK
6
CONTINUOUS
10
289.455
20
-57.4709
11
289.412
21
-57.2583
0
LINE
8
BLACK
6
CONTINUOUS
10
289.412
20
-57.2583
11
289.412
21
-57.0417
0
LINE
8
BLACK
6
CONTINUOUS
10
289.412
20
-57.0417
11
289.455
21
-56.8291
0
LINE
8
BLACK
6
CONTINUOUS
10
289.455
20
-56.8291
11
289.538
21
-56.629
0
LINE
8
BLACK
6
CONTINUOUS
10
289.538
20
-56.629
11
289.658
21
-56.4488
0
LINE
8
BLACK
6
CONTINUOUS
10
289.658
20
-56.4488
11
289.811
21
-56.2956
0
LINE
8
BLACK
6
CONTINUOUS
10
289.811
20
-56.2956
11
289.991
21
-56.1752
0
LINE
8
BLACK
6
CONTINUOUS
10
289.991
20
-56.1752
11
290.192
21
-56.0923
0
LINE
8
BLACK
6
CONTINUOUS
10
290.192
20
-56.0923
11
290.404
21
-56.05
0
LINE
8
BLACK
6
CONTINUOUS
10
290.404
20
-56.05
11
290.621
21
-56.05
0
LINE
8
BLACK
6
CONTINUOUS
10
290.621
20
-56.05
11
290.833
21
-56.0923
  0
ENDSEC
  0
EOF
