  0
SECTION
  2
HEADER
  9
$ANGBASE
  50
0.0
  9
$ANGDIR
  70
1
  9
$MEASUREMENT
  70
1
  0
ENDSEC
  0
SECTION
  2
TABLES
  0
TABLE
  2
LTYPE
  70
4
  0
LTYPE
  5
40F
  2
CONTINUOUS
  70
0
  3
Solid line
  72
65
  73
0
  40
0.0
  0
LTYPE
  5
410
  2
DASHDOT
 70
0
  3
Dash Dot ____ _ ____ _
 72
65
 73
4
 40
2.0
 49
1.25
 49
-0.25
 49
0.25
 49
-0.25
  0
LTYPE
  5
411
  2
DASHED
 70
0
  3
Dashed __ __ __ __ __
 72
65
 73
2
 40
0.75
 49
0.5
 49
-0.25
  0
LTYPE
  5
43B
  2
DOTTED
 70
0
  3
Dotted .  .  .  .
 72
65
 73
2
 40
0.2
 49
0.0
 49
-0.2
  0
ENDTAB
  0
TABLE
  2
STYLE
  70
4
  0
STYLE
  2
KICAD
  70
0
  40
0
  41
1
  42
1
  50
0
  71
0
  3
isocp.shx
  0
STYLE
  2
KICADB
  70
0
  40
0
  41
1
  42
1
  50
0
  71
0
  3
isocp.shx
  0
STYLE
  2
KICADI
  70
0
  40
0
  41
1
  42
1
  50
15
  71
0
  3
isocp.shx
  0
STYLE
  2
KICADBI
  70
0
  40
0
  41
1
  42
1
  50
15
  71
0
  3
isocp.shx
  0
ENDTAB
  0
TABLE
  2
LAYER
  70
1
  0
LAYER
  2
BLACK
  70
0
  62
7
  6
CONTINUOUS
  0
ENDTAB
  0
ENDSEC
  0
SECTION
  2
ENTITIES
0
LINE
8
BLACK
6
CONTINUOUS
10
77.3363
20
-35.9878
11
54.3503
21
-35.9878
0
LINE
8
BLACK
6
CONTINUOUS
10
54.3503
20
-70.4878
11
77.3363
21
-70.4878
0
LINE
8
BLACK
6
CONTINUOUS
10
77.3363
20
-70.4878
11
77.3363
21
-35.9878
0
LINE
8
BLACK
6
CONTINUOUS
10
54.3503
20
-35.9878
11
54.3503
21
-70.4878
0
LINE
8
BLACK
6
CONTINUOUS
10
334.268
20
-70.6465
11
311.282
21
-70.6465
0
LINE
8
BLACK
6
CONTINUOUS
10
311.282
20
-36.1465
11
334.268
21
-36.1465
0
LINE
8
BLACK
6
CONTINUOUS
10
334.268
20
-36.1465
11
334.268
21
-70.6465
0
LINE
8
BLACK
6
CONTINUOUS
10
311.282
20
-70.6465
11
311.282
21
-36.1465
0
LINE
8
BLACK
6
CONTINUOUS
10
193.675
20
-42.1338
11
193.675
21
-135.525
0
LINE
8
BLACK
6
CONTINUOUS
10
195.262
20
-135.525
11
195.262
21
-42.1339
0
LINE
8
BLACK
6
CONTINUOUS
10
51.5943
20
-114.887
11
51.5943
21
-33.5437
0
ARC
8
BLACK
10
192.675
20
-135.525
40
1
50
-90.0001
51
-5.72956e-05
0
LINE
8
BLACK
6
CONTINUOUS
10
192.675
20
-136.525
11
105.775
21
-136.525
0
LINE
8
BLACK
6
CONTINUOUS
10
104.775
20
-135.525
11
104.775
21
-116.887
0
ARC
8
BLACK
10
105.775
20
-135.525
40
0.999997
50
180
51
270
0
ARC
8
BLACK
10
52.5943
20
-33.5437
40
1
50
90.0001
51
180
0
ARC
8
BLACK
10
136.449
20
-33.5437
40
0.999998
50
81.3135
51
90
0
LINE
8
BLACK
6
CONTINUOUS
10
52.5943
20
-32.5437
11
136.449
21
-32.5437
0
ARC
8
BLACK
10
103.775
20
-116.887
40
1
50
-0.000114591
51
89.9999
0
ARC
8
BLACK
10
52.5943
20
-114.887
40
1
50
-180
51
-89.9999
0
LINE
8
BLACK
6
CONTINUOUS
10
103.775
20
-115.887
11
52.5943
21
-115.887
0
LINE
8
BLACK
6
CONTINUOUS
10
136.6
20
-32.5552
11
192.826
21
-41.1453
0
ARC
8
BLACK
10
192.675
20
-42.1338
40
1
50
0.000171887
51
81.3138
0
ARC
8
BLACK
10
336.344
20
-33.5437
40
1
50
5.72958e-05
51
90.0001
0
ARC
8
BLACK
10
309.395
20
-165.152
40
1
50
-103.182
51
-30.1694
0
ARC
8
BLACK
10
196.262
20
-135.525
40
0.999999
50
180
51
270
0
LINE
8
BLACK
6
CONTINUOUS
10
337.208
20
-119.295
11
310.259
21
-165.654
0
LINE
8
BLACK
6
CONTINUOUS
10
196.111
20
-41.1453
11
252.337
21
-32.5552
0
LINE
8
BLACK
6
CONTINUOUS
10
274.287
20
-157.163
11
274.287
21
-137.525
0
LINE
8
BLACK
6
CONTINUOUS
10
273.287
20
-136.525
11
196.262
21
-136.525
0
ARC
8
BLACK
10
275.287
20
-157.163
40
1
50
180
51
256.818
0
LINE
8
BLACK
6
CONTINUOUS
10
309.167
20
-166.125
11
275.059
21
-158.137
0
LINE
8
BLACK
6
CONTINUOUS
10
337.344
20
-33.5437
11
337.344
21
-118.793
0
ARC
8
BLACK
10
273.287
20
-137.525
40
1
50
-0
51
90
0
ARC
8
BLACK
10
336.344
20
-118.793
40
0.999999
50
-30.1695
51
-1.60714e-06
0
LINE
8
BLACK
6
CONTINUOUS
10
252.488
20
-32.5437
11
336.343
21
-32.5437
0
ARC
8
BLACK
10
252.488
20
-33.5437
40
1
50
89.9999
51
98.6864
0
ARC
8
BLACK
10
196.262
20
-42.1339
40
1
50
98.6864
51
180
0
LINE
8
BLACK
6
CONTINUOUS
10
177.15
20
-134
11
177.15
21
-120
0
LINE
8
BLACK
6
CONTINUOUS
10
177.15
20
-120
11
191.15
21
-120
0
LINE
8
BLACK
6
CONTINUOUS
10
191.15
20
-120
11
191.15
21
-134
0
LINE
8
BLACK
6
CONTINUOUS
10
177.15
20
-134
11
191.15
21
-134
0
LINE
8
BLACK
6
CONTINUOUS
10
158.1
20
-134
11
158.1
21
-120
0
LINE
8
BLACK
6
CONTINUOUS
10
158.1
20
-120
11
172.1
21
-120
0
LINE
8
BLACK
6
CONTINUOUS
10
172.1
20
-120
11
172.1
21
-134
0
LINE
8
BLACK
6
CONTINUOUS
10
158.1
20
-134
11
172.1
21
-134
0
LINE
8
BLACK
6
CONTINUOUS
10
177.15
20
-57.8
11
177.15
21
-43.8
0
LINE
8
BLACK
6
CONTINUOUS
10
177.15
20
-43.8
11
191.15
21
-43.8
0
LINE
8
BLACK
6
CONTINUOUS
10
191.15
20
-43.8
11
191.15
21
-57.8
0
LINE
8
BLACK
6
CONTINUOUS
10
177.15
20
-57.8
11
191.15
21
-57.8
0
LINE
8
BLACK
6
CONTINUOUS
10
158.1
20
-95.9
11
158.1
21
-81.9
0
LINE
8
BLACK
6
CONTINUOUS
10
158.1
20
-81.9
11
172.1
21
-81.9
0
LINE
8
BLACK
6
CONTINUOUS
10
172.1
20
-81.9
11
172.1
21
-95.9
0
LINE
8
BLACK
6
CONTINUOUS
10
158.1
20
-95.9
11
172.1
21
-95.9
0
LINE
8
BLACK
6
CONTINUOUS
10
158.1
20
-114.95
11
158.1
21
-100.95
0
LINE
8
BLACK
6
CONTINUOUS
10
158.1
20
-100.95
11
172.1
21
-100.95
0
LINE
8
BLACK
6
CONTINUOUS
10
172.1
20
-100.95
11
172.1
21
-114.95
0
LINE
8
BLACK
6
CONTINUOUS
10
158.1
20
-114.95
11
172.1
21
-114.95
0
LINE
8
BLACK
6
CONTINUOUS
10
177.15
20
-114.95
11
177.15
21
-100.95
0
LINE
8
BLACK
6
CONTINUOUS
10
177.15
20
-100.95
11
191.15
21
-100.95
0
LINE
8
BLACK
6
CONTINUOUS
10
191.15
20
-100.95
11
191.15
21
-114.95
0
LINE
8
BLACK
6
CONTINUOUS
10
177.15
20
-114.95
11
191.15
21
-114.95
0
LINE
8
BLACK
6
CONTINUOUS
10
177.15
20
-95.9
11
177.15
21
-81.9
0
LINE
8
BLACK
6
CONTINUOUS
10
177.15
20
-81.9
11
191.15
21
-81.9
0
LINE
8
BLACK
6
CONTINUOUS
10
191.15
20
-81.9
11
191.15
21
-95.9
0
LINE
8
BLACK
6
CONTINUOUS
10
177.15
20
-95.9
11
191.15
21
-95.9
0
LINE
8
BLACK
6
CONTINUOUS
10
158.1
20
-76.85
11
158.1
21
-62.85
0
LINE
8
BLACK
6
CONTINUOUS
10
158.1
20
-62.85
11
172.1
21
-62.85
0
LINE
8
BLACK
6
CONTINUOUS
10
172.1
20
-62.85
11
172.1
21
-76.85
0
LINE
8
BLACK
6
CONTINUOUS
10
158.1
20
-76.85
11
172.1
21
-76.85
0
LINE
8
BLACK
6
CONTINUOUS
10
177.15
20
-76.85
11
177.15
21
-62.85
0
LINE
8
BLACK
6
CONTINUOUS
10
177.15
20
-62.85
11
191.15
21
-62.85
0
LINE
8
BLACK
6
CONTINUOUS
10
191.15
20
-62.85
11
191.15
21
-76.85
0
LINE
8
BLACK
6
CONTINUOUS
10
177.15
20
-76.85
11
191.15
21
-76.85
0
LINE
8
BLACK
6
CONTINUOUS
10
158.1
20
-57.8
11
158.1
21
-43.8
0
LINE
8
BLACK
6
CONTINUOUS
10
158.1
20
-43.8
11
172.1
21
-43.8
0
LINE
8
BLACK
6
CONTINUOUS
10
172.1
20
-43.8
11
172.1
21
-57.8
0
LINE
8
BLACK
6
CONTINUOUS
10
158.1
20
-57.8
11
172.1
21
-57.8
0
LINE
8
BLACK
6
CONTINUOUS
10
139.05
20
-129.237
11
139.05
21
-115.237
0
LINE
8
BLACK
6
CONTINUOUS
10
139.05
20
-115.237
11
153.05
21
-115.237
0
LINE
8
BLACK
6
CONTINUOUS
10
153.05
20
-115.237
11
153.05
21
-129.237
0
LINE
8
BLACK
6
CONTINUOUS
10
139.05
20
-129.237
11
153.05
21
-129.237
0
LINE
8
BLACK
6
CONTINUOUS
10
81.9
20
-94.3125
11
81.9
21
-80.3125
0
LINE
8
BLACK
6
CONTINUOUS
10
81.9
20
-80.3125
11
95.9
21
-80.3125
0
LINE
8
BLACK
6
CONTINUOUS
10
95.9
20
-80.3125
11
95.9
21
-94.3125
0
LINE
8
BLACK
6
CONTINUOUS
10
81.9
20
-94.3125
11
95.9
21
-94.3125
0
LINE
8
BLACK
6
CONTINUOUS
10
81.9
20
-56.2125
11
81.9
21
-42.2125
0
LINE
8
BLACK
6
CONTINUOUS
10
81.9
20
-42.2125
11
95.9
21
-42.2125
0
LINE
8
BLACK
6
CONTINUOUS
10
95.9
20
-42.2125
11
95.9
21
-56.2125
0
LINE
8
BLACK
6
CONTINUOUS
10
81.9
20
-56.2125
11
95.9
21
-56.2125
0
LINE
8
BLACK
6
CONTINUOUS
10
81.9
20
-75.2625
11
81.9
21
-61.2625
0
LINE
8
BLACK
6
CONTINUOUS
10
81.9
20
-61.2625
11
95.9
21
-61.2625
0
LINE
8
BLACK
6
CONTINUOUS
10
95.9
20
-61.2625
11
95.9
21
-75.2625
0
LINE
8
BLACK
6
CONTINUOUS
10
81.9
20
-75.2625
11
95.9
21
-75.2625
0
LINE
8
BLACK
6
CONTINUOUS
10
120
20
-106.219
11
120
21
-92.2188
0
LINE
8
BLACK
6
CONTINUOUS
10
120
20
-92.2188
11
134
21
-92.2188
0
LINE
8
BLACK
6
CONTINUOUS
10
134
20
-92.2188
11
134
21
-106.219
0
LINE
8
BLACK
6
CONTINUOUS
10
120
20
-106.219
11
134
21
-106.219
0
LINE
8
BLACK
6
CONTINUOUS
10
120
20
-68.1187
11
120
21
-54.1187
0
LINE
8
BLACK
6
CONTINUOUS
10
120
20
-54.1187
11
134
21
-54.1187
0
LINE
8
BLACK
6
CONTINUOUS
10
134
20
-54.1187
11
134
21
-68.1187
0
LINE
8
BLACK
6
CONTINUOUS
10
120
20
-68.1187
11
134
21
-68.1187
0
LINE
8
BLACK
6
CONTINUOUS
10
100.95
20
-110.188
11
100.95
21
-96.1875
0
LINE
8
BLACK
6
CONTINUOUS
10
100.95
20
-96.1875
11
114.95
21
-96.1875
0
LINE
8
BLACK
6
CONTINUOUS
10
114.95
20
-96.1875
11
114.95
21
-110.188
0
LINE
8
BLACK
6
CONTINUOUS
10
100.95
20
-110.188
11
114.95
21
-110.188
0
LINE
8
BLACK
6
CONTINUOUS
10
139.05
20
-72.0875
11
139.05
21
-58.0875
0
LINE
8
BLACK
6
CONTINUOUS
10
139.05
20
-58.0875
11
153.05
21
-58.0875
0
LINE
8
BLACK
6
CONTINUOUS
10
153.05
20
-58.0875
11
153.05
21
-72.0875
0
LINE
8
BLACK
6
CONTINUOUS
10
139.05
20
-72.0875
11
153.05
21
-72.0875
0
LINE
8
BLACK
6
CONTINUOUS
10
139.05
20
-53.0375
11
139.05
21
-39.0375
0
LINE
8
BLACK
6
CONTINUOUS
10
139.05
20
-39.0375
11
153.05
21
-39.0375
0
LINE
8
BLACK
6
CONTINUOUS
10
153.05
20
-39.0375
11
153.05
21
-53.0375
0
LINE
8
BLACK
6
CONTINUOUS
10
139.05
20
-53.0375
11
153.05
21
-53.0375
0
LINE
8
BLACK
6
CONTINUOUS
10
120
20
-87.1688
11
120
21
-73.1688
0
LINE
8
BLACK
6
CONTINUOUS
10
120
20
-73.1688
11
134
21
-73.1688
0
LINE
8
BLACK
6
CONTINUOUS
10
134
20
-73.1688
11
134
21
-87.1688
0
LINE
8
BLACK
6
CONTINUOUS
10
120
20
-87.1688
11
134
21
-87.1688
0
LINE
8
BLACK
6
CONTINUOUS
10
100.95
20
-91.1375
11
100.95
21
-77.1375
0
LINE
8
BLACK
6
CONTINUOUS
10
100.95
20
-77.1375
11
114.95
21
-77.1375
0
LINE
8
BLACK
6
CONTINUOUS
10
114.95
20
-77.1375
11
114.95
21
-91.1375
0
LINE
8
BLACK
6
CONTINUOUS
10
100.95
20
-91.1375
11
114.95
21
-91.1375
0
LINE
8
BLACK
6
CONTINUOUS
10
100.95
20
-72.0875
11
100.95
21
-58.0875
0
LINE
8
BLACK
6
CONTINUOUS
10
100.95
20
-58.0875
11
114.95
21
-58.0875
0
LINE
8
BLACK
6
CONTINUOUS
10
114.95
20
-58.0875
11
114.95
21
-72.0875
0
LINE
8
BLACK
6
CONTINUOUS
10
100.95
20
-72.0875
11
114.95
21
-72.0875
0
LINE
8
BLACK
6
CONTINUOUS
10
139.05
20
-91.1375
11
139.05
21
-77.1375
0
LINE
8
BLACK
6
CONTINUOUS
10
139.05
20
-77.1375
11
153.05
21
-77.1375
0
LINE
8
BLACK
6
CONTINUOUS
10
153.05
20
-77.1375
11
153.05
21
-91.1375
0
LINE
8
BLACK
6
CONTINUOUS
10
139.05
20
-91.1375
11
153.05
21
-91.1375
0
LINE
8
BLACK
6
CONTINUOUS
10
100.95
20
-53.0375
11
100.95
21
-39.0375
0
LINE
8
BLACK
6
CONTINUOUS
10
100.95
20
-39.0375
11
114.95
21
-39.0375
0
LINE
8
BLACK
6
CONTINUOUS
10
114.95
20
-39.0375
11
114.95
21
-53.0375
0
LINE
8
BLACK
6
CONTINUOUS
10
100.95
20
-53.0375
11
114.95
21
-53.0375
0
LINE
8
BLACK
6
CONTINUOUS
10
81.9
20
-113.362
11
81.9
21
-99.3625
0
LINE
8
BLACK
6
CONTINUOUS
10
81.9
20
-99.3625
11
95.9
21
-99.3625
0
LINE
8
BLACK
6
CONTINUOUS
10
95.9
20
-99.3625
11
95.9
21
-113.362
0
LINE
8
BLACK
6
CONTINUOUS
10
81.9
20
-113.362
11
95.9
21
-113.362
0
LINE
8
BLACK
6
CONTINUOUS
10
139.05
20
-110.188
11
139.05
21
-96.1875
0
LINE
8
BLACK
6
CONTINUOUS
10
139.05
20
-96.1875
11
153.05
21
-96.1875
0
LINE
8
BLACK
6
CONTINUOUS
10
153.05
20
-96.1875
11
153.05
21
-110.188
0
LINE
8
BLACK
6
CONTINUOUS
10
139.05
20
-110.188
11
153.05
21
-110.188
0
LINE
8
BLACK
6
CONTINUOUS
10
120
20
-49.0687
11
120
21
-35.0688
0
LINE
8
BLACK
6
CONTINUOUS
10
120
20
-35.0688
11
134
21
-35.0688
0
LINE
8
BLACK
6
CONTINUOUS
10
134
20
-35.0688
11
134
21
-49.0687
0
LINE
8
BLACK
6
CONTINUOUS
10
120
20
-49.0687
11
134
21
-49.0687
0
LINE
8
BLACK
6
CONTINUOUS
10
107.3
20
-134
11
107.3
21
-120
0
LINE
8
BLACK
6
CONTINUOUS
10
107.3
20
-120
11
121.3
21
-120
0
LINE
8
BLACK
6
CONTINUOUS
10
121.3
20
-120
11
121.3
21
-134
0
LINE
8
BLACK
6
CONTINUOUS
10
107.3
20
-134
11
121.3
21
-134
0
LINE
8
BLACK
6
CONTINUOUS
10
197.787
20
-76.85
11
197.787
21
-62.85
0
LINE
8
BLACK
6
CONTINUOUS
10
197.787
20
-62.85
11
211.787
21
-62.85
0
LINE
8
BLACK
6
CONTINUOUS
10
211.787
20
-62.85
11
211.787
21
-76.85
0
LINE
8
BLACK
6
CONTINUOUS
10
197.787
20
-76.85
11
211.787
21
-76.85
0
LINE
8
BLACK
6
CONTINUOUS
10
197.788
20
-95.9
11
197.788
21
-81.9
0
LINE
8
BLACK
6
CONTINUOUS
10
197.788
20
-81.9
11
211.788
21
-81.9
0
LINE
8
BLACK
6
CONTINUOUS
10
211.788
20
-81.9
11
211.788
21
-95.9
0
LINE
8
BLACK
6
CONTINUOUS
10
197.788
20
-95.9
11
211.788
21
-95.9
0
LINE
8
BLACK
6
CONTINUOUS
10
197.788
20
-114.95
11
197.788
21
-100.95
0
LINE
8
BLACK
6
CONTINUOUS
10
197.788
20
-100.95
11
211.788
21
-100.95
0
LINE
8
BLACK
6
CONTINUOUS
10
211.788
20
-100.95
11
211.788
21
-114.95
0
LINE
8
BLACK
6
CONTINUOUS
10
197.788
20
-114.95
11
211.788
21
-114.95
0
LINE
8
BLACK
6
CONTINUOUS
10
197.788
20
-134
11
197.788
21
-120
0
LINE
8
BLACK
6
CONTINUOUS
10
197.788
20
-120
11
211.788
21
-120
0
LINE
8
BLACK
6
CONTINUOUS
10
211.788
20
-120
11
211.788
21
-134
0
LINE
8
BLACK
6
CONTINUOUS
10
197.788
20
-134
11
211.788
21
-134
0
LINE
8
BLACK
6
CONTINUOUS
10
216.837
20
-57.8
11
216.837
21
-43.8
0
LINE
8
BLACK
6
CONTINUOUS
10
216.837
20
-43.8
11
230.837
21
-43.8
0
LINE
8
BLACK
6
CONTINUOUS
10
230.837
20
-43.8
11
230.837
21
-57.8
0
LINE
8
BLACK
6
CONTINUOUS
10
216.837
20
-57.8
11
230.837
21
-57.8
0
LINE
8
BLACK
6
CONTINUOUS
10
216.837
20
-76.85
11
216.837
21
-62.85
0
LINE
8
BLACK
6
CONTINUOUS
10
216.837
20
-62.85
11
230.837
21
-62.85
0
LINE
8
BLACK
6
CONTINUOUS
10
230.837
20
-62.85
11
230.837
21
-76.85
0
LINE
8
BLACK
6
CONTINUOUS
10
216.837
20
-76.85
11
230.837
21
-76.85
0
LINE
8
BLACK
6
CONTINUOUS
10
216.838
20
-95.9
11
216.838
21
-81.9
0
LINE
8
BLACK
6
CONTINUOUS
10
216.838
20
-81.9
11
230.838
21
-81.9
0
LINE
8
BLACK
6
CONTINUOUS
10
230.838
20
-81.9
11
230.838
21
-95.9
0
LINE
8
BLACK
6
CONTINUOUS
10
216.838
20
-95.9
11
230.838
21
-95.9
0
LINE
8
BLACK
6
CONTINUOUS
10
216.837
20
-114.95
11
216.837
21
-100.95
0
LINE
8
BLACK
6
CONTINUOUS
10
216.837
20
-100.95
11
230.837
21
-100.95
0
LINE
8
BLACK
6
CONTINUOUS
10
230.837
20
-100.95
11
230.837
21
-114.95
0
LINE
8
BLACK
6
CONTINUOUS
10
216.837
20
-114.95
11
230.837
21
-114.95
0
LINE
8
BLACK
6
CONTINUOUS
10
216.837
20
-134
11
216.837
21
-120
0
LINE
8
BLACK
6
CONTINUOUS
10
216.837
20
-120
11
230.837
21
-120
0
LINE
8
BLACK
6
CONTINUOUS
10
230.837
20
-120
11
230.837
21
-134
0
LINE
8
BLACK
6
CONTINUOUS
10
216.837
20
-134
11
230.837
21
-134
0
LINE
8
BLACK
6
CONTINUOUS
10
235.887
20
-72.0875
11
235.887
21
-58.0875
0
LINE
8
BLACK
6
CONTINUOUS
10
235.887
20
-58.0875
11
249.887
21
-58.0875
0
LINE
8
BLACK
6
CONTINUOUS
10
249.887
20
-58.0875
11
249.887
21
-72.0875
0
LINE
8
BLACK
6
CONTINUOUS
10
235.887
20
-72.0875
11
249.887
21
-72.0875
0
LINE
8
BLACK
6
CONTINUOUS
10
235.887
20
-91.1375
11
235.887
21
-77.1375
0
LINE
8
BLACK
6
CONTINUOUS
10
235.887
20
-77.1375
11
249.887
21
-77.1375
0
LINE
8
BLACK
6
CONTINUOUS
10
249.887
20
-77.1375
11
249.887
21
-91.1375
0
LINE
8
BLACK
6
CONTINUOUS
10
235.887
20
-91.1375
11
249.887
21
-91.1375
0
LINE
8
BLACK
6
CONTINUOUS
10
235.887
20
-110.187
11
235.887
21
-96.1875
0
LINE
8
BLACK
6
CONTINUOUS
10
235.887
20
-96.1875
11
249.887
21
-96.1875
0
LINE
8
BLACK
6
CONTINUOUS
10
249.887
20
-96.1875
11
249.887
21
-110.187
0
LINE
8
BLACK
6
CONTINUOUS
10
235.887
20
-110.187
11
249.887
21
-110.187
0
LINE
8
BLACK
6
CONTINUOUS
10
254.938
20
-49.0687
11
254.938
21
-35.0688
0
LINE
8
BLACK
6
CONTINUOUS
10
254.938
20
-35.0688
11
268.938
21
-35.0688
0
LINE
8
BLACK
6
CONTINUOUS
10
268.938
20
-35.0688
11
268.938
21
-49.0687
0
LINE
8
BLACK
6
CONTINUOUS
10
254.938
20
-49.0687
11
268.938
21
-49.0687
0
LINE
8
BLACK
6
CONTINUOUS
10
254.938
20
-68.1188
11
254.938
21
-54.1188
0
LINE
8
BLACK
6
CONTINUOUS
10
254.938
20
-54.1188
11
268.938
21
-54.1188
0
LINE
8
BLACK
6
CONTINUOUS
10
268.938
20
-54.1188
11
268.938
21
-68.1188
0
LINE
8
BLACK
6
CONTINUOUS
10
254.938
20
-68.1188
11
268.938
21
-68.1188
0
LINE
8
BLACK
6
CONTINUOUS
10
254.938
20
-87.1687
11
254.938
21
-73.1687
0
LINE
8
BLACK
6
CONTINUOUS
10
254.938
20
-73.1687
11
268.938
21
-73.1687
0
LINE
8
BLACK
6
CONTINUOUS
10
268.938
20
-73.1687
11
268.938
21
-87.1687
0
LINE
8
BLACK
6
CONTINUOUS
10
254.938
20
-87.1687
11
268.938
21
-87.1687
0
LINE
8
BLACK
6
CONTINUOUS
10
254.938
20
-106.219
11
254.938
21
-92.2188
0
LINE
8
BLACK
6
CONTINUOUS
10
254.938
20
-92.2188
11
268.938
21
-92.2188
0
LINE
8
BLACK
6
CONTINUOUS
10
268.938
20
-92.2188
11
268.938
21
-106.219
0
LINE
8
BLACK
6
CONTINUOUS
10
254.938
20
-106.219
11
268.938
21
-106.219
0
LINE
8
BLACK
6
CONTINUOUS
10
267.637
20
-134
11
267.637
21
-120
0
LINE
8
BLACK
6
CONTINUOUS
10
267.637
20
-120
11
281.637
21
-120
0
LINE
8
BLACK
6
CONTINUOUS
10
281.637
20
-120
11
281.637
21
-134
0
LINE
8
BLACK
6
CONTINUOUS
10
267.637
20
-134
11
281.637
21
-134
0
LINE
8
BLACK
6
CONTINUOUS
10
273.987
20
-53.0375
11
273.987
21
-39.0375
0
LINE
8
BLACK
6
CONTINUOUS
10
273.987
20
-39.0375
11
287.987
21
-39.0375
0
LINE
8
BLACK
6
CONTINUOUS
10
287.987
20
-39.0375
11
287.987
21
-53.0375
0
LINE
8
BLACK
6
CONTINUOUS
10
273.987
20
-53.0375
11
287.987
21
-53.0375
0
LINE
8
BLACK
6
CONTINUOUS
10
273.987
20
-72.0875
11
273.987
21
-58.0875
0
LINE
8
BLACK
6
CONTINUOUS
10
273.987
20
-58.0875
11
287.987
21
-58.0875
0
LINE
8
BLACK
6
CONTINUOUS
10
287.987
20
-58.0875
11
287.987
21
-72.0875
0
LINE
8
BLACK
6
CONTINUOUS
10
273.987
20
-72.0875
11
287.987
21
-72.0875
0
LINE
8
BLACK
6
CONTINUOUS
10
293.038
20
-56.2125
11
293.038
21
-42.2125
0
LINE
8
BLACK
6
CONTINUOUS
10
293.038
20
-42.2125
11
307.038
21
-42.2125
0
LINE
8
BLACK
6
CONTINUOUS
10
307.038
20
-42.2125
11
307.038
21
-56.2125
0
LINE
8
BLACK
6
CONTINUOUS
10
293.038
20
-56.2125
11
307.038
21
-56.2125
0
LINE
8
BLACK
6
CONTINUOUS
10
197.787
20
-57.8
11
197.787
21
-43.8
0
LINE
8
BLACK
6
CONTINUOUS
10
197.787
20
-43.8
11
211.787
21
-43.8
0
LINE
8
BLACK
6
CONTINUOUS
10
211.787
20
-43.8
11
211.787
21
-57.8
0
LINE
8
BLACK
6
CONTINUOUS
10
197.787
20
-57.8
11
211.787
21
-57.8
0
LINE
8
BLACK
6
CONTINUOUS
10
273.988
20
-91.1375
11
273.988
21
-77.1375
0
LINE
8
BLACK
6
CONTINUOUS
10
273.988
20
-77.1375
11
287.988
21
-77.1375
0
LINE
8
BLACK
6
CONTINUOUS
10
287.988
20
-77.1375
11
287.988
21
-91.1375
0
LINE
8
BLACK
6
CONTINUOUS
10
273.988
20
-91.1375
11
287.988
21
-91.1375
0
LINE
8
BLACK
6
CONTINUOUS
10
293.037
20
-75.2625
11
293.037
21
-61.2625
0
LINE
8
BLACK
6
CONTINUOUS
10
293.037
20
-61.2625
11
307.037
21
-61.2625
0
LINE
8
BLACK
6
CONTINUOUS
10
307.037
20
-61.2625
11
307.037
21
-75.2625
0
LINE
8
BLACK
6
CONTINUOUS
10
293.037
20
-75.2625
11
307.037
21
-75.2625
0
LINE
8
BLACK
6
CONTINUOUS
10
293.037
20
-94.3125
11
293.037
21
-80.3125
0
LINE
8
BLACK
6
CONTINUOUS
10
293.037
20
-80.3125
11
307.037
21
-80.3125
0
LINE
8
BLACK
6
CONTINUOUS
10
307.037
20
-80.3125
11
307.037
21
-94.3125
0
LINE
8
BLACK
6
CONTINUOUS
10
293.037
20
-94.3125
11
307.037
21
-94.3125
0
LINE
8
BLACK
6
CONTINUOUS
10
287.29
20
-134.099
11
290.914
21
-120.576
0
LINE
8
BLACK
6
CONTINUOUS
10
290.914
20
-120.576
11
304.437
21
-124.2
0
LINE
8
BLACK
6
CONTINUOUS
10
304.437
20
-124.2
11
300.813
21
-137.722
0
LINE
8
BLACK
6
CONTINUOUS
10
287.29
20
-134.099
11
300.813
21
-137.722
0
LINE
8
BLACK
6
CONTINUOUS
10
273.988
20
-110.187
11
273.988
21
-96.1875
0
LINE
8
BLACK
6
CONTINUOUS
10
273.988
20
-96.1875
11
287.988
21
-96.1875
0
LINE
8
BLACK
6
CONTINUOUS
10
287.988
20
-96.1875
11
287.988
21
-110.187
0
LINE
8
BLACK
6
CONTINUOUS
10
273.988
20
-110.187
11
287.988
21
-110.187
0
LINE
8
BLACK
6
CONTINUOUS
10
277.171
20
-153.233
11
278.999
21
-139.352
0
LINE
8
BLACK
6
CONTINUOUS
10
278.999
20
-139.352
11
292.879
21
-141.18
0
LINE
8
BLACK
6
CONTINUOUS
10
292.879
20
-141.18
11
291.051
21
-155.06
0
LINE
8
BLACK
6
CONTINUOUS
10
277.171
20
-153.233
11
291.051
21
-155.06
0
LINE
8
BLACK
6
CONTINUOUS
10
296.869
20
-155.818
11
303.869
21
-143.694
0
LINE
8
BLACK
6
CONTINUOUS
10
303.869
20
-143.694
11
315.993
21
-150.694
0
LINE
8
BLACK
6
CONTINUOUS
10
315.993
20
-150.694
11
308.993
21
-162.818
0
LINE
8
BLACK
6
CONTINUOUS
10
296.869
20
-155.818
11
308.993
21
-162.818
0
LINE
8
BLACK
6
CONTINUOUS
10
315.919
20
-122.827
11
322.919
21
-110.703
0
LINE
8
BLACK
6
CONTINUOUS
10
322.919
20
-110.703
11
335.043
21
-117.703
0
LINE
8
BLACK
6
CONTINUOUS
10
335.043
20
-117.703
11
328.043
21
-129.827
0
LINE
8
BLACK
6
CONTINUOUS
10
315.919
20
-122.827
11
328.043
21
-129.827
0
LINE
8
BLACK
6
CONTINUOUS
10
306.394
20
-139.325
11
313.394
21
-127.2
0
LINE
8
BLACK
6
CONTINUOUS
10
313.394
20
-127.2
11
325.518
21
-134.2
0
LINE
8
BLACK
6
CONTINUOUS
10
325.518
20
-134.2
11
318.518
21
-146.325
0
LINE
8
BLACK
6
CONTINUOUS
10
306.394
20
-139.325
11
318.518
21
-146.325
0
LINE
8
BLACK
6
CONTINUOUS
10
235.888
20
-129.237
11
235.888
21
-115.237
0
LINE
8
BLACK
6
CONTINUOUS
10
235.888
20
-115.237
11
249.888
21
-115.237
0
LINE
8
BLACK
6
CONTINUOUS
10
249.888
20
-115.237
11
249.888
21
-129.237
0
LINE
8
BLACK
6
CONTINUOUS
10
235.888
20
-129.237
11
249.888
21
-129.237
0
LINE
8
BLACK
6
CONTINUOUS
10
235.887
20
-53.0375
11
235.887
21
-39.0375
0
LINE
8
BLACK
6
CONTINUOUS
10
235.887
20
-39.0375
11
249.887
21
-39.0375
0
LINE
8
BLACK
6
CONTINUOUS
10
249.887
20
-39.0375
11
249.887
21
-53.0375
0
LINE
8
BLACK
6
CONTINUOUS
10
235.887
20
-53.0375
11
249.887
21
-53.0375
0
LINE
8
BLACK
6
CONTINUOUS
10
293.037
20
-113.362
11
293.037
21
-99.3625
0
LINE
8
BLACK
6
CONTINUOUS
10
293.037
20
-99.3625
11
307.037
21
-99.3625
0
LINE
8
BLACK
6
CONTINUOUS
10
307.037
20
-99.3625
11
307.037
21
-113.362
0
LINE
8
BLACK
6
CONTINUOUS
10
293.037
20
-113.362
11
307.037
21
-113.362
  0
ENDSEC
  0
EOF
