  0
SECTION
  2
HEADER
  9
$ANGBASE
  50
0.0
  9
$ANGDIR
  70
1
  9
$MEASUREMENT
  70
1
  0
ENDSEC
  0
SECTION
  2
TABLES
  0
TABLE
  2
LTYPE
  70
4
  0
LTYPE
  5
40F
  2
CONTINUOUS
  70
0
  3
Solid line
  72
65
  73
0
  40
0.0
  0
LTYPE
  5
410
  2
DASHDOT
 70
0
  3
Dash Dot ____ _ ____ _
 72
65
 73
4
 40
2.0
 49
1.25
 49
-0.25
 49
0.25
 49
-0.25
  0
LTYPE
  5
411
  2
DASHED
 70
0
  3
Dashed __ __ __ __ __
 72
65
 73
2
 40
0.75
 49
0.5
 49
-0.25
  0
LTYPE
  5
43B
  2
DOTTED
 70
0
  3
Dotted .  .  .  .
 72
65
 73
2
 40
0.2
 49
0.0
 49
-0.2
  0
ENDTAB
  0
TABLE
  2
STYLE
  70
4
  0
STYLE
  2
KICAD
  70
0
  40
0
  41
1
  42
1
  50
0
  71
0
  3
isocp.shx
  0
STYLE
  2
KICADB
  70
0
  40
0
  41
1
  42
1
  50
0
  71
0
  3
isocp.shx
  0
STYLE
  2
KICADI
  70
0
  40
0
  41
1
  42
1
  50
15
  71
0
  3
isocp.shx
  0
STYLE
  2
KICADBI
  70
0
  40
0
  41
1
  42
1
  50
15
  71
0
  3
isocp.shx
  0
ENDTAB
  0
TABLE
  2
LAYER
  70
1
  0
LAYER
  2
BLACK
  70
0
  62
7
  6
CONTINUOUS
  0
ENDTAB
  0
ENDSEC
  0
SECTION
  2
ENTITIES
0
LINE
8
BLACK
6
CONTINUOUS
10
332.176
20
-126.844
11
330.184
21
-125.694
0
LINE
8
BLACK
6
CONTINUOUS
10
332.534
20
-121.623
11
330.184
21
-125.694
0
LINE
8
BLACK
6
CONTINUOUS
10
334.526
20
-122.773
11
332.534
21
-121.623
0
LINE
8
BLACK
6
CONTINUOUS
10
332.176
20
-126.844
11
334.526
21
-122.773
0
LINE
8
BLACK
6
CONTINUOUS
10
322.651
20
-143.341
11
320.659
21
-142.191
0
LINE
8
BLACK
6
CONTINUOUS
10
323.009
20
-138.121
11
320.659
21
-142.191
0
LINE
8
BLACK
6
CONTINUOUS
10
325.001
20
-139.271
11
323.009
21
-138.121
0
LINE
8
BLACK
6
CONTINUOUS
10
322.651
20
-143.341
11
325.001
21
-139.271
0
LINE
8
BLACK
6
CONTINUOUS
10
313.126
20
-159.839
11
311.134
21
-158.689
0
LINE
8
BLACK
6
CONTINUOUS
10
313.484
20
-154.619
11
311.134
21
-158.689
0
LINE
8
BLACK
6
CONTINUOUS
10
315.476
20
-155.769
11
313.484
21
-154.619
0
LINE
8
BLACK
6
CONTINUOUS
10
313.126
20
-159.839
11
315.476
21
-155.769
0
LINE
8
BLACK
6
CONTINUOUS
10
293.88
20
-150.723
11
291.6
21
-150.423
0
LINE
8
BLACK
6
CONTINUOUS
10
292.214
20
-145.763
11
291.6
21
-150.423
0
LINE
8
BLACK
6
CONTINUOUS
10
294.494
20
-146.064
11
292.214
21
-145.763
0
LINE
8
BLACK
6
CONTINUOUS
10
293.88
20
-150.723
11
294.494
21
-146.064
0
LINE
8
BLACK
6
CONTINUOUS
10
290.075
20
-105.538
11
287.775
21
-105.538
0
LINE
8
BLACK
6
CONTINUOUS
10
287.775
20
-100.838
11
287.775
21
-105.538
0
LINE
8
BLACK
6
CONTINUOUS
10
290.075
20
-100.838
11
287.775
21
-100.838
0
LINE
8
BLACK
6
CONTINUOUS
10
290.075
20
-105.538
11
290.075
21
-100.838
0
LINE
8
BLACK
6
CONTINUOUS
10
303.88
20
-133.515
11
301.658
21
-132.92
0
LINE
8
BLACK
6
CONTINUOUS
10
302.875
20
-128.38
11
301.658
21
-132.92
0
LINE
8
BLACK
6
CONTINUOUS
10
305.096
20
-128.976
11
302.875
21
-128.38
0
LINE
8
BLACK
6
CONTINUOUS
10
303.88
20
-133.515
11
305.096
21
-128.976
0
LINE
8
BLACK
6
CONTINUOUS
10
309.125
20
-89.6625
11
306.825
21
-89.6625
0
LINE
8
BLACK
6
CONTINUOUS
10
306.825
20
-84.9625
11
306.825
21
-89.6625
0
LINE
8
BLACK
6
CONTINUOUS
10
309.125
20
-84.9625
11
306.825
21
-84.9625
0
LINE
8
BLACK
6
CONTINUOUS
10
309.125
20
-89.6625
11
309.125
21
-84.9625
0
LINE
8
BLACK
6
CONTINUOUS
10
309.125
20
-70.6125
11
306.825
21
-70.6125
0
LINE
8
BLACK
6
CONTINUOUS
10
306.825
20
-65.9125
11
306.825
21
-70.6125
0
LINE
8
BLACK
6
CONTINUOUS
10
309.125
20
-65.9125
11
306.825
21
-65.9125
0
LINE
8
BLACK
6
CONTINUOUS
10
309.125
20
-70.6125
11
309.125
21
-65.9125
0
LINE
8
BLACK
6
CONTINUOUS
10
213.875
20
-53.15
11
211.575
21
-53.15
0
LINE
8
BLACK
6
CONTINUOUS
10
211.575
20
-48.45
11
211.575
21
-53.15
0
LINE
8
BLACK
6
CONTINUOUS
10
213.875
20
-48.45
11
211.575
21
-48.45
0
LINE
8
BLACK
6
CONTINUOUS
10
213.875
20
-53.15
11
213.875
21
-48.45
0
LINE
8
BLACK
6
CONTINUOUS
10
73.6437
20
-83.0625
11
67.6437
21
-83.0625
0
LINE
8
BLACK
6
CONTINUOUS
10
73.6437
20
-91.5625
11
73.6437
21
-83.0625
0
LINE
8
BLACK
6
CONTINUOUS
10
67.6437
20
-91.5625
11
73.6437
21
-91.5625
0
LINE
8
BLACK
6
CONTINUOUS
10
67.6437
20
-83.0625
11
67.6437
21
-91.5625
0
LINE
8
BLACK
6
CONTINUOUS
10
322.881
20
-83.0625
11
316.881
21
-83.0625
0
LINE
8
BLACK
6
CONTINUOUS
10
322.881
20
-91.5625
11
322.881
21
-83.0625
0
LINE
8
BLACK
6
CONTINUOUS
10
316.881
20
-91.5625
11
322.881
21
-91.5625
0
LINE
8
BLACK
6
CONTINUOUS
10
316.881
20
-83.0625
11
316.881
21
-91.5625
0
LINE
8
BLACK
6
CONTINUOUS
10
71.3738
20
-82.6937
11
71.3738
21
-79.3937
0
LINE
8
BLACK
6
CONTINUOUS
10
69.9137
20
-82.6937
11
71.3738
21
-82.6937
0
LINE
8
BLACK
6
CONTINUOUS
10
69.9137
20
-79.3937
11
69.9137
21
-82.6937
0
LINE
8
BLACK
6
CONTINUOUS
10
71.3738
20
-79.3937
11
69.9137
21
-79.3937
0
LINE
8
BLACK
6
CONTINUOUS
10
320.611
20
-82.6125
11
320.611
21
-79.3125
0
LINE
8
BLACK
6
CONTINUOUS
10
319.151
20
-82.6125
11
320.611
21
-82.6125
0
LINE
8
BLACK
6
CONTINUOUS
10
319.151
20
-79.3125
11
319.151
21
-82.6125
0
LINE
8
BLACK
6
CONTINUOUS
10
320.611
20
-79.3125
11
319.151
21
-79.3125
0
LINE
8
BLACK
6
CONTINUOUS
10
76.2537
20
-111.706
11
76.2537
21
-115.306
0
LINE
8
BLACK
6
CONTINUOUS
10
54.9037
20
-111.706
11
76.2537
21
-111.706
0
LINE
8
BLACK
6
CONTINUOUS
10
54.9037
20
-115.306
11
54.9037
21
-111.706
0
LINE
8
BLACK
6
CONTINUOUS
10
76.2537
20
-115.306
11
54.9037
21
-115.306
0
LINE
8
BLACK
6
CONTINUOUS
10
193.237
20
-129.35
11
190.938
21
-129.35
0
LINE
8
BLACK
6
CONTINUOUS
10
190.938
20
-124.65
11
190.938
21
-129.35
0
LINE
8
BLACK
6
CONTINUOUS
10
193.237
20
-124.65
11
190.938
21
-124.65
0
LINE
8
BLACK
6
CONTINUOUS
10
193.237
20
-129.35
11
193.237
21
-124.65
0
LINE
8
BLACK
6
CONTINUOUS
10
193.237
20
-110.3
11
190.938
21
-110.3
0
LINE
8
BLACK
6
CONTINUOUS
10
190.938
20
-105.6
11
190.938
21
-110.3
0
LINE
8
BLACK
6
CONTINUOUS
10
193.237
20
-105.6
11
190.938
21
-105.6
0
LINE
8
BLACK
6
CONTINUOUS
10
193.237
20
-110.3
11
193.237
21
-105.6
0
LINE
8
BLACK
6
CONTINUOUS
10
193.237
20
-91.25
11
190.938
21
-91.25
0
LINE
8
BLACK
6
CONTINUOUS
10
190.938
20
-86.55
11
190.938
21
-91.25
0
LINE
8
BLACK
6
CONTINUOUS
10
193.237
20
-86.55
11
190.938
21
-86.55
0
LINE
8
BLACK
6
CONTINUOUS
10
193.237
20
-91.25
11
193.237
21
-86.55
0
LINE
8
BLACK
6
CONTINUOUS
10
193.237
20
-72.2
11
190.938
21
-72.2
0
LINE
8
BLACK
6
CONTINUOUS
10
190.938
20
-67.5
11
190.938
21
-72.2
0
LINE
8
BLACK
6
CONTINUOUS
10
193.237
20
-67.5
11
190.938
21
-67.5
0
LINE
8
BLACK
6
CONTINUOUS
10
193.237
20
-72.2
11
193.237
21
-67.5
0
LINE
8
BLACK
6
CONTINUOUS
10
193.237
20
-53.15
11
190.938
21
-53.15
0
LINE
8
BLACK
6
CONTINUOUS
10
190.938
20
-48.45
11
190.938
21
-53.15
0
LINE
8
BLACK
6
CONTINUOUS
10
193.237
20
-48.45
11
190.938
21
-48.45
0
LINE
8
BLACK
6
CONTINUOUS
10
193.237
20
-53.15
11
193.237
21
-48.45
0
LINE
8
BLACK
6
CONTINUOUS
10
174.188
20
-129.35
11
171.887
21
-129.35
0
LINE
8
BLACK
6
CONTINUOUS
10
171.887
20
-124.65
11
171.887
21
-129.35
0
LINE
8
BLACK
6
CONTINUOUS
10
174.188
20
-124.65
11
171.887
21
-124.65
0
LINE
8
BLACK
6
CONTINUOUS
10
174.188
20
-129.35
11
174.188
21
-124.65
0
LINE
8
BLACK
6
CONTINUOUS
10
174.188
20
-110.3
11
171.887
21
-110.3
0
LINE
8
BLACK
6
CONTINUOUS
10
171.887
20
-105.6
11
171.887
21
-110.3
0
LINE
8
BLACK
6
CONTINUOUS
10
174.188
20
-105.6
11
171.887
21
-105.6
0
LINE
8
BLACK
6
CONTINUOUS
10
174.188
20
-110.3
11
174.188
21
-105.6
0
LINE
8
BLACK
6
CONTINUOUS
10
174.188
20
-91.25
11
171.887
21
-91.25
0
LINE
8
BLACK
6
CONTINUOUS
10
171.887
20
-86.55
11
171.887
21
-91.25
0
LINE
8
BLACK
6
CONTINUOUS
10
174.188
20
-86.55
11
171.887
21
-86.55
0
LINE
8
BLACK
6
CONTINUOUS
10
174.188
20
-91.25
11
174.188
21
-86.55
0
LINE
8
BLACK
6
CONTINUOUS
10
174.188
20
-72.2
11
171.887
21
-72.2
0
LINE
8
BLACK
6
CONTINUOUS
10
171.887
20
-67.5
11
171.887
21
-72.2
0
LINE
8
BLACK
6
CONTINUOUS
10
174.188
20
-67.5
11
171.887
21
-67.5
0
LINE
8
BLACK
6
CONTINUOUS
10
174.188
20
-72.2
11
174.188
21
-67.5
0
LINE
8
BLACK
6
CONTINUOUS
10
174.188
20
-53.15
11
171.887
21
-53.15
0
LINE
8
BLACK
6
CONTINUOUS
10
171.887
20
-48.45
11
171.887
21
-53.15
0
LINE
8
BLACK
6
CONTINUOUS
10
174.188
20
-48.45
11
171.887
21
-48.45
0
LINE
8
BLACK
6
CONTINUOUS
10
174.188
20
-53.15
11
174.188
21
-48.45
0
LINE
8
BLACK
6
CONTINUOUS
10
155.137
20
-124.587
11
152.838
21
-124.587
0
LINE
8
BLACK
6
CONTINUOUS
10
152.838
20
-119.887
11
152.838
21
-124.587
0
LINE
8
BLACK
6
CONTINUOUS
10
155.137
20
-119.887
11
152.838
21
-119.887
0
LINE
8
BLACK
6
CONTINUOUS
10
155.137
20
-124.587
11
155.137
21
-119.887
0
LINE
8
BLACK
6
CONTINUOUS
10
155.137
20
-105.537
11
152.838
21
-105.537
0
LINE
8
BLACK
6
CONTINUOUS
10
152.838
20
-100.837
11
152.838
21
-105.537
0
LINE
8
BLACK
6
CONTINUOUS
10
155.137
20
-100.837
11
152.838
21
-100.837
0
LINE
8
BLACK
6
CONTINUOUS
10
155.137
20
-105.537
11
155.137
21
-100.837
0
LINE
8
BLACK
6
CONTINUOUS
10
155.137
20
-86.4875
11
152.838
21
-86.4875
0
LINE
8
BLACK
6
CONTINUOUS
10
152.838
20
-81.7875
11
152.838
21
-86.4875
0
LINE
8
BLACK
6
CONTINUOUS
10
155.137
20
-81.7875
11
152.838
21
-81.7875
0
LINE
8
BLACK
6
CONTINUOUS
10
155.137
20
-86.4875
11
155.137
21
-81.7875
0
LINE
8
BLACK
6
CONTINUOUS
10
155.137
20
-67.4375
11
152.838
21
-67.4375
0
LINE
8
BLACK
6
CONTINUOUS
10
152.838
20
-62.7375
11
152.838
21
-67.4375
0
LINE
8
BLACK
6
CONTINUOUS
10
155.137
20
-62.7375
11
152.838
21
-62.7375
0
LINE
8
BLACK
6
CONTINUOUS
10
155.137
20
-67.4375
11
155.137
21
-62.7375
0
LINE
8
BLACK
6
CONTINUOUS
10
155.137
20
-48.3875
11
152.838
21
-48.3875
0
LINE
8
BLACK
6
CONTINUOUS
10
152.838
20
-43.6875
11
152.838
21
-48.3875
0
LINE
8
BLACK
6
CONTINUOUS
10
155.137
20
-43.6875
11
152.838
21
-43.6875
0
LINE
8
BLACK
6
CONTINUOUS
10
155.137
20
-48.3875
11
155.137
21
-43.6875
0
LINE
8
BLACK
6
CONTINUOUS
10
123.387
20
-129.35
11
121.087
21
-129.35
0
LINE
8
BLACK
6
CONTINUOUS
10
121.087
20
-124.65
11
121.087
21
-129.35
0
LINE
8
BLACK
6
CONTINUOUS
10
123.387
20
-124.65
11
121.087
21
-124.65
0
LINE
8
BLACK
6
CONTINUOUS
10
123.387
20
-129.35
11
123.387
21
-124.65
0
LINE
8
BLACK
6
CONTINUOUS
10
136.088
20
-101.569
11
133.787
21
-101.569
0
LINE
8
BLACK
6
CONTINUOUS
10
133.787
20
-96.8687
11
133.787
21
-101.569
0
LINE
8
BLACK
6
CONTINUOUS
10
136.088
20
-96.8687
11
133.787
21
-96.8687
0
LINE
8
BLACK
6
CONTINUOUS
10
136.088
20
-101.569
11
136.088
21
-96.8687
0
LINE
8
BLACK
6
CONTINUOUS
10
136.088
20
-82.5187
11
133.787
21
-82.5187
0
LINE
8
BLACK
6
CONTINUOUS
10
133.787
20
-77.8187
11
133.787
21
-82.5187
0
LINE
8
BLACK
6
CONTINUOUS
10
136.088
20
-77.8187
11
133.787
21
-77.8187
0
LINE
8
BLACK
6
CONTINUOUS
10
136.088
20
-82.5187
11
136.088
21
-77.8187
0
LINE
8
BLACK
6
CONTINUOUS
10
136.088
20
-63.4688
11
133.787
21
-63.4688
0
LINE
8
BLACK
6
CONTINUOUS
10
133.787
20
-58.7687
11
133.787
21
-63.4688
0
LINE
8
BLACK
6
CONTINUOUS
10
136.088
20
-58.7687
11
133.787
21
-58.7687
0
LINE
8
BLACK
6
CONTINUOUS
10
136.088
20
-63.4688
11
136.088
21
-58.7687
0
LINE
8
BLACK
6
CONTINUOUS
10
136.088
20
-44.4187
11
133.787
21
-44.4187
0
LINE
8
BLACK
6
CONTINUOUS
10
133.787
20
-39.7188
11
133.787
21
-44.4187
0
LINE
8
BLACK
6
CONTINUOUS
10
136.088
20
-39.7188
11
133.787
21
-39.7188
0
LINE
8
BLACK
6
CONTINUOUS
10
136.088
20
-44.4187
11
136.088
21
-39.7188
0
LINE
8
BLACK
6
CONTINUOUS
10
117.037
20
-105.537
11
114.737
21
-105.537
0
LINE
8
BLACK
6
CONTINUOUS
10
114.737
20
-100.837
11
114.737
21
-105.537
0
LINE
8
BLACK
6
CONTINUOUS
10
117.037
20
-100.837
11
114.737
21
-100.837
0
LINE
8
BLACK
6
CONTINUOUS
10
117.037
20
-105.537
11
117.037
21
-100.837
0
LINE
8
BLACK
6
CONTINUOUS
10
117.037
20
-86.4875
11
114.737
21
-86.4875
0
LINE
8
BLACK
6
CONTINUOUS
10
114.737
20
-81.7875
11
114.737
21
-86.4875
0
LINE
8
BLACK
6
CONTINUOUS
10
117.037
20
-81.7875
11
114.737
21
-81.7875
0
LINE
8
BLACK
6
CONTINUOUS
10
117.037
20
-86.4875
11
117.037
21
-81.7875
0
LINE
8
BLACK
6
CONTINUOUS
10
117.037
20
-67.4375
11
114.737
21
-67.4375
0
LINE
8
BLACK
6
CONTINUOUS
10
114.737
20
-62.7375
11
114.737
21
-67.4375
0
LINE
8
BLACK
6
CONTINUOUS
10
117.037
20
-62.7375
11
114.737
21
-62.7375
0
LINE
8
BLACK
6
CONTINUOUS
10
117.037
20
-67.4375
11
117.037
21
-62.7375
0
LINE
8
BLACK
6
CONTINUOUS
10
117.037
20
-48.3875
11
114.737
21
-48.3875
0
LINE
8
BLACK
6
CONTINUOUS
10
114.737
20
-43.6875
11
114.737
21
-48.3875
0
LINE
8
BLACK
6
CONTINUOUS
10
117.037
20
-43.6875
11
114.737
21
-43.6875
0
LINE
8
BLACK
6
CONTINUOUS
10
117.037
20
-48.3875
11
117.037
21
-43.6875
0
LINE
8
BLACK
6
CONTINUOUS
10
97.9875
20
-108.712
11
95.6875
21
-108.712
0
LINE
8
BLACK
6
CONTINUOUS
10
95.6875
20
-104.012
11
95.6875
21
-108.712
0
LINE
8
BLACK
6
CONTINUOUS
10
97.9875
20
-104.012
11
95.6875
21
-104.012
0
LINE
8
BLACK
6
CONTINUOUS
10
97.9875
20
-108.712
11
97.9875
21
-104.012
0
LINE
8
BLACK
6
CONTINUOUS
10
97.9875
20
-89.6625
11
95.6875
21
-89.6625
0
LINE
8
BLACK
6
CONTINUOUS
10
95.6875
20
-84.9625
11
95.6875
21
-89.6625
0
LINE
8
BLACK
6
CONTINUOUS
10
97.9875
20
-84.9625
11
95.6875
21
-84.9625
0
LINE
8
BLACK
6
CONTINUOUS
10
97.9875
20
-89.6625
11
97.9875
21
-84.9625
0
LINE
8
BLACK
6
CONTINUOUS
10
97.9875
20
-70.6125
11
95.6875
21
-70.6125
0
LINE
8
BLACK
6
CONTINUOUS
10
95.6875
20
-65.9125
11
95.6875
21
-70.6125
0
LINE
8
BLACK
6
CONTINUOUS
10
97.9875
20
-65.9125
11
95.6875
21
-65.9125
0
LINE
8
BLACK
6
CONTINUOUS
10
97.9875
20
-70.6125
11
97.9875
21
-65.9125
0
LINE
8
BLACK
6
CONTINUOUS
10
97.9875
20
-51.5625
11
95.6875
21
-51.5625
0
LINE
8
BLACK
6
CONTINUOUS
10
95.6875
20
-46.8625
11
95.6875
21
-51.5625
0
LINE
8
BLACK
6
CONTINUOUS
10
97.9875
20
-46.8625
11
95.6875
21
-46.8625
0
LINE
8
BLACK
6
CONTINUOUS
10
97.9875
20
-51.5625
11
97.9875
21
-46.8625
0
LINE
8
BLACK
6
CONTINUOUS
10
309.125
20
-108.712
11
306.825
21
-108.712
0
LINE
8
BLACK
6
CONTINUOUS
10
306.825
20
-104.012
11
306.825
21
-108.712
0
LINE
8
BLACK
6
CONTINUOUS
10
309.125
20
-104.012
11
306.825
21
-104.012
0
LINE
8
BLACK
6
CONTINUOUS
10
309.125
20
-108.712
11
309.125
21
-104.012
0
LINE
8
BLACK
6
CONTINUOUS
10
309.125
20
-51.5625
11
306.825
21
-51.5625
0
LINE
8
BLACK
6
CONTINUOUS
10
306.825
20
-46.8625
11
306.825
21
-51.5625
0
LINE
8
BLACK
6
CONTINUOUS
10
309.125
20
-46.8625
11
306.825
21
-46.8625
0
LINE
8
BLACK
6
CONTINUOUS
10
309.125
20
-51.5625
11
309.125
21
-46.8625
0
LINE
8
BLACK
6
CONTINUOUS
10
290.075
20
-86.4875
11
287.775
21
-86.4875
0
LINE
8
BLACK
6
CONTINUOUS
10
287.775
20
-81.7875
11
287.775
21
-86.4875
0
LINE
8
BLACK
6
CONTINUOUS
10
290.075
20
-81.7875
11
287.775
21
-81.7875
0
LINE
8
BLACK
6
CONTINUOUS
10
290.075
20
-86.4875
11
290.075
21
-81.7875
0
LINE
8
BLACK
6
CONTINUOUS
10
290.075
20
-67.4375
11
287.775
21
-67.4375
0
LINE
8
BLACK
6
CONTINUOUS
10
287.775
20
-62.7375
11
287.775
21
-67.4375
0
LINE
8
BLACK
6
CONTINUOUS
10
290.075
20
-62.7375
11
287.775
21
-62.7375
0
LINE
8
BLACK
6
CONTINUOUS
10
290.075
20
-67.4375
11
290.075
21
-62.7375
0
LINE
8
BLACK
6
CONTINUOUS
10
290.075
20
-48.3875
11
287.775
21
-48.3875
0
LINE
8
BLACK
6
CONTINUOUS
10
287.775
20
-43.6875
11
287.775
21
-48.3875
0
LINE
8
BLACK
6
CONTINUOUS
10
290.075
20
-43.6875
11
287.775
21
-43.6875
0
LINE
8
BLACK
6
CONTINUOUS
10
290.075
20
-48.3875
11
290.075
21
-43.6875
0
LINE
8
BLACK
6
CONTINUOUS
10
283.725
20
-129.35
11
281.425
21
-129.35
0
LINE
8
BLACK
6
CONTINUOUS
10
281.425
20
-124.65
11
281.425
21
-129.35
0
LINE
8
BLACK
6
CONTINUOUS
10
283.725
20
-124.65
11
281.425
21
-124.65
0
LINE
8
BLACK
6
CONTINUOUS
10
283.725
20
-129.35
11
283.725
21
-124.65
0
LINE
8
BLACK
6
CONTINUOUS
10
271.025
20
-101.569
11
268.725
21
-101.569
0
LINE
8
BLACK
6
CONTINUOUS
10
268.725
20
-96.8687
11
268.725
21
-101.569
0
LINE
8
BLACK
6
CONTINUOUS
10
271.025
20
-96.8687
11
268.725
21
-96.8687
0
LINE
8
BLACK
6
CONTINUOUS
10
271.025
20
-101.569
11
271.025
21
-96.8687
0
LINE
8
BLACK
6
CONTINUOUS
10
271.025
20
-82.5187
11
268.725
21
-82.5187
0
LINE
8
BLACK
6
CONTINUOUS
10
268.725
20
-77.8187
11
268.725
21
-82.5187
0
LINE
8
BLACK
6
CONTINUOUS
10
271.025
20
-77.8187
11
268.725
21
-77.8187
0
LINE
8
BLACK
6
CONTINUOUS
10
271.025
20
-82.5187
11
271.025
21
-77.8187
0
LINE
8
BLACK
6
CONTINUOUS
10
271.025
20
-63.4687
11
268.725
21
-63.4687
0
LINE
8
BLACK
6
CONTINUOUS
10
268.725
20
-58.7687
11
268.725
21
-63.4687
0
LINE
8
BLACK
6
CONTINUOUS
10
271.025
20
-58.7687
11
268.725
21
-58.7687
0
LINE
8
BLACK
6
CONTINUOUS
10
271.025
20
-63.4687
11
271.025
21
-58.7687
0
LINE
8
BLACK
6
CONTINUOUS
10
271.025
20
-44.4188
11
268.725
21
-44.4188
0
LINE
8
BLACK
6
CONTINUOUS
10
268.725
20
-39.7188
11
268.725
21
-44.4188
0
LINE
8
BLACK
6
CONTINUOUS
10
271.025
20
-39.7188
11
268.725
21
-39.7188
0
LINE
8
BLACK
6
CONTINUOUS
10
271.025
20
-44.4188
11
271.025
21
-39.7188
0
LINE
8
BLACK
6
CONTINUOUS
10
251.975
20
-124.588
11
249.675
21
-124.588
0
LINE
8
BLACK
6
CONTINUOUS
10
249.675
20
-119.888
11
249.675
21
-124.588
0
LINE
8
BLACK
6
CONTINUOUS
10
251.975
20
-119.888
11
249.675
21
-119.888
0
LINE
8
BLACK
6
CONTINUOUS
10
251.975
20
-124.588
11
251.975
21
-119.888
0
LINE
8
BLACK
6
CONTINUOUS
10
251.975
20
-105.537
11
249.675
21
-105.537
0
LINE
8
BLACK
6
CONTINUOUS
10
249.675
20
-100.837
11
249.675
21
-105.537
0
LINE
8
BLACK
6
CONTINUOUS
10
251.975
20
-100.837
11
249.675
21
-100.837
0
LINE
8
BLACK
6
CONTINUOUS
10
251.975
20
-105.537
11
251.975
21
-100.837
0
LINE
8
BLACK
6
CONTINUOUS
10
251.975
20
-86.4875
11
249.675
21
-86.4875
0
LINE
8
BLACK
6
CONTINUOUS
10
249.675
20
-81.7875
11
249.675
21
-86.4875
0
LINE
8
BLACK
6
CONTINUOUS
10
251.975
20
-81.7875
11
249.675
21
-81.7875
0
LINE
8
BLACK
6
CONTINUOUS
10
251.975
20
-86.4875
11
251.975
21
-81.7875
0
LINE
8
BLACK
6
CONTINUOUS
10
251.975
20
-67.4375
11
249.675
21
-67.4375
0
LINE
8
BLACK
6
CONTINUOUS
10
249.675
20
-62.7375
11
249.675
21
-67.4375
0
LINE
8
BLACK
6
CONTINUOUS
10
251.975
20
-62.7375
11
249.675
21
-62.7375
0
LINE
8
BLACK
6
CONTINUOUS
10
251.975
20
-67.4375
11
251.975
21
-62.7375
0
LINE
8
BLACK
6
CONTINUOUS
10
251.975
20
-48.3875
11
249.675
21
-48.3875
0
LINE
8
BLACK
6
CONTINUOUS
10
249.675
20
-43.6875
11
249.675
21
-48.3875
0
LINE
8
BLACK
6
CONTINUOUS
10
251.975
20
-43.6875
11
249.675
21
-43.6875
0
LINE
8
BLACK
6
CONTINUOUS
10
251.975
20
-48.3875
11
251.975
21
-43.6875
0
LINE
8
BLACK
6
CONTINUOUS
10
232.938
20
-129.35
11
230.637
21
-129.35
0
LINE
8
BLACK
6
CONTINUOUS
10
230.637
20
-124.65
11
230.637
21
-129.35
0
LINE
8
BLACK
6
CONTINUOUS
10
232.938
20
-124.65
11
230.637
21
-124.65
0
LINE
8
BLACK
6
CONTINUOUS
10
232.938
20
-129.35
11
232.938
21
-124.65
0
LINE
8
BLACK
6
CONTINUOUS
10
232.925
20
-110.3
11
230.625
21
-110.3
0
LINE
8
BLACK
6
CONTINUOUS
10
230.625
20
-105.6
11
230.625
21
-110.3
0
LINE
8
BLACK
6
CONTINUOUS
10
232.925
20
-105.6
11
230.625
21
-105.6
0
LINE
8
BLACK
6
CONTINUOUS
10
232.925
20
-110.3
11
232.925
21
-105.6
0
LINE
8
BLACK
6
CONTINUOUS
10
232.925
20
-91.25
11
230.625
21
-91.25
0
LINE
8
BLACK
6
CONTINUOUS
10
230.625
20
-86.55
11
230.625
21
-91.25
0
LINE
8
BLACK
6
CONTINUOUS
10
232.925
20
-86.55
11
230.625
21
-86.55
0
LINE
8
BLACK
6
CONTINUOUS
10
232.925
20
-91.25
11
232.925
21
-86.55
0
LINE
8
BLACK
6
CONTINUOUS
10
232.925
20
-72.2
11
230.625
21
-72.2
0
LINE
8
BLACK
6
CONTINUOUS
10
230.625
20
-67.5
11
230.625
21
-72.2
0
LINE
8
BLACK
6
CONTINUOUS
10
232.925
20
-67.5
11
230.625
21
-67.5
0
LINE
8
BLACK
6
CONTINUOUS
10
232.925
20
-72.2
11
232.925
21
-67.5
0
LINE
8
BLACK
6
CONTINUOUS
10
232.925
20
-53.15
11
230.625
21
-53.15
0
LINE
8
BLACK
6
CONTINUOUS
10
230.625
20
-48.45
11
230.625
21
-53.15
0
LINE
8
BLACK
6
CONTINUOUS
10
232.925
20
-48.45
11
230.625
21
-48.45
0
LINE
8
BLACK
6
CONTINUOUS
10
232.925
20
-53.15
11
232.925
21
-48.45
0
LINE
8
BLACK
6
CONTINUOUS
10
213.875
20
-129.35
11
211.575
21
-129.35
0
LINE
8
BLACK
6
CONTINUOUS
10
211.575
20
-124.65
11
211.575
21
-129.35
0
LINE
8
BLACK
6
CONTINUOUS
10
213.875
20
-124.65
11
211.575
21
-124.65
0
LINE
8
BLACK
6
CONTINUOUS
10
213.875
20
-129.35
11
213.875
21
-124.65
0
LINE
8
BLACK
6
CONTINUOUS
10
213.875
20
-110.3
11
211.575
21
-110.3
0
LINE
8
BLACK
6
CONTINUOUS
10
211.575
20
-105.6
11
211.575
21
-110.3
0
LINE
8
BLACK
6
CONTINUOUS
10
213.875
20
-105.6
11
211.575
21
-105.6
0
LINE
8
BLACK
6
CONTINUOUS
10
213.875
20
-110.3
11
213.875
21
-105.6
0
LINE
8
BLACK
6
CONTINUOUS
10
213.875
20
-91.25
11
211.575
21
-91.25
0
LINE
8
BLACK
6
CONTINUOUS
10
211.575
20
-86.55
11
211.575
21
-91.25
0
LINE
8
BLACK
6
CONTINUOUS
10
213.875
20
-86.55
11
211.575
21
-86.55
0
LINE
8
BLACK
6
CONTINUOUS
10
213.875
20
-91.25
11
213.875
21
-86.55
0
LINE
8
BLACK
6
CONTINUOUS
10
213.875
20
-72.2
11
211.575
21
-72.2
0
LINE
8
BLACK
6
CONTINUOUS
10
211.575
20
-67.5
11
211.575
21
-72.2
0
LINE
8
BLACK
6
CONTINUOUS
10
213.875
20
-67.5
11
211.575
21
-67.5
0
LINE
8
BLACK
6
CONTINUOUS
10
213.875
20
-72.2
11
213.875
21
-67.5
  0
ENDSEC
  0
EOF
