  0
SECTION
  2
HEADER
  9
$ANGBASE
  50
0.0
  9
$ANGDIR
  70
1
  9
$MEASUREMENT
  70
1
  0
ENDSEC
  0
SECTION
  2
TABLES
  0
TABLE
  2
LTYPE
  70
4
  0
LTYPE
  5
40F
  2
CONTINUOUS
  70
0
  3
Solid line
  72
65
  73
0
  40
0.0
  0
LTYPE
  5
410
  2
DASHDOT
 70
0
  3
Dash Dot ____ _ ____ _
 72
65
 73
4
 40
2.0
 49
1.25
 49
-0.25
 49
0.25
 49
-0.25
  0
LTYPE
  5
411
  2
DASHED
 70
0
  3
Dashed __ __ __ __ __
 72
65
 73
2
 40
0.75
 49
0.5
 49
-0.25
  0
LTYPE
  5
43B
  2
DOTTED
 70
0
  3
Dotted .  .  .  .
 72
65
 73
2
 40
0.2
 49
0.0
 49
-0.2
  0
ENDTAB
  0
TABLE
  2
STYLE
  70
4
  0
STYLE
  2
KICAD
  70
0
  40
0
  41
1
  42
1
  50
0
  71
0
  3
isocp.shx
  0
STYLE
  2
KICADB
  70
0
  40
0
  41
1
  42
1
  50
0
  71
0
  3
isocp.shx
  0
STYLE
  2
KICADI
  70
0
  40
0
  41
1
  42
1
  50
15
  71
0
  3
isocp.shx
  0
STYLE
  2
KICADBI
  70
0
  40
0
  41
1
  42
1
  50
15
  71
0
  3
isocp.shx
  0
ENDTAB
  0
TABLE
  2
LAYER
  70
1
  0
LAYER
  2
BLACK
  70
0
  62
7
  6
CONTINUOUS
  0
ENDTAB
  0
ENDSEC
  0
SECTION
  2
ENTITIES
0
LINE
8
BLACK
6
CONTINUOUS
10
302.643
20
-139.365
11
302.754
21
-139.387
0
LINE
8
BLACK
6
CONTINUOUS
10
302.754
20
-139.387
11
302.964
21
-139.474
0
LINE
8
BLACK
6
CONTINUOUS
10
302.964
20
-139.474
11
303.152
21
-139.6
0
LINE
8
BLACK
6
CONTINUOUS
10
303.152
20
-139.6
11
303.313
21
-139.76
0
LINE
8
BLACK
6
CONTINUOUS
10
303.313
20
-139.76
11
303.439
21
-139.949
0
LINE
8
BLACK
6
CONTINUOUS
10
303.439
20
-139.949
11
303.526
21
-140.158
0
LINE
8
BLACK
6
CONTINUOUS
10
303.526
20
-140.158
11
303.57
21
-140.38
0
LINE
8
BLACK
6
CONTINUOUS
10
303.57
20
-140.38
11
303.57
21
-140.607
0
LINE
8
BLACK
6
CONTINUOUS
10
303.57
20
-140.607
11
303.526
21
-140.829
0
LINE
8
BLACK
6
CONTINUOUS
10
303.526
20
-140.829
11
303.439
21
-141.039
0
LINE
8
BLACK
6
CONTINUOUS
10
303.439
20
-141.039
11
303.313
21
-141.227
0
LINE
8
BLACK
6
CONTINUOUS
10
303.313
20
-141.227
11
303.152
21
-141.388
0
LINE
8
BLACK
6
CONTINUOUS
10
303.152
20
-141.388
11
302.964
21
-141.514
0
LINE
8
BLACK
6
CONTINUOUS
10
302.964
20
-141.514
11
302.754
21
-141.601
0
LINE
8
BLACK
6
CONTINUOUS
10
302.754
20
-141.601
11
302.643
21
-141.623
0
LINE
8
BLACK
6
CONTINUOUS
10
302.643
20
-141.623
11
302.532
21
-141.645
0
LINE
8
BLACK
6
CONTINUOUS
10
302.532
20
-141.645
11
302.305
21
-141.645
0
LINE
8
BLACK
6
CONTINUOUS
10
302.305
20
-141.645
11
302.194
21
-141.623
0
LINE
8
BLACK
6
CONTINUOUS
10
302.194
20
-141.623
11
302.083
21
-141.601
0
LINE
8
BLACK
6
CONTINUOUS
10
302.083
20
-141.601
11
301.874
21
-141.514
0
LINE
8
BLACK
6
CONTINUOUS
10
301.874
20
-141.514
11
301.685
21
-141.388
0
LINE
8
BLACK
6
CONTINUOUS
10
301.685
20
-141.388
11
301.525
21
-141.227
0
LINE
8
BLACK
6
CONTINUOUS
10
301.525
20
-141.227
11
301.399
21
-141.039
0
LINE
8
BLACK
6
CONTINUOUS
10
301.399
20
-141.039
11
301.312
21
-140.829
0
LINE
8
BLACK
6
CONTINUOUS
10
301.312
20
-140.829
11
301.268
21
-140.607
0
LINE
8
BLACK
6
CONTINUOUS
10
301.268
20
-140.607
11
301.268
21
-140.38
0
LINE
8
BLACK
6
CONTINUOUS
10
301.268
20
-140.38
11
301.312
21
-140.158
0
LINE
8
BLACK
6
CONTINUOUS
10
301.312
20
-140.158
11
301.399
21
-139.949
0
LINE
8
BLACK
6
CONTINUOUS
10
301.399
20
-139.949
11
301.525
21
-139.76
0
LINE
8
BLACK
6
CONTINUOUS
10
301.525
20
-139.76
11
301.685
21
-139.6
0
LINE
8
BLACK
6
CONTINUOUS
10
301.685
20
-139.6
11
301.874
21
-139.474
0
LINE
8
BLACK
6
CONTINUOUS
10
301.874
20
-139.474
11
302.083
21
-139.387
0
LINE
8
BLACK
6
CONTINUOUS
10
302.083
20
-139.387
11
302.194
21
-139.365
0
LINE
8
BLACK
6
CONTINUOUS
10
302.194
20
-139.365
11
302.305
21
-139.343
0
LINE
8
BLACK
6
CONTINUOUS
10
302.305
20
-139.343
11
302.532
21
-139.343
0
LINE
8
BLACK
6
CONTINUOUS
10
302.532
20
-139.343
11
302.643
21
-139.365
0
LINE
8
BLACK
6
CONTINUOUS
10
214.537
20
-116.346
11
214.648
21
-116.368
0
LINE
8
BLACK
6
CONTINUOUS
10
214.648
20
-116.368
11
214.858
21
-116.455
0
LINE
8
BLACK
6
CONTINUOUS
10
214.858
20
-116.455
11
215.046
21
-116.581
0
LINE
8
BLACK
6
CONTINUOUS
10
215.046
20
-116.581
11
215.207
21
-116.741
0
LINE
8
BLACK
6
CONTINUOUS
10
215.207
20
-116.741
11
215.333
21
-116.93
0
LINE
8
BLACK
6
CONTINUOUS
10
215.333
20
-116.93
11
215.419
21
-117.139
0
LINE
8
BLACK
6
CONTINUOUS
10
215.419
20
-117.139
11
215.463
21
-117.362
0
LINE
8
BLACK
6
CONTINUOUS
10
215.463
20
-117.362
11
215.463
21
-117.588
0
LINE
8
BLACK
6
CONTINUOUS
10
215.463
20
-117.588
11
215.419
21
-117.811
0
LINE
8
BLACK
6
CONTINUOUS
10
215.419
20
-117.811
11
215.333
21
-118.02
0
LINE
8
BLACK
6
CONTINUOUS
10
215.333
20
-118.02
11
215.207
21
-118.209
0
LINE
8
BLACK
6
CONTINUOUS
10
215.207
20
-118.209
11
215.046
21
-118.369
0
LINE
8
BLACK
6
CONTINUOUS
10
215.046
20
-118.369
11
214.858
21
-118.495
0
LINE
8
BLACK
6
CONTINUOUS
10
214.858
20
-118.495
11
214.648
21
-118.582
0
LINE
8
BLACK
6
CONTINUOUS
10
214.648
20
-118.582
11
214.537
21
-118.604
0
LINE
8
BLACK
6
CONTINUOUS
10
214.537
20
-118.604
11
214.426
21
-118.626
0
LINE
8
BLACK
6
CONTINUOUS
10
214.426
20
-118.626
11
214.199
21
-118.626
0
LINE
8
BLACK
6
CONTINUOUS
10
214.199
20
-118.626
11
214.088
21
-118.604
0
LINE
8
BLACK
6
CONTINUOUS
10
214.088
20
-118.604
11
213.977
21
-118.582
0
LINE
8
BLACK
6
CONTINUOUS
10
213.977
20
-118.582
11
213.767
21
-118.495
0
LINE
8
BLACK
6
CONTINUOUS
10
213.767
20
-118.495
11
213.579
21
-118.369
0
LINE
8
BLACK
6
CONTINUOUS
10
213.579
20
-118.369
11
213.418
21
-118.209
0
LINE
8
BLACK
6
CONTINUOUS
10
213.418
20
-118.209
11
213.292
21
-118.02
0
LINE
8
BLACK
6
CONTINUOUS
10
213.292
20
-118.02
11
213.206
21
-117.811
0
LINE
8
BLACK
6
CONTINUOUS
10
213.206
20
-117.811
11
213.161
21
-117.588
0
LINE
8
BLACK
6
CONTINUOUS
10
213.161
20
-117.588
11
213.161
21
-117.362
0
LINE
8
BLACK
6
CONTINUOUS
10
213.161
20
-117.362
11
213.206
21
-117.139
0
LINE
8
BLACK
6
CONTINUOUS
10
213.206
20
-117.139
11
213.292
21
-116.93
0
LINE
8
BLACK
6
CONTINUOUS
10
213.292
20
-116.93
11
213.418
21
-116.741
0
LINE
8
BLACK
6
CONTINUOUS
10
213.418
20
-116.741
11
213.579
21
-116.581
0
LINE
8
BLACK
6
CONTINUOUS
10
213.579
20
-116.581
11
213.767
21
-116.455
0
LINE
8
BLACK
6
CONTINUOUS
10
213.767
20
-116.455
11
213.977
21
-116.368
0
LINE
8
BLACK
6
CONTINUOUS
10
213.977
20
-116.368
11
214.088
21
-116.346
0
LINE
8
BLACK
6
CONTINUOUS
10
214.088
20
-116.346
11
214.199
21
-116.324
0
LINE
8
BLACK
6
CONTINUOUS
10
214.199
20
-116.324
11
214.426
21
-116.324
0
LINE
8
BLACK
6
CONTINUOUS
10
214.426
20
-116.324
11
214.537
21
-116.346
0
LINE
8
BLACK
6
CONTINUOUS
10
174.85
20
-116.346
11
174.961
21
-116.368
0
LINE
8
BLACK
6
CONTINUOUS
10
174.961
20
-116.368
11
175.17
21
-116.455
0
LINE
8
BLACK
6
CONTINUOUS
10
175.17
20
-116.455
11
175.359
21
-116.581
0
LINE
8
BLACK
6
CONTINUOUS
10
175.359
20
-116.581
11
175.519
21
-116.741
0
LINE
8
BLACK
6
CONTINUOUS
10
175.519
20
-116.741
11
175.645
21
-116.93
0
LINE
8
BLACK
6
CONTINUOUS
10
175.645
20
-116.93
11
175.732
21
-117.139
0
LINE
8
BLACK
6
CONTINUOUS
10
175.732
20
-117.139
11
175.776
21
-117.362
0
LINE
8
BLACK
6
CONTINUOUS
10
175.776
20
-117.362
11
175.776
21
-117.588
0
LINE
8
BLACK
6
CONTINUOUS
10
175.776
20
-117.588
11
175.732
21
-117.811
0
LINE
8
BLACK
6
CONTINUOUS
10
175.732
20
-117.811
11
175.645
21
-118.02
0
LINE
8
BLACK
6
CONTINUOUS
10
175.645
20
-118.02
11
175.519
21
-118.209
0
LINE
8
BLACK
6
CONTINUOUS
10
175.519
20
-118.209
11
175.359
21
-118.369
0
LINE
8
BLACK
6
CONTINUOUS
10
175.359
20
-118.369
11
175.17
21
-118.495
0
LINE
8
BLACK
6
CONTINUOUS
10
175.17
20
-118.495
11
174.961
21
-118.582
0
LINE
8
BLACK
6
CONTINUOUS
10
174.961
20
-118.582
11
174.85
21
-118.604
0
LINE
8
BLACK
6
CONTINUOUS
10
174.85
20
-118.604
11
174.738
21
-118.626
0
LINE
8
BLACK
6
CONTINUOUS
10
174.738
20
-118.626
11
174.512
21
-118.626
0
LINE
8
BLACK
6
CONTINUOUS
10
174.512
20
-118.626
11
174.4
21
-118.604
0
LINE
8
BLACK
6
CONTINUOUS
10
174.4
20
-118.604
11
174.289
21
-118.582
0
LINE
8
BLACK
6
CONTINUOUS
10
174.289
20
-118.582
11
174.08
21
-118.495
0
LINE
8
BLACK
6
CONTINUOUS
10
174.08
20
-118.495
11
173.891
21
-118.369
0
LINE
8
BLACK
6
CONTINUOUS
10
173.891
20
-118.369
11
173.731
21
-118.209
0
LINE
8
BLACK
6
CONTINUOUS
10
173.731
20
-118.209
11
173.605
21
-118.02
0
LINE
8
BLACK
6
CONTINUOUS
10
173.605
20
-118.02
11
173.518
21
-117.811
0
LINE
8
BLACK
6
CONTINUOUS
10
173.518
20
-117.811
11
173.474
21
-117.588
0
LINE
8
BLACK
6
CONTINUOUS
10
173.474
20
-117.588
11
173.474
21
-117.362
0
LINE
8
BLACK
6
CONTINUOUS
10
173.474
20
-117.362
11
173.518
21
-117.139
0
LINE
8
BLACK
6
CONTINUOUS
10
173.518
20
-117.139
11
173.605
21
-116.93
0
LINE
8
BLACK
6
CONTINUOUS
10
173.605
20
-116.93
11
173.731
21
-116.741
0
LINE
8
BLACK
6
CONTINUOUS
10
173.731
20
-116.741
11
173.891
21
-116.581
0
LINE
8
BLACK
6
CONTINUOUS
10
173.891
20
-116.581
11
174.08
21
-116.455
0
LINE
8
BLACK
6
CONTINUOUS
10
174.08
20
-116.455
11
174.289
21
-116.368
0
LINE
8
BLACK
6
CONTINUOUS
10
174.289
20
-116.368
11
174.4
21
-116.346
0
LINE
8
BLACK
6
CONTINUOUS
10
174.4
20
-116.346
11
174.512
21
-116.324
0
LINE
8
BLACK
6
CONTINUOUS
10
174.512
20
-116.324
11
174.738
21
-116.324
0
LINE
8
BLACK
6
CONTINUOUS
10
174.738
20
-116.324
11
174.85
21
-116.346
0
LINE
8
BLACK
6
CONTINUOUS
10
271.687
20
-111.584
11
271.798
21
-111.606
0
LINE
8
BLACK
6
CONTINUOUS
10
271.798
20
-111.606
11
272.008
21
-111.692
0
LINE
8
BLACK
6
CONTINUOUS
10
272.008
20
-111.692
11
272.196
21
-111.818
0
LINE
8
BLACK
6
CONTINUOUS
10
272.196
20
-111.818
11
272.357
21
-111.979
0
LINE
8
BLACK
6
CONTINUOUS
10
272.357
20
-111.979
11
272.483
21
-112.167
0
LINE
8
BLACK
6
CONTINUOUS
10
272.483
20
-112.167
11
272.569
21
-112.377
0
LINE
8
BLACK
6
CONTINUOUS
10
272.569
20
-112.377
11
272.613
21
-112.599
0
LINE
8
BLACK
6
CONTINUOUS
10
272.613
20
-112.599
11
272.613
21
-112.826
0
LINE
8
BLACK
6
CONTINUOUS
10
272.613
20
-112.826
11
272.569
21
-113.048
0
LINE
8
BLACK
6
CONTINUOUS
10
272.569
20
-113.048
11
272.483
21
-113.258
0
LINE
8
BLACK
6
CONTINUOUS
10
272.483
20
-113.258
11
272.357
21
-113.446
0
LINE
8
BLACK
6
CONTINUOUS
10
272.357
20
-113.446
11
272.196
21
-113.607
0
LINE
8
BLACK
6
CONTINUOUS
10
272.196
20
-113.607
11
272.008
21
-113.733
0
LINE
8
BLACK
6
CONTINUOUS
10
272.008
20
-113.733
11
271.798
21
-113.819
0
LINE
8
BLACK
6
CONTINUOUS
10
271.798
20
-113.819
11
271.687
21
-113.841
0
LINE
8
BLACK
6
CONTINUOUS
10
271.687
20
-113.841
11
271.576
21
-113.864
0
LINE
8
BLACK
6
CONTINUOUS
10
271.576
20
-113.864
11
271.349
21
-113.864
0
LINE
8
BLACK
6
CONTINUOUS
10
271.349
20
-113.864
11
271.238
21
-113.841
0
LINE
8
BLACK
6
CONTINUOUS
10
271.238
20
-113.841
11
271.127
21
-113.819
0
LINE
8
BLACK
6
CONTINUOUS
10
271.127
20
-113.819
11
270.917
21
-113.733
0
LINE
8
BLACK
6
CONTINUOUS
10
270.917
20
-113.733
11
270.729
21
-113.607
0
LINE
8
BLACK
6
CONTINUOUS
10
270.729
20
-113.607
11
270.568
21
-113.446
0
LINE
8
BLACK
6
CONTINUOUS
10
270.568
20
-113.446
11
270.442
21
-113.258
0
LINE
8
BLACK
6
CONTINUOUS
10
270.442
20
-113.258
11
270.356
21
-113.048
0
LINE
8
BLACK
6
CONTINUOUS
10
270.356
20
-113.048
11
270.311
21
-112.826
0
LINE
8
BLACK
6
CONTINUOUS
10
270.311
20
-112.826
11
270.311
21
-112.599
0
LINE
8
BLACK
6
CONTINUOUS
10
270.311
20
-112.599
11
270.356
21
-112.377
0
LINE
8
BLACK
6
CONTINUOUS
10
270.356
20
-112.377
11
270.442
21
-112.167
0
LINE
8
BLACK
6
CONTINUOUS
10
270.442
20
-112.167
11
270.568
21
-111.979
0
LINE
8
BLACK
6
CONTINUOUS
10
270.568
20
-111.979
11
270.729
21
-111.818
0
LINE
8
BLACK
6
CONTINUOUS
10
270.729
20
-111.818
11
270.917
21
-111.692
0
LINE
8
BLACK
6
CONTINUOUS
10
270.917
20
-111.692
11
271.127
21
-111.606
0
LINE
8
BLACK
6
CONTINUOUS
10
271.127
20
-111.606
11
271.238
21
-111.584
0
LINE
8
BLACK
6
CONTINUOUS
10
271.238
20
-111.584
11
271.349
21
-111.561
0
LINE
8
BLACK
6
CONTINUOUS
10
271.349
20
-111.561
11
271.576
21
-111.561
0
LINE
8
BLACK
6
CONTINUOUS
10
271.576
20
-111.561
11
271.687
21
-111.584
0
LINE
8
BLACK
6
CONTINUOUS
10
117.7
20
-111.584
11
117.811
21
-111.606
0
LINE
8
BLACK
6
CONTINUOUS
10
117.811
20
-111.606
11
118.02
21
-111.692
0
LINE
8
BLACK
6
CONTINUOUS
10
118.02
20
-111.692
11
118.209
21
-111.818
0
LINE
8
BLACK
6
CONTINUOUS
10
118.209
20
-111.818
11
118.369
21
-111.979
0
LINE
8
BLACK
6
CONTINUOUS
10
118.369
20
-111.979
11
118.495
21
-112.167
0
LINE
8
BLACK
6
CONTINUOUS
10
118.495
20
-112.167
11
118.582
21
-112.377
0
LINE
8
BLACK
6
CONTINUOUS
10
118.582
20
-112.377
11
118.626
21
-112.599
0
LINE
8
BLACK
6
CONTINUOUS
10
118.626
20
-112.599
11
118.626
21
-112.826
0
LINE
8
BLACK
6
CONTINUOUS
10
118.626
20
-112.826
11
118.582
21
-113.048
0
LINE
8
BLACK
6
CONTINUOUS
10
118.582
20
-113.048
11
118.495
21
-113.258
0
LINE
8
BLACK
6
CONTINUOUS
10
118.495
20
-113.258
11
118.369
21
-113.446
0
LINE
8
BLACK
6
CONTINUOUS
10
118.369
20
-113.446
11
118.209
21
-113.607
0
LINE
8
BLACK
6
CONTINUOUS
10
118.209
20
-113.607
11
118.02
21
-113.733
0
LINE
8
BLACK
6
CONTINUOUS
10
118.02
20
-113.733
11
117.811
21
-113.819
0
LINE
8
BLACK
6
CONTINUOUS
10
117.811
20
-113.819
11
117.7
21
-113.841
0
LINE
8
BLACK
6
CONTINUOUS
10
117.7
20
-113.841
11
117.588
21
-113.864
0
LINE
8
BLACK
6
CONTINUOUS
10
117.588
20
-113.864
11
117.362
21
-113.864
0
LINE
8
BLACK
6
CONTINUOUS
10
117.362
20
-113.864
11
117.25
21
-113.841
0
LINE
8
BLACK
6
CONTINUOUS
10
117.25
20
-113.841
11
117.139
21
-113.819
0
LINE
8
BLACK
6
CONTINUOUS
10
117.139
20
-113.819
11
116.93
21
-113.733
0
LINE
8
BLACK
6
CONTINUOUS
10
116.93
20
-113.733
11
116.741
21
-113.607
0
LINE
8
BLACK
6
CONTINUOUS
10
116.741
20
-113.607
11
116.581
21
-113.446
0
LINE
8
BLACK
6
CONTINUOUS
10
116.581
20
-113.446
11
116.455
21
-113.258
0
LINE
8
BLACK
6
CONTINUOUS
10
116.455
20
-113.258
11
116.368
21
-113.048
0
LINE
8
BLACK
6
CONTINUOUS
10
116.368
20
-113.048
11
116.324
21
-112.826
0
LINE
8
BLACK
6
CONTINUOUS
10
116.324
20
-112.826
11
116.324
21
-112.599
0
LINE
8
BLACK
6
CONTINUOUS
10
116.324
20
-112.599
11
116.368
21
-112.377
0
LINE
8
BLACK
6
CONTINUOUS
10
116.368
20
-112.377
11
116.455
21
-112.167
0
LINE
8
BLACK
6
CONTINUOUS
10
116.455
20
-112.167
11
116.581
21
-111.979
0
LINE
8
BLACK
6
CONTINUOUS
10
116.581
20
-111.979
11
116.741
21
-111.818
0
LINE
8
BLACK
6
CONTINUOUS
10
116.741
20
-111.818
11
116.93
21
-111.692
0
LINE
8
BLACK
6
CONTINUOUS
10
116.93
20
-111.692
11
117.139
21
-111.606
0
LINE
8
BLACK
6
CONTINUOUS
10
117.139
20
-111.606
11
117.25
21
-111.584
0
LINE
8
BLACK
6
CONTINUOUS
10
117.25
20
-111.584
11
117.362
21
-111.561
0
LINE
8
BLACK
6
CONTINUOUS
10
117.362
20
-111.561
11
117.588
21
-111.561
0
LINE
8
BLACK
6
CONTINUOUS
10
117.588
20
-111.561
11
117.7
21
-111.584
0
LINE
8
BLACK
6
CONTINUOUS
10
332.806
20
-102.059
11
332.917
21
-102.081
0
LINE
8
BLACK
6
CONTINUOUS
10
332.917
20
-102.081
11
333.126
21
-102.167
0
LINE
8
BLACK
6
CONTINUOUS
10
333.126
20
-102.167
11
333.315
21
-102.293
0
LINE
8
BLACK
6
CONTINUOUS
10
333.315
20
-102.293
11
333.475
21
-102.454
0
LINE
8
BLACK
6
CONTINUOUS
10
333.475
20
-102.454
11
333.601
21
-102.642
0
LINE
8
BLACK
6
CONTINUOUS
10
333.601
20
-102.642
11
333.688
21
-102.852
0
LINE
8
BLACK
6
CONTINUOUS
10
333.688
20
-102.852
11
333.732
21
-103.074
0
LINE
8
BLACK
6
CONTINUOUS
10
333.732
20
-103.074
11
333.732
21
-103.301
0
LINE
8
BLACK
6
CONTINUOUS
10
333.732
20
-103.301
11
333.688
21
-103.523
0
LINE
8
BLACK
6
CONTINUOUS
10
333.688
20
-103.523
11
333.601
21
-103.733
0
LINE
8
BLACK
6
CONTINUOUS
10
333.601
20
-103.733
11
333.475
21
-103.921
0
LINE
8
BLACK
6
CONTINUOUS
10
333.475
20
-103.921
11
333.315
21
-104.082
0
LINE
8
BLACK
6
CONTINUOUS
10
333.315
20
-104.082
11
333.126
21
-104.208
0
LINE
8
BLACK
6
CONTINUOUS
10
333.126
20
-104.208
11
332.917
21
-104.294
0
LINE
8
BLACK
6
CONTINUOUS
10
332.917
20
-104.294
11
332.806
21
-104.316
0
LINE
8
BLACK
6
CONTINUOUS
10
332.806
20
-104.316
11
332.695
21
-104.338
0
LINE
8
BLACK
6
CONTINUOUS
10
332.695
20
-104.338
11
332.468
21
-104.338
0
LINE
8
BLACK
6
CONTINUOUS
10
332.468
20
-104.338
11
332.357
21
-104.316
0
LINE
8
BLACK
6
CONTINUOUS
10
332.357
20
-104.316
11
332.246
21
-104.294
0
LINE
8
BLACK
6
CONTINUOUS
10
332.246
20
-104.294
11
332.036
21
-104.208
0
LINE
8
BLACK
6
CONTINUOUS
10
332.036
20
-104.208
11
331.848
21
-104.082
0
LINE
8
BLACK
6
CONTINUOUS
10
331.848
20
-104.082
11
331.687
21
-103.921
0
LINE
8
BLACK
6
CONTINUOUS
10
331.687
20
-103.921
11
331.561
21
-103.733
0
LINE
8
BLACK
6
CONTINUOUS
10
331.561
20
-103.733
11
331.474
21
-103.523
0
LINE
8
BLACK
6
CONTINUOUS
10
331.474
20
-103.523
11
331.43
21
-103.301
0
LINE
8
BLACK
6
CONTINUOUS
10
331.43
20
-103.301
11
331.43
21
-103.074
0
LINE
8
BLACK
6
CONTINUOUS
10
331.43
20
-103.074
11
331.474
21
-102.852
0
LINE
8
BLACK
6
CONTINUOUS
10
331.474
20
-102.852
11
331.561
21
-102.642
0
LINE
8
BLACK
6
CONTINUOUS
10
331.561
20
-102.642
11
331.687
21
-102.454
0
LINE
8
BLACK
6
CONTINUOUS
10
331.687
20
-102.454
11
331.848
21
-102.293
0
LINE
8
BLACK
6
CONTINUOUS
10
331.848
20
-102.293
11
332.036
21
-102.167
0
LINE
8
BLACK
6
CONTINUOUS
10
332.036
20
-102.167
11
332.246
21
-102.081
0
LINE
8
BLACK
6
CONTINUOUS
10
332.246
20
-102.081
11
332.357
21
-102.059
0
LINE
8
BLACK
6
CONTINUOUS
10
332.357
20
-102.059
11
332.468
21
-102.036
0
LINE
8
BLACK
6
CONTINUOUS
10
332.468
20
-102.036
11
332.695
21
-102.036
0
LINE
8
BLACK
6
CONTINUOUS
10
332.695
20
-102.036
11
332.806
21
-102.059
0
LINE
8
BLACK
6
CONTINUOUS
10
56.5808
20
-102.059
11
56.692
21
-102.081
0
LINE
8
BLACK
6
CONTINUOUS
10
56.692
20
-102.081
11
56.9015
21
-102.167
0
LINE
8
BLACK
6
CONTINUOUS
10
56.9015
20
-102.167
11
57.09
21
-102.293
0
LINE
8
BLACK
6
CONTINUOUS
10
57.09
20
-102.293
11
57.2503
21
-102.454
0
LINE
8
BLACK
6
CONTINUOUS
10
57.2503
20
-102.454
11
57.3763
21
-102.642
0
LINE
8
BLACK
6
CONTINUOUS
10
57.3763
20
-102.642
11
57.463
21
-102.852
0
LINE
8
BLACK
6
CONTINUOUS
10
57.463
20
-102.852
11
57.5072
21
-103.074
0
LINE
8
BLACK
6
CONTINUOUS
10
57.5072
20
-103.074
11
57.5072
21
-103.301
0
LINE
8
BLACK
6
CONTINUOUS
10
57.5072
20
-103.301
11
57.463
21
-103.523
0
LINE
8
BLACK
6
CONTINUOUS
10
57.463
20
-103.523
11
57.3763
21
-103.733
0
LINE
8
BLACK
6
CONTINUOUS
10
57.3763
20
-103.733
11
57.2503
21
-103.921
0
LINE
8
BLACK
6
CONTINUOUS
10
57.2503
20
-103.921
11
57.09
21
-104.082
0
LINE
8
BLACK
6
CONTINUOUS
10
57.09
20
-104.082
11
56.9015
21
-104.208
0
LINE
8
BLACK
6
CONTINUOUS
10
56.9015
20
-104.208
11
56.692
21
-104.294
0
LINE
8
BLACK
6
CONTINUOUS
10
56.692
20
-104.294
11
56.5808
21
-104.316
0
LINE
8
BLACK
6
CONTINUOUS
10
56.5808
20
-104.316
11
56.4696
21
-104.338
0
LINE
8
BLACK
6
CONTINUOUS
10
56.4696
20
-104.338
11
56.2429
21
-104.338
0
LINE
8
BLACK
6
CONTINUOUS
10
56.2429
20
-104.338
11
56.1317
21
-104.316
0
LINE
8
BLACK
6
CONTINUOUS
10
56.1317
20
-104.316
11
56.0205
21
-104.294
0
LINE
8
BLACK
6
CONTINUOUS
10
56.0205
20
-104.294
11
55.811
21
-104.208
0
LINE
8
BLACK
6
CONTINUOUS
10
55.811
20
-104.208
11
55.6225
21
-104.082
0
LINE
8
BLACK
6
CONTINUOUS
10
55.6225
20
-104.082
11
55.4622
21
-103.921
0
LINE
8
BLACK
6
CONTINUOUS
10
55.4622
20
-103.921
11
55.3362
21
-103.733
0
LINE
8
BLACK
6
CONTINUOUS
10
55.3362
20
-103.733
11
55.2495
21
-103.523
0
LINE
8
BLACK
6
CONTINUOUS
10
55.2495
20
-103.523
11
55.2052
21
-103.301
0
LINE
8
BLACK
6
CONTINUOUS
10
55.2052
20
-103.301
11
55.2052
21
-103.074
0
LINE
8
BLACK
6
CONTINUOUS
10
55.2052
20
-103.074
11
55.2495
21
-102.852
0
LINE
8
BLACK
6
CONTINUOUS
10
55.2495
20
-102.852
11
55.3362
21
-102.642
0
LINE
8
BLACK
6
CONTINUOUS
10
55.3362
20
-102.642
11
55.4622
21
-102.454
0
LINE
8
BLACK
6
CONTINUOUS
10
55.4622
20
-102.454
11
55.6225
21
-102.293
0
LINE
8
BLACK
6
CONTINUOUS
10
55.6225
20
-102.293
11
55.811
21
-102.167
0
LINE
8
BLACK
6
CONTINUOUS
10
55.811
20
-102.167
11
56.0205
21
-102.081
0
LINE
8
BLACK
6
CONTINUOUS
10
56.0205
20
-102.081
11
56.1317
21
-102.059
0
LINE
8
BLACK
6
CONTINUOUS
10
56.1317
20
-102.059
11
56.2429
21
-102.036
0
LINE
8
BLACK
6
CONTINUOUS
10
56.2429
20
-102.036
11
56.4696
21
-102.036
0
LINE
8
BLACK
6
CONTINUOUS
10
56.4696
20
-102.036
11
56.5808
21
-102.059
0
LINE
8
BLACK
6
CONTINUOUS
10
331.762
20
-71.3587
11
331.873
21
-71.3808
0
LINE
8
BLACK
6
CONTINUOUS
10
331.873
20
-71.3808
11
332.083
21
-71.4675
0
LINE
8
BLACK
6
CONTINUOUS
10
332.083
20
-71.4675
11
332.271
21
-71.5935
0
LINE
8
BLACK
6
CONTINUOUS
10
332.271
20
-71.5935
11
332.432
21
-71.7538
0
LINE
8
BLACK
6
CONTINUOUS
10
332.432
20
-71.7538
11
332.558
21
-71.9423
0
LINE
8
BLACK
6
CONTINUOUS
10
332.558
20
-71.9423
11
332.644
21
-72.1518
0
LINE
8
BLACK
6
CONTINUOUS
10
332.644
20
-72.1518
11
332.657
21
-72.2154
0
LINE
8
BLACK
6
CONTINUOUS
10
332.657
20
-72.2154
11
332.688
21
-72.3742
0
LINE
8
BLACK
6
CONTINUOUS
10
332.688
20
-72.3742
11
332.688
21
-72.6009
0
LINE
8
BLACK
6
CONTINUOUS
10
332.688
20
-72.6009
11
332.676
21
-72.6645
0
LINE
8
BLACK
6
CONTINUOUS
10
332.676
20
-72.6645
11
332.644
21
-72.8233
0
LINE
8
BLACK
6
CONTINUOUS
10
332.644
20
-72.8233
11
332.558
21
-73.0328
0
LINE
8
BLACK
6
CONTINUOUS
10
332.558
20
-73.0328
11
332.432
21
-73.2213
0
LINE
8
BLACK
6
CONTINUOUS
10
332.432
20
-73.2213
11
332.271
21
-73.3816
0
LINE
8
BLACK
6
CONTINUOUS
10
332.271
20
-73.3816
11
332.083
21
-73.5076
0
LINE
8
BLACK
6
CONTINUOUS
10
332.083
20
-73.5076
11
331.873
21
-73.5943
0
LINE
8
BLACK
6
CONTINUOUS
10
331.873
20
-73.5943
11
331.762
21
-73.6164
0
LINE
8
BLACK
6
CONTINUOUS
10
331.762
20
-73.6164
11
331.651
21
-73.6385
0
LINE
8
BLACK
6
CONTINUOUS
10
331.651
20
-73.6385
11
331.424
21
-73.6385
0
LINE
8
BLACK
6
CONTINUOUS
10
331.424
20
-73.6385
11
331.313
21
-73.6164
0
LINE
8
BLACK
6
CONTINUOUS
10
331.313
20
-73.6164
11
331.202
21
-73.5943
0
LINE
8
BLACK
6
CONTINUOUS
10
331.202
20
-73.5943
11
330.992
21
-73.5076
0
LINE
8
BLACK
6
CONTINUOUS
10
330.992
20
-73.5076
11
330.804
21
-73.3816
0
LINE
8
BLACK
6
CONTINUOUS
10
330.804
20
-73.3816
11
330.643
21
-73.2213
0
LINE
8
BLACK
6
CONTINUOUS
10
330.643
20
-73.2213
11
330.517
21
-73.0328
0
LINE
8
BLACK
6
CONTINUOUS
10
330.517
20
-73.0328
11
330.431
21
-72.8233
0
LINE
8
BLACK
6
CONTINUOUS
10
330.431
20
-72.8233
11
330.399
21
-72.6645
0
LINE
8
BLACK
6
CONTINUOUS
10
330.399
20
-72.6645
11
330.387
21
-72.6009
0
LINE
8
BLACK
6
CONTINUOUS
10
330.387
20
-72.6009
11
330.387
21
-72.3742
0
LINE
8
BLACK
6
CONTINUOUS
10
330.387
20
-72.3742
11
330.418
21
-72.2154
0
LINE
8
BLACK
6
CONTINUOUS
10
330.418
20
-72.2154
11
330.431
21
-72.1518
0
LINE
8
BLACK
6
CONTINUOUS
10
330.431
20
-72.1518
11
330.517
21
-71.9423
0
LINE
8
BLACK
6
CONTINUOUS
10
330.517
20
-71.9423
11
330.643
21
-71.7538
0
LINE
8
BLACK
6
CONTINUOUS
10
330.643
20
-71.7538
11
330.804
21
-71.5935
0
LINE
8
BLACK
6
CONTINUOUS
10
330.804
20
-71.5935
11
330.992
21
-71.4675
0
LINE
8
BLACK
6
CONTINUOUS
10
330.992
20
-71.4675
11
331.202
21
-71.3808
0
LINE
8
BLACK
6
CONTINUOUS
10
331.202
20
-71.3808
11
331.313
21
-71.3587
0
LINE
8
BLACK
6
CONTINUOUS
10
331.313
20
-71.3587
11
331.424
21
-71.3365
0
LINE
8
BLACK
6
CONTINUOUS
10
331.424
20
-71.3365
11
331.651
21
-71.3365
0
LINE
8
BLACK
6
CONTINUOUS
10
331.651
20
-71.3365
11
331.762
21
-71.3587
0
LINE
8
BLACK
6
CONTINUOUS
10
315.757
20
-71.3587
11
315.868
21
-71.3808
0
LINE
8
BLACK
6
CONTINUOUS
10
315.868
20
-71.3808
11
316.078
21
-71.4675
0
LINE
8
BLACK
6
CONTINUOUS
10
316.078
20
-71.4675
11
316.266
21
-71.5935
0
LINE
8
BLACK
6
CONTINUOUS
10
316.266
20
-71.5935
11
316.427
21
-71.7538
0
LINE
8
BLACK
6
CONTINUOUS
10
316.427
20
-71.7538
11
316.553
21
-71.9423
0
LINE
8
BLACK
6
CONTINUOUS
10
316.553
20
-71.9423
11
316.639
21
-72.1518
0
LINE
8
BLACK
6
CONTINUOUS
10
316.639
20
-72.1518
11
316.652
21
-72.2154
0
LINE
8
BLACK
6
CONTINUOUS
10
316.652
20
-72.2154
11
316.683
21
-72.3742
0
LINE
8
BLACK
6
CONTINUOUS
10
316.683
20
-72.3742
11
316.683
21
-72.6009
0
LINE
8
BLACK
6
CONTINUOUS
10
316.683
20
-72.6009
11
316.671
21
-72.6645
0
LINE
8
BLACK
6
CONTINUOUS
10
316.671
20
-72.6645
11
316.639
21
-72.8233
0
LINE
8
BLACK
6
CONTINUOUS
10
316.639
20
-72.8233
11
316.553
21
-73.0328
0
LINE
8
BLACK
6
CONTINUOUS
10
316.553
20
-73.0328
11
316.427
21
-73.2213
0
LINE
8
BLACK
6
CONTINUOUS
10
316.427
20
-73.2213
11
316.266
21
-73.3816
0
LINE
8
BLACK
6
CONTINUOUS
10
316.266
20
-73.3816
11
316.078
21
-73.5076
0
LINE
8
BLACK
6
CONTINUOUS
10
316.078
20
-73.5076
11
315.868
21
-73.5943
0
LINE
8
BLACK
6
CONTINUOUS
10
315.868
20
-73.5943
11
315.757
21
-73.6164
0
LINE
8
BLACK
6
CONTINUOUS
10
315.757
20
-73.6164
11
315.646
21
-73.6385
0
LINE
8
BLACK
6
CONTINUOUS
10
315.646
20
-73.6385
11
315.419
21
-73.6385
0
LINE
8
BLACK
6
CONTINUOUS
10
315.419
20
-73.6385
11
315.308
21
-73.6164
0
LINE
8
BLACK
6
CONTINUOUS
10
315.308
20
-73.6164
11
315.197
21
-73.5943
0
LINE
8
BLACK
6
CONTINUOUS
10
315.197
20
-73.5943
11
314.987
21
-73.5076
0
LINE
8
BLACK
6
CONTINUOUS
10
314.987
20
-73.5076
11
314.799
21
-73.3816
0
LINE
8
BLACK
6
CONTINUOUS
10
314.799
20
-73.3816
11
314.638
21
-73.2213
0
LINE
8
BLACK
6
CONTINUOUS
10
314.638
20
-73.2213
11
314.512
21
-73.0328
0
LINE
8
BLACK
6
CONTINUOUS
10
314.512
20
-73.0328
11
314.426
21
-72.8233
0
LINE
8
BLACK
6
CONTINUOUS
10
314.426
20
-72.8233
11
314.394
21
-72.6645
0
LINE
8
BLACK
6
CONTINUOUS
10
314.394
20
-72.6645
11
314.381
21
-72.6009
0
LINE
8
BLACK
6
CONTINUOUS
10
314.381
20
-72.6009
11
314.381
21
-72.3742
0
LINE
8
BLACK
6
CONTINUOUS
10
314.381
20
-72.3742
11
314.413
21
-72.2154
0
LINE
8
BLACK
6
CONTINUOUS
10
314.413
20
-72.2154
11
314.426
21
-72.1518
0
LINE
8
BLACK
6
CONTINUOUS
10
314.426
20
-72.1518
11
314.512
21
-71.9423
0
LINE
8
BLACK
6
CONTINUOUS
10
314.512
20
-71.9423
11
314.638
21
-71.7538
0
LINE
8
BLACK
6
CONTINUOUS
10
314.638
20
-71.7538
11
314.799
21
-71.5935
0
LINE
8
BLACK
6
CONTINUOUS
10
314.799
20
-71.5935
11
314.987
21
-71.4675
0
LINE
8
BLACK
6
CONTINUOUS
10
314.987
20
-71.4675
11
315.197
21
-71.3808
0
LINE
8
BLACK
6
CONTINUOUS
10
315.197
20
-71.3808
11
315.308
21
-71.3587
0
LINE
8
BLACK
6
CONTINUOUS
10
315.308
20
-71.3587
11
315.419
21
-71.3365
0
LINE
8
BLACK
6
CONTINUOUS
10
315.419
20
-71.3365
11
315.646
21
-71.3365
0
LINE
8
BLACK
6
CONTINUOUS
10
315.646
20
-71.3365
11
315.757
21
-71.3587
0
LINE
8
BLACK
6
CONTINUOUS
10
57.3058
20
-71.1999
11
57.417
21
-71.222
0
LINE
8
BLACK
6
CONTINUOUS
10
57.417
20
-71.222
11
57.6265
21
-71.3088
0
LINE
8
BLACK
6
CONTINUOUS
10
57.6265
20
-71.3088
11
57.815
21
-71.4348
0
LINE
8
BLACK
6
CONTINUOUS
10
57.815
20
-71.4348
11
57.9753
21
-71.5951
0
LINE
8
BLACK
6
CONTINUOUS
10
57.9753
20
-71.5951
11
58.0814
21
-71.7538
0
LINE
8
BLACK
6
CONTINUOUS
10
58.0814
20
-71.7538
11
58.1013
21
-71.7836
0
LINE
8
BLACK
6
CONTINUOUS
10
58.1013
20
-71.7836
11
58.1881
21
-71.9931
0
LINE
8
BLACK
6
CONTINUOUS
10
58.1881
20
-71.9931
11
58.2196
21
-72.1518
0
LINE
8
BLACK
6
CONTINUOUS
10
58.2196
20
-72.1518
11
58.2323
21
-72.2154
0
LINE
8
BLACK
6
CONTINUOUS
10
58.2323
20
-72.2154
11
58.2323
21
-72.4422
0
LINE
8
BLACK
6
CONTINUOUS
10
58.2323
20
-72.4422
11
58.1881
21
-72.6645
0
LINE
8
BLACK
6
CONTINUOUS
10
58.1881
20
-72.6645
11
58.1013
21
-72.874
0
LINE
8
BLACK
6
CONTINUOUS
10
58.1013
20
-72.874
11
57.9753
21
-73.0625
0
LINE
8
BLACK
6
CONTINUOUS
10
57.9753
20
-73.0625
11
57.815
21
-73.2228
0
LINE
8
BLACK
6
CONTINUOUS
10
57.815
20
-73.2228
11
57.6265
21
-73.3488
0
LINE
8
BLACK
6
CONTINUOUS
10
57.6265
20
-73.3488
11
57.417
21
-73.4356
0
LINE
8
BLACK
6
CONTINUOUS
10
57.417
20
-73.4356
11
57.3058
21
-73.4577
0
LINE
8
BLACK
6
CONTINUOUS
10
57.3058
20
-73.4577
11
57.1947
21
-73.4798
0
LINE
8
BLACK
6
CONTINUOUS
10
57.1947
20
-73.4798
11
56.9679
21
-73.4798
0
LINE
8
BLACK
6
CONTINUOUS
10
56.9679
20
-73.4798
11
56.8567
21
-73.4577
0
LINE
8
BLACK
6
CONTINUOUS
10
56.8567
20
-73.4577
11
56.7456
21
-73.4356
0
LINE
8
BLACK
6
CONTINUOUS
10
56.7456
20
-73.4356
11
56.5361
21
-73.3488
0
LINE
8
BLACK
6
CONTINUOUS
10
56.5361
20
-73.3488
11
56.3476
21
-73.2228
0
LINE
8
BLACK
6
CONTINUOUS
10
56.3476
20
-73.2228
11
56.1873
21
-73.0625
0
LINE
8
BLACK
6
CONTINUOUS
10
56.1873
20
-73.0625
11
56.0613
21
-72.874
0
LINE
8
BLACK
6
CONTINUOUS
10
56.0613
20
-72.874
11
55.9745
21
-72.6645
0
LINE
8
BLACK
6
CONTINUOUS
10
55.9745
20
-72.6645
11
55.9303
21
-72.4422
0
LINE
8
BLACK
6
CONTINUOUS
10
55.9303
20
-72.4422
11
55.9303
21
-72.2154
0
LINE
8
BLACK
6
CONTINUOUS
10
55.9303
20
-72.2154
11
55.943
21
-72.1518
0
LINE
8
BLACK
6
CONTINUOUS
10
55.943
20
-72.1518
11
55.9745
21
-71.9931
0
LINE
8
BLACK
6
CONTINUOUS
10
55.9745
20
-71.9931
11
56.0613
21
-71.7836
0
LINE
8
BLACK
6
CONTINUOUS
10
56.0613
20
-71.7836
11
56.0812
21
-71.7538
0
LINE
8
BLACK
6
CONTINUOUS
10
56.0812
20
-71.7538
11
56.1873
21
-71.5951
0
LINE
8
BLACK
6
CONTINUOUS
10
56.1873
20
-71.5951
11
56.3476
21
-71.4348
0
LINE
8
BLACK
6
CONTINUOUS
10
56.3476
20
-71.4348
11
56.5361
21
-71.3088
0
LINE
8
BLACK
6
CONTINUOUS
10
56.5361
20
-71.3088
11
56.7456
21
-71.222
0
LINE
8
BLACK
6
CONTINUOUS
10
56.7456
20
-71.222
11
56.8567
21
-71.1999
0
LINE
8
BLACK
6
CONTINUOUS
10
56.8567
20
-71.1999
11
56.9679
21
-71.1778
0
LINE
8
BLACK
6
CONTINUOUS
10
56.9679
20
-71.1778
11
57.1947
21
-71.1778
0
LINE
8
BLACK
6
CONTINUOUS
10
57.1947
20
-71.1778
11
57.3058
21
-71.1999
0
LINE
8
BLACK
6
CONTINUOUS
10
73.3058
20
-71.1999
11
73.417
21
-71.222
0
LINE
8
BLACK
6
CONTINUOUS
10
73.417
20
-71.222
11
73.6265
21
-71.3088
0
LINE
8
BLACK
6
CONTINUOUS
10
73.6265
20
-71.3088
11
73.815
21
-71.4348
0
LINE
8
BLACK
6
CONTINUOUS
10
73.815
20
-71.4348
11
73.9753
21
-71.5951
0
LINE
8
BLACK
6
CONTINUOUS
10
73.9753
20
-71.5951
11
74.0814
21
-71.7538
0
LINE
8
BLACK
6
CONTINUOUS
10
74.0814
20
-71.7538
11
74.1013
21
-71.7836
0
LINE
8
BLACK
6
CONTINUOUS
10
74.1013
20
-71.7836
11
74.1881
21
-71.9931
0
LINE
8
BLACK
6
CONTINUOUS
10
74.1881
20
-71.9931
11
74.2196
21
-72.1518
0
LINE
8
BLACK
6
CONTINUOUS
10
74.2196
20
-72.1518
11
74.2323
21
-72.2154
0
LINE
8
BLACK
6
CONTINUOUS
10
74.2323
20
-72.2154
11
74.2323
21
-72.4422
0
LINE
8
BLACK
6
CONTINUOUS
10
74.2323
20
-72.4422
11
74.1881
21
-72.6645
0
LINE
8
BLACK
6
CONTINUOUS
10
74.1881
20
-72.6645
11
74.1013
21
-72.874
0
LINE
8
BLACK
6
CONTINUOUS
10
74.1013
20
-72.874
11
73.9753
21
-73.0625
0
LINE
8
BLACK
6
CONTINUOUS
10
73.9753
20
-73.0625
11
73.815
21
-73.2228
0
LINE
8
BLACK
6
CONTINUOUS
10
73.815
20
-73.2228
11
73.6265
21
-73.3488
0
LINE
8
BLACK
6
CONTINUOUS
10
73.6265
20
-73.3488
11
73.417
21
-73.4356
0
LINE
8
BLACK
6
CONTINUOUS
10
73.417
20
-73.4356
11
73.3058
21
-73.4577
0
LINE
8
BLACK
6
CONTINUOUS
10
73.3058
20
-73.4577
11
73.1947
21
-73.4798
0
LINE
8
BLACK
6
CONTINUOUS
10
73.1947
20
-73.4798
11
72.9679
21
-73.4798
0
LINE
8
BLACK
6
CONTINUOUS
10
72.9679
20
-73.4798
11
72.8567
21
-73.4577
0
LINE
8
BLACK
6
CONTINUOUS
10
72.8567
20
-73.4577
11
72.7456
21
-73.4356
0
LINE
8
BLACK
6
CONTINUOUS
10
72.7456
20
-73.4356
11
72.5361
21
-73.3488
0
LINE
8
BLACK
6
CONTINUOUS
10
72.5361
20
-73.3488
11
72.3476
21
-73.2228
0
LINE
8
BLACK
6
CONTINUOUS
10
72.3476
20
-73.2228
11
72.1873
21
-73.0625
0
LINE
8
BLACK
6
CONTINUOUS
10
72.1873
20
-73.0625
11
72.0613
21
-72.874
0
LINE
8
BLACK
6
CONTINUOUS
10
72.0613
20
-72.874
11
71.9745
21
-72.6645
0
LINE
8
BLACK
6
CONTINUOUS
10
71.9745
20
-72.6645
11
71.9303
21
-72.4422
0
LINE
8
BLACK
6
CONTINUOUS
10
71.9303
20
-72.4422
11
71.9303
21
-72.2154
0
LINE
8
BLACK
6
CONTINUOUS
10
71.9303
20
-72.2154
11
71.943
21
-72.1518
0
LINE
8
BLACK
6
CONTINUOUS
10
71.943
20
-72.1518
11
71.9745
21
-71.9931
0
LINE
8
BLACK
6
CONTINUOUS
10
71.9745
20
-71.9931
11
72.0613
21
-71.7836
0
LINE
8
BLACK
6
CONTINUOUS
10
72.0613
20
-71.7836
11
72.0812
21
-71.7538
0
LINE
8
BLACK
6
CONTINUOUS
10
72.0812
20
-71.7538
11
72.1873
21
-71.5951
0
LINE
8
BLACK
6
CONTINUOUS
10
72.1873
20
-71.5951
11
72.3476
21
-71.4348
0
LINE
8
BLACK
6
CONTINUOUS
10
72.3476
20
-71.4348
11
72.5361
21
-71.3088
0
LINE
8
BLACK
6
CONTINUOUS
10
72.5361
20
-71.3088
11
72.7456
21
-71.222
0
LINE
8
BLACK
6
CONTINUOUS
10
72.7456
20
-71.222
11
72.8567
21
-71.1999
0
LINE
8
BLACK
6
CONTINUOUS
10
72.8567
20
-71.1999
11
72.9679
21
-71.1778
0
LINE
8
BLACK
6
CONTINUOUS
10
72.9679
20
-71.1778
11
73.1947
21
-71.1778
0
LINE
8
BLACK
6
CONTINUOUS
10
73.1947
20
-71.1778
11
73.3058
21
-71.1999
0
LINE
8
BLACK
6
CONTINUOUS
10
174.85
20
-59.1961
11
174.961
21
-59.2182
0
LINE
8
BLACK
6
CONTINUOUS
10
174.961
20
-59.2182
11
175.17
21
-59.305
0
LINE
8
BLACK
6
CONTINUOUS
10
175.17
20
-59.305
11
175.359
21
-59.431
0
LINE
8
BLACK
6
CONTINUOUS
10
175.359
20
-59.431
11
175.519
21
-59.5913
0
LINE
8
BLACK
6
CONTINUOUS
10
175.519
20
-59.5913
11
175.645
21
-59.7798
0
LINE
8
BLACK
6
CONTINUOUS
10
175.645
20
-59.7798
11
175.732
21
-59.9893
0
LINE
8
BLACK
6
CONTINUOUS
10
175.732
20
-59.9893
11
175.776
21
-60.2116
0
LINE
8
BLACK
6
CONTINUOUS
10
175.776
20
-60.2116
11
175.776
21
-60.4384
0
LINE
8
BLACK
6
CONTINUOUS
10
175.776
20
-60.4384
11
175.732
21
-60.6607
0
LINE
8
BLACK
6
CONTINUOUS
10
175.732
20
-60.6607
11
175.645
21
-60.8702
0
LINE
8
BLACK
6
CONTINUOUS
10
175.645
20
-60.8702
11
175.519
21
-61.0587
0
LINE
8
BLACK
6
CONTINUOUS
10
175.519
20
-61.0587
11
175.359
21
-61.219
0
LINE
8
BLACK
6
CONTINUOUS
10
175.359
20
-61.219
11
175.17
21
-61.345
0
LINE
8
BLACK
6
CONTINUOUS
10
175.17
20
-61.345
11
174.961
21
-61.4318
0
LINE
8
BLACK
6
CONTINUOUS
10
174.961
20
-61.4318
11
174.85
21
-61.4539
0
LINE
8
BLACK
6
CONTINUOUS
10
174.85
20
-61.4539
11
174.738
21
-61.476
0
LINE
8
BLACK
6
CONTINUOUS
10
174.738
20
-61.476
11
174.512
21
-61.476
0
LINE
8
BLACK
6
CONTINUOUS
10
174.512
20
-61.476
11
174.4
21
-61.4539
0
LINE
8
BLACK
6
CONTINUOUS
10
174.4
20
-61.4539
11
174.289
21
-61.4318
0
LINE
8
BLACK
6
CONTINUOUS
10
174.289
20
-61.4318
11
174.08
21
-61.345
0
LINE
8
BLACK
6
CONTINUOUS
10
174.08
20
-61.345
11
173.891
21
-61.219
0
LINE
8
BLACK
6
CONTINUOUS
10
173.891
20
-61.219
11
173.731
21
-61.0587
0
LINE
8
BLACK
6
CONTINUOUS
10
173.731
20
-61.0587
11
173.605
21
-60.8702
0
LINE
8
BLACK
6
CONTINUOUS
10
173.605
20
-60.8702
11
173.518
21
-60.6607
0
LINE
8
BLACK
6
CONTINUOUS
10
173.518
20
-60.6607
11
173.474
21
-60.4384
0
LINE
8
BLACK
6
CONTINUOUS
10
173.474
20
-60.4384
11
173.474
21
-60.2116
0
LINE
8
BLACK
6
CONTINUOUS
10
173.474
20
-60.2116
11
173.518
21
-59.9893
0
LINE
8
BLACK
6
CONTINUOUS
10
173.518
20
-59.9893
11
173.605
21
-59.7798
0
LINE
8
BLACK
6
CONTINUOUS
10
173.605
20
-59.7798
11
173.731
21
-59.5913
0
LINE
8
BLACK
6
CONTINUOUS
10
173.731
20
-59.5913
11
173.891
21
-59.431
0
LINE
8
BLACK
6
CONTINUOUS
10
173.891
20
-59.431
11
174.08
21
-59.305
0
LINE
8
BLACK
6
CONTINUOUS
10
174.08
20
-59.305
11
174.289
21
-59.2182
0
LINE
8
BLACK
6
CONTINUOUS
10
174.289
20
-59.2182
11
174.4
21
-59.1961
0
LINE
8
BLACK
6
CONTINUOUS
10
174.4
20
-59.1961
11
174.512
21
-59.174
0
LINE
8
BLACK
6
CONTINUOUS
10
174.512
20
-59.174
11
174.738
21
-59.174
0
LINE
8
BLACK
6
CONTINUOUS
10
174.738
20
-59.174
11
174.85
21
-59.1961
0
LINE
8
BLACK
6
CONTINUOUS
10
214.537
20
-59.1961
11
214.648
21
-59.2182
0
LINE
8
BLACK
6
CONTINUOUS
10
214.648
20
-59.2182
11
214.858
21
-59.305
0
LINE
8
BLACK
6
CONTINUOUS
10
214.858
20
-59.305
11
215.046
21
-59.431
0
LINE
8
BLACK
6
CONTINUOUS
10
215.046
20
-59.431
11
215.207
21
-59.5913
0
LINE
8
BLACK
6
CONTINUOUS
10
215.207
20
-59.5913
11
215.333
21
-59.7798
0
LINE
8
BLACK
6
CONTINUOUS
10
215.333
20
-59.7798
11
215.419
21
-59.9893
0
LINE
8
BLACK
6
CONTINUOUS
10
215.419
20
-59.9893
11
215.463
21
-60.2116
0
LINE
8
BLACK
6
CONTINUOUS
10
215.463
20
-60.2116
11
215.463
21
-60.4384
0
LINE
8
BLACK
6
CONTINUOUS
10
215.463
20
-60.4384
11
215.419
21
-60.6607
0
LINE
8
BLACK
6
CONTINUOUS
10
215.419
20
-60.6607
11
215.333
21
-60.8702
0
LINE
8
BLACK
6
CONTINUOUS
10
215.333
20
-60.8702
11
215.207
21
-61.0587
0
LINE
8
BLACK
6
CONTINUOUS
10
215.207
20
-61.0587
11
215.046
21
-61.219
0
LINE
8
BLACK
6
CONTINUOUS
10
215.046
20
-61.219
11
214.858
21
-61.345
0
LINE
8
BLACK
6
CONTINUOUS
10
214.858
20
-61.345
11
214.648
21
-61.4318
0
LINE
8
BLACK
6
CONTINUOUS
10
214.648
20
-61.4318
11
214.537
21
-61.4539
0
LINE
8
BLACK
6
CONTINUOUS
10
214.537
20
-61.4539
11
214.426
21
-61.476
0
LINE
8
BLACK
6
CONTINUOUS
10
214.426
20
-61.476
11
214.199
21
-61.476
0
LINE
8
BLACK
6
CONTINUOUS
10
214.199
20
-61.476
11
214.088
21
-61.4539
0
LINE
8
BLACK
6
CONTINUOUS
10
214.088
20
-61.4539
11
213.977
21
-61.4318
0
LINE
8
BLACK
6
CONTINUOUS
10
213.977
20
-61.4318
11
213.767
21
-61.345
0
LINE
8
BLACK
6
CONTINUOUS
10
213.767
20
-61.345
11
213.579
21
-61.219
0
LINE
8
BLACK
6
CONTINUOUS
10
213.579
20
-61.219
11
213.418
21
-61.0587
0
LINE
8
BLACK
6
CONTINUOUS
10
213.418
20
-61.0587
11
213.292
21
-60.8702
0
LINE
8
BLACK
6
CONTINUOUS
10
213.292
20
-60.8702
11
213.206
21
-60.6607
0
LINE
8
BLACK
6
CONTINUOUS
10
213.206
20
-60.6607
11
213.161
21
-60.4384
0
LINE
8
BLACK
6
CONTINUOUS
10
213.161
20
-60.4384
11
213.161
21
-60.2116
0
LINE
8
BLACK
6
CONTINUOUS
10
213.161
20
-60.2116
11
213.206
21
-59.9893
0
LINE
8
BLACK
6
CONTINUOUS
10
213.206
20
-59.9893
11
213.292
21
-59.7798
0
LINE
8
BLACK
6
CONTINUOUS
10
213.292
20
-59.7798
11
213.418
21
-59.5913
0
LINE
8
BLACK
6
CONTINUOUS
10
213.418
20
-59.5913
11
213.579
21
-59.431
0
LINE
8
BLACK
6
CONTINUOUS
10
213.579
20
-59.431
11
213.767
21
-59.305
0
LINE
8
BLACK
6
CONTINUOUS
10
213.767
20
-59.305
11
213.977
21
-59.2182
0
LINE
8
BLACK
6
CONTINUOUS
10
213.977
20
-59.2182
11
214.088
21
-59.1961
0
LINE
8
BLACK
6
CONTINUOUS
10
214.088
20
-59.1961
11
214.199
21
-59.174
0
LINE
8
BLACK
6
CONTINUOUS
10
214.199
20
-59.174
11
214.426
21
-59.174
0
LINE
8
BLACK
6
CONTINUOUS
10
214.426
20
-59.174
11
214.537
21
-59.1961
0
LINE
8
BLACK
6
CONTINUOUS
10
98.6495
20
-56.0211
11
98.7607
21
-56.0432
0
LINE
8
BLACK
6
CONTINUOUS
10
98.7607
20
-56.0432
11
98.9702
21
-56.13
0
LINE
8
BLACK
6
CONTINUOUS
10
98.9702
20
-56.13
11
99.1587
21
-56.256
0
LINE
8
BLACK
6
CONTINUOUS
10
99.1587
20
-56.256
11
99.319
21
-56.4163
0
LINE
8
BLACK
6
CONTINUOUS
10
99.319
20
-56.4163
11
99.445
21
-56.6048
0
LINE
8
BLACK
6
CONTINUOUS
10
99.445
20
-56.6048
11
99.5318
21
-56.8143
0
LINE
8
BLACK
6
CONTINUOUS
10
99.5318
20
-56.8143
11
99.576
21
-57.0366
0
LINE
8
BLACK
6
CONTINUOUS
10
99.576
20
-57.0366
11
99.576
21
-57.2634
0
LINE
8
BLACK
6
CONTINUOUS
10
99.576
20
-57.2634
11
99.5318
21
-57.4857
0
LINE
8
BLACK
6
CONTINUOUS
10
99.5318
20
-57.4857
11
99.445
21
-57.6952
0
LINE
8
BLACK
6
CONTINUOUS
10
99.445
20
-57.6952
11
99.319
21
-57.8837
0
LINE
8
BLACK
6
CONTINUOUS
10
99.319
20
-57.8837
11
99.1587
21
-58.044
0
LINE
8
BLACK
6
CONTINUOUS
10
99.1587
20
-58.044
11
98.9702
21
-58.17
0
LINE
8
BLACK
6
CONTINUOUS
10
98.9702
20
-58.17
11
98.7607
21
-58.2568
0
LINE
8
BLACK
6
CONTINUOUS
10
98.7607
20
-58.2568
11
98.6495
21
-58.2789
0
LINE
8
BLACK
6
CONTINUOUS
10
98.6495
20
-58.2789
11
98.5384
21
-58.301
0
LINE
8
BLACK
6
CONTINUOUS
10
98.5384
20
-58.301
11
98.3116
21
-58.301
0
LINE
8
BLACK
6
CONTINUOUS
10
98.3116
20
-58.301
11
98.2005
21
-58.2789
0
LINE
8
BLACK
6
CONTINUOUS
10
98.2005
20
-58.2789
11
98.0893
21
-58.2568
0
LINE
8
BLACK
6
CONTINUOUS
10
98.0893
20
-58.2568
11
97.8798
21
-58.17
0
LINE
8
BLACK
6
CONTINUOUS
10
97.8798
20
-58.17
11
97.6913
21
-58.044
0
LINE
8
BLACK
6
CONTINUOUS
10
97.6913
20
-58.044
11
97.531
21
-57.8837
0
LINE
8
BLACK
6
CONTINUOUS
10
97.531
20
-57.8837
11
97.405
21
-57.6952
0
LINE
8
BLACK
6
CONTINUOUS
10
97.405
20
-57.6952
11
97.3182
21
-57.4857
0
LINE
8
BLACK
6
CONTINUOUS
10
97.3182
20
-57.4857
11
97.274
21
-57.2634
0
LINE
8
BLACK
6
CONTINUOUS
10
97.274
20
-57.2634
11
97.274
21
-57.0366
0
LINE
8
BLACK
6
CONTINUOUS
10
97.274
20
-57.0366
11
97.3182
21
-56.8143
0
LINE
8
BLACK
6
CONTINUOUS
10
97.3182
20
-56.8143
11
97.405
21
-56.6048
0
LINE
8
BLACK
6
CONTINUOUS
10
97.405
20
-56.6048
11
97.531
21
-56.4163
0
LINE
8
BLACK
6
CONTINUOUS
10
97.531
20
-56.4163
11
97.6913
21
-56.256
0
LINE
8
BLACK
6
CONTINUOUS
10
97.6913
20
-56.256
11
97.8798
21
-56.13
0
LINE
8
BLACK
6
CONTINUOUS
10
97.8798
20
-56.13
11
98.0893
21
-56.0432
0
LINE
8
BLACK
6
CONTINUOUS
10
98.0893
20
-56.0432
11
98.2005
21
-56.0211
0
LINE
8
BLACK
6
CONTINUOUS
10
98.2005
20
-56.0211
11
98.3116
21
-55.999
0
LINE
8
BLACK
6
CONTINUOUS
10
98.3116
20
-55.999
11
98.5384
21
-55.999
0
LINE
8
BLACK
6
CONTINUOUS
10
98.5384
20
-55.999
11
98.6495
21
-56.0211
0
LINE
8
BLACK
6
CONTINUOUS
10
290.737
20
-56.0211
11
290.848
21
-56.0432
0
LINE
8
BLACK
6
CONTINUOUS
10
290.848
20
-56.0432
11
291.058
21
-56.13
0
LINE
8
BLACK
6
CONTINUOUS
10
291.058
20
-56.13
11
291.246
21
-56.256
0
LINE
8
BLACK
6
CONTINUOUS
10
291.246
20
-56.256
11
291.407
21
-56.4163
0
LINE
8
BLACK
6
CONTINUOUS
10
291.407
20
-56.4163
11
291.533
21
-56.6048
0
LINE
8
BLACK
6
CONTINUOUS
10
291.533
20
-56.6048
11
291.619
21
-56.8143
0
LINE
8
BLACK
6
CONTINUOUS
10
291.619
20
-56.8143
11
291.663
21
-57.0366
0
LINE
8
BLACK
6
CONTINUOUS
10
291.663
20
-57.0366
11
291.663
21
-57.2634
0
LINE
8
BLACK
6
CONTINUOUS
10
291.663
20
-57.2634
11
291.619
21
-57.4857
0
LINE
8
BLACK
6
CONTINUOUS
10
291.619
20
-57.4857
11
291.533
21
-57.6952
0
LINE
8
BLACK
6
CONTINUOUS
10
291.533
20
-57.6952
11
291.407
21
-57.8837
0
LINE
8
BLACK
6
CONTINUOUS
10
291.407
20
-57.8837
11
291.246
21
-58.044
0
LINE
8
BLACK
6
CONTINUOUS
10
291.246
20
-58.044
11
291.058
21
-58.17
0
LINE
8
BLACK
6
CONTINUOUS
10
291.058
20
-58.17
11
290.848
21
-58.2568
0
LINE
8
BLACK
6
CONTINUOUS
10
290.848
20
-58.2568
11
290.737
21
-58.2789
0
LINE
8
BLACK
6
CONTINUOUS
10
290.737
20
-58.2789
11
290.626
21
-58.301
0
LINE
8
BLACK
6
CONTINUOUS
10
290.626
20
-58.301
11
290.399
21
-58.301
0
LINE
8
BLACK
6
CONTINUOUS
10
290.399
20
-58.301
11
290.288
21
-58.2789
0
LINE
8
BLACK
6
CONTINUOUS
10
290.288
20
-58.2789
11
290.177
21
-58.2568
0
LINE
8
BLACK
6
CONTINUOUS
10
290.177
20
-58.2568
11
289.967
21
-58.17
0
LINE
8
BLACK
6
CONTINUOUS
10
289.967
20
-58.17
11
289.779
21
-58.044
0
LINE
8
BLACK
6
CONTINUOUS
10
289.779
20
-58.044
11
289.618
21
-57.8837
0
LINE
8
BLACK
6
CONTINUOUS
10
289.618
20
-57.8837
11
289.492
21
-57.6952
0
LINE
8
BLACK
6
CONTINUOUS
10
289.492
20
-57.6952
11
289.406
21
-57.4857
0
LINE
8
BLACK
6
CONTINUOUS
10
289.406
20
-57.4857
11
289.361
21
-57.2634
0
LINE
8
BLACK
6
CONTINUOUS
10
289.361
20
-57.2634
11
289.361
21
-57.0366
0
LINE
8
BLACK
6
CONTINUOUS
10
289.361
20
-57.0366
11
289.406
21
-56.8143
0
LINE
8
BLACK
6
CONTINUOUS
10
289.406
20
-56.8143
11
289.492
21
-56.6048
0
LINE
8
BLACK
6
CONTINUOUS
10
289.492
20
-56.6048
11
289.618
21
-56.4163
0
LINE
8
BLACK
6
CONTINUOUS
10
289.618
20
-56.4163
11
289.779
21
-56.256
0
LINE
8
BLACK
6
CONTINUOUS
10
289.779
20
-56.256
11
289.967
21
-56.13
0
LINE
8
BLACK
6
CONTINUOUS
10
289.967
20
-56.13
11
290.177
21
-56.0432
0
LINE
8
BLACK
6
CONTINUOUS
10
290.177
20
-56.0432
11
290.288
21
-56.0211
0
LINE
8
BLACK
6
CONTINUOUS
10
290.288
20
-56.0211
11
290.399
21
-55.999
0
LINE
8
BLACK
6
CONTINUOUS
10
290.399
20
-55.999
11
290.626
21
-55.999
0
LINE
8
BLACK
6
CONTINUOUS
10
290.626
20
-55.999
11
290.737
21
-56.0211
  0
ENDSEC
  0
EOF
