  0
SECTION
  2
HEADER
  9
$ANGBASE
  50
0.0
  9
$ANGDIR
  70
1
  9
$MEASUREMENT
  70
1
  0
ENDSEC
  0
SECTION
  2
TABLES
  0
TABLE
  2
LTYPE
  70
4
  0
LTYPE
  5
40F
  2
CONTINUOUS
  70
0
  3
Solid line
  72
65
  73
0
  40
0.0
  0
LTYPE
  5
410
  2
DASHDOT
 70
0
  3
Dash Dot ____ _ ____ _
 72
65
 73
4
 40
2.0
 49
1.25
 49
-0.25
 49
0.25
 49
-0.25
  0
LTYPE
  5
411
  2
DASHED
 70
0
  3
Dashed __ __ __ __ __
 72
65
 73
2
 40
0.75
 49
0.5
 49
-0.25
  0
LTYPE
  5
43B
  2
DOTTED
 70
0
  3
Dotted .  .  .  .
 72
65
 73
2
 40
0.2
 49
0.0
 49
-0.2
  0
ENDTAB
  0
TABLE
  2
STYLE
  70
4
  0
STYLE
  2
KICAD
  70
0
  40
0
  41
1
  42
1
  50
0
  71
0
  3
isocp.shx
  0
STYLE
  2
KICADB
  70
0
  40
0
  41
1
  42
1
  50
0
  71
0
  3
isocp.shx
  0
STYLE
  2
KICADI
  70
0
  40
0
  41
1
  42
1
  50
15
  71
0
  3
isocp.shx
  0
STYLE
  2
KICADBI
  70
0
  40
0
  41
1
  42
1
  50
15
  71
0
  3
isocp.shx
  0
ENDTAB
  0
TABLE
  2
LAYER
  70
1
  0
LAYER
  2
BLACK
  70
0
  62
7
  6
CONTINUOUS
  0
ENDTAB
  0
ENDSEC
  0
SECTION
  2
ENTITIES
0
LINE
8
BLACK
6
CONTINUOUS
10
313.225
20
-158.568
11
312.775
21
-159.348
0
LINE
8
BLACK
6
CONTINUOUS
10
312.775
20
-159.348
11
311.736
21
-158.748
0
LINE
8
BLACK
6
CONTINUOUS
10
311.736
20
-158.748
11
312.186
21
-157.968
0
LINE
8
BLACK
6
CONTINUOUS
10
312.186
20
-157.968
11
313.225
21
-158.568
0
LINE
8
BLACK
6
CONTINUOUS
10
314.875
20
-155.71
11
314.425
21
-156.49
0
LINE
8
BLACK
6
CONTINUOUS
10
314.425
20
-156.49
11
313.386
21
-155.89
0
LINE
8
BLACK
6
CONTINUOUS
10
313.386
20
-155.89
11
313.836
21
-155.11
0
LINE
8
BLACK
6
CONTINUOUS
10
313.836
20
-155.11
11
314.875
21
-155.71
0
LINE
8
BLACK
6
CONTINUOUS
10
315.76
20
-151.333
11
314.51
21
-153.498
0
LINE
8
BLACK
6
CONTINUOUS
10
314.51
20
-153.498
11
312.301
21
-152.223
0
LINE
8
BLACK
6
CONTINUOUS
10
312.301
20
-152.223
11
313.551
21
-150.058
0
LINE
8
BLACK
6
CONTINUOUS
10
313.551
20
-150.058
11
315.76
21
-151.333
0
LINE
8
BLACK
6
CONTINUOUS
10
293.485
20
-149.512
11
293.368
21
-150.404
0
LINE
8
BLACK
6
CONTINUOUS
10
293.368
20
-150.404
11
292.178
21
-150.247
0
LINE
8
BLACK
6
CONTINUOUS
10
292.178
20
-150.247
11
292.296
21
-149.355
0
LINE
8
BLACK
6
CONTINUOUS
10
292.296
20
-149.355
11
293.485
21
-149.512
0
LINE
8
BLACK
6
CONTINUOUS
10
303.295
20
-147.069
11
302.045
21
-149.234
0
LINE
8
BLACK
6
CONTINUOUS
10
302.045
20
-149.234
11
299.836
21
-147.959
0
LINE
8
BLACK
6
CONTINUOUS
10
299.836
20
-147.959
11
301.086
21
-145.794
0
LINE
8
BLACK
6
CONTINUOUS
10
301.086
20
-145.794
11
303.295
21
-147.069
0
LINE
8
BLACK
6
CONTINUOUS
10
293.916
20
-146.24
11
293.799
21
-147.132
0
LINE
8
BLACK
6
CONTINUOUS
10
293.799
20
-147.132
11
292.609
21
-146.975
0
LINE
8
BLACK
6
CONTINUOUS
10
292.609
20
-146.975
11
292.726
21
-146.083
0
LINE
8
BLACK
6
CONTINUOUS
10
292.726
20
-146.083
11
293.916
21
-146.24
0
LINE
8
BLACK
6
CONTINUOUS
10
279.759
20
-142.69
11
279.433
21
-145.169
0
LINE
8
BLACK
6
CONTINUOUS
10
279.433
20
-145.169
11
276.905
21
-144.836
0
LINE
8
BLACK
6
CONTINUOUS
10
276.905
20
-144.836
11
277.231
21
-142.357
0
LINE
8
BLACK
6
CONTINUOUS
10
277.231
20
-142.357
11
279.759
21
-142.69
0
LINE
8
BLACK
6
CONTINUOUS
10
292.907
20
-141.859
11
292.581
21
-144.338
0
LINE
8
BLACK
6
CONTINUOUS
10
292.581
20
-144.338
11
290.053
21
-144.005
0
LINE
8
BLACK
6
CONTINUOUS
10
290.053
20
-144.005
11
290.379
21
-141.527
0
LINE
8
BLACK
6
CONTINUOUS
10
290.379
20
-141.527
11
292.907
21
-141.859
0
LINE
8
BLACK
6
CONTINUOUS
10
322.75
20
-142.07
11
322.3
21
-142.85
0
LINE
8
BLACK
6
CONTINUOUS
10
322.3
20
-142.85
11
321.261
21
-142.25
0
LINE
8
BLACK
6
CONTINUOUS
10
321.261
20
-142.25
11
321.711
21
-141.47
0
LINE
8
BLACK
6
CONTINUOUS
10
321.711
20
-141.47
11
322.75
21
-142.07
0
LINE
8
BLACK
6
CONTINUOUS
10
324.4
20
-139.213
11
323.95
21
-139.992
0
LINE
8
BLACK
6
CONTINUOUS
10
323.95
20
-139.992
11
322.911
21
-139.392
0
LINE
8
BLACK
6
CONTINUOUS
10
322.911
20
-139.392
11
323.361
21
-138.613
0
LINE
8
BLACK
6
CONTINUOUS
10
323.361
20
-138.613
11
324.4
21
-139.213
0
LINE
8
BLACK
6
CONTINUOUS
10
325.285
20
-134.839
11
324.035
21
-137.004
0
LINE
8
BLACK
6
CONTINUOUS
10
324.035
20
-137.004
11
321.826
21
-135.729
0
LINE
8
BLACK
6
CONTINUOUS
10
321.826
20
-135.729
11
323.076
21
-133.564
0
LINE
8
BLACK
6
CONTINUOUS
10
323.076
20
-133.564
11
325.285
21
-134.839
0
LINE
8
BLACK
6
CONTINUOUS
10
303.646
20
-132.262
11
303.413
21
-133.132
0
LINE
8
BLACK
6
CONTINUOUS
10
303.413
20
-133.132
11
302.254
21
-132.821
0
LINE
8
BLACK
6
CONTINUOUS
10
302.254
20
-132.821
11
302.487
21
-131.952
0
LINE
8
BLACK
6
CONTINUOUS
10
302.487
20
-131.952
11
303.646
21
-132.262
0
LINE
8
BLACK
6
CONTINUOUS
10
312.82
20
-130.575
11
311.57
21
-132.74
0
LINE
8
BLACK
6
CONTINUOUS
10
311.57
20
-132.74
11
309.361
21
-131.465
0
LINE
8
BLACK
6
CONTINUOUS
10
309.361
20
-131.465
11
310.611
21
-129.3
0
LINE
8
BLACK
6
CONTINUOUS
10
310.611
20
-129.3
11
312.82
21
-130.575
0
LINE
8
BLACK
6
CONTINUOUS
10
304.5
20
-129.075
11
304.267
21
-129.944
0
LINE
8
BLACK
6
CONTINUOUS
10
304.267
20
-129.944
11
303.108
21
-129.633
0
LINE
8
BLACK
6
CONTINUOUS
10
303.108
20
-129.633
11
303.341
21
-128.764
0
LINE
8
BLACK
6
CONTINUOUS
10
303.341
20
-128.764
11
304.5
21
-129.075
0
LINE
8
BLACK
6
CONTINUOUS
10
283.175
20
-129.1
11
281.975
21
-129.1
0
LINE
8
BLACK
6
CONTINUOUS
10
281.975
20
-129.1
11
281.975
21
-128.2
0
LINE
8
BLACK
6
CONTINUOUS
10
281.975
20
-128.2
11
283.175
21
-128.2
0
LINE
8
BLACK
6
CONTINUOUS
10
283.175
20
-128.2
11
283.175
21
-129.1
0
LINE
8
BLACK
6
CONTINUOUS
10
232.387
20
-129.1
11
231.188
21
-129.1
0
LINE
8
BLACK
6
CONTINUOUS
10
231.188
20
-129.1
11
231.188
21
-128.2
0
LINE
8
BLACK
6
CONTINUOUS
10
231.188
20
-128.2
11
232.387
21
-128.2
0
LINE
8
BLACK
6
CONTINUOUS
10
232.387
20
-128.2
11
232.387
21
-129.1
0
LINE
8
BLACK
6
CONTINUOUS
10
173.637
20
-129.1
11
172.438
21
-129.1
0
LINE
8
BLACK
6
CONTINUOUS
10
172.438
20
-129.1
11
172.438
21
-128.2
0
LINE
8
BLACK
6
CONTINUOUS
10
172.438
20
-128.2
11
173.637
21
-128.2
0
LINE
8
BLACK
6
CONTINUOUS
10
173.637
20
-128.2
11
173.637
21
-129.1
0
LINE
8
BLACK
6
CONTINUOUS
10
192.688
20
-129.1
11
191.487
21
-129.1
0
LINE
8
BLACK
6
CONTINUOUS
10
191.487
20
-129.1
11
191.487
21
-128.2
0
LINE
8
BLACK
6
CONTINUOUS
10
191.487
20
-128.2
11
192.688
21
-128.2
0
LINE
8
BLACK
6
CONTINUOUS
10
192.688
20
-128.2
11
192.688
21
-129.1
0
LINE
8
BLACK
6
CONTINUOUS
10
122.837
20
-129.1
11
121.637
21
-129.1
0
LINE
8
BLACK
6
CONTINUOUS
10
121.637
20
-129.1
11
121.637
21
-128.2
0
LINE
8
BLACK
6
CONTINUOUS
10
121.637
20
-128.2
11
122.837
21
-128.2
0
LINE
8
BLACK
6
CONTINUOUS
10
122.837
20
-128.2
11
122.837
21
-129.1
0
LINE
8
BLACK
6
CONTINUOUS
10
213.325
20
-129.1
11
212.125
21
-129.1
0
LINE
8
BLACK
6
CONTINUOUS
10
212.125
20
-129.1
11
212.125
21
-128.2
0
LINE
8
BLACK
6
CONTINUOUS
10
212.125
20
-128.2
11
213.325
21
-128.2
0
LINE
8
BLACK
6
CONTINUOUS
10
213.325
20
-128.2
11
213.325
21
-129.1
0
LINE
8
BLACK
6
CONTINUOUS
10
304.376
20
-124.877
11
303.729
21
-127.292
0
LINE
8
BLACK
6
CONTINUOUS
10
303.729
20
-127.292
11
301.266
21
-126.632
0
LINE
8
BLACK
6
CONTINUOUS
10
301.266
20
-126.632
11
301.913
21
-124.217
0
LINE
8
BLACK
6
CONTINUOUS
10
301.913
20
-124.217
11
304.376
21
-124.877
0
LINE
8
BLACK
6
CONTINUOUS
10
291.232
20
-123.985
11
290.585
21
-126.399
0
LINE
8
BLACK
6
CONTINUOUS
10
290.585
20
-126.399
11
288.122
21
-125.739
0
LINE
8
BLACK
6
CONTINUOUS
10
288.122
20
-125.739
11
288.769
21
-123.325
0
LINE
8
BLACK
6
CONTINUOUS
10
288.769
20
-123.325
11
291.232
21
-123.985
0
LINE
8
BLACK
6
CONTINUOUS
10
332.275
20
-125.573
11
331.825
21
-126.352
0
LINE
8
BLACK
6
CONTINUOUS
10
331.825
20
-126.352
11
330.786
21
-125.752
0
LINE
8
BLACK
6
CONTINUOUS
10
330.786
20
-125.752
11
331.236
21
-124.973
0
LINE
8
BLACK
6
CONTINUOUS
10
331.236
20
-124.973
11
332.275
21
-125.573
0
LINE
8
BLACK
6
CONTINUOUS
10
283.175
20
-125.8
11
281.975
21
-125.8
0
LINE
8
BLACK
6
CONTINUOUS
10
281.975
20
-125.8
11
281.975
21
-124.9
0
LINE
8
BLACK
6
CONTINUOUS
10
281.975
20
-124.9
11
283.175
21
-124.9
0
LINE
8
BLACK
6
CONTINUOUS
10
283.175
20
-124.9
11
283.175
21
-125.8
0
LINE
8
BLACK
6
CONTINUOUS
10
192.688
20
-125.8
11
191.487
21
-125.8
0
LINE
8
BLACK
6
CONTINUOUS
10
191.487
20
-125.8
11
191.487
21
-124.9
0
LINE
8
BLACK
6
CONTINUOUS
10
191.487
20
-124.9
11
192.688
21
-124.9
0
LINE
8
BLACK
6
CONTINUOUS
10
192.688
20
-124.9
11
192.688
21
-125.8
0
LINE
8
BLACK
6
CONTINUOUS
10
122.837
20
-125.8
11
121.637
21
-125.8
0
LINE
8
BLACK
6
CONTINUOUS
10
121.637
20
-125.8
11
121.637
21
-124.9
0
LINE
8
BLACK
6
CONTINUOUS
10
121.637
20
-124.9
11
122.837
21
-124.9
0
LINE
8
BLACK
6
CONTINUOUS
10
122.837
20
-124.9
11
122.837
21
-125.8
0
LINE
8
BLACK
6
CONTINUOUS
10
232.387
20
-125.8
11
231.188
21
-125.8
0
LINE
8
BLACK
6
CONTINUOUS
10
231.188
20
-125.8
11
231.188
21
-124.9
0
LINE
8
BLACK
6
CONTINUOUS
10
231.188
20
-124.9
11
232.387
21
-124.9
0
LINE
8
BLACK
6
CONTINUOUS
10
232.387
20
-124.9
11
232.387
21
-125.8
0
LINE
8
BLACK
6
CONTINUOUS
10
173.637
20
-125.8
11
172.438
21
-125.8
0
LINE
8
BLACK
6
CONTINUOUS
10
172.438
20
-125.8
11
172.438
21
-124.9
0
LINE
8
BLACK
6
CONTINUOUS
10
172.438
20
-124.9
11
173.637
21
-124.9
0
LINE
8
BLACK
6
CONTINUOUS
10
173.637
20
-124.9
11
173.637
21
-125.8
0
LINE
8
BLACK
6
CONTINUOUS
10
213.325
20
-125.8
11
212.125
21
-125.8
0
LINE
8
BLACK
6
CONTINUOUS
10
212.125
20
-125.8
11
212.125
21
-124.9
0
LINE
8
BLACK
6
CONTINUOUS
10
212.125
20
-124.9
11
213.325
21
-124.9
0
LINE
8
BLACK
6
CONTINUOUS
10
213.325
20
-124.9
11
213.325
21
-125.8
0
LINE
8
BLACK
6
CONTINUOUS
10
218.027
20
-125.71
11
215.477
21
-125.71
0
LINE
8
BLACK
6
CONTINUOUS
10
215.477
20
-125.71
11
215.477
21
-123.21
0
LINE
8
BLACK
6
CONTINUOUS
10
215.477
20
-123.21
11
218.027
21
-123.21
0
LINE
8
BLACK
6
CONTINUOUS
10
218.027
20
-123.21
11
218.027
21
-125.71
0
LINE
8
BLACK
6
CONTINUOUS
10
108.49
20
-125.71
11
105.94
21
-125.71
0
LINE
8
BLACK
6
CONTINUOUS
10
105.94
20
-125.71
11
105.94
21
-123.21
0
LINE
8
BLACK
6
CONTINUOUS
10
105.94
20
-123.21
11
108.49
21
-123.21
0
LINE
8
BLACK
6
CONTINUOUS
10
108.49
20
-123.21
11
108.49
21
-125.71
0
LINE
8
BLACK
6
CONTINUOUS
10
178.34
20
-125.71
11
175.79
21
-125.71
0
LINE
8
BLACK
6
CONTINUOUS
10
175.79
20
-125.71
11
175.79
21
-123.21
0
LINE
8
BLACK
6
CONTINUOUS
10
175.79
20
-123.21
11
178.34
21
-123.21
0
LINE
8
BLACK
6
CONTINUOUS
10
178.34
20
-123.21
11
178.34
21
-125.71
0
LINE
8
BLACK
6
CONTINUOUS
10
268.827
20
-125.71
11
266.277
21
-125.71
0
LINE
8
BLACK
6
CONTINUOUS
10
266.277
20
-125.71
11
266.277
21
-123.21
0
LINE
8
BLACK
6
CONTINUOUS
10
266.277
20
-123.21
11
268.827
21
-123.21
0
LINE
8
BLACK
6
CONTINUOUS
10
268.827
20
-123.21
11
268.827
21
-125.71
0
LINE
8
BLACK
6
CONTINUOUS
10
159.29
20
-125.71
11
156.74
21
-125.71
0
LINE
8
BLACK
6
CONTINUOUS
10
156.74
20
-125.71
11
156.74
21
-123.21
0
LINE
8
BLACK
6
CONTINUOUS
10
156.74
20
-123.21
11
159.29
21
-123.21
0
LINE
8
BLACK
6
CONTINUOUS
10
159.29
20
-123.21
11
159.29
21
-125.71
0
LINE
8
BLACK
6
CONTINUOUS
10
198.978
20
-125.71
11
196.428
21
-125.71
0
LINE
8
BLACK
6
CONTINUOUS
10
196.428
20
-125.71
11
196.428
21
-123.21
0
LINE
8
BLACK
6
CONTINUOUS
10
196.428
20
-123.21
11
198.978
21
-123.21
0
LINE
8
BLACK
6
CONTINUOUS
10
198.978
20
-123.21
11
198.978
21
-125.71
0
LINE
8
BLACK
6
CONTINUOUS
10
251.425
20
-124.338
11
250.225
21
-124.338
0
LINE
8
BLACK
6
CONTINUOUS
10
250.225
20
-124.338
11
250.225
21
-123.438
0
LINE
8
BLACK
6
CONTINUOUS
10
250.225
20
-123.438
11
251.425
21
-123.438
0
LINE
8
BLACK
6
CONTINUOUS
10
251.425
20
-123.438
11
251.425
21
-124.338
0
LINE
8
BLACK
6
CONTINUOUS
10
154.588
20
-124.337
11
153.387
21
-124.337
0
LINE
8
BLACK
6
CONTINUOUS
10
153.387
20
-124.337
11
153.387
21
-123.438
0
LINE
8
BLACK
6
CONTINUOUS
10
153.387
20
-123.438
11
154.588
21
-123.438
0
LINE
8
BLACK
6
CONTINUOUS
10
154.588
20
-123.438
11
154.588
21
-124.337
0
LINE
8
BLACK
6
CONTINUOUS
10
333.925
20
-122.715
11
333.475
21
-123.494
0
LINE
8
BLACK
6
CONTINUOUS
10
333.475
20
-123.494
11
332.436
21
-122.894
0
LINE
8
BLACK
6
CONTINUOUS
10
332.436
20
-122.894
11
332.886
21
-122.115
0
LINE
8
BLACK
6
CONTINUOUS
10
332.886
20
-122.115
11
333.925
21
-122.715
0
LINE
8
BLACK
6
CONTINUOUS
10
230.954
20
-123.17
11
228.404
21
-123.17
0
LINE
8
BLACK
6
CONTINUOUS
10
228.404
20
-123.17
11
228.404
21
-120.67
0
LINE
8
BLACK
6
CONTINUOUS
10
228.404
20
-120.67
11
230.954
21
-120.67
0
LINE
8
BLACK
6
CONTINUOUS
10
230.954
20
-120.67
11
230.954
21
-123.17
0
LINE
8
BLACK
6
CONTINUOUS
10
121.417
20
-123.17
11
118.867
21
-123.17
0
LINE
8
BLACK
6
CONTINUOUS
10
118.867
20
-123.17
11
118.867
21
-120.67
0
LINE
8
BLACK
6
CONTINUOUS
10
118.867
20
-120.67
11
121.417
21
-120.67
0
LINE
8
BLACK
6
CONTINUOUS
10
121.417
20
-120.67
11
121.417
21
-123.17
0
LINE
8
BLACK
6
CONTINUOUS
10
172.217
20
-123.17
11
169.667
21
-123.17
0
LINE
8
BLACK
6
CONTINUOUS
10
169.667
20
-123.17
11
169.667
21
-120.67
0
LINE
8
BLACK
6
CONTINUOUS
10
169.667
20
-120.67
11
172.217
21
-120.67
0
LINE
8
BLACK
6
CONTINUOUS
10
172.217
20
-120.67
11
172.217
21
-123.17
0
LINE
8
BLACK
6
CONTINUOUS
10
281.755
20
-123.17
11
279.204
21
-123.17
0
LINE
8
BLACK
6
CONTINUOUS
10
279.204
20
-123.17
11
279.204
21
-120.67
0
LINE
8
BLACK
6
CONTINUOUS
10
279.204
20
-120.67
11
281.755
21
-120.67
0
LINE
8
BLACK
6
CONTINUOUS
10
281.755
20
-120.67
11
281.755
21
-123.17
0
LINE
8
BLACK
6
CONTINUOUS
10
191.267
20
-123.17
11
188.717
21
-123.17
0
LINE
8
BLACK
6
CONTINUOUS
10
188.717
20
-123.17
11
188.717
21
-120.67
0
LINE
8
BLACK
6
CONTINUOUS
10
188.717
20
-120.67
11
191.267
21
-120.67
0
LINE
8
BLACK
6
CONTINUOUS
10
191.267
20
-120.67
11
191.267
21
-123.17
0
LINE
8
BLACK
6
CONTINUOUS
10
211.905
20
-123.17
11
209.355
21
-123.17
0
LINE
8
BLACK
6
CONTINUOUS
10
209.355
20
-123.17
11
209.355
21
-120.67
0
LINE
8
BLACK
6
CONTINUOUS
10
209.355
20
-120.67
11
211.905
21
-120.67
0
LINE
8
BLACK
6
CONTINUOUS
10
211.905
20
-120.67
11
211.905
21
-123.17
0
LINE
8
BLACK
6
CONTINUOUS
10
251.425
20
-121.038
11
250.225
21
-121.038
0
LINE
8
BLACK
6
CONTINUOUS
10
250.225
20
-121.038
11
250.225
21
-120.138
0
LINE
8
BLACK
6
CONTINUOUS
10
250.225
20
-120.138
11
251.425
21
-120.138
0
LINE
8
BLACK
6
CONTINUOUS
10
251.425
20
-120.138
11
251.425
21
-121.038
0
LINE
8
BLACK
6
CONTINUOUS
10
154.588
20
-121.037
11
153.387
21
-121.037
0
LINE
8
BLACK
6
CONTINUOUS
10
153.387
20
-121.037
11
153.387
21
-120.137
0
LINE
8
BLACK
6
CONTINUOUS
10
153.387
20
-120.137
11
154.588
21
-120.137
0
LINE
8
BLACK
6
CONTINUOUS
10
154.588
20
-120.137
11
154.588
21
-121.037
0
LINE
8
BLACK
6
CONTINUOUS
10
140.24
20
-120.947
11
137.69
21
-120.947
0
LINE
8
BLACK
6
CONTINUOUS
10
137.69
20
-120.947
11
137.69
21
-118.447
0
LINE
8
BLACK
6
CONTINUOUS
10
137.69
20
-118.447
11
140.24
21
-118.447
0
LINE
8
BLACK
6
CONTINUOUS
10
140.24
20
-118.447
11
140.24
21
-120.947
0
LINE
8
BLACK
6
CONTINUOUS
10
237.078
20
-120.947
11
234.528
21
-120.947
0
LINE
8
BLACK
6
CONTINUOUS
10
234.528
20
-120.947
11
234.528
21
-118.447
0
LINE
8
BLACK
6
CONTINUOUS
10
234.528
20
-118.447
11
237.078
21
-118.447
0
LINE
8
BLACK
6
CONTINUOUS
10
237.078
20
-118.447
11
237.078
21
-120.947
0
LINE
8
BLACK
6
CONTINUOUS
10
334.81
20
-118.341
11
333.56
21
-120.506
0
LINE
8
BLACK
6
CONTINUOUS
10
333.56
20
-120.506
11
331.351
21
-119.231
0
LINE
8
BLACK
6
CONTINUOUS
10
331.351
20
-119.231
11
332.601
21
-117.066
0
LINE
8
BLACK
6
CONTINUOUS
10
332.601
20
-117.066
11
334.81
21
-118.341
0
LINE
8
BLACK
6
CONTINUOUS
10
153.167
20
-118.407
11
150.617
21
-118.407
0
LINE
8
BLACK
6
CONTINUOUS
10
150.617
20
-118.407
11
150.617
21
-115.907
0
LINE
8
BLACK
6
CONTINUOUS
10
150.617
20
-115.907
11
153.167
21
-115.907
0
LINE
8
BLACK
6
CONTINUOUS
10
153.167
20
-115.907
11
153.167
21
-118.407
0
LINE
8
BLACK
6
CONTINUOUS
10
250.005
20
-118.407
11
247.455
21
-118.407
0
LINE
8
BLACK
6
CONTINUOUS
10
247.455
20
-118.407
11
247.455
21
-115.907
0
LINE
8
BLACK
6
CONTINUOUS
10
247.455
20
-115.907
11
250.005
21
-115.907
0
LINE
8
BLACK
6
CONTINUOUS
10
250.005
20
-115.907
11
250.005
21
-118.407
0
LINE
8
BLACK
6
CONTINUOUS
10
322.345
20
-114.077
11
321.095
21
-116.243
0
LINE
8
BLACK
6
CONTINUOUS
10
321.095
20
-116.243
11
318.886
21
-114.968
0
LINE
8
BLACK
6
CONTINUOUS
10
318.886
20
-114.968
11
320.136
21
-112.802
0
LINE
8
BLACK
6
CONTINUOUS
10
320.136
20
-112.802
11
322.345
21
-114.077
0
LINE
8
BLACK
6
CONTINUOUS
10
232.375
20
-110.05
11
231.175
21
-110.05
0
LINE
8
BLACK
6
CONTINUOUS
10
231.175
20
-110.05
11
231.175
21
-109.15
0
LINE
8
BLACK
6
CONTINUOUS
10
231.175
20
-109.15
11
232.375
21
-109.15
0
LINE
8
BLACK
6
CONTINUOUS
10
232.375
20
-109.15
11
232.375
21
-110.05
0
LINE
8
BLACK
6
CONTINUOUS
10
173.637
20
-110.05
11
172.438
21
-110.05
0
LINE
8
BLACK
6
CONTINUOUS
10
172.438
20
-110.05
11
172.438
21
-109.15
0
LINE
8
BLACK
6
CONTINUOUS
10
172.438
20
-109.15
11
173.637
21
-109.15
0
LINE
8
BLACK
6
CONTINUOUS
10
173.637
20
-109.15
11
173.637
21
-110.05
0
LINE
8
BLACK
6
CONTINUOUS
10
213.325
20
-110.05
11
212.125
21
-110.05
0
LINE
8
BLACK
6
CONTINUOUS
10
212.125
20
-110.05
11
212.125
21
-109.15
0
LINE
8
BLACK
6
CONTINUOUS
10
212.125
20
-109.15
11
213.325
21
-109.15
0
LINE
8
BLACK
6
CONTINUOUS
10
213.325
20
-109.15
11
213.325
21
-110.05
0
LINE
8
BLACK
6
CONTINUOUS
10
192.688
20
-110.05
11
191.487
21
-110.05
0
LINE
8
BLACK
6
CONTINUOUS
10
191.487
20
-110.05
11
191.487
21
-109.15
0
LINE
8
BLACK
6
CONTINUOUS
10
191.487
20
-109.15
11
192.688
21
-109.15
0
LINE
8
BLACK
6
CONTINUOUS
10
192.688
20
-109.15
11
192.688
21
-110.05
0
LINE
8
BLACK
6
CONTINUOUS
10
97.4375
20
-108.462
11
96.2375
21
-108.462
0
LINE
8
BLACK
6
CONTINUOUS
10
96.2375
20
-108.462
11
96.2375
21
-107.562
0
LINE
8
BLACK
6
CONTINUOUS
10
96.2375
20
-107.562
11
97.4375
21
-107.562
0
LINE
8
BLACK
6
CONTINUOUS
10
97.4375
20
-107.562
11
97.4375
21
-108.462
0
LINE
8
BLACK
6
CONTINUOUS
10
308.575
20
-108.462
11
307.375
21
-108.462
0
LINE
8
BLACK
6
CONTINUOUS
10
307.375
20
-108.462
11
307.375
21
-107.562
0
LINE
8
BLACK
6
CONTINUOUS
10
307.375
20
-107.562
11
308.575
21
-107.562
0
LINE
8
BLACK
6
CONTINUOUS
10
308.575
20
-107.562
11
308.575
21
-108.462
0
LINE
8
BLACK
6
CONTINUOUS
10
232.375
20
-106.75
11
231.175
21
-106.75
0
LINE
8
BLACK
6
CONTINUOUS
10
231.175
20
-106.75
11
231.175
21
-105.85
0
LINE
8
BLACK
6
CONTINUOUS
10
231.175
20
-105.85
11
232.375
21
-105.85
0
LINE
8
BLACK
6
CONTINUOUS
10
232.375
20
-105.85
11
232.375
21
-106.75
0
LINE
8
BLACK
6
CONTINUOUS
10
213.325
20
-106.75
11
212.125
21
-106.75
0
LINE
8
BLACK
6
CONTINUOUS
10
212.125
20
-106.75
11
212.125
21
-105.85
0
LINE
8
BLACK
6
CONTINUOUS
10
212.125
20
-105.85
11
213.325
21
-105.85
0
LINE
8
BLACK
6
CONTINUOUS
10
213.325
20
-105.85
11
213.325
21
-106.75
0
LINE
8
BLACK
6
CONTINUOUS
10
173.637
20
-106.75
11
172.438
21
-106.75
0
LINE
8
BLACK
6
CONTINUOUS
10
172.438
20
-106.75
11
172.438
21
-105.85
0
LINE
8
BLACK
6
CONTINUOUS
10
172.438
20
-105.85
11
173.637
21
-105.85
0
LINE
8
BLACK
6
CONTINUOUS
10
173.637
20
-105.85
11
173.637
21
-106.75
0
LINE
8
BLACK
6
CONTINUOUS
10
192.688
20
-106.75
11
191.487
21
-106.75
0
LINE
8
BLACK
6
CONTINUOUS
10
191.487
20
-106.75
11
191.487
21
-105.85
0
LINE
8
BLACK
6
CONTINUOUS
10
191.487
20
-105.85
11
192.688
21
-105.85
0
LINE
8
BLACK
6
CONTINUOUS
10
192.688
20
-105.85
11
192.688
21
-106.75
0
LINE
8
BLACK
6
CONTINUOUS
10
218.027
20
-106.66
11
215.477
21
-106.66
0
LINE
8
BLACK
6
CONTINUOUS
10
215.477
20
-106.66
11
215.477
21
-104.16
0
LINE
8
BLACK
6
CONTINUOUS
10
215.477
20
-104.16
11
218.027
21
-104.16
0
LINE
8
BLACK
6
CONTINUOUS
10
218.027
20
-104.16
11
218.027
21
-106.66
0
LINE
8
BLACK
6
CONTINUOUS
10
198.978
20
-106.66
11
196.428
21
-106.66
0
LINE
8
BLACK
6
CONTINUOUS
10
196.428
20
-106.66
11
196.428
21
-104.16
0
LINE
8
BLACK
6
CONTINUOUS
10
196.428
20
-104.16
11
198.978
21
-104.16
0
LINE
8
BLACK
6
CONTINUOUS
10
198.978
20
-104.16
11
198.978
21
-106.66
0
LINE
8
BLACK
6
CONTINUOUS
10
159.29
20
-106.66
11
156.74
21
-106.66
0
LINE
8
BLACK
6
CONTINUOUS
10
156.74
20
-106.66
11
156.74
21
-104.16
0
LINE
8
BLACK
6
CONTINUOUS
10
156.74
20
-104.16
11
159.29
21
-104.16
0
LINE
8
BLACK
6
CONTINUOUS
10
159.29
20
-104.16
11
159.29
21
-106.66
0
LINE
8
BLACK
6
CONTINUOUS
10
178.34
20
-106.66
11
175.79
21
-106.66
0
LINE
8
BLACK
6
CONTINUOUS
10
175.79
20
-106.66
11
175.79
21
-104.16
0
LINE
8
BLACK
6
CONTINUOUS
10
175.79
20
-104.16
11
178.34
21
-104.16
0
LINE
8
BLACK
6
CONTINUOUS
10
178.34
20
-104.16
11
178.34
21
-106.66
0
LINE
8
BLACK
6
CONTINUOUS
10
289.525
20
-105.288
11
288.325
21
-105.288
0
LINE
8
BLACK
6
CONTINUOUS
10
288.325
20
-105.288
11
288.325
21
-104.388
0
LINE
8
BLACK
6
CONTINUOUS
10
288.325
20
-104.388
11
289.525
21
-104.388
0
LINE
8
BLACK
6
CONTINUOUS
10
289.525
20
-104.388
11
289.525
21
-105.288
0
LINE
8
BLACK
6
CONTINUOUS
10
116.487
20
-105.287
11
115.287
21
-105.287
0
LINE
8
BLACK
6
CONTINUOUS
10
115.287
20
-105.287
11
115.287
21
-104.387
0
LINE
8
BLACK
6
CONTINUOUS
10
115.287
20
-104.387
11
116.487
21
-104.387
0
LINE
8
BLACK
6
CONTINUOUS
10
116.487
20
-104.387
11
116.487
21
-105.287
0
LINE
8
BLACK
6
CONTINUOUS
10
154.588
20
-105.287
11
153.387
21
-105.287
0
LINE
8
BLACK
6
CONTINUOUS
10
153.387
20
-105.287
11
153.387
21
-104.387
0
LINE
8
BLACK
6
CONTINUOUS
10
153.387
20
-104.387
11
154.588
21
-104.387
0
LINE
8
BLACK
6
CONTINUOUS
10
154.588
20
-104.387
11
154.588
21
-105.287
0
LINE
8
BLACK
6
CONTINUOUS
10
251.425
20
-105.287
11
250.225
21
-105.287
0
LINE
8
BLACK
6
CONTINUOUS
10
250.225
20
-105.287
11
250.225
21
-104.387
0
LINE
8
BLACK
6
CONTINUOUS
10
250.225
20
-104.387
11
251.425
21
-104.387
0
LINE
8
BLACK
6
CONTINUOUS
10
251.425
20
-104.387
11
251.425
21
-105.287
0
LINE
8
BLACK
6
CONTINUOUS
10
97.4375
20
-105.162
11
96.2375
21
-105.162
0
LINE
8
BLACK
6
CONTINUOUS
10
96.2375
20
-105.162
11
96.2375
21
-104.262
0
LINE
8
BLACK
6
CONTINUOUS
10
96.2375
20
-104.262
11
97.4375
21
-104.262
0
LINE
8
BLACK
6
CONTINUOUS
10
97.4375
20
-104.262
11
97.4375
21
-105.162
0
LINE
8
BLACK
6
CONTINUOUS
10
308.575
20
-105.162
11
307.375
21
-105.162
0
LINE
8
BLACK
6
CONTINUOUS
10
307.375
20
-105.162
11
307.375
21
-104.262
0
LINE
8
BLACK
6
CONTINUOUS
10
307.375
20
-104.262
11
308.575
21
-104.262
0
LINE
8
BLACK
6
CONTINUOUS
10
308.575
20
-104.262
11
308.575
21
-105.162
0
LINE
8
BLACK
6
CONTINUOUS
10
294.227
20
-105.072
11
291.678
21
-105.072
0
LINE
8
BLACK
6
CONTINUOUS
10
291.678
20
-105.072
11
291.678
21
-102.572
0
LINE
8
BLACK
6
CONTINUOUS
10
291.678
20
-102.572
11
294.227
21
-102.572
0
LINE
8
BLACK
6
CONTINUOUS
10
294.227
20
-102.572
11
294.227
21
-105.072
0
LINE
8
BLACK
6
CONTINUOUS
10
83.09
20
-105.072
11
80.54
21
-105.072
0
LINE
8
BLACK
6
CONTINUOUS
10
80.54
20
-105.072
11
80.54
21
-102.572
0
LINE
8
BLACK
6
CONTINUOUS
10
80.54
20
-102.572
11
83.09
21
-102.572
0
LINE
8
BLACK
6
CONTINUOUS
10
83.09
20
-102.572
11
83.09
21
-105.072
0
LINE
8
BLACK
6
CONTINUOUS
10
172.217
20
-104.12
11
169.667
21
-104.12
0
LINE
8
BLACK
6
CONTINUOUS
10
169.667
20
-104.12
11
169.667
21
-101.62
0
LINE
8
BLACK
6
CONTINUOUS
10
169.667
20
-101.62
11
172.217
21
-101.62
0
LINE
8
BLACK
6
CONTINUOUS
10
172.217
20
-101.62
11
172.217
21
-104.12
0
LINE
8
BLACK
6
CONTINUOUS
10
191.267
20
-104.12
11
188.717
21
-104.12
0
LINE
8
BLACK
6
CONTINUOUS
10
188.717
20
-104.12
11
188.717
21
-101.62
0
LINE
8
BLACK
6
CONTINUOUS
10
188.717
20
-101.62
11
191.267
21
-101.62
0
LINE
8
BLACK
6
CONTINUOUS
10
191.267
20
-101.62
11
191.267
21
-104.12
0
LINE
8
BLACK
6
CONTINUOUS
10
230.954
20
-104.12
11
228.404
21
-104.12
0
LINE
8
BLACK
6
CONTINUOUS
10
228.404
20
-104.12
11
228.404
21
-101.62
0
LINE
8
BLACK
6
CONTINUOUS
10
228.404
20
-101.62
11
230.954
21
-101.62
0
LINE
8
BLACK
6
CONTINUOUS
10
230.954
20
-101.62
11
230.954
21
-104.12
0
LINE
8
BLACK
6
CONTINUOUS
10
211.905
20
-104.12
11
209.355
21
-104.12
0
LINE
8
BLACK
6
CONTINUOUS
10
209.355
20
-104.12
11
209.355
21
-101.62
0
LINE
8
BLACK
6
CONTINUOUS
10
209.355
20
-101.62
11
211.905
21
-101.62
0
LINE
8
BLACK
6
CONTINUOUS
10
211.905
20
-101.62
11
211.905
21
-104.12
0
LINE
8
BLACK
6
CONTINUOUS
10
307.154
20
-102.532
11
304.604
21
-102.532
0
LINE
8
BLACK
6
CONTINUOUS
10
304.604
20
-102.532
11
304.604
21
-100.032
0
LINE
8
BLACK
6
CONTINUOUS
10
304.604
20
-100.032
11
307.154
21
-100.032
0
LINE
8
BLACK
6
CONTINUOUS
10
307.154
20
-100.032
11
307.154
21
-102.532
0
LINE
8
BLACK
6
CONTINUOUS
10
96.017
20
-102.532
11
93.467
21
-102.532
0
LINE
8
BLACK
6
CONTINUOUS
10
93.467
20
-102.532
11
93.467
21
-100.032
0
LINE
8
BLACK
6
CONTINUOUS
10
93.467
20
-100.032
11
96.017
21
-100.032
0
LINE
8
BLACK
6
CONTINUOUS
10
96.017
20
-100.032
11
96.017
21
-102.532
0
LINE
8
BLACK
6
CONTINUOUS
10
289.525
20
-101.988
11
288.325
21
-101.988
0
LINE
8
BLACK
6
CONTINUOUS
10
288.325
20
-101.988
11
288.325
21
-101.088
0
LINE
8
BLACK
6
CONTINUOUS
10
288.325
20
-101.088
11
289.525
21
-101.088
0
LINE
8
BLACK
6
CONTINUOUS
10
289.525
20
-101.088
11
289.525
21
-101.988
0
LINE
8
BLACK
6
CONTINUOUS
10
154.588
20
-101.987
11
153.387
21
-101.987
0
LINE
8
BLACK
6
CONTINUOUS
10
153.387
20
-101.987
11
153.387
21
-101.087
0
LINE
8
BLACK
6
CONTINUOUS
10
153.387
20
-101.087
11
154.588
21
-101.087
0
LINE
8
BLACK
6
CONTINUOUS
10
154.588
20
-101.087
11
154.588
21
-101.987
0
LINE
8
BLACK
6
CONTINUOUS
10
251.425
20
-101.987
11
250.225
21
-101.987
0
LINE
8
BLACK
6
CONTINUOUS
10
250.225
20
-101.987
11
250.225
21
-101.087
0
LINE
8
BLACK
6
CONTINUOUS
10
250.225
20
-101.087
11
251.425
21
-101.087
0
LINE
8
BLACK
6
CONTINUOUS
10
251.425
20
-101.087
11
251.425
21
-101.987
0
LINE
8
BLACK
6
CONTINUOUS
10
116.487
20
-101.987
11
115.287
21
-101.987
0
LINE
8
BLACK
6
CONTINUOUS
10
115.287
20
-101.987
11
115.287
21
-101.087
0
LINE
8
BLACK
6
CONTINUOUS
10
115.287
20
-101.087
11
116.487
21
-101.087
0
LINE
8
BLACK
6
CONTINUOUS
10
116.487
20
-101.087
11
116.487
21
-101.987
0
LINE
8
BLACK
6
CONTINUOUS
10
140.24
20
-101.897
11
137.69
21
-101.897
0
LINE
8
BLACK
6
CONTINUOUS
10
137.69
20
-101.897
11
137.69
21
-99.3975
0
LINE
8
BLACK
6
CONTINUOUS
10
137.69
20
-99.3975
11
140.24
21
-99.3975
0
LINE
8
BLACK
6
CONTINUOUS
10
140.24
20
-99.3975
11
140.24
21
-101.897
0
LINE
8
BLACK
6
CONTINUOUS
10
102.14
20
-101.897
11
99.59
21
-101.897
0
LINE
8
BLACK
6
CONTINUOUS
10
99.59
20
-101.897
11
99.59
21
-99.3975
0
LINE
8
BLACK
6
CONTINUOUS
10
99.59
20
-99.3975
11
102.14
21
-99.3975
0
LINE
8
BLACK
6
CONTINUOUS
10
102.14
20
-99.3975
11
102.14
21
-101.897
0
LINE
8
BLACK
6
CONTINUOUS
10
275.178
20
-101.897
11
272.627
21
-101.897
0
LINE
8
BLACK
6
CONTINUOUS
10
272.627
20
-101.897
11
272.627
21
-99.3975
0
LINE
8
BLACK
6
CONTINUOUS
10
272.627
20
-99.3975
11
275.178
21
-99.3975
0
LINE
8
BLACK
6
CONTINUOUS
10
275.178
20
-99.3975
11
275.178
21
-101.897
0
LINE
8
BLACK
6
CONTINUOUS
10
237.077
20
-101.897
11
234.528
21
-101.897
0
LINE
8
BLACK
6
CONTINUOUS
10
234.528
20
-101.897
11
234.528
21
-99.3975
0
LINE
8
BLACK
6
CONTINUOUS
10
234.528
20
-99.3975
11
237.077
21
-99.3975
0
LINE
8
BLACK
6
CONTINUOUS
10
237.077
20
-99.3975
11
237.077
21
-101.897
0
LINE
8
BLACK
6
CONTINUOUS
10
270.475
20
-101.319
11
269.275
21
-101.319
0
LINE
8
BLACK
6
CONTINUOUS
10
269.275
20
-101.319
11
269.275
21
-100.419
0
LINE
8
BLACK
6
CONTINUOUS
10
269.275
20
-100.419
11
270.475
21
-100.419
0
LINE
8
BLACK
6
CONTINUOUS
10
270.475
20
-100.419
11
270.475
21
-101.319
0
LINE
8
BLACK
6
CONTINUOUS
10
135.537
20
-101.319
11
134.338
21
-101.319
0
LINE
8
BLACK
6
CONTINUOUS
10
134.338
20
-101.319
11
134.338
21
-100.419
0
LINE
8
BLACK
6
CONTINUOUS
10
134.338
20
-100.419
11
135.537
21
-100.419
0
LINE
8
BLACK
6
CONTINUOUS
10
135.537
20
-100.419
11
135.537
21
-101.319
0
LINE
8
BLACK
6
CONTINUOUS
10
153.167
20
-99.3575
11
150.617
21
-99.3575
0
LINE
8
BLACK
6
CONTINUOUS
10
150.617
20
-99.3575
11
150.617
21
-96.8575
0
LINE
8
BLACK
6
CONTINUOUS
10
150.617
20
-96.8575
11
153.167
21
-96.8575
0
LINE
8
BLACK
6
CONTINUOUS
10
153.167
20
-96.8575
11
153.167
21
-99.3575
0
LINE
8
BLACK
6
CONTINUOUS
10
115.067
20
-99.3575
11
112.517
21
-99.3575
0
LINE
8
BLACK
6
CONTINUOUS
10
112.517
20
-99.3575
11
112.517
21
-96.8575
0
LINE
8
BLACK
6
CONTINUOUS
10
112.517
20
-96.8575
11
115.067
21
-96.8575
0
LINE
8
BLACK
6
CONTINUOUS
10
115.067
20
-96.8575
11
115.067
21
-99.3575
0
LINE
8
BLACK
6
CONTINUOUS
10
288.104
20
-99.3575
11
285.554
21
-99.3575
0
LINE
8
BLACK
6
CONTINUOUS
10
285.554
20
-99.3575
11
285.554
21
-96.8575
0
LINE
8
BLACK
6
CONTINUOUS
10
285.554
20
-96.8575
11
288.104
21
-96.8575
0
LINE
8
BLACK
6
CONTINUOUS
10
288.104
20
-96.8575
11
288.104
21
-99.3575
0
LINE
8
BLACK
6
CONTINUOUS
10
250.004
20
-99.3575
11
247.454
21
-99.3575
0
LINE
8
BLACK
6
CONTINUOUS
10
247.454
20
-99.3575
11
247.454
21
-96.8575
0
LINE
8
BLACK
6
CONTINUOUS
10
247.454
20
-96.8575
11
250.004
21
-96.8575
0
LINE
8
BLACK
6
CONTINUOUS
10
250.004
20
-96.8575
11
250.004
21
-99.3575
0
LINE
8
BLACK
6
CONTINUOUS
10
270.475
20
-98.0187
11
269.275
21
-98.0187
0
LINE
8
BLACK
6
CONTINUOUS
10
269.275
20
-98.0187
11
269.275
21
-97.1187
0
LINE
8
BLACK
6
CONTINUOUS
10
269.275
20
-97.1187
11
270.475
21
-97.1187
0
LINE
8
BLACK
6
CONTINUOUS
10
270.475
20
-97.1187
11
270.475
21
-98.0187
0
LINE
8
BLACK
6
CONTINUOUS
10
135.537
20
-98.0187
11
134.338
21
-98.0187
0
LINE
8
BLACK
6
CONTINUOUS
10
134.338
20
-98.0187
11
134.338
21
-97.1187
0
LINE
8
BLACK
6
CONTINUOUS
10
134.338
20
-97.1187
11
135.537
21
-97.1187
0
LINE
8
BLACK
6
CONTINUOUS
10
135.537
20
-97.1187
11
135.537
21
-98.0187
0
LINE
8
BLACK
6
CONTINUOUS
10
256.128
20
-97.9287
11
253.578
21
-97.9287
0
LINE
8
BLACK
6
CONTINUOUS
10
253.578
20
-97.9287
11
253.578
21
-95.4287
0
LINE
8
BLACK
6
CONTINUOUS
10
253.578
20
-95.4287
11
256.128
21
-95.4287
0
LINE
8
BLACK
6
CONTINUOUS
10
256.128
20
-95.4287
11
256.128
21
-97.9287
0
LINE
8
BLACK
6
CONTINUOUS
10
121.19
20
-97.9287
11
118.64
21
-97.9287
0
LINE
8
BLACK
6
CONTINUOUS
10
118.64
20
-97.9287
11
118.64
21
-95.4287
0
LINE
8
BLACK
6
CONTINUOUS
10
118.64
20
-95.4287
11
121.19
21
-95.4287
0
LINE
8
BLACK
6
CONTINUOUS
10
121.19
20
-95.4287
11
121.19
21
-97.9287
0
LINE
8
BLACK
6
CONTINUOUS
10
269.055
20
-95.3888
11
266.505
21
-95.3888
0
LINE
8
BLACK
6
CONTINUOUS
10
266.505
20
-95.3888
11
266.505
21
-92.8888
0
LINE
8
BLACK
6
CONTINUOUS
10
266.505
20
-92.8888
11
269.055
21
-92.8888
0
LINE
8
BLACK
6
CONTINUOUS
10
269.055
20
-92.8888
11
269.055
21
-95.3888
0
LINE
8
BLACK
6
CONTINUOUS
10
134.117
20
-95.3888
11
131.567
21
-95.3888
0
LINE
8
BLACK
6
CONTINUOUS
10
131.567
20
-95.3888
11
131.567
21
-92.8888
0
LINE
8
BLACK
6
CONTINUOUS
10
131.567
20
-92.8888
11
134.117
21
-92.8888
0
LINE
8
BLACK
6
CONTINUOUS
10
134.117
20
-92.8888
11
134.117
21
-95.3888
0
LINE
8
BLACK
6
CONTINUOUS
10
69.2437
20
-91.3125
11
68.2437
21
-91.3125
0
LINE
8
BLACK
6
CONTINUOUS
10
68.2437
20
-91.3125
11
68.2437
21
-89.6125
0
LINE
8
BLACK
6
CONTINUOUS
10
68.2437
20
-89.6125
11
69.2437
21
-89.6125
0
LINE
8
BLACK
6
CONTINUOUS
10
69.2437
20
-89.6125
11
69.2437
21
-91.3125
0
LINE
8
BLACK
6
CONTINUOUS
10
73.0438
20
-91.3125
11
72.0438
21
-91.3125
0
LINE
8
BLACK
6
CONTINUOUS
10
72.0438
20
-91.3125
11
72.0438
21
-89.6125
0
LINE
8
BLACK
6
CONTINUOUS
10
72.0438
20
-89.6125
11
73.0438
21
-89.6125
0
LINE
8
BLACK
6
CONTINUOUS
10
73.0438
20
-89.6125
11
73.0438
21
-91.3125
0
LINE
8
BLACK
6
CONTINUOUS
10
322.281
20
-91.3125
11
321.281
21
-91.3125
0
LINE
8
BLACK
6
CONTINUOUS
10
321.281
20
-91.3125
11
321.281
21
-89.6125
0
LINE
8
BLACK
6
CONTINUOUS
10
321.281
20
-89.6125
11
322.281
21
-89.6125
0
LINE
8
BLACK
6
CONTINUOUS
10
322.281
20
-89.6125
11
322.281
21
-91.3125
0
LINE
8
BLACK
6
CONTINUOUS
10
318.481
20
-91.3125
11
317.481
21
-91.3125
0
LINE
8
BLACK
6
CONTINUOUS
10
317.481
20
-91.3125
11
317.481
21
-89.6125
0
LINE
8
BLACK
6
CONTINUOUS
10
317.481
20
-89.6125
11
318.481
21
-89.6125
0
LINE
8
BLACK
6
CONTINUOUS
10
318.481
20
-89.6125
11
318.481
21
-91.3125
0
LINE
8
BLACK
6
CONTINUOUS
10
232.375
20
-91
11
231.175
21
-91
0
LINE
8
BLACK
6
CONTINUOUS
10
231.175
20
-91
11
231.175
21
-90.1
0
LINE
8
BLACK
6
CONTINUOUS
10
231.175
20
-90.1
11
232.375
21
-90.1
0
LINE
8
BLACK
6
CONTINUOUS
10
232.375
20
-90.1
11
232.375
21
-91
0
LINE
8
BLACK
6
CONTINUOUS
10
192.688
20
-91
11
191.487
21
-91
0
LINE
8
BLACK
6
CONTINUOUS
10
191.487
20
-91
11
191.487
21
-90.1
0
LINE
8
BLACK
6
CONTINUOUS
10
191.487
20
-90.1
11
192.688
21
-90.1
0
LINE
8
BLACK
6
CONTINUOUS
10
192.688
20
-90.1
11
192.688
21
-91
0
LINE
8
BLACK
6
CONTINUOUS
10
173.637
20
-91
11
172.438
21
-91
0
LINE
8
BLACK
6
CONTINUOUS
10
172.438
20
-91
11
172.438
21
-90.1
0
LINE
8
BLACK
6
CONTINUOUS
10
172.438
20
-90.1
11
173.637
21
-90.1
0
LINE
8
BLACK
6
CONTINUOUS
10
173.637
20
-90.1
11
173.637
21
-91
0
LINE
8
BLACK
6
CONTINUOUS
10
213.325
20
-91
11
212.125
21
-91
0
LINE
8
BLACK
6
CONTINUOUS
10
212.125
20
-91
11
212.125
21
-90.1
0
LINE
8
BLACK
6
CONTINUOUS
10
212.125
20
-90.1
11
213.325
21
-90.1
0
LINE
8
BLACK
6
CONTINUOUS
10
213.325
20
-90.1
11
213.325
21
-91
0
LINE
8
BLACK
6
CONTINUOUS
10
331.738
20
-90.0187
11
330.938
21
-90.0187
0
LINE
8
BLACK
6
CONTINUOUS
10
330.938
20
-90.0187
11
330.938
21
-89.4188
0
LINE
8
BLACK
6
CONTINUOUS
10
330.938
20
-89.4188
11
331.738
21
-89.4188
0
LINE
8
BLACK
6
CONTINUOUS
10
331.738
20
-89.4188
11
331.738
21
-90.0187
0
LINE
8
BLACK
6
CONTINUOUS
10
58
20
-90.0187
11
57.2
21
-90.0187
0
LINE
8
BLACK
6
CONTINUOUS
10
57.2
20
-90.0187
11
57.2
21
-89.4188
0
LINE
8
BLACK
6
CONTINUOUS
10
57.2
20
-89.4188
11
58
21
-89.4188
0
LINE
8
BLACK
6
CONTINUOUS
10
58
20
-89.4188
11
58
21
-90.0187
0
LINE
8
BLACK
6
CONTINUOUS
10
97.4375
20
-89.4125
11
96.2375
21
-89.4125
0
LINE
8
BLACK
6
CONTINUOUS
10
96.2375
20
-89.4125
11
96.2375
21
-88.5125
0
LINE
8
BLACK
6
CONTINUOUS
10
96.2375
20
-88.5125
11
97.4375
21
-88.5125
0
LINE
8
BLACK
6
CONTINUOUS
10
97.4375
20
-88.5125
11
97.4375
21
-89.4125
0
LINE
8
BLACK
6
CONTINUOUS
10
308.575
20
-89.4125
11
307.375
21
-89.4125
0
LINE
8
BLACK
6
CONTINUOUS
10
307.375
20
-89.4125
11
307.375
21
-88.5125
0
LINE
8
BLACK
6
CONTINUOUS
10
307.375
20
-88.5125
11
308.575
21
-88.5125
0
LINE
8
BLACK
6
CONTINUOUS
10
308.575
20
-88.5125
11
308.575
21
-89.4125
0
LINE
8
BLACK
6
CONTINUOUS
10
331.738
20
-89.2188
11
330.938
21
-89.2188
0
LINE
8
BLACK
6
CONTINUOUS
10
330.938
20
-89.2188
11
330.938
21
-88.6187
0
LINE
8
BLACK
6
CONTINUOUS
10
330.938
20
-88.6187
11
331.738
21
-88.6187
0
LINE
8
BLACK
6
CONTINUOUS
10
331.738
20
-88.6187
11
331.738
21
-89.2188
0
LINE
8
BLACK
6
CONTINUOUS
10
58
20
-89.2188
11
57.2
21
-89.2188
0
LINE
8
BLACK
6
CONTINUOUS
10
57.2
20
-89.2188
11
57.2
21
-88.6187
0
LINE
8
BLACK
6
CONTINUOUS
10
57.2
20
-88.6187
11
58
21
-88.6187
0
LINE
8
BLACK
6
CONTINUOUS
10
58
20
-88.6187
11
58
21
-89.2188
0
LINE
8
BLACK
6
CONTINUOUS
10
58
20
-88.4188
11
57.2
21
-88.4188
0
LINE
8
BLACK
6
CONTINUOUS
10
57.2
20
-88.4188
11
57.2
21
-88.1187
0
LINE
8
BLACK
6
CONTINUOUS
10
57.2
20
-88.1187
11
58
21
-88.1187
0
LINE
8
BLACK
6
CONTINUOUS
10
58
20
-88.1187
11
58
21
-88.4188
0
LINE
8
BLACK
6
CONTINUOUS
10
331.738
20
-88.4188
11
330.938
21
-88.4188
0
LINE
8
BLACK
6
CONTINUOUS
10
330.938
20
-88.4188
11
330.938
21
-88.1187
0
LINE
8
BLACK
6
CONTINUOUS
10
330.938
20
-88.1187
11
331.738
21
-88.1187
0
LINE
8
BLACK
6
CONTINUOUS
10
331.738
20
-88.1187
11
331.738
21
-88.4188
0
LINE
8
BLACK
6
CONTINUOUS
10
331.738
20
-87.9188
11
330.938
21
-87.9188
0
LINE
8
BLACK
6
CONTINUOUS
10
330.938
20
-87.9188
11
330.938
21
-87.6187
0
LINE
8
BLACK
6
CONTINUOUS
10
330.938
20
-87.6187
11
331.738
21
-87.6187
0
LINE
8
BLACK
6
CONTINUOUS
10
331.738
20
-87.6187
11
331.738
21
-87.9188
0
LINE
8
BLACK
6
CONTINUOUS
10
58
20
-87.9188
11
57.2
21
-87.9188
0
LINE
8
BLACK
6
CONTINUOUS
10
57.2
20
-87.9188
11
57.2
21
-87.6187
0
LINE
8
BLACK
6
CONTINUOUS
10
57.2
20
-87.6187
11
58
21
-87.6187
0
LINE
8
BLACK
6
CONTINUOUS
10
58
20
-87.6187
11
58
21
-87.9188
0
LINE
8
BLACK
6
CONTINUOUS
10
232.375
20
-87.7
11
231.175
21
-87.7
0
LINE
8
BLACK
6
CONTINUOUS
10
231.175
20
-87.7
11
231.175
21
-86.8
0
LINE
8
BLACK
6
CONTINUOUS
10
231.175
20
-86.8
11
232.375
21
-86.8
0
LINE
8
BLACK
6
CONTINUOUS
10
232.375
20
-86.8
11
232.375
21
-87.7
0
LINE
8
BLACK
6
CONTINUOUS
10
173.637
20
-87.7
11
172.438
21
-87.7
0
LINE
8
BLACK
6
CONTINUOUS
10
172.438
20
-87.7
11
172.438
21
-86.8
0
LINE
8
BLACK
6
CONTINUOUS
10
172.438
20
-86.8
11
173.637
21
-86.8
0
LINE
8
BLACK
6
CONTINUOUS
10
173.637
20
-86.8
11
173.637
21
-87.7
0
LINE
8
BLACK
6
CONTINUOUS
10
192.688
20
-87.7
11
191.487
21
-87.7
0
LINE
8
BLACK
6
CONTINUOUS
10
191.487
20
-87.7
11
191.487
21
-86.8
0
LINE
8
BLACK
6
CONTINUOUS
10
191.487
20
-86.8
11
192.688
21
-86.8
0
LINE
8
BLACK
6
CONTINUOUS
10
192.688
20
-86.8
11
192.688
21
-87.7
0
LINE
8
BLACK
6
CONTINUOUS
10
213.325
20
-87.7
11
212.125
21
-87.7
0
LINE
8
BLACK
6
CONTINUOUS
10
212.125
20
-87.7
11
212.125
21
-86.8
0
LINE
8
BLACK
6
CONTINUOUS
10
212.125
20
-86.8
11
213.325
21
-86.8
0
LINE
8
BLACK
6
CONTINUOUS
10
213.325
20
-86.8
11
213.325
21
-87.7
0
LINE
8
BLACK
6
CONTINUOUS
10
198.978
20
-87.61
11
196.428
21
-87.61
0
LINE
8
BLACK
6
CONTINUOUS
10
196.428
20
-87.61
11
196.428
21
-85.11
0
LINE
8
BLACK
6
CONTINUOUS
10
196.428
20
-85.11
11
198.978
21
-85.11
0
LINE
8
BLACK
6
CONTINUOUS
10
198.978
20
-85.11
11
198.978
21
-87.61
0
LINE
8
BLACK
6
CONTINUOUS
10
159.29
20
-87.61
11
156.74
21
-87.61
0
LINE
8
BLACK
6
CONTINUOUS
10
156.74
20
-87.61
11
156.74
21
-85.11
0
LINE
8
BLACK
6
CONTINUOUS
10
156.74
20
-85.11
11
159.29
21
-85.11
0
LINE
8
BLACK
6
CONTINUOUS
10
159.29
20
-85.11
11
159.29
21
-87.61
0
LINE
8
BLACK
6
CONTINUOUS
10
218.028
20
-87.61
11
215.478
21
-87.61
0
LINE
8
BLACK
6
CONTINUOUS
10
215.478
20
-87.61
11
215.478
21
-85.11
0
LINE
8
BLACK
6
CONTINUOUS
10
215.478
20
-85.11
11
218.028
21
-85.11
0
LINE
8
BLACK
6
CONTINUOUS
10
218.028
20
-85.11
11
218.028
21
-87.61
0
LINE
8
BLACK
6
CONTINUOUS
10
178.34
20
-87.61
11
175.79
21
-87.61
0
LINE
8
BLACK
6
CONTINUOUS
10
175.79
20
-87.61
11
175.79
21
-85.11
0
LINE
8
BLACK
6
CONTINUOUS
10
175.79
20
-85.11
11
178.34
21
-85.11
0
LINE
8
BLACK
6
CONTINUOUS
10
178.34
20
-85.11
11
178.34
21
-87.61
0
LINE
8
BLACK
6
CONTINUOUS
10
331.738
20
-87.4188
11
330.938
21
-87.4188
0
LINE
8
BLACK
6
CONTINUOUS
10
330.938
20
-87.4188
11
330.938
21
-87.1187
0
LINE
8
BLACK
6
CONTINUOUS
10
330.938
20
-87.1187
11
331.738
21
-87.1187
0
LINE
8
BLACK
6
CONTINUOUS
10
331.738
20
-87.1187
11
331.738
21
-87.4188
0
LINE
8
BLACK
6
CONTINUOUS
10
58
20
-87.4188
11
57.2
21
-87.4188
0
LINE
8
BLACK
6
CONTINUOUS
10
57.2
20
-87.4188
11
57.2
21
-87.1187
0
LINE
8
BLACK
6
CONTINUOUS
10
57.2
20
-87.1187
11
58
21
-87.1187
0
LINE
8
BLACK
6
CONTINUOUS
10
58
20
-87.1187
11
58
21
-87.4188
0
LINE
8
BLACK
6
CONTINUOUS
10
331.738
20
-86.9188
11
330.938
21
-86.9188
0
LINE
8
BLACK
6
CONTINUOUS
10
330.938
20
-86.9188
11
330.938
21
-86.6187
0
LINE
8
BLACK
6
CONTINUOUS
10
330.938
20
-86.6187
11
331.738
21
-86.6187
0
LINE
8
BLACK
6
CONTINUOUS
10
331.738
20
-86.6187
11
331.738
21
-86.9188
0
LINE
8
BLACK
6
CONTINUOUS
10
58
20
-86.9188
11
57.2
21
-86.9188
0
LINE
8
BLACK
6
CONTINUOUS
10
57.2
20
-86.9188
11
57.2
21
-86.6187
0
LINE
8
BLACK
6
CONTINUOUS
10
57.2
20
-86.6187
11
58
21
-86.6187
0
LINE
8
BLACK
6
CONTINUOUS
10
58
20
-86.6187
11
58
21
-86.9188
0
LINE
8
BLACK
6
CONTINUOUS
10
58
20
-86.4188
11
57.2
21
-86.4188
0
LINE
8
BLACK
6
CONTINUOUS
10
57.2
20
-86.4188
11
57.2
21
-86.1187
0
LINE
8
BLACK
6
CONTINUOUS
10
57.2
20
-86.1187
11
58
21
-86.1187
0
LINE
8
BLACK
6
CONTINUOUS
10
58
20
-86.1187
11
58
21
-86.4188
0
LINE
8
BLACK
6
CONTINUOUS
10
331.738
20
-86.4188
11
330.938
21
-86.4188
0
LINE
8
BLACK
6
CONTINUOUS
10
330.938
20
-86.4188
11
330.938
21
-86.1187
0
LINE
8
BLACK
6
CONTINUOUS
10
330.938
20
-86.1187
11
331.738
21
-86.1187
0
LINE
8
BLACK
6
CONTINUOUS
10
331.738
20
-86.1187
11
331.738
21
-86.4188
0
LINE
8
BLACK
6
CONTINUOUS
10
154.588
20
-86.2375
11
153.387
21
-86.2375
0
LINE
8
BLACK
6
CONTINUOUS
10
153.387
20
-86.2375
11
153.387
21
-85.3375
0
LINE
8
BLACK
6
CONTINUOUS
10
153.387
20
-85.3375
11
154.588
21
-85.3375
0
LINE
8
BLACK
6
CONTINUOUS
10
154.588
20
-85.3375
11
154.588
21
-86.2375
0
LINE
8
BLACK
6
CONTINUOUS
10
116.487
20
-86.2375
11
115.287
21
-86.2375
0
LINE
8
BLACK
6
CONTINUOUS
10
115.287
20
-86.2375
11
115.287
21
-85.3375
0
LINE
8
BLACK
6
CONTINUOUS
10
115.287
20
-85.3375
11
116.487
21
-85.3375
0
LINE
8
BLACK
6
CONTINUOUS
10
116.487
20
-85.3375
11
116.487
21
-86.2375
0
LINE
8
BLACK
6
CONTINUOUS
10
289.525
20
-86.2375
11
288.325
21
-86.2375
0
LINE
8
BLACK
6
CONTINUOUS
10
288.325
20
-86.2375
11
288.325
21
-85.3375
0
LINE
8
BLACK
6
CONTINUOUS
10
288.325
20
-85.3375
11
289.525
21
-85.3375
0
LINE
8
BLACK
6
CONTINUOUS
10
289.525
20
-85.3375
11
289.525
21
-86.2375
0
LINE
8
BLACK
6
CONTINUOUS
10
251.425
20
-86.2375
11
250.225
21
-86.2375
0
LINE
8
BLACK
6
CONTINUOUS
10
250.225
20
-86.2375
11
250.225
21
-85.3375
0
LINE
8
BLACK
6
CONTINUOUS
10
250.225
20
-85.3375
11
251.425
21
-85.3375
0
LINE
8
BLACK
6
CONTINUOUS
10
251.425
20
-85.3375
11
251.425
21
-86.2375
0
LINE
8
BLACK
6
CONTINUOUS
10
97.4375
20
-86.1125
11
96.2375
21
-86.1125
0
LINE
8
BLACK
6
CONTINUOUS
10
96.2375
20
-86.1125
11
96.2375
21
-85.2125
0
LINE
8
BLACK
6
CONTINUOUS
10
96.2375
20
-85.2125
11
97.4375
21
-85.2125
0
LINE
8
BLACK
6
CONTINUOUS
10
97.4375
20
-85.2125
11
97.4375
21
-86.1125
0
LINE
8
BLACK
6
CONTINUOUS
10
308.575
20
-86.1125
11
307.375
21
-86.1125
0
LINE
8
BLACK
6
CONTINUOUS
10
307.375
20
-86.1125
11
307.375
21
-85.2125
0
LINE
8
BLACK
6
CONTINUOUS
10
307.375
20
-85.2125
11
308.575
21
-85.2125
0
LINE
8
BLACK
6
CONTINUOUS
10
308.575
20
-85.2125
11
308.575
21
-86.1125
0
LINE
8
BLACK
6
CONTINUOUS
10
294.227
20
-86.0225
11
291.677
21
-86.0225
0
LINE
8
BLACK
6
CONTINUOUS
10
291.677
20
-86.0225
11
291.677
21
-83.5225
0
LINE
8
BLACK
6
CONTINUOUS
10
291.677
20
-83.5225
11
294.227
21
-83.5225
0
LINE
8
BLACK
6
CONTINUOUS
10
294.227
20
-83.5225
11
294.227
21
-86.0225
0
LINE
8
BLACK
6
CONTINUOUS
10
83.09
20
-86.0225
11
80.54
21
-86.0225
0
LINE
8
BLACK
6
CONTINUOUS
10
80.54
20
-86.0225
11
80.54
21
-83.5225
0
LINE
8
BLACK
6
CONTINUOUS
10
80.54
20
-83.5225
11
83.09
21
-83.5225
0
LINE
8
BLACK
6
CONTINUOUS
10
83.09
20
-83.5225
11
83.09
21
-86.0225
0
LINE
8
BLACK
6
CONTINUOUS
10
58
20
-85.9188
11
57.2
21
-85.9188
0
LINE
8
BLACK
6
CONTINUOUS
10
57.2
20
-85.9188
11
57.2
21
-85.6187
0
LINE
8
BLACK
6
CONTINUOUS
10
57.2
20
-85.6187
11
58
21
-85.6187
0
LINE
8
BLACK
6
CONTINUOUS
10
58
20
-85.6187
11
58
21
-85.9188
0
LINE
8
BLACK
6
CONTINUOUS
10
331.738
20
-85.9188
11
330.938
21
-85.9188
0
LINE
8
BLACK
6
CONTINUOUS
10
330.938
20
-85.9188
11
330.938
21
-85.6187
0
LINE
8
BLACK
6
CONTINUOUS
10
330.938
20
-85.6187
11
331.738
21
-85.6187
0
LINE
8
BLACK
6
CONTINUOUS
10
331.738
20
-85.6187
11
331.738
21
-85.9188
0
LINE
8
BLACK
6
CONTINUOUS
10
58
20
-85.4188
11
57.2
21
-85.4188
0
LINE
8
BLACK
6
CONTINUOUS
10
57.2
20
-85.4188
11
57.2
21
-85.1187
0
LINE
8
BLACK
6
CONTINUOUS
10
57.2
20
-85.1187
11
58
21
-85.1187
0
LINE
8
BLACK
6
CONTINUOUS
10
58
20
-85.1187
11
58
21
-85.4188
0
LINE
8
BLACK
6
CONTINUOUS
10
331.738
20
-85.4188
11
330.938
21
-85.4188
0
LINE
8
BLACK
6
CONTINUOUS
10
330.938
20
-85.4188
11
330.938
21
-85.1187
0
LINE
8
BLACK
6
CONTINUOUS
10
330.938
20
-85.1187
11
331.738
21
-85.1187
0
LINE
8
BLACK
6
CONTINUOUS
10
331.738
20
-85.1187
11
331.738
21
-85.4188
0
LINE
8
BLACK
6
CONTINUOUS
10
211.905
20
-85.07
11
209.355
21
-85.07
0
LINE
8
BLACK
6
CONTINUOUS
10
209.355
20
-85.07
11
209.355
21
-82.57
0
LINE
8
BLACK
6
CONTINUOUS
10
209.355
20
-82.57
11
211.905
21
-82.57
0
LINE
8
BLACK
6
CONTINUOUS
10
211.905
20
-82.57
11
211.905
21
-85.07
0
LINE
8
BLACK
6
CONTINUOUS
10
172.217
20
-85.07
11
169.667
21
-85.07
0
LINE
8
BLACK
6
CONTINUOUS
10
169.667
20
-85.07
11
169.667
21
-82.57
0
LINE
8
BLACK
6
CONTINUOUS
10
169.667
20
-82.57
11
172.217
21
-82.57
0
LINE
8
BLACK
6
CONTINUOUS
10
172.217
20
-82.57
11
172.217
21
-85.07
0
LINE
8
BLACK
6
CONTINUOUS
10
191.267
20
-85.07
11
188.717
21
-85.07
0
LINE
8
BLACK
6
CONTINUOUS
10
188.717
20
-85.07
11
188.717
21
-82.57
0
LINE
8
BLACK
6
CONTINUOUS
10
188.717
20
-82.57
11
191.267
21
-82.57
0
LINE
8
BLACK
6
CONTINUOUS
10
191.267
20
-82.57
11
191.267
21
-85.07
0
LINE
8
BLACK
6
CONTINUOUS
10
230.955
20
-85.07
11
228.405
21
-85.07
0
LINE
8
BLACK
6
CONTINUOUS
10
228.405
20
-85.07
11
228.405
21
-82.57
0
LINE
8
BLACK
6
CONTINUOUS
10
228.405
20
-82.57
11
230.955
21
-82.57
0
LINE
8
BLACK
6
CONTINUOUS
10
230.955
20
-82.57
11
230.955
21
-85.07
0
LINE
8
BLACK
6
CONTINUOUS
10
69.2437
20
-85.0125
11
68.2437
21
-85.0125
0
LINE
8
BLACK
6
CONTINUOUS
10
68.2437
20
-85.0125
11
68.2437
21
-83.3125
0
LINE
8
BLACK
6
CONTINUOUS
10
68.2437
20
-83.3125
11
69.2437
21
-83.3125
0
LINE
8
BLACK
6
CONTINUOUS
10
69.2437
20
-83.3125
11
69.2437
21
-85.0125
0
LINE
8
BLACK
6
CONTINUOUS
10
73.0438
20
-85.0125
11
72.0438
21
-85.0125
0
LINE
8
BLACK
6
CONTINUOUS
10
72.0438
20
-85.0125
11
72.0438
21
-83.3125
0
LINE
8
BLACK
6
CONTINUOUS
10
72.0438
20
-83.3125
11
73.0438
21
-83.3125
0
LINE
8
BLACK
6
CONTINUOUS
10
73.0438
20
-83.3125
11
73.0438
21
-85.0125
0
LINE
8
BLACK
6
CONTINUOUS
10
318.481
20
-85.0125
11
317.481
21
-85.0125
0
LINE
8
BLACK
6
CONTINUOUS
10
317.481
20
-85.0125
11
317.481
21
-83.3125
0
LINE
8
BLACK
6
CONTINUOUS
10
317.481
20
-83.3125
11
318.481
21
-83.3125
0
LINE
8
BLACK
6
CONTINUOUS
10
318.481
20
-83.3125
11
318.481
21
-85.0125
0
LINE
8
BLACK
6
CONTINUOUS
10
322.281
20
-85.0125
11
321.281
21
-85.0125
0
LINE
8
BLACK
6
CONTINUOUS
10
321.281
20
-85.0125
11
321.281
21
-83.3125
0
LINE
8
BLACK
6
CONTINUOUS
10
321.281
20
-83.3125
11
322.281
21
-83.3125
0
LINE
8
BLACK
6
CONTINUOUS
10
322.281
20
-83.3125
11
322.281
21
-85.0125
0
LINE
8
BLACK
6
CONTINUOUS
10
331.738
20
-84.9188
11
330.938
21
-84.9188
0
LINE
8
BLACK
6
CONTINUOUS
10
330.938
20
-84.9188
11
330.938
21
-84.6187
0
LINE
8
BLACK
6
CONTINUOUS
10
330.938
20
-84.6187
11
331.738
21
-84.6187
0
LINE
8
BLACK
6
CONTINUOUS
10
331.738
20
-84.6187
11
331.738
21
-84.9188
0
LINE
8
BLACK
6
CONTINUOUS
10
58
20
-84.9188
11
57.2
21
-84.9188
0
LINE
8
BLACK
6
CONTINUOUS
10
57.2
20
-84.9188
11
57.2
21
-84.6187
0
LINE
8
BLACK
6
CONTINUOUS
10
57.2
20
-84.6187
11
58
21
-84.6187
0
LINE
8
BLACK
6
CONTINUOUS
10
58
20
-84.6187
11
58
21
-84.9188
0
LINE
8
BLACK
6
CONTINUOUS
10
331.738
20
-84.4188
11
330.938
21
-84.4188
0
LINE
8
BLACK
6
CONTINUOUS
10
330.938
20
-84.4188
11
330.938
21
-83.8187
0
LINE
8
BLACK
6
CONTINUOUS
10
330.938
20
-83.8187
11
331.738
21
-83.8187
0
LINE
8
BLACK
6
CONTINUOUS
10
331.738
20
-83.8187
11
331.738
21
-84.4188
0
LINE
8
BLACK
6
CONTINUOUS
10
58
20
-84.4188
11
57.2
21
-84.4188
0
LINE
8
BLACK
6
CONTINUOUS
10
57.2
20
-84.4188
11
57.2
21
-83.8187
0
LINE
8
BLACK
6
CONTINUOUS
10
57.2
20
-83.8187
11
58
21
-83.8187
0
LINE
8
BLACK
6
CONTINUOUS
10
58
20
-83.8187
11
58
21
-84.4188
0
LINE
8
BLACK
6
CONTINUOUS
10
58
20
-83.6187
11
57.2
21
-83.6187
0
LINE
8
BLACK
6
CONTINUOUS
10
57.2
20
-83.6187
11
57.2
21
-83.0187
0
LINE
8
BLACK
6
CONTINUOUS
10
57.2
20
-83.0187
11
58
21
-83.0187
0
LINE
8
BLACK
6
CONTINUOUS
10
58
20
-83.0187
11
58
21
-83.6187
0
LINE
8
BLACK
6
CONTINUOUS
10
331.738
20
-83.6187
11
330.938
21
-83.6187
0
LINE
8
BLACK
6
CONTINUOUS
10
330.938
20
-83.6187
11
330.938
21
-83.0187
0
LINE
8
BLACK
6
CONTINUOUS
10
330.938
20
-83.0187
11
331.738
21
-83.0187
0
LINE
8
BLACK
6
CONTINUOUS
10
331.738
20
-83.0187
11
331.738
21
-83.6187
0
LINE
8
BLACK
6
CONTINUOUS
10
96.017
20
-83.4825
11
93.467
21
-83.4825
0
LINE
8
BLACK
6
CONTINUOUS
10
93.467
20
-83.4825
11
93.467
21
-80.9825
0
LINE
8
BLACK
6
CONTINUOUS
10
93.467
20
-80.9825
11
96.017
21
-80.9825
0
LINE
8
BLACK
6
CONTINUOUS
10
96.017
20
-80.9825
11
96.017
21
-83.4825
0
LINE
8
BLACK
6
CONTINUOUS
10
307.154
20
-83.4825
11
304.604
21
-83.4825
0
LINE
8
BLACK
6
CONTINUOUS
10
304.604
20
-83.4825
11
304.604
21
-80.9825
0
LINE
8
BLACK
6
CONTINUOUS
10
304.604
20
-80.9825
11
307.154
21
-80.9825
0
LINE
8
BLACK
6
CONTINUOUS
10
307.154
20
-80.9825
11
307.154
21
-83.4825
0
LINE
8
BLACK
6
CONTINUOUS
10
154.588
20
-82.9375
11
153.387
21
-82.9375
0
LINE
8
BLACK
6
CONTINUOUS
10
153.387
20
-82.9375
11
153.387
21
-82.0375
0
LINE
8
BLACK
6
CONTINUOUS
10
153.387
20
-82.0375
11
154.588
21
-82.0375
0
LINE
8
BLACK
6
CONTINUOUS
10
154.588
20
-82.0375
11
154.588
21
-82.9375
0
LINE
8
BLACK
6
CONTINUOUS
10
116.487
20
-82.9375
11
115.287
21
-82.9375
0
LINE
8
BLACK
6
CONTINUOUS
10
115.287
20
-82.9375
11
115.287
21
-82.0375
0
LINE
8
BLACK
6
CONTINUOUS
10
115.287
20
-82.0375
11
116.487
21
-82.0375
0
LINE
8
BLACK
6
CONTINUOUS
10
116.487
20
-82.0375
11
116.487
21
-82.9375
0
LINE
8
BLACK
6
CONTINUOUS
10
289.525
20
-82.9375
11
288.325
21
-82.9375
0
LINE
8
BLACK
6
CONTINUOUS
10
288.325
20
-82.9375
11
288.325
21
-82.0375
0
LINE
8
BLACK
6
CONTINUOUS
10
288.325
20
-82.0375
11
289.525
21
-82.0375
0
LINE
8
BLACK
6
CONTINUOUS
10
289.525
20
-82.0375
11
289.525
21
-82.9375
0
LINE
8
BLACK
6
CONTINUOUS
10
251.425
20
-82.9375
11
250.225
21
-82.9375
0
LINE
8
BLACK
6
CONTINUOUS
10
250.225
20
-82.9375
11
250.225
21
-82.0375
0
LINE
8
BLACK
6
CONTINUOUS
10
250.225
20
-82.0375
11
251.425
21
-82.0375
0
LINE
8
BLACK
6
CONTINUOUS
10
251.425
20
-82.0375
11
251.425
21
-82.9375
0
LINE
8
BLACK
6
CONTINUOUS
10
102.14
20
-82.8475
11
99.59
21
-82.8475
0
LINE
8
BLACK
6
CONTINUOUS
10
99.59
20
-82.8475
11
99.59
21
-80.3475
0
LINE
8
BLACK
6
CONTINUOUS
10
99.59
20
-80.3475
11
102.14
21
-80.3475
0
LINE
8
BLACK
6
CONTINUOUS
10
102.14
20
-80.3475
11
102.14
21
-82.8475
0
LINE
8
BLACK
6
CONTINUOUS
10
140.24
20
-82.8475
11
137.69
21
-82.8475
0
LINE
8
BLACK
6
CONTINUOUS
10
137.69
20
-82.8475
11
137.69
21
-80.3475
0
LINE
8
BLACK
6
CONTINUOUS
10
137.69
20
-80.3475
11
140.24
21
-80.3475
0
LINE
8
BLACK
6
CONTINUOUS
10
140.24
20
-80.3475
11
140.24
21
-82.8475
0
LINE
8
BLACK
6
CONTINUOUS
10
275.178
20
-82.8475
11
272.627
21
-82.8475
0
LINE
8
BLACK
6
CONTINUOUS
10
272.627
20
-82.8475
11
272.627
21
-80.3475
0
LINE
8
BLACK
6
CONTINUOUS
10
272.627
20
-80.3475
11
275.178
21
-80.3475
0
LINE
8
BLACK
6
CONTINUOUS
10
275.178
20
-80.3475
11
275.178
21
-82.8475
0
LINE
8
BLACK
6
CONTINUOUS
10
237.077
20
-82.8475
11
234.528
21
-82.8475
0
LINE
8
BLACK
6
CONTINUOUS
10
234.528
20
-82.8475
11
234.528
21
-80.3475
0
LINE
8
BLACK
6
CONTINUOUS
10
234.528
20
-80.3475
11
237.077
21
-80.3475
0
LINE
8
BLACK
6
CONTINUOUS
10
237.077
20
-80.3475
11
237.077
21
-82.8475
0
LINE
8
BLACK
6
CONTINUOUS
10
70.9276
20
-81.3983
11
70.9721
21
-81.4118
0
LINE
8
BLACK
6
CONTINUOUS
10
70.9721
20
-81.4118
11
71.0132
21
-81.4338
0
LINE
8
BLACK
6
CONTINUOUS
10
71.0132
20
-81.4338
11
71.0492
21
-81.4633
0
LINE
8
BLACK
6
CONTINUOUS
10
71.0492
20
-81.4633
11
71.0787
21
-81.4993
0
LINE
8
BLACK
6
CONTINUOUS
10
71.0787
20
-81.4993
11
71.1007
21
-81.5404
0
LINE
8
BLACK
6
CONTINUOUS
10
71.1007
20
-81.5404
11
71.1142
21
-81.5849
0
LINE
8
BLACK
6
CONTINUOUS
10
71.1142
20
-81.5849
11
71.1187
21
-81.6312
0
LINE
8
BLACK
6
CONTINUOUS
10
71.1187
20
-81.6312
11
71.1187
21
-82.2062
0
LINE
8
BLACK
6
CONTINUOUS
10
71.1187
20
-82.2062
11
71.1142
21
-82.2526
0
LINE
8
BLACK
6
CONTINUOUS
10
71.1142
20
-82.2526
11
71.1007
21
-82.2971
0
LINE
8
BLACK
6
CONTINUOUS
10
71.1007
20
-82.2971
11
71.0787
21
-82.3382
0
LINE
8
BLACK
6
CONTINUOUS
10
71.0787
20
-82.3382
11
71.0492
21
-82.3742
0
LINE
8
BLACK
6
CONTINUOUS
10
71.0492
20
-82.3742
11
71.0132
21
-82.4037
0
LINE
8
BLACK
6
CONTINUOUS
10
71.0132
20
-82.4037
11
70.9721
21
-82.4257
0
LINE
8
BLACK
6
CONTINUOUS
10
70.9721
20
-82.4257
11
70.9276
21
-82.4392
0
LINE
8
BLACK
6
CONTINUOUS
10
70.9276
20
-82.4392
11
70.8812
21
-82.4437
0
LINE
8
BLACK
6
CONTINUOUS
10
70.8812
20
-82.4437
11
70.4062
21
-82.4437
0
LINE
8
BLACK
6
CONTINUOUS
10
70.4062
20
-82.4437
11
70.3599
21
-82.4392
0
LINE
8
BLACK
6
CONTINUOUS
10
70.3599
20
-82.4392
11
70.3154
21
-82.4257
0
LINE
8
BLACK
6
CONTINUOUS
10
70.3154
20
-82.4257
11
70.2743
21
-82.4037
0
LINE
8
BLACK
6
CONTINUOUS
10
70.2743
20
-82.4037
11
70.2383
21
-82.3742
0
LINE
8
BLACK
6
CONTINUOUS
10
70.2383
20
-82.3742
11
70.2088
21
-82.3382
0
LINE
8
BLACK
6
CONTINUOUS
10
70.2088
20
-82.3382
11
70.1868
21
-82.2971
0
LINE
8
BLACK
6
CONTINUOUS
10
70.1868
20
-82.2971
11
70.1733
21
-82.2526
0
LINE
8
BLACK
6
CONTINUOUS
10
70.1733
20
-82.2526
11
70.1688
21
-82.2062
0
LINE
8
BLACK
6
CONTINUOUS
10
70.1688
20
-82.2062
11
70.1688
21
-81.6312
0
LINE
8
BLACK
6
CONTINUOUS
10
70.1688
20
-81.6312
11
70.1733
21
-81.5849
0
LINE
8
BLACK
6
CONTINUOUS
10
70.1733
20
-81.5849
11
70.1868
21
-81.5404
0
LINE
8
BLACK
6
CONTINUOUS
10
70.1868
20
-81.5404
11
70.2088
21
-81.4993
0
LINE
8
BLACK
6
CONTINUOUS
10
70.2088
20
-81.4993
11
70.2383
21
-81.4633
0
LINE
8
BLACK
6
CONTINUOUS
10
70.2383
20
-81.4633
11
70.2743
21
-81.4338
0
LINE
8
BLACK
6
CONTINUOUS
10
70.2743
20
-81.4338
11
70.3154
21
-81.4118
0
LINE
8
BLACK
6
CONTINUOUS
10
70.3154
20
-81.4118
11
70.3599
21
-81.3983
0
LINE
8
BLACK
6
CONTINUOUS
10
70.3599
20
-81.3983
11
70.4062
21
-81.3937
0
LINE
8
BLACK
6
CONTINUOUS
10
70.4062
20
-81.3937
11
70.8812
21
-81.3937
0
LINE
8
BLACK
6
CONTINUOUS
10
70.8812
20
-81.3937
11
70.9276
21
-81.3983
0
LINE
8
BLACK
6
CONTINUOUS
10
320.165
20
-81.3171
11
320.21
21
-81.3306
0
LINE
8
BLACK
6
CONTINUOUS
10
320.21
20
-81.3306
11
320.251
21
-81.3525
0
LINE
8
BLACK
6
CONTINUOUS
10
320.251
20
-81.3525
11
320.287
21
-81.3821
0
LINE
8
BLACK
6
CONTINUOUS
10
320.287
20
-81.3821
11
320.316
21
-81.4181
0
LINE
8
BLACK
6
CONTINUOUS
10
320.316
20
-81.4181
11
320.338
21
-81.4591
0
LINE
8
BLACK
6
CONTINUOUS
10
320.338
20
-81.4591
11
320.352
21
-81.5037
0
LINE
8
BLACK
6
CONTINUOUS
10
320.352
20
-81.5037
11
320.356
21
-81.55
0
LINE
8
BLACK
6
CONTINUOUS
10
320.356
20
-81.55
11
320.356
21
-82.125
0
LINE
8
BLACK
6
CONTINUOUS
10
320.356
20
-82.125
11
320.352
21
-82.1713
0
LINE
8
BLACK
6
CONTINUOUS
10
320.352
20
-82.1713
11
320.338
21
-82.2159
0
LINE
8
BLACK
6
CONTINUOUS
10
320.338
20
-82.2159
11
320.316
21
-82.2569
0
LINE
8
BLACK
6
CONTINUOUS
10
320.316
20
-82.2569
11
320.287
21
-82.2929
0
LINE
8
BLACK
6
CONTINUOUS
10
320.287
20
-82.2929
11
320.251
21
-82.3225
0
LINE
8
BLACK
6
CONTINUOUS
10
320.251
20
-82.3225
11
320.21
21
-82.3444
0
LINE
8
BLACK
6
CONTINUOUS
10
320.21
20
-82.3444
11
320.165
21
-82.3579
0
LINE
8
BLACK
6
CONTINUOUS
10
320.165
20
-82.3579
11
320.119
21
-82.3625
0
LINE
8
BLACK
6
CONTINUOUS
10
320.119
20
-82.3625
11
319.644
21
-82.3625
0
LINE
8
BLACK
6
CONTINUOUS
10
319.644
20
-82.3625
11
319.597
21
-82.3579
0
LINE
8
BLACK
6
CONTINUOUS
10
319.597
20
-82.3579
11
319.553
21
-82.3444
0
LINE
8
BLACK
6
CONTINUOUS
10
319.553
20
-82.3444
11
319.512
21
-82.3225
0
LINE
8
BLACK
6
CONTINUOUS
10
319.512
20
-82.3225
11
319.476
21
-82.2929
0
LINE
8
BLACK
6
CONTINUOUS
10
319.476
20
-82.2929
11
319.446
21
-82.2569
0
LINE
8
BLACK
6
CONTINUOUS
10
319.446
20
-82.2569
11
319.424
21
-82.2159
0
LINE
8
BLACK
6
CONTINUOUS
10
319.424
20
-82.2159
11
319.411
21
-82.1713
0
LINE
8
BLACK
6
CONTINUOUS
10
319.411
20
-82.1713
11
319.406
21
-82.125
0
LINE
8
BLACK
6
CONTINUOUS
10
319.406
20
-82.125
11
319.406
21
-81.55
0
LINE
8
BLACK
6
CONTINUOUS
10
319.406
20
-81.55
11
319.411
21
-81.5037
0
LINE
8
BLACK
6
CONTINUOUS
10
319.411
20
-81.5037
11
319.424
21
-81.4591
0
LINE
8
BLACK
6
CONTINUOUS
10
319.424
20
-81.4591
11
319.446
21
-81.4181
0
LINE
8
BLACK
6
CONTINUOUS
10
319.446
20
-81.4181
11
319.476
21
-81.3821
0
LINE
8
BLACK
6
CONTINUOUS
10
319.476
20
-81.3821
11
319.512
21
-81.3525
0
LINE
8
BLACK
6
CONTINUOUS
10
319.512
20
-81.3525
11
319.553
21
-81.3306
0
LINE
8
BLACK
6
CONTINUOUS
10
319.553
20
-81.3306
11
319.597
21
-81.3171
0
LINE
8
BLACK
6
CONTINUOUS
10
319.597
20
-81.3171
11
319.644
21
-81.3125
0
LINE
8
BLACK
6
CONTINUOUS
10
319.644
20
-81.3125
11
320.119
21
-81.3125
0
LINE
8
BLACK
6
CONTINUOUS
10
320.119
20
-81.3125
11
320.165
21
-81.3171
0
LINE
8
BLACK
6
CONTINUOUS
10
135.537
20
-82.2687
11
134.338
21
-82.2687
0
LINE
8
BLACK
6
CONTINUOUS
10
134.338
20
-82.2687
11
134.338
21
-81.3687
0
LINE
8
BLACK
6
CONTINUOUS
10
134.338
20
-81.3687
11
135.537
21
-81.3687
0
LINE
8
BLACK
6
CONTINUOUS
10
135.537
20
-81.3687
11
135.537
21
-82.2687
0
LINE
8
BLACK
6
CONTINUOUS
10
270.475
20
-82.2687
11
269.275
21
-82.2687
0
LINE
8
BLACK
6
CONTINUOUS
10
269.275
20
-82.2687
11
269.275
21
-81.3687
0
LINE
8
BLACK
6
CONTINUOUS
10
269.275
20
-81.3687
11
270.475
21
-81.3687
0
LINE
8
BLACK
6
CONTINUOUS
10
270.475
20
-81.3687
11
270.475
21
-82.2687
0
LINE
8
BLACK
6
CONTINUOUS
10
70.9276
20
-79.6483
11
70.9721
21
-79.6618
0
LINE
8
BLACK
6
CONTINUOUS
10
70.9721
20
-79.6618
11
71.0132
21
-79.6838
0
LINE
8
BLACK
6
CONTINUOUS
10
71.0132
20
-79.6838
11
71.0492
21
-79.7133
0
LINE
8
BLACK
6
CONTINUOUS
10
71.0492
20
-79.7133
11
71.0787
21
-79.7493
0
LINE
8
BLACK
6
CONTINUOUS
10
71.0787
20
-79.7493
11
71.1007
21
-79.7904
0
LINE
8
BLACK
6
CONTINUOUS
10
71.1007
20
-79.7904
11
71.1142
21
-79.8349
0
LINE
8
BLACK
6
CONTINUOUS
10
71.1142
20
-79.8349
11
71.1187
21
-79.8812
0
LINE
8
BLACK
6
CONTINUOUS
10
71.1187
20
-79.8812
11
71.1187
21
-80.4562
0
LINE
8
BLACK
6
CONTINUOUS
10
71.1187
20
-80.4562
11
71.1142
21
-80.5026
0
LINE
8
BLACK
6
CONTINUOUS
10
71.1142
20
-80.5026
11
71.1007
21
-80.5471
0
LINE
8
BLACK
6
CONTINUOUS
10
71.1007
20
-80.5471
11
71.0787
21
-80.5882
0
LINE
8
BLACK
6
CONTINUOUS
10
71.0787
20
-80.5882
11
71.0492
21
-80.6242
0
LINE
8
BLACK
6
CONTINUOUS
10
71.0492
20
-80.6242
11
71.0132
21
-80.6537
0
LINE
8
BLACK
6
CONTINUOUS
10
71.0132
20
-80.6537
11
70.9721
21
-80.6757
0
LINE
8
BLACK
6
CONTINUOUS
10
70.9721
20
-80.6757
11
70.9276
21
-80.6892
0
LINE
8
BLACK
6
CONTINUOUS
10
70.9276
20
-80.6892
11
70.8812
21
-80.6937
0
LINE
8
BLACK
6
CONTINUOUS
10
70.8812
20
-80.6937
11
70.4062
21
-80.6937
0
LINE
8
BLACK
6
CONTINUOUS
10
70.4062
20
-80.6937
11
70.3599
21
-80.6892
0
LINE
8
BLACK
6
CONTINUOUS
10
70.3599
20
-80.6892
11
70.3154
21
-80.6757
0
LINE
8
BLACK
6
CONTINUOUS
10
70.3154
20
-80.6757
11
70.2743
21
-80.6537
0
LINE
8
BLACK
6
CONTINUOUS
10
70.2743
20
-80.6537
11
70.2383
21
-80.6242
0
LINE
8
BLACK
6
CONTINUOUS
10
70.2383
20
-80.6242
11
70.2088
21
-80.5882
0
LINE
8
BLACK
6
CONTINUOUS
10
70.2088
20
-80.5882
11
70.1868
21
-80.5471
0
LINE
8
BLACK
6
CONTINUOUS
10
70.1868
20
-80.5471
11
70.1733
21
-80.5026
0
LINE
8
BLACK
6
CONTINUOUS
10
70.1733
20
-80.5026
11
70.1688
21
-80.4562
0
LINE
8
BLACK
6
CONTINUOUS
10
70.1688
20
-80.4562
11
70.1688
21
-79.8812
0
LINE
8
BLACK
6
CONTINUOUS
10
70.1688
20
-79.8812
11
70.1733
21
-79.8349
0
LINE
8
BLACK
6
CONTINUOUS
10
70.1733
20
-79.8349
11
70.1868
21
-79.7904
0
LINE
8
BLACK
6
CONTINUOUS
10
70.1868
20
-79.7904
11
70.2088
21
-79.7493
0
LINE
8
BLACK
6
CONTINUOUS
10
70.2088
20
-79.7493
11
70.2383
21
-79.7133
0
LINE
8
BLACK
6
CONTINUOUS
10
70.2383
20
-79.7133
11
70.2743
21
-79.6838
0
LINE
8
BLACK
6
CONTINUOUS
10
70.2743
20
-79.6838
11
70.3154
21
-79.6618
0
LINE
8
BLACK
6
CONTINUOUS
10
70.3154
20
-79.6618
11
70.3599
21
-79.6483
0
LINE
8
BLACK
6
CONTINUOUS
10
70.3599
20
-79.6483
11
70.4062
21
-79.6437
0
LINE
8
BLACK
6
CONTINUOUS
10
70.4062
20
-79.6437
11
70.8812
21
-79.6437
0
LINE
8
BLACK
6
CONTINUOUS
10
70.8812
20
-79.6437
11
70.9276
21
-79.6483
0
LINE
8
BLACK
6
CONTINUOUS
10
320.165
20
-79.5671
11
320.21
21
-79.5806
0
LINE
8
BLACK
6
CONTINUOUS
10
320.21
20
-79.5806
11
320.251
21
-79.6025
0
LINE
8
BLACK
6
CONTINUOUS
10
320.251
20
-79.6025
11
320.287
21
-79.6321
0
LINE
8
BLACK
6
CONTINUOUS
10
320.287
20
-79.6321
11
320.316
21
-79.6681
0
LINE
8
BLACK
6
CONTINUOUS
10
320.316
20
-79.6681
11
320.338
21
-79.7091
0
LINE
8
BLACK
6
CONTINUOUS
10
320.338
20
-79.7091
11
320.352
21
-79.7537
0
LINE
8
BLACK
6
CONTINUOUS
10
320.352
20
-79.7537
11
320.356
21
-79.8
0
LINE
8
BLACK
6
CONTINUOUS
10
320.356
20
-79.8
11
320.356
21
-80.375
0
LINE
8
BLACK
6
CONTINUOUS
10
320.356
20
-80.375
11
320.352
21
-80.4213
0
LINE
8
BLACK
6
CONTINUOUS
10
320.352
20
-80.4213
11
320.338
21
-80.4659
0
LINE
8
BLACK
6
CONTINUOUS
10
320.338
20
-80.4659
11
320.316
21
-80.5069
0
LINE
8
BLACK
6
CONTINUOUS
10
320.316
20
-80.5069
11
320.287
21
-80.5429
0
LINE
8
BLACK
6
CONTINUOUS
10
320.287
20
-80.5429
11
320.251
21
-80.5725
0
LINE
8
BLACK
6
CONTINUOUS
10
320.251
20
-80.5725
11
320.21
21
-80.5944
0
LINE
8
BLACK
6
CONTINUOUS
10
320.21
20
-80.5944
11
320.165
21
-80.6079
0
LINE
8
BLACK
6
CONTINUOUS
10
320.165
20
-80.6079
11
320.119
21
-80.6125
0
LINE
8
BLACK
6
CONTINUOUS
10
320.119
20
-80.6125
11
319.644
21
-80.6125
0
LINE
8
BLACK
6
CONTINUOUS
10
319.644
20
-80.6125
11
319.597
21
-80.6079
0
LINE
8
BLACK
6
CONTINUOUS
10
319.597
20
-80.6079
11
319.553
21
-80.5944
0
LINE
8
BLACK
6
CONTINUOUS
10
319.553
20
-80.5944
11
319.512
21
-80.5725
0
LINE
8
BLACK
6
CONTINUOUS
10
319.512
20
-80.5725
11
319.476
21
-80.5429
0
LINE
8
BLACK
6
CONTINUOUS
10
319.476
20
-80.5429
11
319.446
21
-80.5069
0
LINE
8
BLACK
6
CONTINUOUS
10
319.446
20
-80.5069
11
319.424
21
-80.4659
0
LINE
8
BLACK
6
CONTINUOUS
10
319.424
20
-80.4659
11
319.411
21
-80.4213
0
LINE
8
BLACK
6
CONTINUOUS
10
319.411
20
-80.4213
11
319.406
21
-80.375
0
LINE
8
BLACK
6
CONTINUOUS
10
319.406
20
-80.375
11
319.406
21
-79.8
0
LINE
8
BLACK
6
CONTINUOUS
10
319.406
20
-79.8
11
319.411
21
-79.7537
0
LINE
8
BLACK
6
CONTINUOUS
10
319.411
20
-79.7537
11
319.424
21
-79.7091
0
LINE
8
BLACK
6
CONTINUOUS
10
319.424
20
-79.7091
11
319.446
21
-79.6681
0
LINE
8
BLACK
6
CONTINUOUS
10
319.446
20
-79.6681
11
319.476
21
-79.6321
0
LINE
8
BLACK
6
CONTINUOUS
10
319.476
20
-79.6321
11
319.512
21
-79.6025
0
LINE
8
BLACK
6
CONTINUOUS
10
319.512
20
-79.6025
11
319.553
21
-79.5806
0
LINE
8
BLACK
6
CONTINUOUS
10
319.553
20
-79.5806
11
319.597
21
-79.5671
0
LINE
8
BLACK
6
CONTINUOUS
10
319.597
20
-79.5671
11
319.644
21
-79.5625
0
LINE
8
BLACK
6
CONTINUOUS
10
319.644
20
-79.5625
11
320.119
21
-79.5625
0
LINE
8
BLACK
6
CONTINUOUS
10
320.119
20
-79.5625
11
320.165
21
-79.5671
0
LINE
8
BLACK
6
CONTINUOUS
10
115.067
20
-80.3075
11
112.517
21
-80.3075
0
LINE
8
BLACK
6
CONTINUOUS
10
112.517
20
-80.3075
11
112.517
21
-77.8075
0
LINE
8
BLACK
6
CONTINUOUS
10
112.517
20
-77.8075
11
115.067
21
-77.8075
0
LINE
8
BLACK
6
CONTINUOUS
10
115.067
20
-77.8075
11
115.067
21
-80.3075
0
LINE
8
BLACK
6
CONTINUOUS
10
153.167
20
-80.3075
11
150.617
21
-80.3075
0
LINE
8
BLACK
6
CONTINUOUS
10
150.617
20
-80.3075
11
150.617
21
-77.8075
0
LINE
8
BLACK
6
CONTINUOUS
10
150.617
20
-77.8075
11
153.167
21
-77.8075
0
LINE
8
BLACK
6
CONTINUOUS
10
153.167
20
-77.8075
11
153.167
21
-80.3075
0
LINE
8
BLACK
6
CONTINUOUS
10
250.004
20
-80.3075
11
247.454
21
-80.3075
0
LINE
8
BLACK
6
CONTINUOUS
10
247.454
20
-80.3075
11
247.454
21
-77.8075
0
LINE
8
BLACK
6
CONTINUOUS
10
247.454
20
-77.8075
11
250.004
21
-77.8075
0
LINE
8
BLACK
6
CONTINUOUS
10
250.004
20
-77.8075
11
250.004
21
-80.3075
0
LINE
8
BLACK
6
CONTINUOUS
10
288.104
20
-80.3075
11
285.554
21
-80.3075
0
LINE
8
BLACK
6
CONTINUOUS
10
285.554
20
-80.3075
11
285.554
21
-77.8075
0
LINE
8
BLACK
6
CONTINUOUS
10
285.554
20
-77.8075
11
288.104
21
-77.8075
0
LINE
8
BLACK
6
CONTINUOUS
10
288.104
20
-77.8075
11
288.104
21
-80.3075
0
LINE
8
BLACK
6
CONTINUOUS
10
135.537
20
-78.9688
11
134.338
21
-78.9688
0
LINE
8
BLACK
6
CONTINUOUS
10
134.338
20
-78.9688
11
134.338
21
-78.0687
0
LINE
8
BLACK
6
CONTINUOUS
10
134.338
20
-78.0687
11
135.537
21
-78.0687
0
LINE
8
BLACK
6
CONTINUOUS
10
135.537
20
-78.0687
11
135.537
21
-78.9688
0
LINE
8
BLACK
6
CONTINUOUS
10
270.475
20
-78.9688
11
269.275
21
-78.9688
0
LINE
8
BLACK
6
CONTINUOUS
10
269.275
20
-78.9688
11
269.275
21
-78.0687
0
LINE
8
BLACK
6
CONTINUOUS
10
269.275
20
-78.0687
11
270.475
21
-78.0687
0
LINE
8
BLACK
6
CONTINUOUS
10
270.475
20
-78.0687
11
270.475
21
-78.9688
0
LINE
8
BLACK
6
CONTINUOUS
10
121.19
20
-78.8787
11
118.64
21
-78.8787
0
LINE
8
BLACK
6
CONTINUOUS
10
118.64
20
-78.8787
11
118.64
21
-76.3787
0
LINE
8
BLACK
6
CONTINUOUS
10
118.64
20
-76.3787
11
121.19
21
-76.3787
0
LINE
8
BLACK
6
CONTINUOUS
10
121.19
20
-76.3787
11
121.19
21
-78.8787
0
LINE
8
BLACK
6
CONTINUOUS
10
256.128
20
-78.8787
11
253.578
21
-78.8787
0
LINE
8
BLACK
6
CONTINUOUS
10
253.578
20
-78.8787
11
253.578
21
-76.3787
0
LINE
8
BLACK
6
CONTINUOUS
10
253.578
20
-76.3787
11
256.128
21
-76.3787
0
LINE
8
BLACK
6
CONTINUOUS
10
256.128
20
-76.3787
11
256.128
21
-78.8787
0
LINE
8
BLACK
6
CONTINUOUS
10
134.117
20
-76.3387
11
131.567
21
-76.3387
0
LINE
8
BLACK
6
CONTINUOUS
10
131.567
20
-76.3387
11
131.567
21
-73.8387
0
LINE
8
BLACK
6
CONTINUOUS
10
131.567
20
-73.8387
11
134.117
21
-73.8387
0
LINE
8
BLACK
6
CONTINUOUS
10
134.117
20
-73.8387
11
134.117
21
-76.3387
0
LINE
8
BLACK
6
CONTINUOUS
10
269.055
20
-76.3387
11
266.505
21
-76.3387
0
LINE
8
BLACK
6
CONTINUOUS
10
266.505
20
-76.3387
11
266.505
21
-73.8387
0
LINE
8
BLACK
6
CONTINUOUS
10
266.505
20
-73.8387
11
269.055
21
-73.8387
0
LINE
8
BLACK
6
CONTINUOUS
10
269.055
20
-73.8387
11
269.055
21
-76.3387
0
LINE
8
BLACK
6
CONTINUOUS
10
192.688
20
-71.95
11
191.487
21
-71.95
0
LINE
8
BLACK
6
CONTINUOUS
10
191.487
20
-71.95
11
191.487
21
-71.05
0
LINE
8
BLACK
6
CONTINUOUS
10
191.487
20
-71.05
11
192.688
21
-71.05
0
LINE
8
BLACK
6
CONTINUOUS
10
192.688
20
-71.05
11
192.688
21
-71.95
0
LINE
8
BLACK
6
CONTINUOUS
10
232.375
20
-71.95
11
231.175
21
-71.95
0
LINE
8
BLACK
6
CONTINUOUS
10
231.175
20
-71.95
11
231.175
21
-71.05
0
LINE
8
BLACK
6
CONTINUOUS
10
231.175
20
-71.05
11
232.375
21
-71.05
0
LINE
8
BLACK
6
CONTINUOUS
10
232.375
20
-71.05
11
232.375
21
-71.95
0
LINE
8
BLACK
6
CONTINUOUS
10
173.637
20
-71.95
11
172.438
21
-71.95
0
LINE
8
BLACK
6
CONTINUOUS
10
172.438
20
-71.95
11
172.438
21
-71.05
0
LINE
8
BLACK
6
CONTINUOUS
10
172.438
20
-71.05
11
173.637
21
-71.05
0
LINE
8
BLACK
6
CONTINUOUS
10
173.637
20
-71.05
11
173.637
21
-71.95
0
LINE
8
BLACK
6
CONTINUOUS
10
213.325
20
-71.95
11
212.125
21
-71.95
0
LINE
8
BLACK
6
CONTINUOUS
10
212.125
20
-71.95
11
212.125
21
-71.05
0
LINE
8
BLACK
6
CONTINUOUS
10
212.125
20
-71.05
11
213.325
21
-71.05
0
LINE
8
BLACK
6
CONTINUOUS
10
213.325
20
-71.05
11
213.325
21
-71.95
0
LINE
8
BLACK
6
CONTINUOUS
10
97.4375
20
-70.3625
11
96.2375
21
-70.3625
0
LINE
8
BLACK
6
CONTINUOUS
10
96.2375
20
-70.3625
11
96.2375
21
-69.4625
0
LINE
8
BLACK
6
CONTINUOUS
10
96.2375
20
-69.4625
11
97.4375
21
-69.4625
0
LINE
8
BLACK
6
CONTINUOUS
10
97.4375
20
-69.4625
11
97.4375
21
-70.3625
0
LINE
8
BLACK
6
CONTINUOUS
10
308.575
20
-70.3625
11
307.375
21
-70.3625
0
LINE
8
BLACK
6
CONTINUOUS
10
307.375
20
-70.3625
11
307.375
21
-69.4625
0
LINE
8
BLACK
6
CONTINUOUS
10
307.375
20
-69.4625
11
308.575
21
-69.4625
0
LINE
8
BLACK
6
CONTINUOUS
10
308.575
20
-69.4625
11
308.575
21
-70.3625
0
LINE
8
BLACK
6
CONTINUOUS
10
173.637
20
-68.65
11
172.438
21
-68.65
0
LINE
8
BLACK
6
CONTINUOUS
10
172.438
20
-68.65
11
172.438
21
-67.75
0
LINE
8
BLACK
6
CONTINUOUS
10
172.438
20
-67.75
11
173.637
21
-67.75
0
LINE
8
BLACK
6
CONTINUOUS
10
173.637
20
-67.75
11
173.637
21
-68.65
0
LINE
8
BLACK
6
CONTINUOUS
10
232.375
20
-68.65
11
231.175
21
-68.65
0
LINE
8
BLACK
6
CONTINUOUS
10
231.175
20
-68.65
11
231.175
21
-67.75
0
LINE
8
BLACK
6
CONTINUOUS
10
231.175
20
-67.75
11
232.375
21
-67.75
0
LINE
8
BLACK
6
CONTINUOUS
10
232.375
20
-67.75
11
232.375
21
-68.65
0
LINE
8
BLACK
6
CONTINUOUS
10
192.688
20
-68.65
11
191.487
21
-68.65
0
LINE
8
BLACK
6
CONTINUOUS
10
191.487
20
-68.65
11
191.487
21
-67.75
0
LINE
8
BLACK
6
CONTINUOUS
10
191.487
20
-67.75
11
192.688
21
-67.75
0
LINE
8
BLACK
6
CONTINUOUS
10
192.688
20
-67.75
11
192.688
21
-68.65
0
LINE
8
BLACK
6
CONTINUOUS
10
213.325
20
-68.65
11
212.125
21
-68.65
0
LINE
8
BLACK
6
CONTINUOUS
10
212.125
20
-68.65
11
212.125
21
-67.75
0
LINE
8
BLACK
6
CONTINUOUS
10
212.125
20
-67.75
11
213.325
21
-67.75
0
LINE
8
BLACK
6
CONTINUOUS
10
213.325
20
-67.75
11
213.325
21
-68.65
0
LINE
8
BLACK
6
CONTINUOUS
10
198.977
20
-68.56
11
196.427
21
-68.56
0
LINE
8
BLACK
6
CONTINUOUS
10
196.427
20
-68.56
11
196.427
21
-66.06
0
LINE
8
BLACK
6
CONTINUOUS
10
196.427
20
-66.06
11
198.977
21
-66.06
0
LINE
8
BLACK
6
CONTINUOUS
10
198.977
20
-66.06
11
198.977
21
-68.56
0
LINE
8
BLACK
6
CONTINUOUS
10
178.34
20
-68.56
11
175.79
21
-68.56
0
LINE
8
BLACK
6
CONTINUOUS
10
175.79
20
-68.56
11
175.79
21
-66.06
0
LINE
8
BLACK
6
CONTINUOUS
10
175.79
20
-66.06
11
178.34
21
-66.06
0
LINE
8
BLACK
6
CONTINUOUS
10
178.34
20
-66.06
11
178.34
21
-68.56
0
LINE
8
BLACK
6
CONTINUOUS
10
218.027
20
-68.56
11
215.477
21
-68.56
0
LINE
8
BLACK
6
CONTINUOUS
10
215.477
20
-68.56
11
215.477
21
-66.06
0
LINE
8
BLACK
6
CONTINUOUS
10
215.477
20
-66.06
11
218.027
21
-66.06
0
LINE
8
BLACK
6
CONTINUOUS
10
218.027
20
-66.06
11
218.027
21
-68.56
0
LINE
8
BLACK
6
CONTINUOUS
10
159.29
20
-68.56
11
156.74
21
-68.56
0
LINE
8
BLACK
6
CONTINUOUS
10
156.74
20
-68.56
11
156.74
21
-66.06
0
LINE
8
BLACK
6
CONTINUOUS
10
156.74
20
-66.06
11
159.29
21
-66.06
0
LINE
8
BLACK
6
CONTINUOUS
10
159.29
20
-66.06
11
159.29
21
-68.56
0
LINE
8
BLACK
6
CONTINUOUS
10
251.425
20
-67.1875
11
250.225
21
-67.1875
0
LINE
8
BLACK
6
CONTINUOUS
10
250.225
20
-67.1875
11
250.225
21
-66.2875
0
LINE
8
BLACK
6
CONTINUOUS
10
250.225
20
-66.2875
11
251.425
21
-66.2875
0
LINE
8
BLACK
6
CONTINUOUS
10
251.425
20
-66.2875
11
251.425
21
-67.1875
0
LINE
8
BLACK
6
CONTINUOUS
10
116.487
20
-67.1875
11
115.287
21
-67.1875
0
LINE
8
BLACK
6
CONTINUOUS
10
115.287
20
-67.1875
11
115.287
21
-66.2875
0
LINE
8
BLACK
6
CONTINUOUS
10
115.287
20
-66.2875
11
116.487
21
-66.2875
0
LINE
8
BLACK
6
CONTINUOUS
10
116.487
20
-66.2875
11
116.487
21
-67.1875
0
LINE
8
BLACK
6
CONTINUOUS
10
154.588
20
-67.1875
11
153.387
21
-67.1875
0
LINE
8
BLACK
6
CONTINUOUS
10
153.387
20
-67.1875
11
153.387
21
-66.2875
0
LINE
8
BLACK
6
CONTINUOUS
10
153.387
20
-66.2875
11
154.588
21
-66.2875
0
LINE
8
BLACK
6
CONTINUOUS
10
154.588
20
-66.2875
11
154.588
21
-67.1875
0
LINE
8
BLACK
6
CONTINUOUS
10
289.525
20
-67.1875
11
288.325
21
-67.1875
0
LINE
8
BLACK
6
CONTINUOUS
10
288.325
20
-67.1875
11
288.325
21
-66.2875
0
LINE
8
BLACK
6
CONTINUOUS
10
288.325
20
-66.2875
11
289.525
21
-66.2875
0
LINE
8
BLACK
6
CONTINUOUS
10
289.525
20
-66.2875
11
289.525
21
-67.1875
0
LINE
8
BLACK
6
CONTINUOUS
10
97.4375
20
-67.0625
11
96.2375
21
-67.0625
0
LINE
8
BLACK
6
CONTINUOUS
10
96.2375
20
-67.0625
11
96.2375
21
-66.1625
0
LINE
8
BLACK
6
CONTINUOUS
10
96.2375
20
-66.1625
11
97.4375
21
-66.1625
0
LINE
8
BLACK
6
CONTINUOUS
10
97.4375
20
-66.1625
11
97.4375
21
-67.0625
0
LINE
8
BLACK
6
CONTINUOUS
10
308.575
20
-67.0625
11
307.375
21
-67.0625
0
LINE
8
BLACK
6
CONTINUOUS
10
307.375
20
-67.0625
11
307.375
21
-66.1625
0
LINE
8
BLACK
6
CONTINUOUS
10
307.375
20
-66.1625
11
308.575
21
-66.1625
0
LINE
8
BLACK
6
CONTINUOUS
10
308.575
20
-66.1625
11
308.575
21
-67.0625
0
LINE
8
BLACK
6
CONTINUOUS
10
294.227
20
-66.9725
11
291.678
21
-66.9725
0
LINE
8
BLACK
6
CONTINUOUS
10
291.678
20
-66.9725
11
291.678
21
-64.4725
0
LINE
8
BLACK
6
CONTINUOUS
10
291.678
20
-64.4725
11
294.227
21
-64.4725
0
LINE
8
BLACK
6
CONTINUOUS
10
294.227
20
-64.4725
11
294.227
21
-66.9725
0
LINE
8
BLACK
6
CONTINUOUS
10
83.09
20
-66.9725
11
80.54
21
-66.9725
0
LINE
8
BLACK
6
CONTINUOUS
10
80.54
20
-66.9725
11
80.54
21
-64.4725
0
LINE
8
BLACK
6
CONTINUOUS
10
80.54
20
-64.4725
11
83.09
21
-64.4725
0
LINE
8
BLACK
6
CONTINUOUS
10
83.09
20
-64.4725
11
83.09
21
-66.9725
0
LINE
8
BLACK
6
CONTINUOUS
10
211.904
20
-66.02
11
209.355
21
-66.02
0
LINE
8
BLACK
6
CONTINUOUS
10
209.355
20
-66.02
11
209.355
21
-63.52
0
LINE
8
BLACK
6
CONTINUOUS
10
209.355
20
-63.52
11
211.904
21
-63.52
0
LINE
8
BLACK
6
CONTINUOUS
10
211.904
20
-63.52
11
211.904
21
-66.02
0
LINE
8
BLACK
6
CONTINUOUS
10
172.217
20
-66.02
11
169.667
21
-66.02
0
LINE
8
BLACK
6
CONTINUOUS
10
169.667
20
-66.02
11
169.667
21
-63.52
0
LINE
8
BLACK
6
CONTINUOUS
10
169.667
20
-63.52
11
172.217
21
-63.52
0
LINE
8
BLACK
6
CONTINUOUS
10
172.217
20
-63.52
11
172.217
21
-66.02
0
LINE
8
BLACK
6
CONTINUOUS
10
191.267
20
-66.02
11
188.717
21
-66.02
0
LINE
8
BLACK
6
CONTINUOUS
10
188.717
20
-66.02
11
188.717
21
-63.52
0
LINE
8
BLACK
6
CONTINUOUS
10
188.717
20
-63.52
11
191.267
21
-63.52
0
LINE
8
BLACK
6
CONTINUOUS
10
191.267
20
-63.52
11
191.267
21
-66.02
0
LINE
8
BLACK
6
CONTINUOUS
10
230.954
20
-66.02
11
228.404
21
-66.02
0
LINE
8
BLACK
6
CONTINUOUS
10
228.404
20
-66.02
11
228.404
21
-63.52
0
LINE
8
BLACK
6
CONTINUOUS
10
228.404
20
-63.52
11
230.954
21
-63.52
0
LINE
8
BLACK
6
CONTINUOUS
10
230.954
20
-63.52
11
230.954
21
-66.02
0
LINE
8
BLACK
6
CONTINUOUS
10
307.154
20
-64.4325
11
304.604
21
-64.4325
0
LINE
8
BLACK
6
CONTINUOUS
10
304.604
20
-64.4325
11
304.604
21
-61.9325
0
LINE
8
BLACK
6
CONTINUOUS
10
304.604
20
-61.9325
11
307.154
21
-61.9325
0
LINE
8
BLACK
6
CONTINUOUS
10
307.154
20
-61.9325
11
307.154
21
-64.4325
0
LINE
8
BLACK
6
CONTINUOUS
10
96.017
20
-64.4325
11
93.467
21
-64.4325
0
LINE
8
BLACK
6
CONTINUOUS
10
93.467
20
-64.4325
11
93.467
21
-61.9325
0
LINE
8
BLACK
6
CONTINUOUS
10
93.467
20
-61.9325
11
96.017
21
-61.9325
0
LINE
8
BLACK
6
CONTINUOUS
10
96.017
20
-61.9325
11
96.017
21
-64.4325
0
LINE
8
BLACK
6
CONTINUOUS
10
251.425
20
-63.8875
11
250.225
21
-63.8875
0
LINE
8
BLACK
6
CONTINUOUS
10
250.225
20
-63.8875
11
250.225
21
-62.9875
0
LINE
8
BLACK
6
CONTINUOUS
10
250.225
20
-62.9875
11
251.425
21
-62.9875
0
LINE
8
BLACK
6
CONTINUOUS
10
251.425
20
-62.9875
11
251.425
21
-63.8875
0
LINE
8
BLACK
6
CONTINUOUS
10
154.588
20
-63.8875
11
153.387
21
-63.8875
0
LINE
8
BLACK
6
CONTINUOUS
10
153.387
20
-63.8875
11
153.387
21
-62.9875
0
LINE
8
BLACK
6
CONTINUOUS
10
153.387
20
-62.9875
11
154.588
21
-62.9875
0
LINE
8
BLACK
6
CONTINUOUS
10
154.588
20
-62.9875
11
154.588
21
-63.8875
0
LINE
8
BLACK
6
CONTINUOUS
10
116.487
20
-63.8875
11
115.287
21
-63.8875
0
LINE
8
BLACK
6
CONTINUOUS
10
115.287
20
-63.8875
11
115.287
21
-62.9875
0
LINE
8
BLACK
6
CONTINUOUS
10
115.287
20
-62.9875
11
116.487
21
-62.9875
0
LINE
8
BLACK
6
CONTINUOUS
10
116.487
20
-62.9875
11
116.487
21
-63.8875
0
LINE
8
BLACK
6
CONTINUOUS
10
289.525
20
-63.8875
11
288.325
21
-63.8875
0
LINE
8
BLACK
6
CONTINUOUS
10
288.325
20
-63.8875
11
288.325
21
-62.9875
0
LINE
8
BLACK
6
CONTINUOUS
10
288.325
20
-62.9875
11
289.525
21
-62.9875
0
LINE
8
BLACK
6
CONTINUOUS
10
289.525
20
-62.9875
11
289.525
21
-63.8875
0
LINE
8
BLACK
6
CONTINUOUS
10
237.077
20
-63.7975
11
234.528
21
-63.7975
0
LINE
8
BLACK
6
CONTINUOUS
10
234.528
20
-63.7975
11
234.528
21
-61.2975
0
LINE
8
BLACK
6
CONTINUOUS
10
234.528
20
-61.2975
11
237.077
21
-61.2975
0
LINE
8
BLACK
6
CONTINUOUS
10
237.077
20
-61.2975
11
237.077
21
-63.7975
0
LINE
8
BLACK
6
CONTINUOUS
10
102.14
20
-63.7975
11
99.59
21
-63.7975
0
LINE
8
BLACK
6
CONTINUOUS
10
99.59
20
-63.7975
11
99.59
21
-61.2975
0
LINE
8
BLACK
6
CONTINUOUS
10
99.59
20
-61.2975
11
102.14
21
-61.2975
0
LINE
8
BLACK
6
CONTINUOUS
10
102.14
20
-61.2975
11
102.14
21
-63.7975
0
LINE
8
BLACK
6
CONTINUOUS
10
140.24
20
-63.7975
11
137.69
21
-63.7975
0
LINE
8
BLACK
6
CONTINUOUS
10
137.69
20
-63.7975
11
137.69
21
-61.2975
0
LINE
8
BLACK
6
CONTINUOUS
10
137.69
20
-61.2975
11
140.24
21
-61.2975
0
LINE
8
BLACK
6
CONTINUOUS
10
140.24
20
-61.2975
11
140.24
21
-63.7975
0
LINE
8
BLACK
6
CONTINUOUS
10
275.177
20
-63.7975
11
272.627
21
-63.7975
0
LINE
8
BLACK
6
CONTINUOUS
10
272.627
20
-63.7975
11
272.627
21
-61.2975
0
LINE
8
BLACK
6
CONTINUOUS
10
272.627
20
-61.2975
11
275.177
21
-61.2975
0
LINE
8
BLACK
6
CONTINUOUS
10
275.177
20
-61.2975
11
275.177
21
-63.7975
0
LINE
8
BLACK
6
CONTINUOUS
10
135.537
20
-63.2188
11
134.338
21
-63.2188
0
LINE
8
BLACK
6
CONTINUOUS
10
134.338
20
-63.2188
11
134.338
21
-62.3187
0
LINE
8
BLACK
6
CONTINUOUS
10
134.338
20
-62.3187
11
135.537
21
-62.3187
0
LINE
8
BLACK
6
CONTINUOUS
10
135.537
20
-62.3187
11
135.537
21
-63.2188
0
LINE
8
BLACK
6
CONTINUOUS
10
270.475
20
-63.2187
11
269.275
21
-63.2187
0
LINE
8
BLACK
6
CONTINUOUS
10
269.275
20
-63.2187
11
269.275
21
-62.3187
0
LINE
8
BLACK
6
CONTINUOUS
10
269.275
20
-62.3187
11
270.475
21
-62.3187
0
LINE
8
BLACK
6
CONTINUOUS
10
270.475
20
-62.3187
11
270.475
21
-63.2187
0
LINE
8
BLACK
6
CONTINUOUS
10
250.004
20
-61.2575
11
247.454
21
-61.2575
0
LINE
8
BLACK
6
CONTINUOUS
10
247.454
20
-61.2575
11
247.454
21
-58.7575
0
LINE
8
BLACK
6
CONTINUOUS
10
247.454
20
-58.7575
11
250.004
21
-58.7575
0
LINE
8
BLACK
6
CONTINUOUS
10
250.004
20
-58.7575
11
250.004
21
-61.2575
0
LINE
8
BLACK
6
CONTINUOUS
10
115.067
20
-61.2575
11
112.517
21
-61.2575
0
LINE
8
BLACK
6
CONTINUOUS
10
112.517
20
-61.2575
11
112.517
21
-58.7575
0
LINE
8
BLACK
6
CONTINUOUS
10
112.517
20
-58.7575
11
115.067
21
-58.7575
0
LINE
8
BLACK
6
CONTINUOUS
10
115.067
20
-58.7575
11
115.067
21
-61.2575
0
LINE
8
BLACK
6
CONTINUOUS
10
288.104
20
-61.2575
11
285.554
21
-61.2575
0
LINE
8
BLACK
6
CONTINUOUS
10
285.554
20
-61.2575
11
285.554
21
-58.7575
0
LINE
8
BLACK
6
CONTINUOUS
10
285.554
20
-58.7575
11
288.104
21
-58.7575
0
LINE
8
BLACK
6
CONTINUOUS
10
288.104
20
-58.7575
11
288.104
21
-61.2575
0
LINE
8
BLACK
6
CONTINUOUS
10
153.167
20
-61.2575
11
150.617
21
-61.2575
0
LINE
8
BLACK
6
CONTINUOUS
10
150.617
20
-61.2575
11
150.617
21
-58.7575
0
LINE
8
BLACK
6
CONTINUOUS
10
150.617
20
-58.7575
11
153.167
21
-58.7575
0
LINE
8
BLACK
6
CONTINUOUS
10
153.167
20
-58.7575
11
153.167
21
-61.2575
0
LINE
8
BLACK
6
CONTINUOUS
10
135.537
20
-59.9187
11
134.338
21
-59.9187
0
LINE
8
BLACK
6
CONTINUOUS
10
134.338
20
-59.9187
11
134.338
21
-59.0187
0
LINE
8
BLACK
6
CONTINUOUS
10
134.338
20
-59.0187
11
135.537
21
-59.0187
0
LINE
8
BLACK
6
CONTINUOUS
10
135.537
20
-59.0187
11
135.537
21
-59.9187
0
LINE
8
BLACK
6
CONTINUOUS
10
270.475
20
-59.9187
11
269.275
21
-59.9187
0
LINE
8
BLACK
6
CONTINUOUS
10
269.275
20
-59.9187
11
269.275
21
-59.0187
0
LINE
8
BLACK
6
CONTINUOUS
10
269.275
20
-59.0187
11
270.475
21
-59.0187
0
LINE
8
BLACK
6
CONTINUOUS
10
270.475
20
-59.0187
11
270.475
21
-59.9187
0
LINE
8
BLACK
6
CONTINUOUS
10
256.127
20
-59.8288
11
253.577
21
-59.8288
0
LINE
8
BLACK
6
CONTINUOUS
10
253.577
20
-59.8288
11
253.577
21
-57.3288
0
LINE
8
BLACK
6
CONTINUOUS
10
253.577
20
-57.3288
11
256.127
21
-57.3288
0
LINE
8
BLACK
6
CONTINUOUS
10
256.127
20
-57.3288
11
256.127
21
-59.8288
0
LINE
8
BLACK
6
CONTINUOUS
10
121.19
20
-59.8287
11
118.64
21
-59.8287
0
LINE
8
BLACK
6
CONTINUOUS
10
118.64
20
-59.8287
11
118.64
21
-57.3287
0
LINE
8
BLACK
6
CONTINUOUS
10
118.64
20
-57.3287
11
121.19
21
-57.3287
0
LINE
8
BLACK
6
CONTINUOUS
10
121.19
20
-57.3287
11
121.19
21
-59.8287
0
LINE
8
BLACK
6
CONTINUOUS
10
269.054
20
-57.2888
11
266.505
21
-57.2888
0
LINE
8
BLACK
6
CONTINUOUS
10
266.505
20
-57.2888
11
266.505
21
-54.7888
0
LINE
8
BLACK
6
CONTINUOUS
10
266.505
20
-54.7888
11
269.054
21
-54.7888
0
LINE
8
BLACK
6
CONTINUOUS
10
269.054
20
-54.7888
11
269.054
21
-57.2888
0
LINE
8
BLACK
6
CONTINUOUS
10
134.117
20
-57.2888
11
131.567
21
-57.2888
0
LINE
8
BLACK
6
CONTINUOUS
10
131.567
20
-57.2888
11
131.567
21
-54.7888
0
LINE
8
BLACK
6
CONTINUOUS
10
131.567
20
-54.7888
11
134.117
21
-54.7888
0
LINE
8
BLACK
6
CONTINUOUS
10
134.117
20
-54.7888
11
134.117
21
-57.2888
0
LINE
8
BLACK
6
CONTINUOUS
10
213.325
20
-52.9
11
212.125
21
-52.9
0
LINE
8
BLACK
6
CONTINUOUS
10
212.125
20
-52.9
11
212.125
21
-52
0
LINE
8
BLACK
6
CONTINUOUS
10
212.125
20
-52
11
213.325
21
-52
0
LINE
8
BLACK
6
CONTINUOUS
10
213.325
20
-52
11
213.325
21
-52.9
0
LINE
8
BLACK
6
CONTINUOUS
10
192.688
20
-52.9
11
191.487
21
-52.9
0
LINE
8
BLACK
6
CONTINUOUS
10
191.487
20
-52.9
11
191.487
21
-52
0
LINE
8
BLACK
6
CONTINUOUS
10
191.487
20
-52
11
192.688
21
-52
0
LINE
8
BLACK
6
CONTINUOUS
10
192.688
20
-52
11
192.688
21
-52.9
0
LINE
8
BLACK
6
CONTINUOUS
10
232.375
20
-52.9
11
231.175
21
-52.9
0
LINE
8
BLACK
6
CONTINUOUS
10
231.175
20
-52.9
11
231.175
21
-52
0
LINE
8
BLACK
6
CONTINUOUS
10
231.175
20
-52
11
232.375
21
-52
0
LINE
8
BLACK
6
CONTINUOUS
10
232.375
20
-52
11
232.375
21
-52.9
0
LINE
8
BLACK
6
CONTINUOUS
10
173.637
20
-52.9
11
172.438
21
-52.9
0
LINE
8
BLACK
6
CONTINUOUS
10
172.438
20
-52.9
11
172.438
21
-52
0
LINE
8
BLACK
6
CONTINUOUS
10
172.438
20
-52
11
173.637
21
-52
0
LINE
8
BLACK
6
CONTINUOUS
10
173.637
20
-52
11
173.637
21
-52.9
0
LINE
8
BLACK
6
CONTINUOUS
10
308.575
20
-51.3125
11
307.375
21
-51.3125
0
LINE
8
BLACK
6
CONTINUOUS
10
307.375
20
-51.3125
11
307.375
21
-50.4125
0
LINE
8
BLACK
6
CONTINUOUS
10
307.375
20
-50.4125
11
308.575
21
-50.4125
0
LINE
8
BLACK
6
CONTINUOUS
10
308.575
20
-50.4125
11
308.575
21
-51.3125
0
LINE
8
BLACK
6
CONTINUOUS
10
97.4375
20
-51.3125
11
96.2375
21
-51.3125
0
LINE
8
BLACK
6
CONTINUOUS
10
96.2375
20
-51.3125
11
96.2375
21
-50.4125
0
LINE
8
BLACK
6
CONTINUOUS
10
96.2375
20
-50.4125
11
97.4375
21
-50.4125
0
LINE
8
BLACK
6
CONTINUOUS
10
97.4375
20
-50.4125
11
97.4375
21
-51.3125
0
LINE
8
BLACK
6
CONTINUOUS
10
232.375
20
-49.6
11
231.175
21
-49.6
0
LINE
8
BLACK
6
CONTINUOUS
10
231.175
20
-49.6
11
231.175
21
-48.7
0
LINE
8
BLACK
6
CONTINUOUS
10
231.175
20
-48.7
11
232.375
21
-48.7
0
LINE
8
BLACK
6
CONTINUOUS
10
232.375
20
-48.7
11
232.375
21
-49.6
0
LINE
8
BLACK
6
CONTINUOUS
10
213.325
20
-49.6
11
212.125
21
-49.6
0
LINE
8
BLACK
6
CONTINUOUS
10
212.125
20
-49.6
11
212.125
21
-48.7
0
LINE
8
BLACK
6
CONTINUOUS
10
212.125
20
-48.7
11
213.325
21
-48.7
0
LINE
8
BLACK
6
CONTINUOUS
10
213.325
20
-48.7
11
213.325
21
-49.6
0
LINE
8
BLACK
6
CONTINUOUS
10
173.637
20
-49.6
11
172.438
21
-49.6
0
LINE
8
BLACK
6
CONTINUOUS
10
172.438
20
-49.6
11
172.438
21
-48.7
0
LINE
8
BLACK
6
CONTINUOUS
10
172.438
20
-48.7
11
173.637
21
-48.7
0
LINE
8
BLACK
6
CONTINUOUS
10
173.637
20
-48.7
11
173.637
21
-49.6
0
LINE
8
BLACK
6
CONTINUOUS
10
192.688
20
-49.6
11
191.487
21
-49.6
0
LINE
8
BLACK
6
CONTINUOUS
10
191.487
20
-49.6
11
191.487
21
-48.7
0
LINE
8
BLACK
6
CONTINUOUS
10
191.487
20
-48.7
11
192.688
21
-48.7
0
LINE
8
BLACK
6
CONTINUOUS
10
192.688
20
-48.7
11
192.688
21
-49.6
0
LINE
8
BLACK
6
CONTINUOUS
10
198.977
20
-49.51
11
196.427
21
-49.51
0
LINE
8
BLACK
6
CONTINUOUS
10
196.427
20
-49.51
11
196.427
21
-47.01
0
LINE
8
BLACK
6
CONTINUOUS
10
196.427
20
-47.01
11
198.977
21
-47.01
0
LINE
8
BLACK
6
CONTINUOUS
10
198.977
20
-47.01
11
198.977
21
-49.51
0
LINE
8
BLACK
6
CONTINUOUS
10
178.34
20
-49.51
11
175.79
21
-49.51
0
LINE
8
BLACK
6
CONTINUOUS
10
175.79
20
-49.51
11
175.79
21
-47.01
0
LINE
8
BLACK
6
CONTINUOUS
10
175.79
20
-47.01
11
178.34
21
-47.01
0
LINE
8
BLACK
6
CONTINUOUS
10
178.34
20
-47.01
11
178.34
21
-49.51
0
LINE
8
BLACK
6
CONTINUOUS
10
159.29
20
-49.51
11
156.74
21
-49.51
0
LINE
8
BLACK
6
CONTINUOUS
10
156.74
20
-49.51
11
156.74
21
-47.01
0
LINE
8
BLACK
6
CONTINUOUS
10
156.74
20
-47.01
11
159.29
21
-47.01
0
LINE
8
BLACK
6
CONTINUOUS
10
159.29
20
-47.01
11
159.29
21
-49.51
0
LINE
8
BLACK
6
CONTINUOUS
10
218.028
20
-49.51
11
215.477
21
-49.51
0
LINE
8
BLACK
6
CONTINUOUS
10
215.477
20
-49.51
11
215.477
21
-47.01
0
LINE
8
BLACK
6
CONTINUOUS
10
215.477
20
-47.01
11
218.028
21
-47.01
0
LINE
8
BLACK
6
CONTINUOUS
10
218.028
20
-47.01
11
218.028
21
-49.51
0
LINE
8
BLACK
6
CONTINUOUS
10
116.487
20
-48.1375
11
115.287
21
-48.1375
0
LINE
8
BLACK
6
CONTINUOUS
10
115.287
20
-48.1375
11
115.287
21
-47.2375
0
LINE
8
BLACK
6
CONTINUOUS
10
115.287
20
-47.2375
11
116.487
21
-47.2375
0
LINE
8
BLACK
6
CONTINUOUS
10
116.487
20
-47.2375
11
116.487
21
-48.1375
0
LINE
8
BLACK
6
CONTINUOUS
10
154.588
20
-48.1375
11
153.387
21
-48.1375
0
LINE
8
BLACK
6
CONTINUOUS
10
153.387
20
-48.1375
11
153.387
21
-47.2375
0
LINE
8
BLACK
6
CONTINUOUS
10
153.387
20
-47.2375
11
154.588
21
-47.2375
0
LINE
8
BLACK
6
CONTINUOUS
10
154.588
20
-47.2375
11
154.588
21
-48.1375
0
LINE
8
BLACK
6
CONTINUOUS
10
251.425
20
-48.1375
11
250.225
21
-48.1375
0
LINE
8
BLACK
6
CONTINUOUS
10
250.225
20
-48.1375
11
250.225
21
-47.2375
0
LINE
8
BLACK
6
CONTINUOUS
10
250.225
20
-47.2375
11
251.425
21
-47.2375
0
LINE
8
BLACK
6
CONTINUOUS
10
251.425
20
-47.2375
11
251.425
21
-48.1375
0
LINE
8
BLACK
6
CONTINUOUS
10
289.525
20
-48.1375
11
288.325
21
-48.1375
0
LINE
8
BLACK
6
CONTINUOUS
10
288.325
20
-48.1375
11
288.325
21
-47.2375
0
LINE
8
BLACK
6
CONTINUOUS
10
288.325
20
-47.2375
11
289.525
21
-47.2375
0
LINE
8
BLACK
6
CONTINUOUS
10
289.525
20
-47.2375
11
289.525
21
-48.1375
0
LINE
8
BLACK
6
CONTINUOUS
10
308.575
20
-48.0125
11
307.375
21
-48.0125
0
LINE
8
BLACK
6
CONTINUOUS
10
307.375
20
-48.0125
11
307.375
21
-47.1125
0
LINE
8
BLACK
6
CONTINUOUS
10
307.375
20
-47.1125
11
308.575
21
-47.1125
0
LINE
8
BLACK
6
CONTINUOUS
10
308.575
20
-47.1125
11
308.575
21
-48.0125
0
LINE
8
BLACK
6
CONTINUOUS
10
97.4375
20
-48.0125
11
96.2375
21
-48.0125
0
LINE
8
BLACK
6
CONTINUOUS
10
96.2375
20
-48.0125
11
96.2375
21
-47.1125
0
LINE
8
BLACK
6
CONTINUOUS
10
96.2375
20
-47.1125
11
97.4375
21
-47.1125
0
LINE
8
BLACK
6
CONTINUOUS
10
97.4375
20
-47.1125
11
97.4375
21
-48.0125
0
LINE
8
BLACK
6
CONTINUOUS
10
83.09
20
-47.9225
11
80.54
21
-47.9225
0
LINE
8
BLACK
6
CONTINUOUS
10
80.54
20
-47.9225
11
80.54
21
-45.4225
0
LINE
8
BLACK
6
CONTINUOUS
10
80.54
20
-45.4225
11
83.09
21
-45.4225
0
LINE
8
BLACK
6
CONTINUOUS
10
83.09
20
-45.4225
11
83.09
21
-47.9225
0
LINE
8
BLACK
6
CONTINUOUS
10
294.228
20
-47.9225
11
291.678
21
-47.9225
0
LINE
8
BLACK
6
CONTINUOUS
10
291.678
20
-47.9225
11
291.678
21
-45.4225
0
LINE
8
BLACK
6
CONTINUOUS
10
291.678
20
-45.4225
11
294.228
21
-45.4225
0
LINE
8
BLACK
6
CONTINUOUS
10
294.228
20
-45.4225
11
294.228
21
-47.9225
0
LINE
8
BLACK
6
CONTINUOUS
10
172.217
20
-46.97
11
169.667
21
-46.97
0
LINE
8
BLACK
6
CONTINUOUS
10
169.667
20
-46.97
11
169.667
21
-44.47
0
LINE
8
BLACK
6
CONTINUOUS
10
169.667
20
-44.47
11
172.217
21
-44.47
0
LINE
8
BLACK
6
CONTINUOUS
10
172.217
20
-44.47
11
172.217
21
-46.97
0
LINE
8
BLACK
6
CONTINUOUS
10
191.267
20
-46.97
11
188.717
21
-46.97
0
LINE
8
BLACK
6
CONTINUOUS
10
188.717
20
-46.97
11
188.717
21
-44.47
0
LINE
8
BLACK
6
CONTINUOUS
10
188.717
20
-44.47
11
191.267
21
-44.47
0
LINE
8
BLACK
6
CONTINUOUS
10
191.267
20
-44.47
11
191.267
21
-46.97
0
LINE
8
BLACK
6
CONTINUOUS
10
211.904
20
-46.97
11
209.355
21
-46.97
0
LINE
8
BLACK
6
CONTINUOUS
10
209.355
20
-46.97
11
209.355
21
-44.47
0
LINE
8
BLACK
6
CONTINUOUS
10
209.355
20
-44.47
11
211.904
21
-44.47
0
LINE
8
BLACK
6
CONTINUOUS
10
211.904
20
-44.47
11
211.904
21
-46.97
0
LINE
8
BLACK
6
CONTINUOUS
10
230.954
20
-46.97
11
228.404
21
-46.97
0
LINE
8
BLACK
6
CONTINUOUS
10
228.404
20
-46.97
11
228.404
21
-44.47
0
LINE
8
BLACK
6
CONTINUOUS
10
228.404
20
-44.47
11
230.954
21
-44.47
0
LINE
8
BLACK
6
CONTINUOUS
10
230.954
20
-44.47
11
230.954
21
-46.97
0
LINE
8
BLACK
6
CONTINUOUS
10
307.155
20
-45.3825
11
304.605
21
-45.3825
0
LINE
8
BLACK
6
CONTINUOUS
10
304.605
20
-45.3825
11
304.605
21
-42.8825
0
LINE
8
BLACK
6
CONTINUOUS
10
304.605
20
-42.8825
11
307.155
21
-42.8825
0
LINE
8
BLACK
6
CONTINUOUS
10
307.155
20
-42.8825
11
307.155
21
-45.3825
0
LINE
8
BLACK
6
CONTINUOUS
10
96.017
20
-45.3825
11
93.467
21
-45.3825
0
LINE
8
BLACK
6
CONTINUOUS
10
93.467
20
-45.3825
11
93.467
21
-42.8825
0
LINE
8
BLACK
6
CONTINUOUS
10
93.467
20
-42.8825
11
96.017
21
-42.8825
0
LINE
8
BLACK
6
CONTINUOUS
10
96.017
20
-42.8825
11
96.017
21
-45.3825
0
LINE
8
BLACK
6
CONTINUOUS
10
251.425
20
-44.8375
11
250.225
21
-44.8375
0
LINE
8
BLACK
6
CONTINUOUS
10
250.225
20
-44.8375
11
250.225
21
-43.9375
0
LINE
8
BLACK
6
CONTINUOUS
10
250.225
20
-43.9375
11
251.425
21
-43.9375
0
LINE
8
BLACK
6
CONTINUOUS
10
251.425
20
-43.9375
11
251.425
21
-44.8375
0
LINE
8
BLACK
6
CONTINUOUS
10
154.588
20
-44.8375
11
153.387
21
-44.8375
0
LINE
8
BLACK
6
CONTINUOUS
10
153.387
20
-44.8375
11
153.387
21
-43.9375
0
LINE
8
BLACK
6
CONTINUOUS
10
153.387
20
-43.9375
11
154.588
21
-43.9375
0
LINE
8
BLACK
6
CONTINUOUS
10
154.588
20
-43.9375
11
154.588
21
-44.8375
0
LINE
8
BLACK
6
CONTINUOUS
10
116.487
20
-44.8375
11
115.287
21
-44.8375
0
LINE
8
BLACK
6
CONTINUOUS
10
115.287
20
-44.8375
11
115.287
21
-43.9375
0
LINE
8
BLACK
6
CONTINUOUS
10
115.287
20
-43.9375
11
116.487
21
-43.9375
0
LINE
8
BLACK
6
CONTINUOUS
10
116.487
20
-43.9375
11
116.487
21
-44.8375
0
LINE
8
BLACK
6
CONTINUOUS
10
289.525
20
-44.8375
11
288.325
21
-44.8375
0
LINE
8
BLACK
6
CONTINUOUS
10
288.325
20
-44.8375
11
288.325
21
-43.9375
0
LINE
8
BLACK
6
CONTINUOUS
10
288.325
20
-43.9375
11
289.525
21
-43.9375
0
LINE
8
BLACK
6
CONTINUOUS
10
289.525
20
-43.9375
11
289.525
21
-44.8375
0
LINE
8
BLACK
6
CONTINUOUS
10
237.077
20
-44.7475
11
234.528
21
-44.7475
0
LINE
8
BLACK
6
CONTINUOUS
10
234.528
20
-44.7475
11
234.528
21
-42.2475
0
LINE
8
BLACK
6
CONTINUOUS
10
234.528
20
-42.2475
11
237.077
21
-42.2475
0
LINE
8
BLACK
6
CONTINUOUS
10
237.077
20
-42.2475
11
237.077
21
-44.7475
0
LINE
8
BLACK
6
CONTINUOUS
10
275.177
20
-44.7475
11
272.627
21
-44.7475
0
LINE
8
BLACK
6
CONTINUOUS
10
272.627
20
-44.7475
11
272.627
21
-42.2475
0
LINE
8
BLACK
6
CONTINUOUS
10
272.627
20
-42.2475
11
275.177
21
-42.2475
0
LINE
8
BLACK
6
CONTINUOUS
10
275.177
20
-42.2475
11
275.177
21
-44.7475
0
LINE
8
BLACK
6
CONTINUOUS
10
140.24
20
-44.7475
11
137.69
21
-44.7475
0
LINE
8
BLACK
6
CONTINUOUS
10
137.69
20
-44.7475
11
137.69
21
-42.2475
0
LINE
8
BLACK
6
CONTINUOUS
10
137.69
20
-42.2475
11
140.24
21
-42.2475
0
LINE
8
BLACK
6
CONTINUOUS
10
140.24
20
-42.2475
11
140.24
21
-44.7475
0
LINE
8
BLACK
6
CONTINUOUS
10
102.14
20
-44.7475
11
99.59
21
-44.7475
0
LINE
8
BLACK
6
CONTINUOUS
10
99.59
20
-44.7475
11
99.59
21
-42.2475
0
LINE
8
BLACK
6
CONTINUOUS
10
99.59
20
-42.2475
11
102.14
21
-42.2475
0
LINE
8
BLACK
6
CONTINUOUS
10
102.14
20
-42.2475
11
102.14
21
-44.7475
0
LINE
8
BLACK
6
CONTINUOUS
10
270.475
20
-44.1688
11
269.275
21
-44.1688
0
LINE
8
BLACK
6
CONTINUOUS
10
269.275
20
-44.1688
11
269.275
21
-43.2688
0
LINE
8
BLACK
6
CONTINUOUS
10
269.275
20
-43.2688
11
270.475
21
-43.2688
0
LINE
8
BLACK
6
CONTINUOUS
10
270.475
20
-43.2688
11
270.475
21
-44.1688
0
LINE
8
BLACK
6
CONTINUOUS
10
135.537
20
-44.1687
11
134.338
21
-44.1687
0
LINE
8
BLACK
6
CONTINUOUS
10
134.338
20
-44.1687
11
134.338
21
-43.2687
0
LINE
8
BLACK
6
CONTINUOUS
10
134.338
20
-43.2687
11
135.537
21
-43.2687
0
LINE
8
BLACK
6
CONTINUOUS
10
135.537
20
-43.2687
11
135.537
21
-44.1687
0
LINE
8
BLACK
6
CONTINUOUS
10
250.004
20
-42.2075
11
247.454
21
-42.2075
0
LINE
8
BLACK
6
CONTINUOUS
10
247.454
20
-42.2075
11
247.454
21
-39.7075
0
LINE
8
BLACK
6
CONTINUOUS
10
247.454
20
-39.7075
11
250.004
21
-39.7075
0
LINE
8
BLACK
6
CONTINUOUS
10
250.004
20
-39.7075
11
250.004
21
-42.2075
0
LINE
8
BLACK
6
CONTINUOUS
10
288.104
20
-42.2075
11
285.554
21
-42.2075
0
LINE
8
BLACK
6
CONTINUOUS
10
285.554
20
-42.2075
11
285.554
21
-39.7075
0
LINE
8
BLACK
6
CONTINUOUS
10
285.554
20
-39.7075
11
288.104
21
-39.7075
0
LINE
8
BLACK
6
CONTINUOUS
10
288.104
20
-39.7075
11
288.104
21
-42.2075
0
LINE
8
BLACK
6
CONTINUOUS
10
115.067
20
-42.2075
11
112.517
21
-42.2075
0
LINE
8
BLACK
6
CONTINUOUS
10
112.517
20
-42.2075
11
112.517
21
-39.7075
0
LINE
8
BLACK
6
CONTINUOUS
10
112.517
20
-39.7075
11
115.067
21
-39.7075
0
LINE
8
BLACK
6
CONTINUOUS
10
115.067
20
-39.7075
11
115.067
21
-42.2075
0
LINE
8
BLACK
6
CONTINUOUS
10
153.167
20
-42.2075
11
150.617
21
-42.2075
0
LINE
8
BLACK
6
CONTINUOUS
10
150.617
20
-42.2075
11
150.617
21
-39.7075
0
LINE
8
BLACK
6
CONTINUOUS
10
150.617
20
-39.7075
11
153.167
21
-39.7075
0
LINE
8
BLACK
6
CONTINUOUS
10
153.167
20
-39.7075
11
153.167
21
-42.2075
0
LINE
8
BLACK
6
CONTINUOUS
10
270.475
20
-40.8688
11
269.275
21
-40.8688
0
LINE
8
BLACK
6
CONTINUOUS
10
269.275
20
-40.8688
11
269.275
21
-39.9688
0
LINE
8
BLACK
6
CONTINUOUS
10
269.275
20
-39.9688
11
270.475
21
-39.9688
0
LINE
8
BLACK
6
CONTINUOUS
10
270.475
20
-39.9688
11
270.475
21
-40.8688
0
LINE
8
BLACK
6
CONTINUOUS
10
135.537
20
-40.8687
11
134.338
21
-40.8687
0
LINE
8
BLACK
6
CONTINUOUS
10
134.338
20
-40.8687
11
134.338
21
-39.9688
0
LINE
8
BLACK
6
CONTINUOUS
10
134.338
20
-39.9688
11
135.537
21
-39.9688
0
LINE
8
BLACK
6
CONTINUOUS
10
135.537
20
-39.9688
11
135.537
21
-40.8687
0
LINE
8
BLACK
6
CONTINUOUS
10
121.19
20
-40.7787
11
118.64
21
-40.7787
0
LINE
8
BLACK
6
CONTINUOUS
10
118.64
20
-40.7787
11
118.64
21
-38.2787
0
LINE
8
BLACK
6
CONTINUOUS
10
118.64
20
-38.2787
11
121.19
21
-38.2787
0
LINE
8
BLACK
6
CONTINUOUS
10
121.19
20
-38.2787
11
121.19
21
-40.7787
0
LINE
8
BLACK
6
CONTINUOUS
10
256.128
20
-40.7787
11
253.578
21
-40.7787
0
LINE
8
BLACK
6
CONTINUOUS
10
253.578
20
-40.7787
11
253.578
21
-38.2787
0
LINE
8
BLACK
6
CONTINUOUS
10
253.578
20
-38.2787
11
256.128
21
-38.2787
0
LINE
8
BLACK
6
CONTINUOUS
10
256.128
20
-38.2787
11
256.128
21
-40.7787
0
LINE
8
BLACK
6
CONTINUOUS
10
269.055
20
-38.2387
11
266.505
21
-38.2387
0
LINE
8
BLACK
6
CONTINUOUS
10
266.505
20
-38.2387
11
266.505
21
-35.7387
0
LINE
8
BLACK
6
CONTINUOUS
10
266.505
20
-35.7387
11
269.055
21
-35.7387
0
LINE
8
BLACK
6
CONTINUOUS
10
269.055
20
-35.7387
11
269.055
21
-38.2387
0
LINE
8
BLACK
6
CONTINUOUS
10
134.117
20
-38.2387
11
131.567
21
-38.2387
0
LINE
8
BLACK
6
CONTINUOUS
10
131.567
20
-38.2387
11
131.567
21
-35.7387
0
LINE
8
BLACK
6
CONTINUOUS
10
131.567
20
-35.7387
11
134.117
21
-35.7387
0
LINE
8
BLACK
6
CONTINUOUS
10
134.117
20
-35.7387
11
134.117
21
-38.2387
  0
ENDSEC
  0
EOF
